%TF.GenerationSoftware,KiCad,Pcbnew,10.0.4*%
%TF.CreationDate,2026-06-22T23:07:52-07:00*%
%TF.ProjectId,Capstone,43617073-746f-46e6-952e-6b696361645f,rev?*%
%TF.SameCoordinates,Original*%
%TF.FileFunction,Soldermask,Top*%
%TF.FilePolarity,Negative*%
%FSLAX46Y46*%
G04 Gerber Fmt 4.6, Leading zero omitted, Abs format (unit mm)*
G04 Created by KiCad (PCBNEW 10.0.4) date 2026-06-22 23:07:52*
%MOMM*%
%LPD*%
G01*
G04 APERTURE LIST*
G04 Aperture macros list*
%AMRoundRect*
0 Rectangle with rounded corners*
0 $1 Rounding radius*
0 $2 $3 $4 $5 $6 $7 $8 $9 X,Y pos of 4 corners*
0 Add a 4 corners polygon primitive as box body*
4,1,4,$2,$3,$4,$5,$6,$7,$8,$9,$2,$3,0*
0 Add four circle primitives for the rounded corners*
1,1,$1+$1,$2,$3*
1,1,$1+$1,$4,$5*
1,1,$1+$1,$6,$7*
1,1,$1+$1,$8,$9*
0 Add four rect primitives between the rounded corners*
20,1,$1+$1,$2,$3,$4,$5,0*
20,1,$1+$1,$4,$5,$6,$7,0*
20,1,$1+$1,$6,$7,$8,$9,0*
20,1,$1+$1,$8,$9,$2,$3,0*%
G04 Aperture macros list end*
%ADD10RoundRect,0.200000X0.275000X-0.200000X0.275000X0.200000X-0.275000X0.200000X-0.275000X-0.200000X0*%
%ADD11RoundRect,0.250000X0.450000X0.275000X-0.450000X0.275000X-0.450000X-0.275000X0.450000X-0.275000X0*%
%ADD12RoundRect,0.200000X-0.200000X-0.275000X0.200000X-0.275000X0.200000X0.275000X-0.200000X0.275000X0*%
%ADD13RoundRect,0.225000X-0.225000X-0.250000X0.225000X-0.250000X0.225000X0.250000X-0.225000X0.250000X0*%
%ADD14RoundRect,0.150000X-0.150000X0.512500X-0.150000X-0.512500X0.150000X-0.512500X0.150000X0.512500X0*%
%ADD15RoundRect,0.200000X-0.275000X0.200000X-0.275000X-0.200000X0.275000X-0.200000X0.275000X0.200000X0*%
%ADD16RoundRect,0.225000X0.250000X-0.225000X0.250000X0.225000X-0.250000X0.225000X-0.250000X-0.225000X0*%
%ADD17RoundRect,0.225000X0.225000X0.250000X-0.225000X0.250000X-0.225000X-0.250000X0.225000X-0.250000X0*%
%ADD18RoundRect,0.125000X-0.687500X-0.125000X0.687500X-0.125000X0.687500X0.125000X-0.687500X0.125000X0*%
%ADD19RoundRect,0.075000X0.650000X0.075000X-0.650000X0.075000X-0.650000X-0.075000X0.650000X-0.075000X0*%
%ADD20C,5.600000*%
%ADD21R,1.500000X0.900000*%
%ADD22R,0.900000X1.500000*%
%ADD23C,0.600000*%
%ADD24R,3.900000X3.900000*%
%ADD25RoundRect,0.218750X-0.218750X-0.256250X0.218750X-0.256250X0.218750X0.256250X-0.218750X0.256250X0*%
%ADD26RoundRect,0.075000X-0.650000X-0.075000X0.650000X-0.075000X0.650000X0.075000X-0.650000X0.075000X0*%
%ADD27RoundRect,0.218750X0.218750X0.256250X-0.218750X0.256250X-0.218750X-0.256250X0.218750X-0.256250X0*%
%ADD28RoundRect,0.225000X-0.250000X0.225000X-0.250000X-0.225000X0.250000X-0.225000X0.250000X0.225000X0*%
%ADD29R,1.700000X1.700000*%
%ADD30C,1.700000*%
%ADD31R,0.533400X0.304800*%
%ADD32R,0.304800X0.533400*%
%ADD33RoundRect,0.200000X0.200000X0.275000X-0.200000X0.275000X-0.200000X-0.275000X0.200000X-0.275000X0*%
%ADD34RoundRect,0.125000X-0.125000X-0.125000X0.125000X-0.125000X0.125000X0.125000X-0.125000X0.125000X0*%
%ADD35C,0.650000*%
%ADD36RoundRect,0.150000X-0.150000X-0.425000X0.150000X-0.425000X0.150000X0.425000X-0.150000X0.425000X0*%
%ADD37RoundRect,0.075000X-0.075000X-0.500000X0.075000X-0.500000X0.075000X0.500000X-0.075000X0.500000X0*%
%ADD38O,1.000000X2.100000*%
%ADD39O,1.000000X1.800000*%
G04 APERTURE END LIST*
D10*
%TO.C,R3*%
X151750000Y-115575000D03*
X151750000Y-113925000D03*
%TD*%
D11*
%TO.C,SW2*%
X123050000Y-77545000D03*
X119450000Y-77545000D03*
X123050000Y-76105000D03*
X119450000Y-76105000D03*
%TD*%
D12*
%TO.C,R39*%
X179925000Y-96500000D03*
X181575000Y-96500000D03*
%TD*%
D13*
%TO.C,C19*%
X124500000Y-114000000D03*
X126050000Y-114000000D03*
%TD*%
D14*
%TO.C,U3*%
X138700000Y-109612500D03*
X137750000Y-109612500D03*
X136800000Y-109612500D03*
X136800000Y-111887500D03*
X138700000Y-111887500D03*
%TD*%
D15*
%TO.C,R9*%
X136750000Y-85925000D03*
X136750000Y-87575000D03*
%TD*%
D16*
%TO.C,C12*%
X170500000Y-99775000D03*
X170500000Y-98225000D03*
%TD*%
D15*
%TO.C,R33*%
X156000000Y-103175000D03*
X156000000Y-104825000D03*
%TD*%
D12*
%TO.C,R17*%
X119175000Y-112000000D03*
X120825000Y-112000000D03*
%TD*%
D15*
%TO.C,R1*%
X135250000Y-107175000D03*
X135250000Y-108825000D03*
%TD*%
D17*
%TO.C,C5*%
X138525000Y-107750000D03*
X136975000Y-107750000D03*
%TD*%
D12*
%TO.C,R25*%
X179175000Y-82500000D03*
X180825000Y-82500000D03*
%TD*%
D18*
%TO.C,U9*%
X177887500Y-114025000D03*
X177887500Y-114675000D03*
X177887500Y-115325000D03*
X177887500Y-115975000D03*
X182112500Y-115975000D03*
X182112500Y-115325000D03*
X182112500Y-114675000D03*
X182112500Y-114025000D03*
%TD*%
D19*
%TO.C,U1*%
X176650000Y-101000000D03*
X176650000Y-100500000D03*
X176650000Y-100000000D03*
X176650000Y-99500000D03*
X176650000Y-99000000D03*
X172350000Y-99000000D03*
X172350000Y-99500000D03*
X172350000Y-100000000D03*
X172350000Y-100500000D03*
X172350000Y-101000000D03*
%TD*%
D12*
%TO.C,R21*%
X179175000Y-112000000D03*
X180825000Y-112000000D03*
%TD*%
D13*
%TO.C,C28*%
X181245000Y-90560000D03*
X182795000Y-90560000D03*
%TD*%
D14*
%TO.C,U4*%
X151200000Y-108862500D03*
X150250000Y-108862500D03*
X149300000Y-108862500D03*
X149300000Y-111137500D03*
X150250000Y-111137500D03*
X151200000Y-111137500D03*
%TD*%
D12*
%TO.C,R27*%
X181195000Y-89060000D03*
X182845000Y-89060000D03*
%TD*%
D20*
%TO.C,J4*%
X190000000Y-120000000D03*
%TD*%
D12*
%TO.C,R15*%
X121175000Y-89000000D03*
X122825000Y-89000000D03*
%TD*%
%TO.C,R26*%
X178195000Y-89060000D03*
X179845000Y-89060000D03*
%TD*%
D21*
%TO.C,U2*%
X141250000Y-83000000D03*
X141250000Y-84270000D03*
X141250000Y-85540000D03*
X141250000Y-86810000D03*
X141250000Y-88080000D03*
X141250000Y-89350000D03*
X141250000Y-90620000D03*
X141250000Y-91890000D03*
X141250000Y-93160000D03*
X141250000Y-94430000D03*
X141250000Y-95700000D03*
X141250000Y-96970000D03*
X141250000Y-98240000D03*
X141250000Y-99510000D03*
D22*
X143015000Y-100760000D03*
X144285000Y-100760000D03*
X145555000Y-100760000D03*
X146825000Y-100760000D03*
X148095000Y-100760000D03*
X149365000Y-100760000D03*
X150635000Y-100760000D03*
X151905000Y-100760000D03*
X153175000Y-100760000D03*
X154445000Y-100760000D03*
X155715000Y-100760000D03*
X156985000Y-100760000D03*
D21*
X158750000Y-99510000D03*
X158750000Y-98240000D03*
X158750000Y-96970000D03*
X158750000Y-95700000D03*
X158750000Y-94430000D03*
X158750000Y-93160000D03*
X158750000Y-91890000D03*
X158750000Y-90620000D03*
X158750000Y-89350000D03*
X158750000Y-88080000D03*
X158750000Y-86810000D03*
X158750000Y-85540000D03*
X158750000Y-84270000D03*
X158750000Y-83000000D03*
D23*
X147100000Y-90020000D03*
X147100000Y-91420000D03*
X147800000Y-89320000D03*
X147800000Y-90720000D03*
X147800000Y-92120000D03*
X148500000Y-90020000D03*
D24*
X148500000Y-90720000D03*
D23*
X148500000Y-91420000D03*
X149200000Y-89320000D03*
X149200000Y-90720000D03*
X149200000Y-92120000D03*
X149900000Y-90020000D03*
X149900000Y-91420000D03*
%TD*%
D25*
%TO.C,D3*%
X131027105Y-123250000D03*
X132602105Y-123250000D03*
%TD*%
D12*
%TO.C,R4*%
X168425000Y-96000000D03*
X170075000Y-96000000D03*
%TD*%
D17*
%TO.C,C6*%
X138525000Y-115250000D03*
X136975000Y-115250000D03*
%TD*%
D26*
%TO.C,U7*%
X123350000Y-99000000D03*
X123350000Y-99500000D03*
X123350000Y-100000000D03*
X123350000Y-100500000D03*
X123350000Y-101000000D03*
X127650000Y-101000000D03*
X127650000Y-100500000D03*
X127650000Y-100000000D03*
X127650000Y-99500000D03*
X127650000Y-99000000D03*
%TD*%
D12*
%TO.C,R13*%
X119175000Y-82500000D03*
X120825000Y-82500000D03*
%TD*%
D17*
%TO.C,C2*%
X138525000Y-113750000D03*
X136975000Y-113750000D03*
%TD*%
D20*
%TO.C,J2*%
X110000000Y-120000000D03*
%TD*%
D13*
%TO.C,C33*%
X113225000Y-102500000D03*
X114775000Y-102500000D03*
%TD*%
D18*
%TO.C,U10*%
X177887500Y-84025000D03*
X177887500Y-84675000D03*
X177887500Y-85325000D03*
X177887500Y-85975000D03*
X182112500Y-85975000D03*
X182112500Y-85325000D03*
X182112500Y-84675000D03*
X182112500Y-84025000D03*
%TD*%
D27*
%TO.C,D2*%
X140027500Y-123270000D03*
X138452500Y-123270000D03*
%TD*%
D17*
%TO.C,C1*%
X138525000Y-106250000D03*
X136975000Y-106250000D03*
%TD*%
D28*
%TO.C,C17*%
X124500000Y-88725000D03*
X124500000Y-90275000D03*
%TD*%
D13*
%TO.C,C22*%
X184225000Y-112500000D03*
X185775000Y-112500000D03*
%TD*%
D29*
%TO.C,J7*%
X168520000Y-89730000D03*
D30*
X165980000Y-89730000D03*
X168520000Y-92270000D03*
X165980000Y-92270000D03*
%TD*%
D13*
%TO.C,C27*%
X184245000Y-84060000D03*
X185795000Y-84060000D03*
%TD*%
%TO.C,C18*%
X124500000Y-112500000D03*
X126050000Y-112500000D03*
%TD*%
D16*
%TO.C,C31*%
X190010000Y-100775000D03*
X190010000Y-99225000D03*
%TD*%
D12*
%TO.C,R11*%
X175425000Y-102750000D03*
X177075000Y-102750000D03*
%TD*%
D16*
%TO.C,C35*%
X118250000Y-100775000D03*
X118250000Y-99225000D03*
%TD*%
D15*
%TO.C,R16*%
X124500000Y-85675000D03*
X124500000Y-87325000D03*
%TD*%
D28*
%TO.C,C21*%
X124500000Y-118725000D03*
X124500000Y-120275000D03*
%TD*%
D29*
%TO.C,J5*%
X168500000Y-113750000D03*
D30*
X165960000Y-113750000D03*
X163420000Y-113750000D03*
X160880000Y-113750000D03*
%TD*%
D13*
%TO.C,C20*%
X121225000Y-120500000D03*
X122775000Y-120500000D03*
%TD*%
D16*
%TO.C,C9*%
X136750000Y-84525000D03*
X136750000Y-82975000D03*
%TD*%
D31*
%TO.C,U13*%
X112921203Y-99306206D03*
X112921203Y-99806207D03*
X112921203Y-100306207D03*
X112921203Y-100806208D03*
D32*
X113551504Y-100945207D03*
X114051503Y-100945207D03*
X114551502Y-100945207D03*
D31*
X115181803Y-100806208D03*
X115181803Y-100306207D03*
X115181803Y-99806207D03*
X115181803Y-99306206D03*
D32*
X114551502Y-99167207D03*
X114051503Y-99167207D03*
X113551504Y-99167207D03*
%TD*%
D33*
%TO.C,R10*%
X140075000Y-121750000D03*
X138425000Y-121750000D03*
%TD*%
%TO.C,R36*%
X127075000Y-95250000D03*
X125425000Y-95250000D03*
%TD*%
%TO.C,R6*%
X132639605Y-121750000D03*
X130989605Y-121750000D03*
%TD*%
D18*
%TO.C,U6*%
X117887500Y-84025000D03*
X117887500Y-84675000D03*
X117887500Y-85325000D03*
X117887500Y-85975000D03*
X122112500Y-85975000D03*
X122112500Y-85325000D03*
X122112500Y-84675000D03*
X122112500Y-84025000D03*
%TD*%
D34*
%TO.C,D1*%
X141900000Y-110750000D03*
X144100000Y-110750000D03*
%TD*%
D13*
%TO.C,C26*%
X184245000Y-82560000D03*
X185795000Y-82560000D03*
%TD*%
D16*
%TO.C,C30*%
X188500000Y-100775000D03*
X188500000Y-99225000D03*
%TD*%
D28*
%TO.C,C29*%
X184520000Y-88785000D03*
X184520000Y-90335000D03*
%TD*%
D10*
%TO.C,R2*%
X148750000Y-115575000D03*
X148750000Y-113925000D03*
%TD*%
D13*
%TO.C,C23*%
X184225000Y-114000000D03*
X185775000Y-114000000D03*
%TD*%
D16*
%TO.C,C10*%
X138250000Y-84525000D03*
X138250000Y-82975000D03*
%TD*%
D13*
%TO.C,C14*%
X124225000Y-82500000D03*
X125775000Y-82500000D03*
%TD*%
D16*
%TO.C,C8*%
X124900000Y-77575000D03*
X124900000Y-76025000D03*
%TD*%
D15*
%TO.C,R24*%
X184500000Y-115675000D03*
X184500000Y-117325000D03*
%TD*%
D11*
%TO.C,SW1*%
X180500000Y-77540000D03*
X176900000Y-77540000D03*
X180500000Y-76100000D03*
X176900000Y-76100000D03*
%TD*%
D13*
%TO.C,C15*%
X124225000Y-84000000D03*
X125775000Y-84000000D03*
%TD*%
D18*
%TO.C,U8*%
X117887500Y-114025000D03*
X117887500Y-114675000D03*
X117887500Y-115325000D03*
X117887500Y-115975000D03*
X122112500Y-115975000D03*
X122112500Y-115325000D03*
X122112500Y-114675000D03*
X122112500Y-114025000D03*
%TD*%
D13*
%TO.C,C24*%
X181225000Y-120500000D03*
X182775000Y-120500000D03*
%TD*%
D20*
%TO.C,J3*%
X190000000Y-80000000D03*
%TD*%
D13*
%TO.C,C44*%
X153475000Y-115250000D03*
X155025000Y-115250000D03*
%TD*%
D12*
%TO.C,R22*%
X178175000Y-119000000D03*
X179825000Y-119000000D03*
%TD*%
D10*
%TO.C,R12*%
X121500000Y-100825000D03*
X121500000Y-99175000D03*
%TD*%
D16*
%TO.C,C11*%
X138250000Y-87525000D03*
X138250000Y-85975000D03*
%TD*%
D15*
%TO.C,R28*%
X184520000Y-85735000D03*
X184520000Y-87385000D03*
%TD*%
D33*
%TO.C,R37*%
X126825000Y-105000000D03*
X125175000Y-105000000D03*
%TD*%
D31*
%TO.C,U12*%
X184765279Y-99248039D03*
X184765279Y-99748040D03*
X184765279Y-100248040D03*
X184765279Y-100748041D03*
D32*
X185395580Y-100887040D03*
X185895579Y-100887040D03*
X186395578Y-100887040D03*
D31*
X187025879Y-100748041D03*
X187025879Y-100248040D03*
X187025879Y-99748040D03*
X187025879Y-99248039D03*
D32*
X186395578Y-99109040D03*
X185895579Y-99109040D03*
X185395580Y-99109040D03*
%TD*%
D13*
%TO.C,C16*%
X121225000Y-90490000D03*
X122775000Y-90490000D03*
%TD*%
D20*
%TO.C,J1*%
X110000000Y-80000000D03*
%TD*%
D12*
%TO.C,R38*%
X183175000Y-108250000D03*
X184825000Y-108250000D03*
%TD*%
D16*
%TO.C,C34*%
X116750000Y-100775000D03*
X116750000Y-99225000D03*
%TD*%
D12*
%TO.C,R19*%
X121175000Y-119000000D03*
X122825000Y-119000000D03*
%TD*%
D35*
%TO.C,J6*%
X147110000Y-118570111D03*
X152890000Y-118570111D03*
D36*
X146800000Y-117495111D03*
X147600000Y-117495111D03*
D37*
X148750000Y-117495111D03*
X149750000Y-117495111D03*
X150250000Y-117495111D03*
X151250000Y-117495111D03*
D36*
X152400000Y-117495111D03*
X153200000Y-117495111D03*
X153200000Y-117495111D03*
X152400000Y-117495111D03*
D37*
X151750000Y-117495111D03*
X150750000Y-117495111D03*
X149250000Y-117495111D03*
X148250000Y-117495111D03*
D36*
X147600000Y-117495111D03*
X146800000Y-117495111D03*
D38*
X145680000Y-118070111D03*
D39*
X145680000Y-122250111D03*
D38*
X154320000Y-118070111D03*
D39*
X154320000Y-122250111D03*
%TD*%
D28*
%TO.C,C13*%
X130062500Y-100525000D03*
X130062500Y-102075000D03*
%TD*%
D16*
%TO.C,C7*%
X175100000Y-77600000D03*
X175100000Y-76050000D03*
%TD*%
D17*
%TO.C,C43*%
X147025000Y-115250000D03*
X145475000Y-115250000D03*
%TD*%
D15*
%TO.C,R32*%
X154500000Y-103175000D03*
X154500000Y-104825000D03*
%TD*%
D12*
%TO.C,R14*%
X118175000Y-88990000D03*
X119825000Y-88990000D03*
%TD*%
D15*
%TO.C,R20*%
X124500000Y-115675000D03*
X124500000Y-117325000D03*
%TD*%
D12*
%TO.C,R18*%
X118175000Y-119000000D03*
X119825000Y-119000000D03*
%TD*%
%TO.C,R23*%
X181175000Y-119000000D03*
X182825000Y-119000000D03*
%TD*%
D13*
%TO.C,C32*%
X184975000Y-102500000D03*
X186525000Y-102500000D03*
%TD*%
D33*
%TO.C,R5*%
X166075000Y-96000000D03*
X164425000Y-96000000D03*
%TD*%
D28*
%TO.C,C25*%
X184500000Y-118725000D03*
X184500000Y-120275000D03*
%TD*%
M02*
