%TF.GenerationSoftware,KiCad,Pcbnew,10.0.4*%
%TF.CreationDate,2026-06-22T23:07:52-07:00*%
%TF.ProjectId,Capstone,43617073-746f-46e6-952e-6b696361645f,rev?*%
%TF.SameCoordinates,Original*%
%TF.FileFunction,Copper,L2,Inr*%
%TF.FilePolarity,Positive*%
%FSLAX46Y46*%
G04 Gerber Fmt 4.6, Leading zero omitted, Abs format (unit mm)*
G04 Created by KiCad (PCBNEW 10.0.4) date 2026-06-22 23:07:52*
%MOMM*%
%LPD*%
G01*
G04 APERTURE LIST*
%TA.AperFunction,ComponentPad*%
%ADD10C,5.600000*%
%TD*%
%TA.AperFunction,HeatsinkPad*%
%ADD11C,0.600000*%
%TD*%
%TA.AperFunction,ComponentPad*%
%ADD12R,1.700000X1.700000*%
%TD*%
%TA.AperFunction,ComponentPad*%
%ADD13C,1.700000*%
%TD*%
%TA.AperFunction,ComponentPad*%
%ADD14O,1.000000X2.100000*%
%TD*%
%TA.AperFunction,ComponentPad*%
%ADD15O,1.000000X1.800000*%
%TD*%
%TA.AperFunction,ViaPad*%
%ADD16C,0.600000*%
%TD*%
G04 APERTURE END LIST*
D10*
%TO.N,GND*%
%TO.C,J4*%
X190000000Y-120000000D03*
%TD*%
D11*
%TO.N,GND*%
%TO.C,U2*%
X147100000Y-90020000D03*
X147100000Y-91420000D03*
X147800000Y-89320000D03*
X147800000Y-90720000D03*
X147800000Y-92120000D03*
X148500000Y-90020000D03*
X148500000Y-91420000D03*
X149200000Y-89320000D03*
X149200000Y-90720000D03*
X149200000Y-92120000D03*
X149900000Y-90020000D03*
X149900000Y-91420000D03*
%TD*%
D10*
%TO.N,GND*%
%TO.C,J2*%
X110000000Y-120000000D03*
%TD*%
D12*
%TO.N,GND*%
%TO.C,J7*%
X168520000Y-89730000D03*
D13*
%TO.N,VCC_3V3*%
X165980000Y-89730000D03*
%TO.N,/EXT_BTN*%
X168520000Y-92270000D03*
%TO.N,Net-(J7-Pin_4)*%
X165980000Y-92270000D03*
%TD*%
D12*
%TO.N,GND*%
%TO.C,J5*%
X168500000Y-113750000D03*
D13*
%TO.N,/TXD0*%
X165960000Y-113750000D03*
%TO.N,/RXD0*%
X163420000Y-113750000D03*
%TO.N,VCC_3V3*%
X160880000Y-113750000D03*
%TD*%
D10*
%TO.N,GND*%
%TO.C,J3*%
X190000000Y-80000000D03*
%TD*%
%TO.N,GND*%
%TO.C,J1*%
X110000000Y-80000000D03*
%TD*%
D14*
%TO.N,GND*%
%TO.C,J6*%
X145680000Y-118070111D03*
D15*
X145680000Y-122250111D03*
D14*
X154320000Y-118070111D03*
D15*
X154320000Y-122250111D03*
%TD*%
D16*
%TO.N,GND*%
X144500000Y-115250000D03*
X136975000Y-116225000D03*
X126000000Y-111250000D03*
X137750000Y-100250000D03*
X121250000Y-77545000D03*
X148250000Y-112750000D03*
X191000000Y-99250000D03*
X187500000Y-102500000D03*
X160750000Y-92000000D03*
X185750000Y-111250000D03*
X116500000Y-86000000D03*
X132250000Y-98000000D03*
X184500000Y-121750000D03*
X152250000Y-112750000D03*
X124500000Y-121750000D03*
X142000000Y-104000000D03*
X129087500Y-102075000D03*
X174875000Y-78875000D03*
X141000000Y-123250000D03*
X172000000Y-98000000D03*
X150250000Y-107500000D03*
X180500000Y-79250000D03*
X176275000Y-85975000D03*
X125000000Y-81250000D03*
X139200000Y-85700000D03*
X128000000Y-123250000D03*
X156000000Y-115250000D03*
X173750000Y-99250000D03*
X170250000Y-94500000D03*
X119225000Y-99225000D03*
X116500000Y-116000000D03*
X137750000Y-95750000D03*
X124750000Y-99500000D03*
X126500000Y-100750000D03*
X115750000Y-102500000D03*
X184520000Y-91730000D03*
X124500000Y-91500000D03*
X175500000Y-100000000D03*
X176500000Y-116000000D03*
X137000000Y-105250000D03*
X137750000Y-111000000D03*
%TO.N,/EN*%
X121250000Y-76105000D03*
%TO.N,VCC_3V3*%
X121500000Y-102000000D03*
X119250000Y-100750000D03*
X117250000Y-119000000D03*
X177000000Y-89000000D03*
X141000000Y-121750000D03*
X182500000Y-82500000D03*
X122500000Y-82500000D03*
X139500000Y-84270000D03*
X122750000Y-112500000D03*
X138525000Y-116225000D03*
X169600000Y-100600000D03*
X177000000Y-119000000D03*
X154500000Y-107000000D03*
X191000000Y-100750000D03*
X184000000Y-102500000D03*
X117260000Y-88990000D03*
X182500000Y-112500000D03*
X112250000Y-102500000D03*
X131075000Y-100525000D03*
X175500000Y-101000000D03*
X156000000Y-107000000D03*
%TO.N,/SDA*%
X167201471Y-104250000D03*
X159000000Y-104250000D03*
%TO.N,/F2_N*%
X180000000Y-113250000D03*
%TO.N,/F2_P*%
X180000000Y-116750000D03*
%TO.N,/SCL*%
X154500000Y-102000000D03*
X170374265Y-101974265D03*
%TO.N,/USB_D_P*%
X151500000Y-107250000D03*
X139260000Y-99510000D03*
%TO.N,/USB_D_N*%
X139260000Y-98240000D03*
X149000000Y-107250000D03*
%TO.N,VBUS*%
X151500000Y-119000000D03*
X150250000Y-112500000D03*
X145500000Y-111000000D03*
X147600000Y-116250000D03*
X152737500Y-115987500D03*
X148500000Y-118970162D03*
%TO.N,/CONTROLLER_SDO_IMU1*%
X113400000Y-98200000D03*
X139750000Y-89350000D03*
%TO.N,/CLK_IMU1*%
X139750000Y-90650000D03*
X114051503Y-97648497D03*
%TO.N,/CS_IMU1*%
X114700000Y-98200000D03*
X139700000Y-91900000D03*
%TO.N,/CONTROLLER_SDI_IMU1*%
X139760000Y-93160000D03*
X111906206Y-99306206D03*
%TO.N,/INT_IMU1*%
X111900000Y-100800000D03*
X139800000Y-94430000D03*
%TO.N,/STATUS_LED*%
X131000000Y-120750000D03*
X139250000Y-97000000D03*
%TO.N,/INT_IMU0*%
X145600000Y-104000000D03*
X183751959Y-100748041D03*
%TO.N,/CS_IMU0*%
X186600000Y-98200000D03*
X146900000Y-104000000D03*
%TO.N,/CONTROLLER_SDO_IMU0*%
X185200000Y-98200000D03*
X148095000Y-103995000D03*
%TO.N,/CLK_IMU0*%
X149400000Y-104000000D03*
X185895579Y-97804421D03*
%TO.N,/CONTROLLER_SDI_IMU0*%
X150700000Y-104000000D03*
X183700000Y-99300000D03*
%TO.N,/EXT_BTN*%
X153250000Y-102000000D03*
%TO.N,/IO0*%
X178750000Y-76100000D03*
X160250000Y-99500000D03*
%TO.N,/EXT_LED*%
X161000000Y-94500000D03*
X163000000Y-94500000D03*
%TO.N,/F3_N*%
X180000000Y-83250000D03*
%TO.N,/F3_P*%
X180000000Y-86750000D03*
%TO.N,/F0_N*%
X120000000Y-83500000D03*
%TO.N,/F0_P*%
X120000000Y-86500000D03*
%TO.N,/F1_N*%
X120000000Y-113500000D03*
%TO.N,/F1_P*%
X120000000Y-116750000D03*
%TD*%
%TA.AperFunction,Conductor*%
%TO.N,GND*%
G36*
X120843653Y-75520185D02*
G01*
X120889408Y-75572989D01*
X120899352Y-75642147D01*
X120870327Y-75705703D01*
X120864295Y-75712181D01*
X120809493Y-75766982D01*
X120809488Y-75766988D01*
X120737017Y-75892511D01*
X120737016Y-75892515D01*
X120699500Y-76032525D01*
X120699500Y-76177475D01*
X120737016Y-76317485D01*
X120737017Y-76317488D01*
X120809488Y-76443011D01*
X120809490Y-76443013D01*
X120809491Y-76443015D01*
X120911985Y-76545509D01*
X120911986Y-76545510D01*
X120911988Y-76545511D01*
X121037511Y-76617982D01*
X121037512Y-76617982D01*
X121037515Y-76617984D01*
X121177525Y-76655500D01*
X121177528Y-76655500D01*
X121322472Y-76655500D01*
X121322475Y-76655500D01*
X121462485Y-76617984D01*
X121588015Y-76545509D01*
X121690509Y-76443015D01*
X121762984Y-76317485D01*
X121800500Y-76177475D01*
X121800500Y-76032525D01*
X121762984Y-75892515D01*
X121760097Y-75887515D01*
X121690511Y-75766988D01*
X121690506Y-75766982D01*
X121635705Y-75712181D01*
X121602220Y-75650858D01*
X121607204Y-75581166D01*
X121649076Y-75525233D01*
X121714540Y-75500816D01*
X121723386Y-75500500D01*
X125876000Y-75500500D01*
X125943039Y-75520185D01*
X125988794Y-75572989D01*
X126000000Y-75624500D01*
X126000000Y-81510000D01*
X174000000Y-81510000D01*
X174000000Y-75624500D01*
X174019685Y-75557461D01*
X174072489Y-75511706D01*
X174124000Y-75500500D01*
X178271614Y-75500500D01*
X178338653Y-75520185D01*
X178384408Y-75572989D01*
X178394352Y-75642147D01*
X178365327Y-75705703D01*
X178359295Y-75712181D01*
X178309493Y-75761982D01*
X178309488Y-75761988D01*
X178237017Y-75887511D01*
X178237016Y-75887515D01*
X178199500Y-76027525D01*
X178199500Y-76172475D01*
X178237016Y-76312485D01*
X178237017Y-76312488D01*
X178309488Y-76438011D01*
X178309490Y-76438013D01*
X178309491Y-76438015D01*
X178411985Y-76540509D01*
X178411986Y-76540510D01*
X178411988Y-76540511D01*
X178537511Y-76612982D01*
X178537512Y-76612982D01*
X178537515Y-76612984D01*
X178677525Y-76650500D01*
X178677528Y-76650500D01*
X178822472Y-76650500D01*
X178822475Y-76650500D01*
X178962485Y-76612984D01*
X179088015Y-76540509D01*
X179190509Y-76438015D01*
X179262984Y-76312485D01*
X179300500Y-76172475D01*
X179300500Y-76027525D01*
X179262984Y-75887515D01*
X179211918Y-75799067D01*
X179190511Y-75761988D01*
X179190506Y-75761982D01*
X179140705Y-75712181D01*
X179107220Y-75650858D01*
X179112204Y-75581166D01*
X179154076Y-75525233D01*
X179219540Y-75500816D01*
X179228386Y-75500500D01*
X189934108Y-75500500D01*
X189997294Y-75500500D01*
X190002702Y-75500617D01*
X190386773Y-75517386D01*
X190397505Y-75518326D01*
X190775963Y-75568150D01*
X190786601Y-75570025D01*
X191159279Y-75652647D01*
X191169720Y-75655445D01*
X191533765Y-75770227D01*
X191543911Y-75773920D01*
X191896578Y-75920000D01*
X191906369Y-75924566D01*
X192244942Y-76100816D01*
X192254309Y-76106223D01*
X192358303Y-76172475D01*
X192576244Y-76311318D01*
X192585105Y-76317523D01*
X192887930Y-76549889D01*
X192896217Y-76556843D01*
X193177635Y-76814715D01*
X193185284Y-76822364D01*
X193443156Y-77103782D01*
X193450110Y-77112069D01*
X193682476Y-77414894D01*
X193688681Y-77423755D01*
X193893775Y-77745689D01*
X193899183Y-77755057D01*
X194075430Y-78093623D01*
X194080002Y-78103427D01*
X194226075Y-78456078D01*
X194229775Y-78466244D01*
X194344553Y-78830276D01*
X194347353Y-78840724D01*
X194429972Y-79213390D01*
X194431850Y-79224044D01*
X194481671Y-79602472D01*
X194482614Y-79613248D01*
X194499382Y-79997297D01*
X194499500Y-80002706D01*
X194499500Y-119997293D01*
X194499382Y-120002702D01*
X194482614Y-120386751D01*
X194481671Y-120397527D01*
X194431850Y-120775955D01*
X194429972Y-120786609D01*
X194347353Y-121159275D01*
X194344553Y-121169723D01*
X194229775Y-121533755D01*
X194226075Y-121543921D01*
X194080002Y-121896572D01*
X194075430Y-121906376D01*
X193899183Y-122244942D01*
X193893775Y-122254310D01*
X193688681Y-122576244D01*
X193682476Y-122585105D01*
X193450110Y-122887930D01*
X193443156Y-122896217D01*
X193185284Y-123177635D01*
X193177635Y-123185284D01*
X192896217Y-123443156D01*
X192887930Y-123450110D01*
X192585105Y-123682476D01*
X192576244Y-123688681D01*
X192254310Y-123893775D01*
X192244942Y-123899183D01*
X191906376Y-124075430D01*
X191896572Y-124080002D01*
X191543921Y-124226075D01*
X191533755Y-124229775D01*
X191169723Y-124344553D01*
X191159275Y-124347353D01*
X190786609Y-124429972D01*
X190775955Y-124431850D01*
X190397527Y-124481671D01*
X190386751Y-124482614D01*
X190002703Y-124499382D01*
X189997294Y-124499500D01*
X110002706Y-124499500D01*
X109997297Y-124499382D01*
X109613248Y-124482614D01*
X109602474Y-124481671D01*
X109540007Y-124473447D01*
X109224044Y-124431850D01*
X109213390Y-124429972D01*
X108840724Y-124347353D01*
X108830276Y-124344553D01*
X108466244Y-124229775D01*
X108456078Y-124226075D01*
X108103427Y-124080002D01*
X108093623Y-124075430D01*
X107755057Y-123899183D01*
X107745689Y-123893775D01*
X107423755Y-123688681D01*
X107414894Y-123682476D01*
X107112069Y-123450110D01*
X107103782Y-123443156D01*
X106822364Y-123185284D01*
X106814715Y-123177635D01*
X106556843Y-122896217D01*
X106549889Y-122887930D01*
X106317523Y-122585105D01*
X106311318Y-122576244D01*
X106272540Y-122515374D01*
X106106224Y-122254310D01*
X106100816Y-122244942D01*
X105924569Y-121906376D01*
X105919997Y-121896572D01*
X105889304Y-121822472D01*
X105829265Y-121677525D01*
X140449500Y-121677525D01*
X140449500Y-121822475D01*
X140487016Y-121962485D01*
X140487017Y-121962488D01*
X140559488Y-122088011D01*
X140559490Y-122088013D01*
X140559491Y-122088015D01*
X140661985Y-122190509D01*
X140661986Y-122190510D01*
X140661988Y-122190511D01*
X140787511Y-122262982D01*
X140787512Y-122262982D01*
X140787515Y-122262984D01*
X140927525Y-122300500D01*
X140927528Y-122300500D01*
X141072472Y-122300500D01*
X141072475Y-122300500D01*
X141212485Y-122262984D01*
X141338015Y-122190509D01*
X141440509Y-122088015D01*
X141512984Y-121962485D01*
X141550500Y-121822475D01*
X141550500Y-121751615D01*
X144680000Y-121751615D01*
X144680000Y-122000111D01*
X145380000Y-122000111D01*
X145380000Y-122500111D01*
X144680000Y-122500111D01*
X144680000Y-122748606D01*
X144718427Y-122941792D01*
X144718430Y-122941804D01*
X144793807Y-123123782D01*
X144793814Y-123123795D01*
X144903248Y-123287573D01*
X144903251Y-123287577D01*
X145042533Y-123426859D01*
X145042537Y-123426862D01*
X145206315Y-123536296D01*
X145206328Y-123536303D01*
X145388308Y-123611680D01*
X145430000Y-123619973D01*
X145430000Y-122817099D01*
X145439940Y-122834316D01*
X145495795Y-122890171D01*
X145564204Y-122929667D01*
X145640504Y-122950111D01*
X145719496Y-122950111D01*
X145795796Y-122929667D01*
X145864205Y-122890171D01*
X145920060Y-122834316D01*
X145930000Y-122817099D01*
X145930000Y-123619973D01*
X145971690Y-123611680D01*
X145971692Y-123611680D01*
X146153671Y-123536303D01*
X146153684Y-123536296D01*
X146317462Y-123426862D01*
X146317466Y-123426859D01*
X146456748Y-123287577D01*
X146456751Y-123287573D01*
X146566185Y-123123795D01*
X146566192Y-123123782D01*
X146641569Y-122941804D01*
X146641572Y-122941792D01*
X146679999Y-122748606D01*
X146680000Y-122748603D01*
X146680000Y-122500111D01*
X145980000Y-122500111D01*
X145980000Y-122000111D01*
X146680000Y-122000111D01*
X146680000Y-121751619D01*
X146679999Y-121751615D01*
X153320000Y-121751615D01*
X153320000Y-122000111D01*
X154020000Y-122000111D01*
X154020000Y-122500111D01*
X153320000Y-122500111D01*
X153320000Y-122748606D01*
X153358427Y-122941792D01*
X153358430Y-122941804D01*
X153433807Y-123123782D01*
X153433814Y-123123795D01*
X153543248Y-123287573D01*
X153543251Y-123287577D01*
X153682533Y-123426859D01*
X153682537Y-123426862D01*
X153846315Y-123536296D01*
X153846328Y-123536303D01*
X154028308Y-123611680D01*
X154070000Y-123619973D01*
X154070000Y-122817099D01*
X154079940Y-122834316D01*
X154135795Y-122890171D01*
X154204204Y-122929667D01*
X154280504Y-122950111D01*
X154359496Y-122950111D01*
X154435796Y-122929667D01*
X154504205Y-122890171D01*
X154560060Y-122834316D01*
X154570000Y-122817099D01*
X154570000Y-123619973D01*
X154611690Y-123611680D01*
X154611692Y-123611680D01*
X154793671Y-123536303D01*
X154793684Y-123536296D01*
X154957462Y-123426862D01*
X154957466Y-123426859D01*
X155096748Y-123287577D01*
X155096751Y-123287573D01*
X155206185Y-123123795D01*
X155206192Y-123123782D01*
X155281569Y-122941804D01*
X155281572Y-122941792D01*
X155319999Y-122748606D01*
X155320000Y-122748603D01*
X155320000Y-122500111D01*
X154620000Y-122500111D01*
X154620000Y-122000111D01*
X155320000Y-122000111D01*
X155320000Y-121751619D01*
X155319999Y-121751615D01*
X155281572Y-121558429D01*
X155281569Y-121558417D01*
X155206192Y-121376439D01*
X155206185Y-121376426D01*
X155096751Y-121212648D01*
X155096748Y-121212644D01*
X154957466Y-121073362D01*
X154957462Y-121073359D01*
X154793684Y-120963925D01*
X154793671Y-120963918D01*
X154611691Y-120888540D01*
X154611683Y-120888538D01*
X154570000Y-120880246D01*
X154570000Y-121683122D01*
X154560060Y-121665906D01*
X154504205Y-121610051D01*
X154435796Y-121570555D01*
X154359496Y-121550111D01*
X154280504Y-121550111D01*
X154204204Y-121570555D01*
X154135795Y-121610051D01*
X154079940Y-121665906D01*
X154070000Y-121683122D01*
X154070000Y-120880247D01*
X154069999Y-120880246D01*
X154028316Y-120888538D01*
X154028308Y-120888540D01*
X153846328Y-120963918D01*
X153846315Y-120963925D01*
X153682537Y-121073359D01*
X153682533Y-121073362D01*
X153543251Y-121212644D01*
X153543248Y-121212648D01*
X153433814Y-121376426D01*
X153433807Y-121376439D01*
X153358430Y-121558417D01*
X153358427Y-121558429D01*
X153320000Y-121751615D01*
X146679999Y-121751615D01*
X146641572Y-121558429D01*
X146641569Y-121558417D01*
X146566192Y-121376439D01*
X146566185Y-121376426D01*
X146456751Y-121212648D01*
X146456748Y-121212644D01*
X146317466Y-121073362D01*
X146317462Y-121073359D01*
X146153684Y-120963925D01*
X146153671Y-120963918D01*
X145971691Y-120888540D01*
X145971683Y-120888538D01*
X145930000Y-120880246D01*
X145930000Y-121683122D01*
X145920060Y-121665906D01*
X145864205Y-121610051D01*
X145795796Y-121570555D01*
X145719496Y-121550111D01*
X145640504Y-121550111D01*
X145564204Y-121570555D01*
X145495795Y-121610051D01*
X145439940Y-121665906D01*
X145430000Y-121683122D01*
X145430000Y-120880247D01*
X145429999Y-120880246D01*
X145388316Y-120888538D01*
X145388308Y-120888540D01*
X145206328Y-120963918D01*
X145206315Y-120963925D01*
X145042537Y-121073359D01*
X145042533Y-121073362D01*
X144903251Y-121212644D01*
X144903248Y-121212648D01*
X144793814Y-121376426D01*
X144793807Y-121376439D01*
X144718430Y-121558417D01*
X144718427Y-121558429D01*
X144680000Y-121751615D01*
X141550500Y-121751615D01*
X141550500Y-121677525D01*
X141512984Y-121537515D01*
X141440509Y-121411985D01*
X141338015Y-121309491D01*
X141338013Y-121309490D01*
X141338011Y-121309488D01*
X141212488Y-121237017D01*
X141212489Y-121237017D01*
X141201006Y-121233940D01*
X141072475Y-121199500D01*
X140927525Y-121199500D01*
X140798993Y-121233940D01*
X140787511Y-121237017D01*
X140661988Y-121309488D01*
X140661982Y-121309493D01*
X140559493Y-121411982D01*
X140559488Y-121411988D01*
X140487017Y-121537511D01*
X140485299Y-121543921D01*
X140449500Y-121677525D01*
X105829265Y-121677525D01*
X105773920Y-121543911D01*
X105770224Y-121533755D01*
X105731831Y-121411988D01*
X105655445Y-121169720D01*
X105652646Y-121159275D01*
X105646101Y-121129752D01*
X105570025Y-120786601D01*
X105568151Y-120775967D01*
X105555191Y-120677525D01*
X130449500Y-120677525D01*
X130449500Y-120822475D01*
X130487016Y-120962485D01*
X130487017Y-120962488D01*
X130559488Y-121088011D01*
X130559490Y-121088013D01*
X130559491Y-121088015D01*
X130661985Y-121190509D01*
X130661986Y-121190510D01*
X130661988Y-121190511D01*
X130787511Y-121262982D01*
X130787512Y-121262982D01*
X130787515Y-121262984D01*
X130927525Y-121300500D01*
X130927528Y-121300500D01*
X131072472Y-121300500D01*
X131072475Y-121300500D01*
X131212485Y-121262984D01*
X131338015Y-121190509D01*
X131440509Y-121088015D01*
X131512984Y-120962485D01*
X131550500Y-120822475D01*
X131550500Y-120677525D01*
X131512984Y-120537515D01*
X131440509Y-120411985D01*
X131338015Y-120309491D01*
X131338013Y-120309490D01*
X131338011Y-120309488D01*
X131212488Y-120237017D01*
X131212489Y-120237017D01*
X131201006Y-120233940D01*
X131072475Y-120199500D01*
X130927525Y-120199500D01*
X130798993Y-120233940D01*
X130787511Y-120237017D01*
X130661988Y-120309488D01*
X130661982Y-120309493D01*
X130559493Y-120411982D01*
X130559488Y-120411988D01*
X130487017Y-120537511D01*
X130487016Y-120537515D01*
X130449500Y-120677525D01*
X105555191Y-120677525D01*
X105518326Y-120397505D01*
X105517386Y-120386773D01*
X105500618Y-120002702D01*
X105500500Y-119997293D01*
X105500500Y-118927525D01*
X116699500Y-118927525D01*
X116699500Y-119072475D01*
X116719097Y-119145610D01*
X116737017Y-119212488D01*
X116809488Y-119338011D01*
X116809490Y-119338013D01*
X116809491Y-119338015D01*
X116911985Y-119440509D01*
X116911986Y-119440510D01*
X116911988Y-119440511D01*
X117037511Y-119512982D01*
X117037512Y-119512982D01*
X117037515Y-119512984D01*
X117177525Y-119550500D01*
X117177528Y-119550500D01*
X117322472Y-119550500D01*
X117322475Y-119550500D01*
X117462485Y-119512984D01*
X117588015Y-119440509D01*
X117690509Y-119338015D01*
X117762984Y-119212485D01*
X117800500Y-119072475D01*
X117800500Y-118927525D01*
X117762984Y-118787515D01*
X117723199Y-118718606D01*
X117690511Y-118661988D01*
X117690506Y-118661982D01*
X117588017Y-118559493D01*
X117588011Y-118559488D01*
X117462488Y-118487017D01*
X117462489Y-118487017D01*
X117451006Y-118483940D01*
X117322475Y-118449500D01*
X117177525Y-118449500D01*
X117048993Y-118483940D01*
X117037511Y-118487017D01*
X116911988Y-118559488D01*
X116911982Y-118559493D01*
X116809493Y-118661982D01*
X116809488Y-118661988D01*
X116737017Y-118787511D01*
X116732583Y-118804055D01*
X116699500Y-118927525D01*
X105500500Y-118927525D01*
X105500500Y-117421615D01*
X144680000Y-117421615D01*
X144680000Y-117820111D01*
X145380000Y-117820111D01*
X145380000Y-118320111D01*
X144680000Y-118320111D01*
X144680000Y-118718606D01*
X144718427Y-118911792D01*
X144718430Y-118911804D01*
X144793807Y-119093782D01*
X144793814Y-119093795D01*
X144903248Y-119257573D01*
X144903251Y-119257577D01*
X145042533Y-119396859D01*
X145042537Y-119396862D01*
X145206315Y-119506296D01*
X145206328Y-119506303D01*
X145388308Y-119581680D01*
X145430000Y-119589973D01*
X145430000Y-118787099D01*
X145439940Y-118804316D01*
X145495795Y-118860171D01*
X145564204Y-118899667D01*
X145640504Y-118920111D01*
X145719496Y-118920111D01*
X145795796Y-118899667D01*
X145864205Y-118860171D01*
X145920060Y-118804316D01*
X145930000Y-118787099D01*
X145930000Y-119589973D01*
X145971690Y-119581680D01*
X145971692Y-119581680D01*
X146153671Y-119506303D01*
X146153684Y-119506296D01*
X146317462Y-119396862D01*
X146317466Y-119396859D01*
X146456748Y-119257577D01*
X146456751Y-119257573D01*
X146566185Y-119093795D01*
X146566186Y-119093793D01*
X146570129Y-119084274D01*
X146613968Y-119029868D01*
X146680261Y-119007800D01*
X146747961Y-119025076D01*
X146753400Y-119028758D01*
X146756634Y-119030625D01*
X146756635Y-119030626D01*
X146887865Y-119106392D01*
X147034234Y-119145611D01*
X147034236Y-119145611D01*
X147185764Y-119145611D01*
X147185766Y-119145611D01*
X147332135Y-119106392D01*
X147463365Y-119030626D01*
X147570515Y-118923476D01*
X147585404Y-118897687D01*
X147949500Y-118897687D01*
X147949500Y-119042637D01*
X147977092Y-119145610D01*
X147987017Y-119182650D01*
X148059488Y-119308173D01*
X148059490Y-119308175D01*
X148059491Y-119308177D01*
X148161985Y-119410671D01*
X148161986Y-119410672D01*
X148161988Y-119410673D01*
X148287511Y-119483144D01*
X148287512Y-119483144D01*
X148287515Y-119483146D01*
X148427525Y-119520662D01*
X148427528Y-119520662D01*
X148572472Y-119520662D01*
X148572475Y-119520662D01*
X148712485Y-119483146D01*
X148838015Y-119410671D01*
X148940509Y-119308177D01*
X149012984Y-119182647D01*
X149050500Y-119042637D01*
X149050500Y-118927525D01*
X150949500Y-118927525D01*
X150949500Y-119072475D01*
X150969097Y-119145610D01*
X150987017Y-119212488D01*
X151059488Y-119338011D01*
X151059490Y-119338013D01*
X151059491Y-119338015D01*
X151161985Y-119440509D01*
X151161986Y-119440510D01*
X151161988Y-119440511D01*
X151287511Y-119512982D01*
X151287512Y-119512982D01*
X151287515Y-119512984D01*
X151427525Y-119550500D01*
X151427528Y-119550500D01*
X151572472Y-119550500D01*
X151572475Y-119550500D01*
X151712485Y-119512984D01*
X151838015Y-119440509D01*
X151940509Y-119338015D01*
X152012984Y-119212485D01*
X152050500Y-119072475D01*
X152050500Y-118927525D01*
X152012984Y-118787515D01*
X151973199Y-118718606D01*
X151940511Y-118661988D01*
X151940506Y-118661982D01*
X151838017Y-118559493D01*
X151838011Y-118559488D01*
X151725180Y-118494345D01*
X152314500Y-118494345D01*
X152314500Y-118645876D01*
X152353719Y-118792247D01*
X152374106Y-118827557D01*
X152429485Y-118923476D01*
X152536635Y-119030626D01*
X152667865Y-119106392D01*
X152814234Y-119145611D01*
X152814236Y-119145611D01*
X152965764Y-119145611D01*
X152965766Y-119145611D01*
X153112135Y-119106392D01*
X153243365Y-119030626D01*
X153243366Y-119030624D01*
X153250403Y-119026562D01*
X153251676Y-119028767D01*
X153304956Y-119008154D01*
X153373405Y-119022174D01*
X153423407Y-119070975D01*
X153429867Y-119084268D01*
X153433809Y-119093785D01*
X153433814Y-119093795D01*
X153543248Y-119257573D01*
X153543251Y-119257577D01*
X153682533Y-119396859D01*
X153682537Y-119396862D01*
X153846315Y-119506296D01*
X153846328Y-119506303D01*
X154028308Y-119581680D01*
X154070000Y-119589973D01*
X154070000Y-118787099D01*
X154079940Y-118804316D01*
X154135795Y-118860171D01*
X154204204Y-118899667D01*
X154280504Y-118920111D01*
X154359496Y-118920111D01*
X154435796Y-118899667D01*
X154504205Y-118860171D01*
X154560060Y-118804316D01*
X154570000Y-118787099D01*
X154570000Y-119589973D01*
X154611690Y-119581680D01*
X154611692Y-119581680D01*
X154793671Y-119506303D01*
X154793684Y-119506296D01*
X154957462Y-119396862D01*
X154957466Y-119396859D01*
X155096748Y-119257577D01*
X155096751Y-119257573D01*
X155206185Y-119093795D01*
X155206192Y-119093782D01*
X155275057Y-118927525D01*
X176449500Y-118927525D01*
X176449500Y-119072475D01*
X176469097Y-119145610D01*
X176487017Y-119212488D01*
X176559488Y-119338011D01*
X176559490Y-119338013D01*
X176559491Y-119338015D01*
X176661985Y-119440509D01*
X176661986Y-119440510D01*
X176661988Y-119440511D01*
X176787511Y-119512982D01*
X176787512Y-119512982D01*
X176787515Y-119512984D01*
X176927525Y-119550500D01*
X176927528Y-119550500D01*
X177072472Y-119550500D01*
X177072475Y-119550500D01*
X177212485Y-119512984D01*
X177338015Y-119440509D01*
X177440509Y-119338015D01*
X177512984Y-119212485D01*
X177550500Y-119072475D01*
X177550500Y-118927525D01*
X177512984Y-118787515D01*
X177473199Y-118718606D01*
X177440511Y-118661988D01*
X177440506Y-118661982D01*
X177338017Y-118559493D01*
X177338011Y-118559488D01*
X177212488Y-118487017D01*
X177212489Y-118487017D01*
X177201006Y-118483940D01*
X177072475Y-118449500D01*
X176927525Y-118449500D01*
X176798993Y-118483940D01*
X176787511Y-118487017D01*
X176661988Y-118559488D01*
X176661982Y-118559493D01*
X176559493Y-118661982D01*
X176559488Y-118661988D01*
X176487017Y-118787511D01*
X176482583Y-118804055D01*
X176449500Y-118927525D01*
X155275057Y-118927525D01*
X155281569Y-118911804D01*
X155281572Y-118911792D01*
X155284872Y-118895207D01*
X155319999Y-118718606D01*
X155320000Y-118718603D01*
X155320000Y-118320111D01*
X154620000Y-118320111D01*
X154620000Y-117820111D01*
X155320000Y-117820111D01*
X155320000Y-117421619D01*
X155319999Y-117421615D01*
X155281572Y-117228429D01*
X155281569Y-117228417D01*
X155206192Y-117046439D01*
X155206185Y-117046426D01*
X155096751Y-116882648D01*
X155096748Y-116882644D01*
X154957466Y-116743362D01*
X154957462Y-116743359D01*
X154858935Y-116677525D01*
X179449500Y-116677525D01*
X179449500Y-116822475D01*
X179487016Y-116962485D01*
X179487017Y-116962488D01*
X179559488Y-117088011D01*
X179559490Y-117088013D01*
X179559491Y-117088015D01*
X179661985Y-117190509D01*
X179661986Y-117190510D01*
X179661988Y-117190511D01*
X179787511Y-117262982D01*
X179787512Y-117262982D01*
X179787515Y-117262984D01*
X179927525Y-117300500D01*
X179927528Y-117300500D01*
X180072472Y-117300500D01*
X180072475Y-117300500D01*
X180212485Y-117262984D01*
X180338015Y-117190509D01*
X180440509Y-117088015D01*
X180512984Y-116962485D01*
X180550500Y-116822475D01*
X180550500Y-116677525D01*
X180512984Y-116537515D01*
X180469665Y-116462485D01*
X180440511Y-116411988D01*
X180440506Y-116411982D01*
X180338017Y-116309493D01*
X180338011Y-116309488D01*
X180212488Y-116237017D01*
X180212489Y-116237017D01*
X180201006Y-116233940D01*
X180072475Y-116199500D01*
X179927525Y-116199500D01*
X179798993Y-116233940D01*
X179787511Y-116237017D01*
X179661988Y-116309488D01*
X179661982Y-116309493D01*
X179559493Y-116411982D01*
X179559488Y-116411988D01*
X179487017Y-116537511D01*
X179487016Y-116537515D01*
X179449500Y-116677525D01*
X154858935Y-116677525D01*
X154793684Y-116633925D01*
X154793671Y-116633918D01*
X154611691Y-116558540D01*
X154611683Y-116558538D01*
X154570000Y-116550246D01*
X154570000Y-117353122D01*
X154560060Y-117335906D01*
X154504205Y-117280051D01*
X154435796Y-117240555D01*
X154359496Y-117220111D01*
X154280504Y-117220111D01*
X154204204Y-117240555D01*
X154135795Y-117280051D01*
X154079940Y-117335906D01*
X154070000Y-117353122D01*
X154070000Y-116550247D01*
X154069999Y-116550246D01*
X154028316Y-116558538D01*
X154028308Y-116558540D01*
X153846328Y-116633918D01*
X153846315Y-116633925D01*
X153682537Y-116743359D01*
X153682533Y-116743362D01*
X153543251Y-116882644D01*
X153543248Y-116882648D01*
X153433814Y-117046426D01*
X153433807Y-117046439D01*
X153358430Y-117228417D01*
X153358427Y-117228429D01*
X153320000Y-117421615D01*
X153320000Y-117820111D01*
X154020000Y-117820111D01*
X154020000Y-118320111D01*
X153481784Y-118320111D01*
X153414745Y-118300426D01*
X153374397Y-118258111D01*
X153350515Y-118216746D01*
X153243365Y-118109596D01*
X153177750Y-118071713D01*
X153112136Y-118033830D01*
X153038950Y-118014220D01*
X152965766Y-117994611D01*
X152814234Y-117994611D01*
X152667863Y-118033830D01*
X152536635Y-118109596D01*
X152536632Y-118109598D01*
X152429487Y-118216743D01*
X152429485Y-118216746D01*
X152353719Y-118347974D01*
X152314500Y-118494345D01*
X151725180Y-118494345D01*
X151712488Y-118487017D01*
X151712489Y-118487017D01*
X151701006Y-118483940D01*
X151572475Y-118449500D01*
X151427525Y-118449500D01*
X151298993Y-118483940D01*
X151287511Y-118487017D01*
X151161988Y-118559488D01*
X151161982Y-118559493D01*
X151059493Y-118661982D01*
X151059488Y-118661988D01*
X150987017Y-118787511D01*
X150982583Y-118804055D01*
X150949500Y-118927525D01*
X149050500Y-118927525D01*
X149050500Y-118897687D01*
X149012984Y-118757677D01*
X148990426Y-118718606D01*
X148940511Y-118632150D01*
X148940506Y-118632144D01*
X148838017Y-118529655D01*
X148838011Y-118529650D01*
X148712488Y-118457179D01*
X148712489Y-118457179D01*
X148701006Y-118454102D01*
X148572475Y-118419662D01*
X148427525Y-118419662D01*
X148298993Y-118454102D01*
X148287511Y-118457179D01*
X148161988Y-118529650D01*
X148161982Y-118529655D01*
X148059493Y-118632144D01*
X148059488Y-118632150D01*
X147987017Y-118757673D01*
X147987016Y-118757677D01*
X147949500Y-118897687D01*
X147585404Y-118897687D01*
X147646281Y-118792246D01*
X147685500Y-118645877D01*
X147685500Y-118494345D01*
X147646281Y-118347976D01*
X147570515Y-118216746D01*
X147463365Y-118109596D01*
X147397750Y-118071713D01*
X147332136Y-118033830D01*
X147258950Y-118014220D01*
X147185766Y-117994611D01*
X147034234Y-117994611D01*
X146887863Y-118033830D01*
X146756635Y-118109596D01*
X146756632Y-118109598D01*
X146649487Y-118216743D01*
X146649483Y-118216749D01*
X146625603Y-118258111D01*
X146575036Y-118306327D01*
X146518216Y-118320111D01*
X145980000Y-118320111D01*
X145980000Y-117820111D01*
X146680000Y-117820111D01*
X146680000Y-117421619D01*
X146679999Y-117421615D01*
X146641572Y-117228429D01*
X146641569Y-117228417D01*
X146566192Y-117046439D01*
X146566185Y-117046426D01*
X146456751Y-116882648D01*
X146456748Y-116882644D01*
X146317466Y-116743362D01*
X146317462Y-116743359D01*
X146153684Y-116633925D01*
X146153671Y-116633918D01*
X145971691Y-116558540D01*
X145971683Y-116558538D01*
X145930000Y-116550246D01*
X145930000Y-117353122D01*
X145920060Y-117335906D01*
X145864205Y-117280051D01*
X145795796Y-117240555D01*
X145719496Y-117220111D01*
X145640504Y-117220111D01*
X145564204Y-117240555D01*
X145495795Y-117280051D01*
X145439940Y-117335906D01*
X145430000Y-117353122D01*
X145430000Y-116550247D01*
X145429999Y-116550246D01*
X145388316Y-116558538D01*
X145388308Y-116558540D01*
X145206328Y-116633918D01*
X145206315Y-116633925D01*
X145042537Y-116743359D01*
X145042533Y-116743362D01*
X144903251Y-116882644D01*
X144903248Y-116882648D01*
X144793814Y-117046426D01*
X144793807Y-117046439D01*
X144718430Y-117228417D01*
X144718427Y-117228429D01*
X144680000Y-117421615D01*
X105500500Y-117421615D01*
X105500500Y-116677525D01*
X119449500Y-116677525D01*
X119449500Y-116822475D01*
X119487016Y-116962485D01*
X119487017Y-116962488D01*
X119559488Y-117088011D01*
X119559490Y-117088013D01*
X119559491Y-117088015D01*
X119661985Y-117190509D01*
X119661986Y-117190510D01*
X119661988Y-117190511D01*
X119787511Y-117262982D01*
X119787512Y-117262982D01*
X119787515Y-117262984D01*
X119927525Y-117300500D01*
X119927528Y-117300500D01*
X120072472Y-117300500D01*
X120072475Y-117300500D01*
X120212485Y-117262984D01*
X120338015Y-117190509D01*
X120440509Y-117088015D01*
X120512984Y-116962485D01*
X120550500Y-116822475D01*
X120550500Y-116677525D01*
X120512984Y-116537515D01*
X120469665Y-116462485D01*
X120440511Y-116411988D01*
X120440506Y-116411982D01*
X120338017Y-116309493D01*
X120338015Y-116309491D01*
X120212485Y-116237016D01*
X120072475Y-116199500D01*
X119927525Y-116199500D01*
X119798993Y-116233940D01*
X119787511Y-116237017D01*
X119661988Y-116309488D01*
X119661982Y-116309493D01*
X119559493Y-116411982D01*
X119559488Y-116411988D01*
X119487017Y-116537511D01*
X119487016Y-116537515D01*
X119449500Y-116677525D01*
X105500500Y-116677525D01*
X105500500Y-116152525D01*
X137974500Y-116152525D01*
X137974500Y-116297475D01*
X138012016Y-116437485D01*
X138012017Y-116437488D01*
X138084488Y-116563011D01*
X138084490Y-116563013D01*
X138084491Y-116563015D01*
X138186985Y-116665509D01*
X138186986Y-116665510D01*
X138186988Y-116665511D01*
X138312511Y-116737982D01*
X138312512Y-116737982D01*
X138312515Y-116737984D01*
X138452525Y-116775500D01*
X138452528Y-116775500D01*
X138597472Y-116775500D01*
X138597475Y-116775500D01*
X138737485Y-116737984D01*
X138863015Y-116665509D01*
X138965509Y-116563015D01*
X139037984Y-116437485D01*
X139075500Y-116297475D01*
X139075500Y-116177525D01*
X147049500Y-116177525D01*
X147049500Y-116322475D01*
X147077778Y-116428009D01*
X147087017Y-116462488D01*
X147159488Y-116588011D01*
X147159490Y-116588013D01*
X147159491Y-116588015D01*
X147261985Y-116690509D01*
X147261986Y-116690510D01*
X147261988Y-116690511D01*
X147387511Y-116762982D01*
X147387512Y-116762982D01*
X147387515Y-116762984D01*
X147527525Y-116800500D01*
X147527528Y-116800500D01*
X147672472Y-116800500D01*
X147672475Y-116800500D01*
X147812485Y-116762984D01*
X147938015Y-116690509D01*
X148040509Y-116588015D01*
X148112984Y-116462485D01*
X148150500Y-116322475D01*
X148150500Y-116177525D01*
X148112984Y-116037515D01*
X148042264Y-115915025D01*
X152187000Y-115915025D01*
X152187000Y-116059975D01*
X152224386Y-116199500D01*
X152224517Y-116199988D01*
X152296988Y-116325511D01*
X152296990Y-116325513D01*
X152296991Y-116325515D01*
X152399485Y-116428009D01*
X152399486Y-116428010D01*
X152399488Y-116428011D01*
X152525011Y-116500482D01*
X152525012Y-116500482D01*
X152525015Y-116500484D01*
X152665025Y-116538000D01*
X152665028Y-116538000D01*
X152809972Y-116538000D01*
X152809975Y-116538000D01*
X152949985Y-116500484D01*
X153075515Y-116428009D01*
X153178009Y-116325515D01*
X153250484Y-116199985D01*
X153288000Y-116059975D01*
X153288000Y-115915025D01*
X153250484Y-115775015D01*
X153214111Y-115712016D01*
X153178011Y-115649488D01*
X153178006Y-115649482D01*
X153075517Y-115546993D01*
X153075511Y-115546988D01*
X152949988Y-115474517D01*
X152949989Y-115474517D01*
X152938506Y-115471440D01*
X152809975Y-115437000D01*
X152665025Y-115437000D01*
X152536493Y-115471440D01*
X152525011Y-115474517D01*
X152399488Y-115546988D01*
X152399482Y-115546993D01*
X152296993Y-115649482D01*
X152296988Y-115649488D01*
X152224517Y-115775011D01*
X152224516Y-115775015D01*
X152187000Y-115915025D01*
X148042264Y-115915025D01*
X148040509Y-115911985D01*
X147938015Y-115809491D01*
X147938013Y-115809490D01*
X147938011Y-115809488D01*
X147812488Y-115737017D01*
X147812489Y-115737017D01*
X147801006Y-115733940D01*
X147672475Y-115699500D01*
X147527525Y-115699500D01*
X147398993Y-115733940D01*
X147387511Y-115737017D01*
X147261988Y-115809488D01*
X147261982Y-115809493D01*
X147159493Y-115911982D01*
X147159488Y-115911988D01*
X147087017Y-116037511D01*
X147087016Y-116037515D01*
X147049500Y-116177525D01*
X139075500Y-116177525D01*
X139075500Y-116152525D01*
X139037984Y-116012515D01*
X139012802Y-115968899D01*
X138965511Y-115886988D01*
X138965506Y-115886982D01*
X138863017Y-115784493D01*
X138863011Y-115784488D01*
X138737488Y-115712017D01*
X138737489Y-115712017D01*
X138726006Y-115708940D01*
X138597475Y-115674500D01*
X138452525Y-115674500D01*
X138323993Y-115708940D01*
X138312511Y-115712017D01*
X138186988Y-115784488D01*
X138186982Y-115784493D01*
X138084493Y-115886982D01*
X138084488Y-115886988D01*
X138012017Y-116012511D01*
X138012016Y-116012515D01*
X137974500Y-116152525D01*
X105500500Y-116152525D01*
X105500500Y-113427525D01*
X119449500Y-113427525D01*
X119449500Y-113572475D01*
X119481128Y-113690511D01*
X119487017Y-113712488D01*
X119559488Y-113838011D01*
X119559490Y-113838013D01*
X119559491Y-113838015D01*
X119661985Y-113940509D01*
X119661986Y-113940510D01*
X119661988Y-113940511D01*
X119787511Y-114012982D01*
X119787512Y-114012982D01*
X119787515Y-114012984D01*
X119927525Y-114050500D01*
X119927528Y-114050500D01*
X120072472Y-114050500D01*
X120072475Y-114050500D01*
X120212485Y-114012984D01*
X120338015Y-113940509D01*
X120440509Y-113838015D01*
X120512984Y-113712485D01*
X120526139Y-113663389D01*
X159779500Y-113663389D01*
X159779500Y-113836611D01*
X159806598Y-114007701D01*
X159860127Y-114172445D01*
X159938768Y-114326788D01*
X160040586Y-114466928D01*
X160163072Y-114589414D01*
X160303212Y-114691232D01*
X160457555Y-114769873D01*
X160622299Y-114823402D01*
X160793389Y-114850500D01*
X160793390Y-114850500D01*
X160966610Y-114850500D01*
X160966611Y-114850500D01*
X161137701Y-114823402D01*
X161302445Y-114769873D01*
X161456788Y-114691232D01*
X161596928Y-114589414D01*
X161719414Y-114466928D01*
X161821232Y-114326788D01*
X161899873Y-114172445D01*
X161953402Y-114007701D01*
X161980500Y-113836611D01*
X161980500Y-113663389D01*
X162319500Y-113663389D01*
X162319500Y-113836611D01*
X162346598Y-114007701D01*
X162400127Y-114172445D01*
X162478768Y-114326788D01*
X162580586Y-114466928D01*
X162703072Y-114589414D01*
X162843212Y-114691232D01*
X162997555Y-114769873D01*
X163162299Y-114823402D01*
X163333389Y-114850500D01*
X163333390Y-114850500D01*
X163506610Y-114850500D01*
X163506611Y-114850500D01*
X163677701Y-114823402D01*
X163842445Y-114769873D01*
X163996788Y-114691232D01*
X164136928Y-114589414D01*
X164259414Y-114466928D01*
X164361232Y-114326788D01*
X164439873Y-114172445D01*
X164493402Y-114007701D01*
X164520500Y-113836611D01*
X164520500Y-113663389D01*
X164859500Y-113663389D01*
X164859500Y-113836611D01*
X164886598Y-114007701D01*
X164940127Y-114172445D01*
X165018768Y-114326788D01*
X165120586Y-114466928D01*
X165243072Y-114589414D01*
X165383212Y-114691232D01*
X165537555Y-114769873D01*
X165702299Y-114823402D01*
X165873389Y-114850500D01*
X165873390Y-114850500D01*
X166046610Y-114850500D01*
X166046611Y-114850500D01*
X166217701Y-114823402D01*
X166382445Y-114769873D01*
X166536788Y-114691232D01*
X166676928Y-114589414D01*
X166799414Y-114466928D01*
X166901232Y-114326788D01*
X166915515Y-114298756D01*
X166963489Y-114247960D01*
X167031309Y-114231164D01*
X167097445Y-114253701D01*
X167140897Y-114308415D01*
X167150000Y-114355050D01*
X167150000Y-114647844D01*
X167156401Y-114707372D01*
X167156403Y-114707379D01*
X167206645Y-114842086D01*
X167206649Y-114842093D01*
X167292809Y-114957187D01*
X167292812Y-114957190D01*
X167407906Y-115043350D01*
X167407913Y-115043354D01*
X167542620Y-115093596D01*
X167542627Y-115093598D01*
X167602155Y-115099999D01*
X167602172Y-115100000D01*
X168250000Y-115100000D01*
X168250000Y-114183012D01*
X168307007Y-114215925D01*
X168434174Y-114250000D01*
X168565826Y-114250000D01*
X168692993Y-114215925D01*
X168750000Y-114183012D01*
X168750000Y-115100000D01*
X169397828Y-115100000D01*
X169397844Y-115099999D01*
X169457372Y-115093598D01*
X169457379Y-115093596D01*
X169592086Y-115043354D01*
X169592093Y-115043350D01*
X169707187Y-114957190D01*
X169707190Y-114957187D01*
X169793350Y-114842093D01*
X169793354Y-114842086D01*
X169843596Y-114707379D01*
X169843598Y-114707372D01*
X169849999Y-114647844D01*
X169850000Y-114647827D01*
X169850000Y-114000000D01*
X168933012Y-114000000D01*
X168965925Y-113942993D01*
X169000000Y-113815826D01*
X169000000Y-113684174D01*
X168965925Y-113557007D01*
X168933012Y-113500000D01*
X169850000Y-113500000D01*
X169850000Y-113177525D01*
X179449500Y-113177525D01*
X179449500Y-113322475D01*
X179477649Y-113427527D01*
X179487017Y-113462488D01*
X179559488Y-113588011D01*
X179559490Y-113588013D01*
X179559491Y-113588015D01*
X179661985Y-113690509D01*
X179661986Y-113690510D01*
X179661988Y-113690511D01*
X179787511Y-113762982D01*
X179787512Y-113762982D01*
X179787515Y-113762984D01*
X179927525Y-113800500D01*
X179927528Y-113800500D01*
X180072472Y-113800500D01*
X180072475Y-113800500D01*
X180212485Y-113762984D01*
X180338015Y-113690509D01*
X180440509Y-113588015D01*
X180512984Y-113462485D01*
X180550500Y-113322475D01*
X180550500Y-113177525D01*
X180512984Y-113037515D01*
X180483828Y-112987016D01*
X180440511Y-112911988D01*
X180440506Y-112911982D01*
X180338017Y-112809493D01*
X180338011Y-112809488D01*
X180212488Y-112737017D01*
X180212489Y-112737017D01*
X180186775Y-112730127D01*
X180072475Y-112699500D01*
X179927525Y-112699500D01*
X179813225Y-112730127D01*
X179787511Y-112737017D01*
X179661988Y-112809488D01*
X179661982Y-112809493D01*
X179559493Y-112911982D01*
X179559488Y-112911988D01*
X179487017Y-113037511D01*
X179487016Y-113037515D01*
X179449500Y-113177525D01*
X169850000Y-113177525D01*
X169850000Y-112852172D01*
X169849999Y-112852155D01*
X169843598Y-112792627D01*
X169843596Y-112792620D01*
X169793354Y-112657913D01*
X169793350Y-112657906D01*
X169707190Y-112542812D01*
X169674933Y-112518664D01*
X169592088Y-112456646D01*
X169592086Y-112456645D01*
X169514011Y-112427525D01*
X181949500Y-112427525D01*
X181949500Y-112572475D01*
X181977400Y-112676597D01*
X181987017Y-112712488D01*
X182059488Y-112838011D01*
X182059490Y-112838013D01*
X182059491Y-112838015D01*
X182161985Y-112940509D01*
X182161986Y-112940510D01*
X182161988Y-112940511D01*
X182287511Y-113012982D01*
X182287512Y-113012982D01*
X182287515Y-113012984D01*
X182427525Y-113050500D01*
X182427528Y-113050500D01*
X182572472Y-113050500D01*
X182572475Y-113050500D01*
X182712485Y-113012984D01*
X182838015Y-112940509D01*
X182940509Y-112838015D01*
X183012984Y-112712485D01*
X183050500Y-112572475D01*
X183050500Y-112427525D01*
X183012984Y-112287515D01*
X182940509Y-112161985D01*
X182838015Y-112059491D01*
X182838013Y-112059490D01*
X182838011Y-112059488D01*
X182712488Y-111987017D01*
X182712489Y-111987017D01*
X182701006Y-111983940D01*
X182572475Y-111949500D01*
X182427525Y-111949500D01*
X182298993Y-111983940D01*
X182287511Y-111987017D01*
X182161988Y-112059488D01*
X182161982Y-112059493D01*
X182059493Y-112161982D01*
X182059488Y-112161988D01*
X181987017Y-112287511D01*
X181987016Y-112287515D01*
X181949500Y-112427525D01*
X169514011Y-112427525D01*
X169457379Y-112406403D01*
X169457372Y-112406401D01*
X169397844Y-112400000D01*
X168750000Y-112400000D01*
X168750000Y-113316988D01*
X168692993Y-113284075D01*
X168565826Y-113250000D01*
X168434174Y-113250000D01*
X168307007Y-113284075D01*
X168250000Y-113316988D01*
X168250000Y-112400000D01*
X167602155Y-112400000D01*
X167542627Y-112406401D01*
X167542620Y-112406403D01*
X167407913Y-112456645D01*
X167407906Y-112456649D01*
X167292812Y-112542809D01*
X167292809Y-112542812D01*
X167206649Y-112657906D01*
X167206645Y-112657913D01*
X167156403Y-112792620D01*
X167156401Y-112792627D01*
X167150000Y-112852155D01*
X167150000Y-113144949D01*
X167130315Y-113211988D01*
X167077511Y-113257743D01*
X167008353Y-113267687D01*
X166944797Y-113238662D01*
X166915515Y-113201244D01*
X166912951Y-113196213D01*
X166901232Y-113173212D01*
X166799414Y-113033072D01*
X166676928Y-112910586D01*
X166536788Y-112808768D01*
X166382445Y-112730127D01*
X166217701Y-112676598D01*
X166217699Y-112676597D01*
X166217698Y-112676597D01*
X166086271Y-112655781D01*
X166046611Y-112649500D01*
X165873389Y-112649500D01*
X165833728Y-112655781D01*
X165702302Y-112676597D01*
X165537552Y-112730128D01*
X165383211Y-112808768D01*
X165303256Y-112866859D01*
X165243072Y-112910586D01*
X165243070Y-112910588D01*
X165243069Y-112910588D01*
X165120588Y-113033069D01*
X165120588Y-113033070D01*
X165120586Y-113033072D01*
X165101390Y-113059493D01*
X165018768Y-113173211D01*
X164940128Y-113327552D01*
X164886597Y-113492302D01*
X164871438Y-113588015D01*
X164859500Y-113663389D01*
X164520500Y-113663389D01*
X164493402Y-113492299D01*
X164439873Y-113327555D01*
X164361232Y-113173212D01*
X164259414Y-113033072D01*
X164136928Y-112910586D01*
X163996788Y-112808768D01*
X163842445Y-112730127D01*
X163677701Y-112676598D01*
X163677699Y-112676597D01*
X163677698Y-112676597D01*
X163546271Y-112655781D01*
X163506611Y-112649500D01*
X163333389Y-112649500D01*
X163293728Y-112655781D01*
X163162302Y-112676597D01*
X162997552Y-112730128D01*
X162843211Y-112808768D01*
X162763256Y-112866859D01*
X162703072Y-112910586D01*
X162703070Y-112910588D01*
X162703069Y-112910588D01*
X162580588Y-113033069D01*
X162580588Y-113033070D01*
X162580586Y-113033072D01*
X162561390Y-113059493D01*
X162478768Y-113173211D01*
X162400128Y-113327552D01*
X162346597Y-113492302D01*
X162331438Y-113588015D01*
X162319500Y-113663389D01*
X161980500Y-113663389D01*
X161953402Y-113492299D01*
X161899873Y-113327555D01*
X161821232Y-113173212D01*
X161719414Y-113033072D01*
X161596928Y-112910586D01*
X161456788Y-112808768D01*
X161302445Y-112730127D01*
X161137701Y-112676598D01*
X161137699Y-112676597D01*
X161137698Y-112676597D01*
X161006271Y-112655781D01*
X160966611Y-112649500D01*
X160793389Y-112649500D01*
X160753728Y-112655781D01*
X160622302Y-112676597D01*
X160457552Y-112730128D01*
X160303211Y-112808768D01*
X160223256Y-112866859D01*
X160163072Y-112910586D01*
X160163070Y-112910588D01*
X160163069Y-112910588D01*
X160040588Y-113033069D01*
X160040588Y-113033070D01*
X160040586Y-113033072D01*
X160021390Y-113059493D01*
X159938768Y-113173211D01*
X159860128Y-113327552D01*
X159806597Y-113492302D01*
X159791438Y-113588015D01*
X159779500Y-113663389D01*
X120526139Y-113663389D01*
X120550500Y-113572475D01*
X120550500Y-113427525D01*
X120512984Y-113287515D01*
X120501536Y-113267687D01*
X120440511Y-113161988D01*
X120440506Y-113161982D01*
X120338017Y-113059493D01*
X120338011Y-113059488D01*
X120212488Y-112987017D01*
X120212489Y-112987017D01*
X120201006Y-112983940D01*
X120072475Y-112949500D01*
X119927525Y-112949500D01*
X119798993Y-112983940D01*
X119787511Y-112987017D01*
X119661988Y-113059488D01*
X119661982Y-113059493D01*
X119559493Y-113161982D01*
X119559488Y-113161988D01*
X119487017Y-113287511D01*
X119487016Y-113287515D01*
X119449500Y-113427525D01*
X105500500Y-113427525D01*
X105500500Y-112427525D01*
X122199500Y-112427525D01*
X122199500Y-112572475D01*
X122227400Y-112676597D01*
X122237017Y-112712488D01*
X122309488Y-112838011D01*
X122309490Y-112838013D01*
X122309491Y-112838015D01*
X122411985Y-112940509D01*
X122411986Y-112940510D01*
X122411988Y-112940511D01*
X122537511Y-113012982D01*
X122537512Y-113012982D01*
X122537515Y-113012984D01*
X122677525Y-113050500D01*
X122677528Y-113050500D01*
X122822472Y-113050500D01*
X122822475Y-113050500D01*
X122962485Y-113012984D01*
X123088015Y-112940509D01*
X123190509Y-112838015D01*
X123262984Y-112712485D01*
X123300500Y-112572475D01*
X123300500Y-112427525D01*
X149699500Y-112427525D01*
X149699500Y-112572475D01*
X149727400Y-112676597D01*
X149737017Y-112712488D01*
X149809488Y-112838011D01*
X149809490Y-112838013D01*
X149809491Y-112838015D01*
X149911985Y-112940509D01*
X149911986Y-112940510D01*
X149911988Y-112940511D01*
X150037511Y-113012982D01*
X150037512Y-113012982D01*
X150037515Y-113012984D01*
X150177525Y-113050500D01*
X150177528Y-113050500D01*
X150322472Y-113050500D01*
X150322475Y-113050500D01*
X150462485Y-113012984D01*
X150588015Y-112940509D01*
X150690509Y-112838015D01*
X150762984Y-112712485D01*
X150800500Y-112572475D01*
X150800500Y-112427525D01*
X150762984Y-112287515D01*
X150690509Y-112161985D01*
X150588015Y-112059491D01*
X150588013Y-112059490D01*
X150588011Y-112059488D01*
X150462488Y-111987017D01*
X150462489Y-111987017D01*
X150451006Y-111983940D01*
X150322475Y-111949500D01*
X150177525Y-111949500D01*
X150048993Y-111983940D01*
X150037511Y-111987017D01*
X149911988Y-112059488D01*
X149911982Y-112059493D01*
X149809493Y-112161982D01*
X149809488Y-112161988D01*
X149737017Y-112287511D01*
X149737016Y-112287515D01*
X149699500Y-112427525D01*
X123300500Y-112427525D01*
X123262984Y-112287515D01*
X123190509Y-112161985D01*
X123088015Y-112059491D01*
X123088013Y-112059490D01*
X123088011Y-112059488D01*
X122962488Y-111987017D01*
X122962489Y-111987017D01*
X122951006Y-111983940D01*
X122822475Y-111949500D01*
X122677525Y-111949500D01*
X122548993Y-111983940D01*
X122537511Y-111987017D01*
X122411988Y-112059488D01*
X122411982Y-112059493D01*
X122309493Y-112161982D01*
X122309488Y-112161988D01*
X122237017Y-112287511D01*
X122237016Y-112287515D01*
X122199500Y-112427525D01*
X105500500Y-112427525D01*
X105500500Y-110927525D01*
X144949500Y-110927525D01*
X144949500Y-111072475D01*
X144987016Y-111212485D01*
X144987017Y-111212488D01*
X145059488Y-111338011D01*
X145059490Y-111338013D01*
X145059491Y-111338015D01*
X145161985Y-111440509D01*
X145161986Y-111440510D01*
X145161988Y-111440511D01*
X145287511Y-111512982D01*
X145287512Y-111512982D01*
X145287515Y-111512984D01*
X145427525Y-111550500D01*
X145427528Y-111550500D01*
X145572472Y-111550500D01*
X145572475Y-111550500D01*
X145712485Y-111512984D01*
X145838015Y-111440509D01*
X145940509Y-111338015D01*
X146012984Y-111212485D01*
X146050500Y-111072475D01*
X146050500Y-110927525D01*
X146012984Y-110787515D01*
X145940509Y-110661985D01*
X145838015Y-110559491D01*
X145838013Y-110559490D01*
X145838011Y-110559488D01*
X145712488Y-110487017D01*
X145712489Y-110487017D01*
X145701006Y-110483940D01*
X145572475Y-110449500D01*
X145427525Y-110449500D01*
X145298993Y-110483940D01*
X145287511Y-110487017D01*
X145161988Y-110559488D01*
X145161982Y-110559493D01*
X145059493Y-110661982D01*
X145059488Y-110661988D01*
X144987017Y-110787511D01*
X144987016Y-110787515D01*
X144949500Y-110927525D01*
X105500500Y-110927525D01*
X105500500Y-107177525D01*
X148449500Y-107177525D01*
X148449500Y-107322475D01*
X148481128Y-107440511D01*
X148487017Y-107462488D01*
X148559488Y-107588011D01*
X148559490Y-107588013D01*
X148559491Y-107588015D01*
X148661985Y-107690509D01*
X148661986Y-107690510D01*
X148661988Y-107690511D01*
X148787511Y-107762982D01*
X148787512Y-107762982D01*
X148787515Y-107762984D01*
X148927525Y-107800500D01*
X148927528Y-107800500D01*
X149072472Y-107800500D01*
X149072475Y-107800500D01*
X149212485Y-107762984D01*
X149338015Y-107690509D01*
X149440509Y-107588015D01*
X149512984Y-107462485D01*
X149550500Y-107322475D01*
X149550500Y-107177525D01*
X150949500Y-107177525D01*
X150949500Y-107322475D01*
X150981128Y-107440511D01*
X150987017Y-107462488D01*
X151059488Y-107588011D01*
X151059490Y-107588013D01*
X151059491Y-107588015D01*
X151161985Y-107690509D01*
X151161986Y-107690510D01*
X151161988Y-107690511D01*
X151287511Y-107762982D01*
X151287512Y-107762982D01*
X151287515Y-107762984D01*
X151427525Y-107800500D01*
X151427528Y-107800500D01*
X151572472Y-107800500D01*
X151572475Y-107800500D01*
X151712485Y-107762984D01*
X151838015Y-107690509D01*
X151940509Y-107588015D01*
X152012984Y-107462485D01*
X152050500Y-107322475D01*
X152050500Y-107177525D01*
X152012984Y-107037515D01*
X151949481Y-106927525D01*
X153949500Y-106927525D01*
X153949500Y-107072475D01*
X153977649Y-107177527D01*
X153987017Y-107212488D01*
X154059488Y-107338011D01*
X154059490Y-107338013D01*
X154059491Y-107338015D01*
X154161985Y-107440509D01*
X154161986Y-107440510D01*
X154161988Y-107440511D01*
X154287511Y-107512982D01*
X154287512Y-107512982D01*
X154287515Y-107512984D01*
X154427525Y-107550500D01*
X154427528Y-107550500D01*
X154572472Y-107550500D01*
X154572475Y-107550500D01*
X154712485Y-107512984D01*
X154838015Y-107440509D01*
X154940509Y-107338015D01*
X155012984Y-107212485D01*
X155050500Y-107072475D01*
X155050500Y-106927525D01*
X155449500Y-106927525D01*
X155449500Y-107072475D01*
X155477649Y-107177527D01*
X155487017Y-107212488D01*
X155559488Y-107338011D01*
X155559490Y-107338013D01*
X155559491Y-107338015D01*
X155661985Y-107440509D01*
X155661986Y-107440510D01*
X155661988Y-107440511D01*
X155787511Y-107512982D01*
X155787512Y-107512982D01*
X155787515Y-107512984D01*
X155927525Y-107550500D01*
X155927528Y-107550500D01*
X156072472Y-107550500D01*
X156072475Y-107550500D01*
X156212485Y-107512984D01*
X156338015Y-107440509D01*
X156440509Y-107338015D01*
X156512984Y-107212485D01*
X156550500Y-107072475D01*
X156550500Y-106927525D01*
X156512984Y-106787515D01*
X156483828Y-106737016D01*
X156440511Y-106661988D01*
X156440506Y-106661982D01*
X156338017Y-106559493D01*
X156338011Y-106559488D01*
X156212488Y-106487017D01*
X156212489Y-106487017D01*
X156201006Y-106483940D01*
X156072475Y-106449500D01*
X155927525Y-106449500D01*
X155798993Y-106483940D01*
X155787511Y-106487017D01*
X155661988Y-106559488D01*
X155661982Y-106559493D01*
X155559493Y-106661982D01*
X155559488Y-106661988D01*
X155487017Y-106787511D01*
X155487016Y-106787515D01*
X155449500Y-106927525D01*
X155050500Y-106927525D01*
X155012984Y-106787515D01*
X154983828Y-106737016D01*
X154940511Y-106661988D01*
X154940506Y-106661982D01*
X154838017Y-106559493D01*
X154838011Y-106559488D01*
X154712488Y-106487017D01*
X154712489Y-106487017D01*
X154701006Y-106483940D01*
X154572475Y-106449500D01*
X154427525Y-106449500D01*
X154298993Y-106483940D01*
X154287511Y-106487017D01*
X154161988Y-106559488D01*
X154161982Y-106559493D01*
X154059493Y-106661982D01*
X154059488Y-106661988D01*
X153987017Y-106787511D01*
X153987016Y-106787515D01*
X153949500Y-106927525D01*
X151949481Y-106927525D01*
X151940509Y-106911985D01*
X151838015Y-106809491D01*
X151838013Y-106809490D01*
X151838011Y-106809488D01*
X151712488Y-106737017D01*
X151712489Y-106737017D01*
X151701006Y-106733940D01*
X151572475Y-106699500D01*
X151427525Y-106699500D01*
X151298993Y-106733940D01*
X151287511Y-106737017D01*
X151161988Y-106809488D01*
X151161982Y-106809493D01*
X151059493Y-106911982D01*
X151059488Y-106911988D01*
X150987017Y-107037511D01*
X150987016Y-107037515D01*
X150949500Y-107177525D01*
X149550500Y-107177525D01*
X149512984Y-107037515D01*
X149480585Y-106981399D01*
X149440511Y-106911988D01*
X149440506Y-106911982D01*
X149338017Y-106809493D01*
X149338011Y-106809488D01*
X149212488Y-106737017D01*
X149212489Y-106737017D01*
X149201006Y-106733940D01*
X149072475Y-106699500D01*
X148927525Y-106699500D01*
X148798993Y-106733940D01*
X148787511Y-106737017D01*
X148661988Y-106809488D01*
X148661982Y-106809493D01*
X148559493Y-106911982D01*
X148559488Y-106911988D01*
X148487017Y-107037511D01*
X148487016Y-107037515D01*
X148449500Y-107177525D01*
X105500500Y-107177525D01*
X105500500Y-103927525D01*
X145049500Y-103927525D01*
X145049500Y-104072475D01*
X145077649Y-104177527D01*
X145087017Y-104212488D01*
X145159488Y-104338011D01*
X145159490Y-104338013D01*
X145159491Y-104338015D01*
X145261985Y-104440509D01*
X145261986Y-104440510D01*
X145261988Y-104440511D01*
X145387511Y-104512982D01*
X145387512Y-104512982D01*
X145387515Y-104512984D01*
X145527525Y-104550500D01*
X145527528Y-104550500D01*
X145672472Y-104550500D01*
X145672475Y-104550500D01*
X145812485Y-104512984D01*
X145938015Y-104440509D01*
X146040509Y-104338015D01*
X146112984Y-104212485D01*
X146130226Y-104148137D01*
X146166590Y-104088479D01*
X146229437Y-104057950D01*
X146298813Y-104066245D01*
X146352691Y-104110730D01*
X146369773Y-104148135D01*
X146377649Y-104177527D01*
X146387017Y-104212488D01*
X146459488Y-104338011D01*
X146459490Y-104338013D01*
X146459491Y-104338015D01*
X146561985Y-104440509D01*
X146561986Y-104440510D01*
X146561988Y-104440511D01*
X146687511Y-104512982D01*
X146687512Y-104512982D01*
X146687515Y-104512984D01*
X146827525Y-104550500D01*
X146827528Y-104550500D01*
X146972472Y-104550500D01*
X146972475Y-104550500D01*
X147112485Y-104512984D01*
X147238015Y-104440509D01*
X147340509Y-104338015D01*
X147391556Y-104249598D01*
X147442123Y-104201383D01*
X147510730Y-104188160D01*
X147575595Y-104214128D01*
X147606330Y-104249598D01*
X147654491Y-104333015D01*
X147756985Y-104435509D01*
X147756986Y-104435510D01*
X147756988Y-104435511D01*
X147882511Y-104507982D01*
X147882512Y-104507982D01*
X147882515Y-104507984D01*
X148022525Y-104545500D01*
X148022528Y-104545500D01*
X148167472Y-104545500D01*
X148167475Y-104545500D01*
X148307485Y-104507984D01*
X148433015Y-104435509D01*
X148535509Y-104333015D01*
X148607984Y-104207485D01*
X148627056Y-104136306D01*
X148663420Y-104076649D01*
X148726267Y-104046120D01*
X148795643Y-104054415D01*
X148849521Y-104098900D01*
X148866603Y-104136306D01*
X148877649Y-104177527D01*
X148887017Y-104212488D01*
X148959488Y-104338011D01*
X148959490Y-104338013D01*
X148959491Y-104338015D01*
X149061985Y-104440509D01*
X149061986Y-104440510D01*
X149061988Y-104440511D01*
X149187511Y-104512982D01*
X149187512Y-104512982D01*
X149187515Y-104512984D01*
X149327525Y-104550500D01*
X149327528Y-104550500D01*
X149472472Y-104550500D01*
X149472475Y-104550500D01*
X149612485Y-104512984D01*
X149738015Y-104440509D01*
X149840509Y-104338015D01*
X149912984Y-104212485D01*
X149930226Y-104148137D01*
X149966590Y-104088479D01*
X150029437Y-104057950D01*
X150098813Y-104066245D01*
X150152691Y-104110730D01*
X150169773Y-104148135D01*
X150177649Y-104177527D01*
X150187017Y-104212488D01*
X150259488Y-104338011D01*
X150259490Y-104338013D01*
X150259491Y-104338015D01*
X150361985Y-104440509D01*
X150361986Y-104440510D01*
X150361988Y-104440511D01*
X150487511Y-104512982D01*
X150487512Y-104512982D01*
X150487515Y-104512984D01*
X150627525Y-104550500D01*
X150627528Y-104550500D01*
X150772472Y-104550500D01*
X150772475Y-104550500D01*
X150912485Y-104512984D01*
X151038015Y-104440509D01*
X151140509Y-104338015D01*
X151212984Y-104212485D01*
X151222352Y-104177525D01*
X158449500Y-104177525D01*
X158449500Y-104322475D01*
X158481128Y-104440511D01*
X158487017Y-104462488D01*
X158559488Y-104588011D01*
X158559490Y-104588013D01*
X158559491Y-104588015D01*
X158661985Y-104690509D01*
X158661986Y-104690510D01*
X158661988Y-104690511D01*
X158787511Y-104762982D01*
X158787512Y-104762982D01*
X158787515Y-104762984D01*
X158927525Y-104800500D01*
X158927528Y-104800500D01*
X159072472Y-104800500D01*
X159072475Y-104800500D01*
X159212485Y-104762984D01*
X159338015Y-104690509D01*
X159440509Y-104588015D01*
X159512984Y-104462485D01*
X159550500Y-104322475D01*
X159550500Y-104177525D01*
X166650971Y-104177525D01*
X166650971Y-104322475D01*
X166682599Y-104440511D01*
X166688488Y-104462488D01*
X166760959Y-104588011D01*
X166760961Y-104588013D01*
X166760962Y-104588015D01*
X166863456Y-104690509D01*
X166863457Y-104690510D01*
X166863459Y-104690511D01*
X166988982Y-104762982D01*
X166988983Y-104762982D01*
X166988986Y-104762984D01*
X167128996Y-104800500D01*
X167128999Y-104800500D01*
X167273943Y-104800500D01*
X167273946Y-104800500D01*
X167413956Y-104762984D01*
X167539486Y-104690509D01*
X167641980Y-104588015D01*
X167714455Y-104462485D01*
X167751971Y-104322475D01*
X167751971Y-104177525D01*
X167714455Y-104037515D01*
X167654548Y-103933754D01*
X167641982Y-103911988D01*
X167641977Y-103911982D01*
X167539488Y-103809493D01*
X167539482Y-103809488D01*
X167413959Y-103737017D01*
X167413960Y-103737017D01*
X167402477Y-103733940D01*
X167273946Y-103699500D01*
X167128996Y-103699500D01*
X167000464Y-103733940D01*
X166988982Y-103737017D01*
X166863459Y-103809488D01*
X166863453Y-103809493D01*
X166760964Y-103911982D01*
X166760959Y-103911988D01*
X166688488Y-104037511D01*
X166688487Y-104037515D01*
X166650971Y-104177525D01*
X159550500Y-104177525D01*
X159512984Y-104037515D01*
X159453077Y-103933754D01*
X159440511Y-103911988D01*
X159440506Y-103911982D01*
X159338017Y-103809493D01*
X159338011Y-103809488D01*
X159212488Y-103737017D01*
X159212489Y-103737017D01*
X159201006Y-103733940D01*
X159072475Y-103699500D01*
X158927525Y-103699500D01*
X158798993Y-103733940D01*
X158787511Y-103737017D01*
X158661988Y-103809488D01*
X158661982Y-103809493D01*
X158559493Y-103911982D01*
X158559488Y-103911988D01*
X158487017Y-104037511D01*
X158487016Y-104037515D01*
X158449500Y-104177525D01*
X151222352Y-104177525D01*
X151250500Y-104072475D01*
X151250500Y-103927525D01*
X151212984Y-103787515D01*
X151210097Y-103782515D01*
X151140511Y-103661988D01*
X151140506Y-103661982D01*
X151038017Y-103559493D01*
X151038011Y-103559488D01*
X150912488Y-103487017D01*
X150912489Y-103487017D01*
X150893825Y-103482016D01*
X150772475Y-103449500D01*
X150627525Y-103449500D01*
X150506175Y-103482016D01*
X150487511Y-103487017D01*
X150361988Y-103559488D01*
X150361982Y-103559493D01*
X150259493Y-103661982D01*
X150259488Y-103661988D01*
X150187017Y-103787511D01*
X150187016Y-103787515D01*
X150181128Y-103809491D01*
X150169775Y-103851860D01*
X150133409Y-103911520D01*
X150070562Y-103942049D01*
X150001187Y-103933754D01*
X149947309Y-103889268D01*
X149930225Y-103851860D01*
X149912984Y-103787515D01*
X149910097Y-103782515D01*
X149840511Y-103661988D01*
X149840506Y-103661982D01*
X149738017Y-103559493D01*
X149738011Y-103559488D01*
X149612488Y-103487017D01*
X149612489Y-103487017D01*
X149593825Y-103482016D01*
X149472475Y-103449500D01*
X149327525Y-103449500D01*
X149206175Y-103482016D01*
X149187511Y-103487017D01*
X149061988Y-103559488D01*
X149061982Y-103559493D01*
X148959493Y-103661982D01*
X148959488Y-103661988D01*
X148887017Y-103787511D01*
X148887015Y-103787516D01*
X148867943Y-103858691D01*
X148831577Y-103918351D01*
X148768730Y-103948879D01*
X148699355Y-103940584D01*
X148645477Y-103896097D01*
X148628396Y-103858694D01*
X148607984Y-103782515D01*
X148607034Y-103780870D01*
X148535511Y-103656988D01*
X148535506Y-103656982D01*
X148433017Y-103554493D01*
X148433011Y-103554488D01*
X148307488Y-103482017D01*
X148307489Y-103482017D01*
X148296006Y-103478940D01*
X148167475Y-103444500D01*
X148022525Y-103444500D01*
X147893993Y-103478940D01*
X147882511Y-103482017D01*
X147756988Y-103554488D01*
X147756982Y-103554493D01*
X147654493Y-103656982D01*
X147654486Y-103656991D01*
X147603442Y-103745401D01*
X147552875Y-103793616D01*
X147484267Y-103806838D01*
X147419403Y-103780870D01*
X147388669Y-103745400D01*
X147362168Y-103699500D01*
X147340509Y-103661985D01*
X147238015Y-103559491D01*
X147238013Y-103559490D01*
X147238011Y-103559488D01*
X147112488Y-103487017D01*
X147112489Y-103487017D01*
X147093825Y-103482016D01*
X146972475Y-103449500D01*
X146827525Y-103449500D01*
X146706175Y-103482016D01*
X146687511Y-103487017D01*
X146561988Y-103559488D01*
X146561982Y-103559493D01*
X146459493Y-103661982D01*
X146459488Y-103661988D01*
X146387017Y-103787511D01*
X146387016Y-103787515D01*
X146381128Y-103809491D01*
X146369775Y-103851860D01*
X146333409Y-103911520D01*
X146270562Y-103942049D01*
X146201187Y-103933754D01*
X146147309Y-103889268D01*
X146130225Y-103851860D01*
X146112984Y-103787515D01*
X146110097Y-103782515D01*
X146040511Y-103661988D01*
X146040506Y-103661982D01*
X145938017Y-103559493D01*
X145938011Y-103559488D01*
X145812488Y-103487017D01*
X145812489Y-103487017D01*
X145793825Y-103482016D01*
X145672475Y-103449500D01*
X145527525Y-103449500D01*
X145406175Y-103482016D01*
X145387511Y-103487017D01*
X145261988Y-103559488D01*
X145261982Y-103559493D01*
X145159493Y-103661982D01*
X145159488Y-103661988D01*
X145087017Y-103787511D01*
X145087016Y-103787515D01*
X145049500Y-103927525D01*
X105500500Y-103927525D01*
X105500500Y-102427525D01*
X111699500Y-102427525D01*
X111699500Y-102572475D01*
X111737016Y-102712485D01*
X111737017Y-102712488D01*
X111809488Y-102838011D01*
X111809490Y-102838013D01*
X111809491Y-102838015D01*
X111911985Y-102940509D01*
X111911986Y-102940510D01*
X111911988Y-102940511D01*
X112037511Y-103012982D01*
X112037512Y-103012982D01*
X112037515Y-103012984D01*
X112177525Y-103050500D01*
X112177528Y-103050500D01*
X112322472Y-103050500D01*
X112322475Y-103050500D01*
X112462485Y-103012984D01*
X112588015Y-102940509D01*
X112690509Y-102838015D01*
X112762984Y-102712485D01*
X112800500Y-102572475D01*
X112800500Y-102427525D01*
X112762984Y-102287515D01*
X112719665Y-102212485D01*
X112690511Y-102161988D01*
X112690506Y-102161982D01*
X112588017Y-102059493D01*
X112588015Y-102059491D01*
X112462485Y-101987016D01*
X112322475Y-101949500D01*
X112177525Y-101949500D01*
X112048993Y-101983940D01*
X112037511Y-101987017D01*
X111911988Y-102059488D01*
X111911982Y-102059493D01*
X111809493Y-102161982D01*
X111809488Y-102161988D01*
X111737017Y-102287511D01*
X111737016Y-102287515D01*
X111699500Y-102427525D01*
X105500500Y-102427525D01*
X105500500Y-101927525D01*
X120949500Y-101927525D01*
X120949500Y-102072475D01*
X120980121Y-102186753D01*
X120987017Y-102212488D01*
X121059488Y-102338011D01*
X121059490Y-102338013D01*
X121059491Y-102338015D01*
X121161985Y-102440509D01*
X121161986Y-102440510D01*
X121161988Y-102440511D01*
X121287511Y-102512982D01*
X121287512Y-102512982D01*
X121287515Y-102512984D01*
X121427525Y-102550500D01*
X121427528Y-102550500D01*
X121572472Y-102550500D01*
X121572475Y-102550500D01*
X121712485Y-102512984D01*
X121838015Y-102440509D01*
X121940509Y-102338015D01*
X122012984Y-102212485D01*
X122050500Y-102072475D01*
X122050500Y-101927525D01*
X152699500Y-101927525D01*
X152699500Y-102072475D01*
X152730121Y-102186753D01*
X152737017Y-102212488D01*
X152809488Y-102338011D01*
X152809490Y-102338013D01*
X152809491Y-102338015D01*
X152911985Y-102440509D01*
X152911986Y-102440510D01*
X152911988Y-102440511D01*
X153037511Y-102512982D01*
X153037512Y-102512982D01*
X153037515Y-102512984D01*
X153177525Y-102550500D01*
X153177528Y-102550500D01*
X153322472Y-102550500D01*
X153322475Y-102550500D01*
X153462485Y-102512984D01*
X153588015Y-102440509D01*
X153690509Y-102338015D01*
X153719668Y-102287511D01*
X153767048Y-102205447D01*
X153769791Y-102207031D01*
X153804254Y-102164244D01*
X153870543Y-102142162D01*
X153938247Y-102159424D01*
X153981758Y-102206136D01*
X153982952Y-102205447D01*
X154059488Y-102338011D01*
X154059490Y-102338013D01*
X154059491Y-102338015D01*
X154161985Y-102440509D01*
X154161986Y-102440510D01*
X154161988Y-102440511D01*
X154287511Y-102512982D01*
X154287512Y-102512982D01*
X154287515Y-102512984D01*
X154427525Y-102550500D01*
X154427528Y-102550500D01*
X154572472Y-102550500D01*
X154572475Y-102550500D01*
X154712485Y-102512984D01*
X154838015Y-102440509D01*
X154940509Y-102338015D01*
X155012984Y-102212485D01*
X155050500Y-102072475D01*
X155050500Y-101927525D01*
X155043604Y-101901790D01*
X169823765Y-101901790D01*
X169823765Y-102046740D01*
X169861281Y-102186750D01*
X169861282Y-102186753D01*
X169933753Y-102312276D01*
X169933755Y-102312278D01*
X169933756Y-102312280D01*
X170036250Y-102414774D01*
X170036251Y-102414775D01*
X170036253Y-102414776D01*
X170161776Y-102487247D01*
X170161777Y-102487247D01*
X170161780Y-102487249D01*
X170301790Y-102524765D01*
X170301793Y-102524765D01*
X170446737Y-102524765D01*
X170446740Y-102524765D01*
X170586750Y-102487249D01*
X170690195Y-102427525D01*
X183449500Y-102427525D01*
X183449500Y-102572475D01*
X183487016Y-102712485D01*
X183487017Y-102712488D01*
X183559488Y-102838011D01*
X183559490Y-102838013D01*
X183559491Y-102838015D01*
X183661985Y-102940509D01*
X183661986Y-102940510D01*
X183661988Y-102940511D01*
X183787511Y-103012982D01*
X183787512Y-103012982D01*
X183787515Y-103012984D01*
X183927525Y-103050500D01*
X183927528Y-103050500D01*
X184072472Y-103050500D01*
X184072475Y-103050500D01*
X184212485Y-103012984D01*
X184338015Y-102940509D01*
X184440509Y-102838015D01*
X184512984Y-102712485D01*
X184550500Y-102572475D01*
X184550500Y-102427525D01*
X184512984Y-102287515D01*
X184469665Y-102212485D01*
X184440511Y-102161988D01*
X184440506Y-102161982D01*
X184338017Y-102059493D01*
X184338011Y-102059488D01*
X184212488Y-101987017D01*
X184212489Y-101987017D01*
X184201006Y-101983940D01*
X184072475Y-101949500D01*
X183927525Y-101949500D01*
X183798993Y-101983940D01*
X183787511Y-101987017D01*
X183661988Y-102059488D01*
X183661982Y-102059493D01*
X183559493Y-102161982D01*
X183559488Y-102161988D01*
X183487017Y-102287511D01*
X183487016Y-102287515D01*
X183449500Y-102427525D01*
X170690195Y-102427525D01*
X170712280Y-102414774D01*
X170814774Y-102312280D01*
X170887249Y-102186750D01*
X170924765Y-102046740D01*
X170924765Y-101901790D01*
X170887249Y-101761780D01*
X170829630Y-101661982D01*
X170814776Y-101636253D01*
X170814771Y-101636247D01*
X170712282Y-101533758D01*
X170712276Y-101533753D01*
X170586753Y-101461282D01*
X170586754Y-101461282D01*
X170575271Y-101458205D01*
X170446740Y-101423765D01*
X170301790Y-101423765D01*
X170173258Y-101458205D01*
X170161776Y-101461282D01*
X170036253Y-101533753D01*
X170036247Y-101533758D01*
X169933758Y-101636247D01*
X169933753Y-101636253D01*
X169861282Y-101761776D01*
X169861281Y-101761780D01*
X169823765Y-101901790D01*
X155043604Y-101901790D01*
X155012984Y-101787515D01*
X154940509Y-101661985D01*
X154838015Y-101559491D01*
X154838013Y-101559490D01*
X154838011Y-101559488D01*
X154712488Y-101487017D01*
X154712489Y-101487017D01*
X154701006Y-101483940D01*
X154572475Y-101449500D01*
X154427525Y-101449500D01*
X154298993Y-101483940D01*
X154287511Y-101487017D01*
X154161988Y-101559488D01*
X154161982Y-101559493D01*
X154059493Y-101661982D01*
X154059488Y-101661988D01*
X153982952Y-101794553D01*
X153980212Y-101792971D01*
X153945719Y-101835774D01*
X153879425Y-101857838D01*
X153811726Y-101840558D01*
X153768248Y-101793859D01*
X153767048Y-101794553D01*
X153690511Y-101661988D01*
X153690506Y-101661982D01*
X153588017Y-101559493D01*
X153588011Y-101559488D01*
X153462488Y-101487017D01*
X153462489Y-101487017D01*
X153451006Y-101483940D01*
X153322475Y-101449500D01*
X153177525Y-101449500D01*
X153048993Y-101483940D01*
X153037511Y-101487017D01*
X152911988Y-101559488D01*
X152911982Y-101559493D01*
X152809493Y-101661982D01*
X152809488Y-101661988D01*
X152737017Y-101787511D01*
X152737016Y-101787515D01*
X152699500Y-101927525D01*
X122050500Y-101927525D01*
X122012984Y-101787515D01*
X121940509Y-101661985D01*
X121838015Y-101559491D01*
X121838013Y-101559490D01*
X121838011Y-101559488D01*
X121712488Y-101487017D01*
X121712489Y-101487017D01*
X121701006Y-101483940D01*
X121572475Y-101449500D01*
X121427525Y-101449500D01*
X121298993Y-101483940D01*
X121287511Y-101487017D01*
X121161988Y-101559488D01*
X121161982Y-101559493D01*
X121059493Y-101661982D01*
X121059488Y-101661988D01*
X120987017Y-101787511D01*
X120987016Y-101787515D01*
X120949500Y-101927525D01*
X105500500Y-101927525D01*
X105500500Y-100727525D01*
X111349500Y-100727525D01*
X111349500Y-100872475D01*
X111387016Y-101012485D01*
X111387017Y-101012488D01*
X111459488Y-101138011D01*
X111459490Y-101138013D01*
X111459491Y-101138015D01*
X111561985Y-101240509D01*
X111561986Y-101240510D01*
X111561988Y-101240511D01*
X111687511Y-101312982D01*
X111687512Y-101312982D01*
X111687515Y-101312984D01*
X111827525Y-101350500D01*
X111827528Y-101350500D01*
X111972472Y-101350500D01*
X111972475Y-101350500D01*
X112112485Y-101312984D01*
X112238015Y-101240509D01*
X112340509Y-101138015D01*
X112412984Y-101012485D01*
X112450500Y-100872475D01*
X112450500Y-100727525D01*
X112437102Y-100677525D01*
X118699500Y-100677525D01*
X118699500Y-100822475D01*
X118730460Y-100938017D01*
X118737017Y-100962488D01*
X118809488Y-101088011D01*
X118809490Y-101088013D01*
X118809491Y-101088015D01*
X118911985Y-101190509D01*
X118911986Y-101190510D01*
X118911988Y-101190511D01*
X119037511Y-101262982D01*
X119037512Y-101262982D01*
X119037515Y-101262984D01*
X119177525Y-101300500D01*
X119177528Y-101300500D01*
X119322472Y-101300500D01*
X119322475Y-101300500D01*
X119462485Y-101262984D01*
X119588015Y-101190509D01*
X119690509Y-101088015D01*
X119762984Y-100962485D01*
X119800500Y-100822475D01*
X119800500Y-100677525D01*
X119762984Y-100537515D01*
X119757217Y-100527527D01*
X119745020Y-100506400D01*
X119745019Y-100506399D01*
X119719378Y-100461988D01*
X119713915Y-100452525D01*
X130524500Y-100452525D01*
X130524500Y-100597475D01*
X130562016Y-100737485D01*
X130562017Y-100737488D01*
X130634488Y-100863011D01*
X130634490Y-100863013D01*
X130634491Y-100863015D01*
X130736985Y-100965509D01*
X130736986Y-100965510D01*
X130736988Y-100965511D01*
X130862511Y-101037982D01*
X130862512Y-101037982D01*
X130862515Y-101037984D01*
X131002525Y-101075500D01*
X131002528Y-101075500D01*
X131147472Y-101075500D01*
X131147475Y-101075500D01*
X131287485Y-101037984D01*
X131413015Y-100965509D01*
X131515509Y-100863015D01*
X131587984Y-100737485D01*
X131625500Y-100597475D01*
X131625500Y-100527525D01*
X169049500Y-100527525D01*
X169049500Y-100672475D01*
X169087016Y-100812485D01*
X169087017Y-100812488D01*
X169159488Y-100938011D01*
X169159490Y-100938013D01*
X169159491Y-100938015D01*
X169261985Y-101040509D01*
X169261986Y-101040510D01*
X169261988Y-101040511D01*
X169387511Y-101112982D01*
X169387512Y-101112982D01*
X169387515Y-101112984D01*
X169527525Y-101150500D01*
X169527528Y-101150500D01*
X169672472Y-101150500D01*
X169672475Y-101150500D01*
X169812485Y-101112984D01*
X169938015Y-101040509D01*
X170040509Y-100938015D01*
X170046565Y-100927525D01*
X174949500Y-100927525D01*
X174949500Y-101072475D01*
X174981128Y-101190511D01*
X174987017Y-101212488D01*
X175059488Y-101338011D01*
X175059490Y-101338013D01*
X175059491Y-101338015D01*
X175161985Y-101440509D01*
X175161986Y-101440510D01*
X175161988Y-101440511D01*
X175287511Y-101512982D01*
X175287512Y-101512982D01*
X175287515Y-101512984D01*
X175427525Y-101550500D01*
X175427528Y-101550500D01*
X175572472Y-101550500D01*
X175572475Y-101550500D01*
X175712485Y-101512984D01*
X175838015Y-101440509D01*
X175940509Y-101338015D01*
X176012984Y-101212485D01*
X176050500Y-101072475D01*
X176050500Y-100927525D01*
X176012984Y-100787515D01*
X175948350Y-100675566D01*
X183201459Y-100675566D01*
X183201459Y-100820516D01*
X183230133Y-100927527D01*
X183238976Y-100960529D01*
X183311447Y-101086052D01*
X183311449Y-101086054D01*
X183311450Y-101086056D01*
X183413944Y-101188550D01*
X183413945Y-101188551D01*
X183413947Y-101188552D01*
X183539470Y-101261023D01*
X183539471Y-101261023D01*
X183539474Y-101261025D01*
X183679484Y-101298541D01*
X183679487Y-101298541D01*
X183824431Y-101298541D01*
X183824434Y-101298541D01*
X183964444Y-101261025D01*
X184089974Y-101188550D01*
X184192468Y-101086056D01*
X184264943Y-100960526D01*
X184302459Y-100820516D01*
X184302459Y-100677525D01*
X190449500Y-100677525D01*
X190449500Y-100822475D01*
X190480460Y-100938017D01*
X190487017Y-100962488D01*
X190559488Y-101088011D01*
X190559490Y-101088013D01*
X190559491Y-101088015D01*
X190661985Y-101190509D01*
X190661986Y-101190510D01*
X190661988Y-101190511D01*
X190787511Y-101262982D01*
X190787512Y-101262982D01*
X190787515Y-101262984D01*
X190927525Y-101300500D01*
X190927528Y-101300500D01*
X191072472Y-101300500D01*
X191072475Y-101300500D01*
X191212485Y-101262984D01*
X191338015Y-101190509D01*
X191440509Y-101088015D01*
X191512984Y-100962485D01*
X191550500Y-100822475D01*
X191550500Y-100677525D01*
X191512984Y-100537515D01*
X191507217Y-100527527D01*
X191440511Y-100411988D01*
X191440506Y-100411982D01*
X191338017Y-100309493D01*
X191338011Y-100309488D01*
X191212488Y-100237017D01*
X191212489Y-100237017D01*
X191201006Y-100233940D01*
X191072475Y-100199500D01*
X190927525Y-100199500D01*
X190798993Y-100233940D01*
X190787511Y-100237017D01*
X190661988Y-100309488D01*
X190661982Y-100309493D01*
X190559493Y-100411982D01*
X190559488Y-100411988D01*
X190487017Y-100537511D01*
X190487016Y-100537515D01*
X190449500Y-100677525D01*
X184302459Y-100677525D01*
X184302459Y-100675566D01*
X184264943Y-100535556D01*
X184260307Y-100527527D01*
X184192470Y-100410029D01*
X184192465Y-100410023D01*
X184089976Y-100307534D01*
X184089970Y-100307529D01*
X183964447Y-100235058D01*
X183964448Y-100235058D01*
X183952965Y-100231981D01*
X183824434Y-100197541D01*
X183679484Y-100197541D01*
X183550952Y-100231981D01*
X183539470Y-100235058D01*
X183413947Y-100307529D01*
X183413941Y-100307534D01*
X183311452Y-100410023D01*
X183311447Y-100410029D01*
X183238976Y-100535552D01*
X183238975Y-100535556D01*
X183201459Y-100675566D01*
X175948350Y-100675566D01*
X175940511Y-100661988D01*
X175940506Y-100661982D01*
X175838017Y-100559493D01*
X175838011Y-100559488D01*
X175712488Y-100487017D01*
X175712489Y-100487017D01*
X175701006Y-100483940D01*
X175572475Y-100449500D01*
X175427525Y-100449500D01*
X175298993Y-100483940D01*
X175287511Y-100487017D01*
X175161988Y-100559488D01*
X175161982Y-100559493D01*
X175059493Y-100661982D01*
X175059488Y-100661988D01*
X174987017Y-100787511D01*
X174987016Y-100787515D01*
X174949500Y-100927525D01*
X170046565Y-100927525D01*
X170112984Y-100812485D01*
X170150500Y-100672475D01*
X170150500Y-100527525D01*
X170112984Y-100387515D01*
X170096805Y-100359493D01*
X170040511Y-100261988D01*
X170040506Y-100261982D01*
X169938017Y-100159493D01*
X169938011Y-100159488D01*
X169812488Y-100087017D01*
X169812489Y-100087017D01*
X169801006Y-100083940D01*
X169672475Y-100049500D01*
X169527525Y-100049500D01*
X169398993Y-100083940D01*
X169387511Y-100087017D01*
X169261988Y-100159488D01*
X169261982Y-100159493D01*
X169159493Y-100261982D01*
X169159488Y-100261988D01*
X169087017Y-100387511D01*
X169087016Y-100387515D01*
X169049500Y-100527525D01*
X131625500Y-100527525D01*
X131625500Y-100452525D01*
X131587984Y-100312515D01*
X131586239Y-100309493D01*
X131515511Y-100186988D01*
X131515506Y-100186982D01*
X131413017Y-100084493D01*
X131413011Y-100084488D01*
X131287488Y-100012017D01*
X131287489Y-100012017D01*
X131276006Y-100008940D01*
X131147475Y-99974500D01*
X131002525Y-99974500D01*
X130873993Y-100008940D01*
X130862511Y-100012017D01*
X130736988Y-100084488D01*
X130736982Y-100084493D01*
X130634493Y-100186982D01*
X130634488Y-100186988D01*
X130562017Y-100312511D01*
X130562016Y-100312515D01*
X130524500Y-100452525D01*
X119713915Y-100452525D01*
X119690509Y-100411985D01*
X119588015Y-100309491D01*
X119588013Y-100309490D01*
X119588011Y-100309488D01*
X119462488Y-100237017D01*
X119462489Y-100237017D01*
X119451006Y-100233940D01*
X119322475Y-100199500D01*
X119177525Y-100199500D01*
X119048993Y-100233940D01*
X119037511Y-100237017D01*
X118911988Y-100309488D01*
X118911982Y-100309493D01*
X118809493Y-100411982D01*
X118809488Y-100411988D01*
X118737017Y-100537511D01*
X118737016Y-100537515D01*
X118699500Y-100677525D01*
X112437102Y-100677525D01*
X112412984Y-100587515D01*
X112396805Y-100559493D01*
X112340511Y-100461988D01*
X112340506Y-100461982D01*
X112238017Y-100359493D01*
X112238011Y-100359488D01*
X112112488Y-100287017D01*
X112112489Y-100287017D01*
X112101006Y-100283940D01*
X111972475Y-100249500D01*
X111827525Y-100249500D01*
X111698993Y-100283940D01*
X111687511Y-100287017D01*
X111561988Y-100359488D01*
X111561982Y-100359493D01*
X111459493Y-100461982D01*
X111459488Y-100461988D01*
X111387017Y-100587511D01*
X111387016Y-100587515D01*
X111349500Y-100727525D01*
X105500500Y-100727525D01*
X105500500Y-99233731D01*
X111355706Y-99233731D01*
X111355706Y-99378681D01*
X111371474Y-99437527D01*
X111393223Y-99518694D01*
X111465694Y-99644217D01*
X111465696Y-99644219D01*
X111465697Y-99644221D01*
X111568191Y-99746715D01*
X111568192Y-99746716D01*
X111568194Y-99746717D01*
X111693717Y-99819188D01*
X111693718Y-99819188D01*
X111693721Y-99819190D01*
X111833731Y-99856706D01*
X111833734Y-99856706D01*
X111978678Y-99856706D01*
X111978681Y-99856706D01*
X112118691Y-99819190D01*
X112244221Y-99746715D01*
X112346715Y-99644221D01*
X112419190Y-99518691D01*
X112456706Y-99378681D01*
X112456706Y-99233731D01*
X112419190Y-99093721D01*
X112399428Y-99059493D01*
X112346717Y-98968194D01*
X112346712Y-98968188D01*
X112244223Y-98865699D01*
X112244217Y-98865694D01*
X112118694Y-98793223D01*
X112118695Y-98793223D01*
X112095530Y-98787016D01*
X111978681Y-98755706D01*
X111833731Y-98755706D01*
X111716882Y-98787016D01*
X111693717Y-98793223D01*
X111568194Y-98865694D01*
X111568188Y-98865699D01*
X111465699Y-98968188D01*
X111465694Y-98968194D01*
X111393223Y-99093717D01*
X111393222Y-99093721D01*
X111355706Y-99233731D01*
X105500500Y-99233731D01*
X105500500Y-98127525D01*
X112849500Y-98127525D01*
X112849500Y-98272475D01*
X112886986Y-98412373D01*
X112887017Y-98412488D01*
X112959488Y-98538011D01*
X112959490Y-98538013D01*
X112959491Y-98538015D01*
X113061985Y-98640509D01*
X113061986Y-98640510D01*
X113061988Y-98640511D01*
X113187511Y-98712982D01*
X113187512Y-98712982D01*
X113187515Y-98712984D01*
X113327525Y-98750500D01*
X113327528Y-98750500D01*
X113472472Y-98750500D01*
X113472475Y-98750500D01*
X113612485Y-98712984D01*
X113738015Y-98640509D01*
X113840509Y-98538015D01*
X113912984Y-98412485D01*
X113930226Y-98348137D01*
X113966590Y-98288479D01*
X114029437Y-98257950D01*
X114098813Y-98266245D01*
X114152691Y-98310730D01*
X114169773Y-98348135D01*
X114186986Y-98412373D01*
X114187017Y-98412488D01*
X114259488Y-98538011D01*
X114259490Y-98538013D01*
X114259491Y-98538015D01*
X114361985Y-98640509D01*
X114361986Y-98640510D01*
X114361988Y-98640511D01*
X114487511Y-98712982D01*
X114487512Y-98712982D01*
X114487515Y-98712984D01*
X114627525Y-98750500D01*
X114627528Y-98750500D01*
X114772472Y-98750500D01*
X114772475Y-98750500D01*
X114912485Y-98712984D01*
X115038015Y-98640509D01*
X115140509Y-98538015D01*
X115212984Y-98412485D01*
X115250500Y-98272475D01*
X115250500Y-98127525D01*
X115212984Y-97987515D01*
X115163601Y-97901982D01*
X115140511Y-97861988D01*
X115140506Y-97861982D01*
X115038017Y-97759493D01*
X115038011Y-97759488D01*
X114912488Y-97687017D01*
X114912489Y-97687017D01*
X114869074Y-97675384D01*
X114772475Y-97649500D01*
X114716840Y-97649500D01*
X114649801Y-97629815D01*
X114604046Y-97577011D01*
X114597065Y-97557594D01*
X114592474Y-97540461D01*
X114564487Y-97436012D01*
X114507909Y-97338017D01*
X114492014Y-97310485D01*
X114492009Y-97310479D01*
X114389520Y-97207990D01*
X114389514Y-97207985D01*
X114263991Y-97135514D01*
X114263992Y-97135514D01*
X114252509Y-97132437D01*
X114123978Y-97097997D01*
X113979028Y-97097997D01*
X113850496Y-97132437D01*
X113839014Y-97135514D01*
X113713491Y-97207985D01*
X113713485Y-97207990D01*
X113610996Y-97310479D01*
X113610991Y-97310485D01*
X113538520Y-97436008D01*
X113505941Y-97557594D01*
X113469575Y-97617254D01*
X113406728Y-97647783D01*
X113386166Y-97649500D01*
X113327525Y-97649500D01*
X113230926Y-97675384D01*
X113187511Y-97687017D01*
X113061988Y-97759488D01*
X113061982Y-97759493D01*
X112959493Y-97861982D01*
X112959488Y-97861988D01*
X112887017Y-97987511D01*
X112887016Y-97987515D01*
X112849500Y-98127525D01*
X105500500Y-98127525D01*
X105500500Y-96927525D01*
X138699500Y-96927525D01*
X138699500Y-97072475D01*
X138735810Y-97207985D01*
X138737017Y-97212488D01*
X138809488Y-97338011D01*
X138809490Y-97338013D01*
X138809491Y-97338015D01*
X138911985Y-97440509D01*
X139031872Y-97509726D01*
X139041871Y-97515499D01*
X139090087Y-97566066D01*
X139103309Y-97634673D01*
X139077341Y-97699538D01*
X139041872Y-97730272D01*
X138921991Y-97799487D01*
X138921982Y-97799493D01*
X138819493Y-97901982D01*
X138819488Y-97901988D01*
X138747017Y-98027511D01*
X138747016Y-98027515D01*
X138709500Y-98167525D01*
X138709500Y-98312475D01*
X138737487Y-98416921D01*
X138747017Y-98452488D01*
X138819488Y-98578011D01*
X138819490Y-98578013D01*
X138819491Y-98578015D01*
X138921985Y-98680509D01*
X138921986Y-98680510D01*
X138921988Y-98680511D01*
X139047511Y-98752982D01*
X139047512Y-98752982D01*
X139047515Y-98752984D01*
X139051386Y-98754021D01*
X139055881Y-98755226D01*
X139115541Y-98791591D01*
X139146069Y-98854439D01*
X139137774Y-98923814D01*
X139093288Y-98977691D01*
X139055881Y-98994774D01*
X139047516Y-98997015D01*
X139047511Y-98997017D01*
X138921988Y-99069488D01*
X138921982Y-99069493D01*
X138819493Y-99171982D01*
X138819488Y-99171988D01*
X138747017Y-99297511D01*
X138747016Y-99297515D01*
X138709500Y-99437525D01*
X138709500Y-99582475D01*
X138747016Y-99722485D01*
X138747017Y-99722488D01*
X138819488Y-99848011D01*
X138819490Y-99848013D01*
X138819491Y-99848015D01*
X138921985Y-99950509D01*
X138921986Y-99950510D01*
X138921988Y-99950511D01*
X139047511Y-100022982D01*
X139047512Y-100022982D01*
X139047515Y-100022984D01*
X139187525Y-100060500D01*
X139187528Y-100060500D01*
X139332472Y-100060500D01*
X139332475Y-100060500D01*
X139472485Y-100022984D01*
X139598015Y-99950509D01*
X139700509Y-99848015D01*
X139772984Y-99722485D01*
X139810500Y-99582475D01*
X139810500Y-99437525D01*
X139807820Y-99427525D01*
X159699500Y-99427525D01*
X159699500Y-99572475D01*
X159737016Y-99712485D01*
X159737017Y-99712488D01*
X159809488Y-99838011D01*
X159809490Y-99838013D01*
X159809491Y-99838015D01*
X159911985Y-99940509D01*
X159911986Y-99940510D01*
X159911988Y-99940511D01*
X160037511Y-100012982D01*
X160037512Y-100012982D01*
X160037515Y-100012984D01*
X160177525Y-100050500D01*
X160177528Y-100050500D01*
X160322472Y-100050500D01*
X160322475Y-100050500D01*
X160462485Y-100012984D01*
X160588015Y-99940509D01*
X160690509Y-99838015D01*
X160762984Y-99712485D01*
X160800500Y-99572475D01*
X160800500Y-99427525D01*
X160762984Y-99287515D01*
X160762982Y-99287511D01*
X160759454Y-99281400D01*
X160759453Y-99281399D01*
X160731933Y-99233733D01*
X160728349Y-99227525D01*
X183149500Y-99227525D01*
X183149500Y-99372475D01*
X183166931Y-99437527D01*
X183187017Y-99512488D01*
X183259488Y-99638011D01*
X183259490Y-99638013D01*
X183259491Y-99638015D01*
X183361985Y-99740509D01*
X183361986Y-99740510D01*
X183361988Y-99740511D01*
X183487511Y-99812982D01*
X183487512Y-99812982D01*
X183487515Y-99812984D01*
X183627525Y-99850500D01*
X183627528Y-99850500D01*
X183772472Y-99850500D01*
X183772475Y-99850500D01*
X183912485Y-99812984D01*
X184038015Y-99740509D01*
X184140509Y-99638015D01*
X184212984Y-99512485D01*
X184250500Y-99372475D01*
X184250500Y-99227525D01*
X184212984Y-99087515D01*
X184196805Y-99059493D01*
X184140511Y-98961988D01*
X184140506Y-98961982D01*
X184038017Y-98859493D01*
X184038011Y-98859488D01*
X183912488Y-98787017D01*
X183912489Y-98787017D01*
X183901006Y-98783940D01*
X183772475Y-98749500D01*
X183627525Y-98749500D01*
X183498993Y-98783940D01*
X183487511Y-98787017D01*
X183361988Y-98859488D01*
X183361982Y-98859493D01*
X183259493Y-98961982D01*
X183259488Y-98961988D01*
X183187017Y-99087511D01*
X183187016Y-99087515D01*
X183149500Y-99227525D01*
X160728349Y-99227525D01*
X160690509Y-99161985D01*
X160588015Y-99059491D01*
X160588013Y-99059490D01*
X160588011Y-99059488D01*
X160462488Y-98987017D01*
X160462489Y-98987017D01*
X160451006Y-98983940D01*
X160322475Y-98949500D01*
X160177525Y-98949500D01*
X160048993Y-98983940D01*
X160037511Y-98987017D01*
X159911988Y-99059488D01*
X159911982Y-99059493D01*
X159809493Y-99161982D01*
X159809488Y-99161988D01*
X159737017Y-99287511D01*
X159737016Y-99287515D01*
X159699500Y-99427525D01*
X139807820Y-99427525D01*
X139772984Y-99297515D01*
X139767210Y-99287515D01*
X139700511Y-99171988D01*
X139700506Y-99171982D01*
X139598017Y-99069493D01*
X139598011Y-99069488D01*
X139472487Y-98997017D01*
X139472486Y-98997016D01*
X139472485Y-98997016D01*
X139464118Y-98994774D01*
X139404459Y-98958410D01*
X139373930Y-98895563D01*
X139382225Y-98826188D01*
X139426710Y-98772310D01*
X139464117Y-98755226D01*
X139472485Y-98752984D01*
X139598015Y-98680509D01*
X139700509Y-98578015D01*
X139772984Y-98452485D01*
X139810500Y-98312475D01*
X139810500Y-98167525D01*
X139799782Y-98127525D01*
X184649500Y-98127525D01*
X184649500Y-98272475D01*
X184686986Y-98412373D01*
X184687017Y-98412488D01*
X184759488Y-98538011D01*
X184759490Y-98538013D01*
X184759491Y-98538015D01*
X184861985Y-98640509D01*
X184861986Y-98640510D01*
X184861988Y-98640511D01*
X184987511Y-98712982D01*
X184987512Y-98712982D01*
X184987515Y-98712984D01*
X185127525Y-98750500D01*
X185127528Y-98750500D01*
X185272472Y-98750500D01*
X185272475Y-98750500D01*
X185412485Y-98712984D01*
X185538015Y-98640509D01*
X185640509Y-98538015D01*
X185710423Y-98416921D01*
X185718909Y-98408829D01*
X185723733Y-98398140D01*
X185743733Y-98385159D01*
X185760990Y-98368705D01*
X185773994Y-98365519D01*
X185782341Y-98360102D01*
X185816440Y-98355121D01*
X185817253Y-98354922D01*
X185823011Y-98354896D01*
X185823104Y-98354921D01*
X185968054Y-98354921D01*
X185970619Y-98354233D01*
X185981208Y-98354186D01*
X186007526Y-98361785D01*
X186034596Y-98366002D01*
X186040611Y-98371339D01*
X186048336Y-98373570D01*
X186066366Y-98394190D01*
X186086859Y-98412373D01*
X186089152Y-98416185D01*
X186159491Y-98538015D01*
X186261985Y-98640509D01*
X186261986Y-98640510D01*
X186261988Y-98640511D01*
X186387511Y-98712982D01*
X186387512Y-98712982D01*
X186387515Y-98712984D01*
X186527525Y-98750500D01*
X186527528Y-98750500D01*
X186672472Y-98750500D01*
X186672475Y-98750500D01*
X186812485Y-98712984D01*
X186938015Y-98640509D01*
X187040509Y-98538015D01*
X187112984Y-98412485D01*
X187150500Y-98272475D01*
X187150500Y-98127525D01*
X187112984Y-97987515D01*
X187063601Y-97901982D01*
X187040511Y-97861988D01*
X187040506Y-97861982D01*
X186938017Y-97759493D01*
X186938011Y-97759488D01*
X186812488Y-97687017D01*
X186812489Y-97687017D01*
X186769074Y-97675384D01*
X186672475Y-97649500D01*
X186527525Y-97649500D01*
X186519398Y-97649500D01*
X186519398Y-97647522D01*
X186460957Y-97638406D01*
X186408704Y-97592023D01*
X186406426Y-97588235D01*
X186393627Y-97566066D01*
X186336088Y-97466406D01*
X186233594Y-97363912D01*
X186233592Y-97363911D01*
X186233590Y-97363909D01*
X186108067Y-97291438D01*
X186108068Y-97291438D01*
X186096585Y-97288361D01*
X185968054Y-97253921D01*
X185823104Y-97253921D01*
X185694572Y-97288361D01*
X185683090Y-97291438D01*
X185557567Y-97363909D01*
X185557561Y-97363914D01*
X185455072Y-97466403D01*
X185455068Y-97466409D01*
X185385156Y-97587500D01*
X185334589Y-97635716D01*
X185277769Y-97649500D01*
X185272475Y-97649500D01*
X185127525Y-97649500D01*
X185030926Y-97675384D01*
X184987511Y-97687017D01*
X184861988Y-97759488D01*
X184861982Y-97759493D01*
X184759493Y-97861982D01*
X184759488Y-97861988D01*
X184687017Y-97987511D01*
X184687016Y-97987515D01*
X184649500Y-98127525D01*
X139799782Y-98127525D01*
X139772984Y-98027515D01*
X139700509Y-97901985D01*
X139598015Y-97799491D01*
X139598013Y-97799490D01*
X139598011Y-97799488D01*
X139468128Y-97724500D01*
X139419912Y-97673933D01*
X139406690Y-97605326D01*
X139432658Y-97540461D01*
X139468128Y-97509726D01*
X139588015Y-97440509D01*
X139690509Y-97338015D01*
X139762984Y-97212485D01*
X139800500Y-97072475D01*
X139800500Y-96927525D01*
X139762984Y-96787515D01*
X139690509Y-96661985D01*
X139588015Y-96559491D01*
X139588013Y-96559490D01*
X139588011Y-96559488D01*
X139462488Y-96487017D01*
X139462489Y-96487017D01*
X139451006Y-96483940D01*
X139322475Y-96449500D01*
X139177525Y-96449500D01*
X139048993Y-96483940D01*
X139037511Y-96487017D01*
X138911988Y-96559488D01*
X138911982Y-96559493D01*
X138809493Y-96661982D01*
X138809488Y-96661988D01*
X138737017Y-96787511D01*
X138737016Y-96787515D01*
X138699500Y-96927525D01*
X105500500Y-96927525D01*
X105500500Y-91827525D01*
X139149500Y-91827525D01*
X139149500Y-91972475D01*
X139160172Y-92012302D01*
X139187017Y-92112488D01*
X139259488Y-92238011D01*
X139259490Y-92238013D01*
X139259491Y-92238015D01*
X139361985Y-92340509D01*
X139361986Y-92340510D01*
X139361988Y-92340511D01*
X139487511Y-92412982D01*
X139487513Y-92412983D01*
X139487515Y-92412984D01*
X139516195Y-92420669D01*
X139575855Y-92457032D01*
X139606385Y-92519879D01*
X139598091Y-92589254D01*
X139553606Y-92643133D01*
X139546103Y-92647829D01*
X139421991Y-92719486D01*
X139421982Y-92719493D01*
X139319493Y-92821982D01*
X139319488Y-92821988D01*
X139247017Y-92947511D01*
X139247016Y-92947515D01*
X139209500Y-93087525D01*
X139209500Y-93232475D01*
X139224880Y-93289873D01*
X139247017Y-93372488D01*
X139319488Y-93498011D01*
X139319490Y-93498013D01*
X139319491Y-93498015D01*
X139421985Y-93600509D01*
X139547515Y-93672984D01*
X139576691Y-93680801D01*
X139636351Y-93717166D01*
X139666880Y-93780013D01*
X139658585Y-93849388D01*
X139614100Y-93903266D01*
X139592051Y-93915136D01*
X139587517Y-93917013D01*
X139461988Y-93989488D01*
X139461982Y-93989493D01*
X139359493Y-94091982D01*
X139359488Y-94091988D01*
X139287017Y-94217511D01*
X139287016Y-94217515D01*
X139249500Y-94357525D01*
X139249500Y-94502475D01*
X139268256Y-94572472D01*
X139287017Y-94642488D01*
X139359488Y-94768011D01*
X139359490Y-94768013D01*
X139359491Y-94768015D01*
X139461985Y-94870509D01*
X139461986Y-94870510D01*
X139461988Y-94870511D01*
X139587511Y-94942982D01*
X139587512Y-94942982D01*
X139587515Y-94942984D01*
X139727525Y-94980500D01*
X139727528Y-94980500D01*
X139872472Y-94980500D01*
X139872475Y-94980500D01*
X140012485Y-94942984D01*
X140138015Y-94870509D01*
X140240509Y-94768015D01*
X140312984Y-94642485D01*
X140350500Y-94502475D01*
X140350500Y-94427525D01*
X160449500Y-94427525D01*
X160449500Y-94572475D01*
X160487016Y-94712485D01*
X160487017Y-94712488D01*
X160559488Y-94838011D01*
X160559490Y-94838013D01*
X160559491Y-94838015D01*
X160661985Y-94940509D01*
X160661986Y-94940510D01*
X160661988Y-94940511D01*
X160787511Y-95012982D01*
X160787512Y-95012982D01*
X160787515Y-95012984D01*
X160927525Y-95050500D01*
X160927528Y-95050500D01*
X161072472Y-95050500D01*
X161072475Y-95050500D01*
X161212485Y-95012984D01*
X161338015Y-94940509D01*
X161440509Y-94838015D01*
X161512984Y-94712485D01*
X161550500Y-94572475D01*
X161550500Y-94427525D01*
X162449500Y-94427525D01*
X162449500Y-94572475D01*
X162487016Y-94712485D01*
X162487017Y-94712488D01*
X162559488Y-94838011D01*
X162559490Y-94838013D01*
X162559491Y-94838015D01*
X162661985Y-94940509D01*
X162661986Y-94940510D01*
X162661988Y-94940511D01*
X162787511Y-95012982D01*
X162787512Y-95012982D01*
X162787515Y-95012984D01*
X162927525Y-95050500D01*
X162927528Y-95050500D01*
X163072472Y-95050500D01*
X163072475Y-95050500D01*
X163212485Y-95012984D01*
X163338015Y-94940509D01*
X163440509Y-94838015D01*
X163512984Y-94712485D01*
X163550500Y-94572475D01*
X163550500Y-94427525D01*
X163512984Y-94287515D01*
X163472569Y-94217515D01*
X163440511Y-94161988D01*
X163440506Y-94161982D01*
X163338017Y-94059493D01*
X163338011Y-94059488D01*
X163212488Y-93987017D01*
X163212489Y-93987017D01*
X163201006Y-93983940D01*
X163072475Y-93949500D01*
X162927525Y-93949500D01*
X162798993Y-93983940D01*
X162787511Y-93987017D01*
X162661988Y-94059488D01*
X162661982Y-94059493D01*
X162559493Y-94161982D01*
X162559488Y-94161988D01*
X162487017Y-94287511D01*
X162487016Y-94287515D01*
X162449500Y-94427525D01*
X161550500Y-94427525D01*
X161512984Y-94287515D01*
X161472569Y-94217515D01*
X161440511Y-94161988D01*
X161440506Y-94161982D01*
X161338017Y-94059493D01*
X161338011Y-94059488D01*
X161212488Y-93987017D01*
X161212489Y-93987017D01*
X161201006Y-93983940D01*
X161072475Y-93949500D01*
X160927525Y-93949500D01*
X160798993Y-93983940D01*
X160787511Y-93987017D01*
X160661988Y-94059488D01*
X160661982Y-94059493D01*
X160559493Y-94161982D01*
X160559488Y-94161988D01*
X160487017Y-94287511D01*
X160487016Y-94287515D01*
X160449500Y-94427525D01*
X140350500Y-94427525D01*
X140350500Y-94357525D01*
X140312984Y-94217515D01*
X140280925Y-94161988D01*
X140240511Y-94091988D01*
X140240506Y-94091982D01*
X140138017Y-93989493D01*
X140138011Y-93989488D01*
X140012488Y-93917017D01*
X140012485Y-93917016D01*
X139983306Y-93909197D01*
X139923647Y-93872831D01*
X139893119Y-93809984D01*
X139901415Y-93740609D01*
X139945901Y-93686731D01*
X139967959Y-93674858D01*
X139972478Y-93672985D01*
X139972485Y-93672984D01*
X140098015Y-93600509D01*
X140200509Y-93498015D01*
X140272984Y-93372485D01*
X140310500Y-93232475D01*
X140310500Y-93087525D01*
X140272984Y-92947515D01*
X140200509Y-92821985D01*
X140098015Y-92719491D01*
X140098013Y-92719490D01*
X140098011Y-92719488D01*
X139972488Y-92647017D01*
X139972489Y-92647017D01*
X139968191Y-92645865D01*
X139943801Y-92639330D01*
X139884142Y-92602965D01*
X139853614Y-92540118D01*
X139861909Y-92470743D01*
X139906395Y-92416865D01*
X139913897Y-92412169D01*
X139931824Y-92401818D01*
X140038015Y-92340509D01*
X140140509Y-92238015D01*
X140172047Y-92183389D01*
X164879500Y-92183389D01*
X164879500Y-92356610D01*
X164894370Y-92450500D01*
X164906598Y-92527701D01*
X164945630Y-92647829D01*
X164960128Y-92692447D01*
X164973909Y-92719493D01*
X165038768Y-92846788D01*
X165140586Y-92986928D01*
X165263072Y-93109414D01*
X165403212Y-93211232D01*
X165557555Y-93289873D01*
X165722299Y-93343402D01*
X165893389Y-93370500D01*
X165893390Y-93370500D01*
X166066610Y-93370500D01*
X166066611Y-93370500D01*
X166237701Y-93343402D01*
X166402445Y-93289873D01*
X166556788Y-93211232D01*
X166696928Y-93109414D01*
X166819414Y-92986928D01*
X166921232Y-92846788D01*
X166999873Y-92692445D01*
X167053402Y-92527701D01*
X167080500Y-92356611D01*
X167080500Y-92183389D01*
X167053402Y-92012299D01*
X166999873Y-91847555D01*
X166921232Y-91693212D01*
X166819414Y-91553072D01*
X166696928Y-91430586D01*
X166556788Y-91328768D01*
X166402445Y-91250127D01*
X166237701Y-91196598D01*
X166237699Y-91196597D01*
X166237698Y-91196597D01*
X166106271Y-91175781D01*
X166066611Y-91169500D01*
X165893389Y-91169500D01*
X165853728Y-91175781D01*
X165722302Y-91196597D01*
X165557552Y-91250128D01*
X165403211Y-91328768D01*
X165330308Y-91381736D01*
X165263072Y-91430586D01*
X165263070Y-91430588D01*
X165263069Y-91430588D01*
X165140588Y-91553069D01*
X165140588Y-91553070D01*
X165140586Y-91553072D01*
X165096859Y-91613256D01*
X165038768Y-91693211D01*
X164960128Y-91847552D01*
X164906597Y-92012302D01*
X164879500Y-92183389D01*
X140172047Y-92183389D01*
X140212984Y-92112485D01*
X140250500Y-91972475D01*
X140250500Y-91827525D01*
X140212984Y-91687515D01*
X140140509Y-91561985D01*
X140038015Y-91459491D01*
X139976836Y-91424169D01*
X139922556Y-91392830D01*
X139874341Y-91342262D01*
X139861119Y-91273655D01*
X139887087Y-91208790D01*
X139944002Y-91168263D01*
X139952440Y-91165675D01*
X139962485Y-91162984D01*
X140088015Y-91090509D01*
X140190509Y-90988015D01*
X140262984Y-90862485D01*
X140300500Y-90722475D01*
X140300500Y-90577525D01*
X140262984Y-90437515D01*
X140190509Y-90311985D01*
X140088015Y-90209491D01*
X140088013Y-90209490D01*
X140088011Y-90209488D01*
X139962488Y-90137017D01*
X139962489Y-90137017D01*
X139956157Y-90135320D01*
X139898137Y-90119773D01*
X139838479Y-90083410D01*
X139807950Y-90020563D01*
X139816245Y-89951187D01*
X139860730Y-89897309D01*
X139898135Y-89880226D01*
X139962485Y-89862984D01*
X140088015Y-89790509D01*
X140190509Y-89688015D01*
X140216274Y-89643389D01*
X164879500Y-89643389D01*
X164879500Y-89816610D01*
X164900814Y-89951187D01*
X164906598Y-89987701D01*
X164960127Y-90152445D01*
X165038768Y-90306788D01*
X165140586Y-90446928D01*
X165263072Y-90569414D01*
X165403212Y-90671232D01*
X165557555Y-90749873D01*
X165722299Y-90803402D01*
X165893389Y-90830500D01*
X165893390Y-90830500D01*
X166066610Y-90830500D01*
X166066611Y-90830500D01*
X166237701Y-90803402D01*
X166402445Y-90749873D01*
X166556788Y-90671232D01*
X166696928Y-90569414D01*
X166819414Y-90446928D01*
X166921232Y-90306788D01*
X166935515Y-90278756D01*
X166983489Y-90227960D01*
X167051309Y-90211164D01*
X167117445Y-90233701D01*
X167160897Y-90288415D01*
X167170000Y-90335050D01*
X167170000Y-90627844D01*
X167176401Y-90687372D01*
X167176403Y-90687379D01*
X167226645Y-90822086D01*
X167226649Y-90822093D01*
X167312809Y-90937187D01*
X167312812Y-90937190D01*
X167427906Y-91023350D01*
X167427913Y-91023354D01*
X167562620Y-91073596D01*
X167562627Y-91073598D01*
X167622155Y-91079999D01*
X167622172Y-91080000D01*
X167914949Y-91080000D01*
X167981988Y-91099685D01*
X168027743Y-91152489D01*
X168037687Y-91221647D01*
X168008662Y-91285203D01*
X167971244Y-91314485D01*
X167943211Y-91328768D01*
X167870308Y-91381736D01*
X167803072Y-91430586D01*
X167803070Y-91430588D01*
X167803069Y-91430588D01*
X167680588Y-91553069D01*
X167680588Y-91553070D01*
X167680586Y-91553072D01*
X167636859Y-91613256D01*
X167578768Y-91693211D01*
X167500128Y-91847552D01*
X167446597Y-92012302D01*
X167419500Y-92183389D01*
X167419500Y-92356610D01*
X167434370Y-92450500D01*
X167446598Y-92527701D01*
X167485630Y-92647829D01*
X167500128Y-92692447D01*
X167513909Y-92719493D01*
X167578768Y-92846788D01*
X167680586Y-92986928D01*
X167803072Y-93109414D01*
X167943212Y-93211232D01*
X168097555Y-93289873D01*
X168262299Y-93343402D01*
X168433389Y-93370500D01*
X168433390Y-93370500D01*
X168606610Y-93370500D01*
X168606611Y-93370500D01*
X168777701Y-93343402D01*
X168942445Y-93289873D01*
X169096788Y-93211232D01*
X169236928Y-93109414D01*
X169359414Y-92986928D01*
X169461232Y-92846788D01*
X169539873Y-92692445D01*
X169593402Y-92527701D01*
X169620500Y-92356611D01*
X169620500Y-92183389D01*
X169593402Y-92012299D01*
X169539873Y-91847555D01*
X169461232Y-91693212D01*
X169359414Y-91553072D01*
X169236928Y-91430586D01*
X169096788Y-91328768D01*
X169068756Y-91314485D01*
X169017960Y-91266510D01*
X169001165Y-91198689D01*
X169023703Y-91132554D01*
X169078418Y-91089103D01*
X169125051Y-91080000D01*
X169417828Y-91080000D01*
X169417844Y-91079999D01*
X169477372Y-91073598D01*
X169477379Y-91073596D01*
X169612086Y-91023354D01*
X169612093Y-91023350D01*
X169727187Y-90937190D01*
X169727190Y-90937187D01*
X169813350Y-90822093D01*
X169813354Y-90822086D01*
X169863596Y-90687379D01*
X169863598Y-90687372D01*
X169869999Y-90627844D01*
X169870000Y-90627827D01*
X169870000Y-89980000D01*
X168953012Y-89980000D01*
X168985925Y-89922993D01*
X169020000Y-89795826D01*
X169020000Y-89664174D01*
X168985925Y-89537007D01*
X168953012Y-89480000D01*
X169870000Y-89480000D01*
X169870000Y-88927525D01*
X176449500Y-88927525D01*
X176449500Y-89072475D01*
X176487016Y-89212485D01*
X176487017Y-89212488D01*
X176559488Y-89338011D01*
X176559490Y-89338013D01*
X176559491Y-89338015D01*
X176661985Y-89440509D01*
X176661986Y-89440510D01*
X176661988Y-89440511D01*
X176787511Y-89512982D01*
X176787512Y-89512982D01*
X176787515Y-89512984D01*
X176927525Y-89550500D01*
X176927528Y-89550500D01*
X177072472Y-89550500D01*
X177072475Y-89550500D01*
X177212485Y-89512984D01*
X177338015Y-89440509D01*
X177440509Y-89338015D01*
X177512984Y-89212485D01*
X177550500Y-89072475D01*
X177550500Y-88927525D01*
X177512984Y-88787515D01*
X177507210Y-88777515D01*
X177440511Y-88661988D01*
X177440506Y-88661982D01*
X177338017Y-88559493D01*
X177338011Y-88559488D01*
X177212488Y-88487017D01*
X177212489Y-88487017D01*
X177201006Y-88483940D01*
X177072475Y-88449500D01*
X176927525Y-88449500D01*
X176798993Y-88483940D01*
X176787511Y-88487017D01*
X176661988Y-88559488D01*
X176661982Y-88559493D01*
X176559493Y-88661982D01*
X176559488Y-88661988D01*
X176487017Y-88787511D01*
X176487016Y-88787515D01*
X176449500Y-88927525D01*
X169870000Y-88927525D01*
X169870000Y-88832172D01*
X169869999Y-88832155D01*
X169863598Y-88772627D01*
X169863596Y-88772620D01*
X169813354Y-88637913D01*
X169813350Y-88637906D01*
X169727190Y-88522812D01*
X169727187Y-88522809D01*
X169612093Y-88436649D01*
X169612086Y-88436645D01*
X169477379Y-88386403D01*
X169477372Y-88386401D01*
X169417844Y-88380000D01*
X168770000Y-88380000D01*
X168770000Y-89296988D01*
X168712993Y-89264075D01*
X168585826Y-89230000D01*
X168454174Y-89230000D01*
X168327007Y-89264075D01*
X168270000Y-89296988D01*
X168270000Y-88380000D01*
X167622155Y-88380000D01*
X167562627Y-88386401D01*
X167562620Y-88386403D01*
X167427913Y-88436645D01*
X167427906Y-88436649D01*
X167312812Y-88522809D01*
X167312809Y-88522812D01*
X167226649Y-88637906D01*
X167226645Y-88637913D01*
X167176403Y-88772620D01*
X167176401Y-88772627D01*
X167170000Y-88832155D01*
X167170000Y-89124949D01*
X167150315Y-89191988D01*
X167097511Y-89237743D01*
X167028353Y-89247687D01*
X166964797Y-89218662D01*
X166935515Y-89181244D01*
X166921231Y-89153211D01*
X166909827Y-89137515D01*
X166819414Y-89013072D01*
X166696928Y-88890586D01*
X166556788Y-88788768D01*
X166402445Y-88710127D01*
X166237701Y-88656598D01*
X166237699Y-88656597D01*
X166237698Y-88656597D01*
X166106271Y-88635781D01*
X166066611Y-88629500D01*
X165893389Y-88629500D01*
X165853728Y-88635781D01*
X165722302Y-88656597D01*
X165557552Y-88710128D01*
X165403211Y-88788768D01*
X165336803Y-88837017D01*
X165263072Y-88890586D01*
X165263070Y-88890588D01*
X165263069Y-88890588D01*
X165140588Y-89013069D01*
X165140588Y-89013070D01*
X165140586Y-89013072D01*
X165104695Y-89062472D01*
X165038768Y-89153211D01*
X164960128Y-89307552D01*
X164906597Y-89472302D01*
X164879500Y-89643389D01*
X140216274Y-89643389D01*
X140262984Y-89562485D01*
X140300500Y-89422475D01*
X140300500Y-89277525D01*
X140262984Y-89137515D01*
X140225431Y-89072472D01*
X140190511Y-89011988D01*
X140190506Y-89011982D01*
X140088017Y-88909493D01*
X140088011Y-88909488D01*
X139962488Y-88837017D01*
X139962489Y-88837017D01*
X139944344Y-88832155D01*
X139822475Y-88799500D01*
X139677525Y-88799500D01*
X139555656Y-88832155D01*
X139537511Y-88837017D01*
X139411988Y-88909488D01*
X139411982Y-88909493D01*
X139309493Y-89011982D01*
X139309488Y-89011988D01*
X139237017Y-89137511D01*
X139237016Y-89137515D01*
X139199500Y-89277525D01*
X139199500Y-89422475D01*
X139230189Y-89537007D01*
X139237017Y-89562488D01*
X139309488Y-89688011D01*
X139309490Y-89688013D01*
X139309491Y-89688015D01*
X139411985Y-89790509D01*
X139411986Y-89790510D01*
X139411988Y-89790511D01*
X139537511Y-89862982D01*
X139537512Y-89862982D01*
X139537515Y-89862984D01*
X139601861Y-89880225D01*
X139661520Y-89916591D01*
X139692049Y-89979438D01*
X139683754Y-90048813D01*
X139639268Y-90102691D01*
X139601862Y-90119774D01*
X139547516Y-90134336D01*
X139537511Y-90137017D01*
X139411988Y-90209488D01*
X139411982Y-90209493D01*
X139309493Y-90311982D01*
X139309488Y-90311988D01*
X139237017Y-90437511D01*
X139237016Y-90437515D01*
X139199500Y-90577525D01*
X139199500Y-90722475D01*
X139221185Y-90803402D01*
X139237017Y-90862488D01*
X139309488Y-90988011D01*
X139309490Y-90988013D01*
X139309491Y-90988015D01*
X139411985Y-91090509D01*
X139484809Y-91132554D01*
X139527443Y-91157169D01*
X139575658Y-91207737D01*
X139588880Y-91276344D01*
X139562912Y-91341208D01*
X139505998Y-91381736D01*
X139497539Y-91384330D01*
X139487513Y-91387016D01*
X139487511Y-91387017D01*
X139361988Y-91459488D01*
X139361982Y-91459493D01*
X139259493Y-91561982D01*
X139259488Y-91561988D01*
X139187017Y-91687511D01*
X139187016Y-91687515D01*
X139149500Y-91827525D01*
X105500500Y-91827525D01*
X105500500Y-88917525D01*
X116709500Y-88917525D01*
X116709500Y-89062475D01*
X116747016Y-89202485D01*
X116747017Y-89202488D01*
X116819488Y-89328011D01*
X116819490Y-89328013D01*
X116819491Y-89328015D01*
X116921985Y-89430509D01*
X116921986Y-89430510D01*
X116921988Y-89430511D01*
X117047511Y-89502982D01*
X117047512Y-89502982D01*
X117047515Y-89502984D01*
X117187525Y-89540500D01*
X117187528Y-89540500D01*
X117332472Y-89540500D01*
X117332475Y-89540500D01*
X117472485Y-89502984D01*
X117598015Y-89430509D01*
X117700509Y-89328015D01*
X117772984Y-89202485D01*
X117810500Y-89062475D01*
X117810500Y-88917525D01*
X117772984Y-88777515D01*
X117734077Y-88710127D01*
X117700511Y-88651988D01*
X117700506Y-88651982D01*
X117598017Y-88549493D01*
X117598011Y-88549488D01*
X117472488Y-88477017D01*
X117472489Y-88477017D01*
X117461006Y-88473940D01*
X117332475Y-88439500D01*
X117187525Y-88439500D01*
X117058993Y-88473940D01*
X117047511Y-88477017D01*
X116921988Y-88549488D01*
X116921982Y-88549493D01*
X116819493Y-88651982D01*
X116819488Y-88651988D01*
X116747017Y-88777511D01*
X116747016Y-88777515D01*
X116709500Y-88917525D01*
X105500500Y-88917525D01*
X105500500Y-86427525D01*
X119449500Y-86427525D01*
X119449500Y-86572475D01*
X119477649Y-86677527D01*
X119487017Y-86712488D01*
X119559488Y-86838011D01*
X119559490Y-86838013D01*
X119559491Y-86838015D01*
X119661985Y-86940509D01*
X119661986Y-86940510D01*
X119661988Y-86940511D01*
X119787511Y-87012982D01*
X119787512Y-87012982D01*
X119787515Y-87012984D01*
X119927525Y-87050500D01*
X119927528Y-87050500D01*
X120072472Y-87050500D01*
X120072475Y-87050500D01*
X120212485Y-87012984D01*
X120338015Y-86940509D01*
X120440509Y-86838015D01*
X120512984Y-86712485D01*
X120522352Y-86677525D01*
X179449500Y-86677525D01*
X179449500Y-86822475D01*
X179481128Y-86940511D01*
X179487017Y-86962488D01*
X179559488Y-87088011D01*
X179559490Y-87088013D01*
X179559491Y-87088015D01*
X179661985Y-87190509D01*
X179661986Y-87190510D01*
X179661988Y-87190511D01*
X179787511Y-87262982D01*
X179787512Y-87262982D01*
X179787515Y-87262984D01*
X179927525Y-87300500D01*
X179927528Y-87300500D01*
X180072472Y-87300500D01*
X180072475Y-87300500D01*
X180212485Y-87262984D01*
X180338015Y-87190509D01*
X180440509Y-87088015D01*
X180512984Y-86962485D01*
X180550500Y-86822475D01*
X180550500Y-86677525D01*
X180512984Y-86537515D01*
X180440509Y-86411985D01*
X180338015Y-86309491D01*
X180338013Y-86309490D01*
X180338011Y-86309488D01*
X180212488Y-86237017D01*
X180212489Y-86237017D01*
X180201006Y-86233940D01*
X180072475Y-86199500D01*
X179927525Y-86199500D01*
X179798993Y-86233940D01*
X179787511Y-86237017D01*
X179661988Y-86309488D01*
X179661982Y-86309493D01*
X179559493Y-86411982D01*
X179559488Y-86411988D01*
X179487017Y-86537511D01*
X179487016Y-86537515D01*
X179449500Y-86677525D01*
X120522352Y-86677525D01*
X120550500Y-86572475D01*
X120550500Y-86427525D01*
X120512984Y-86287515D01*
X120483828Y-86237016D01*
X120440511Y-86161988D01*
X120440506Y-86161982D01*
X120338017Y-86059493D01*
X120338011Y-86059488D01*
X120212488Y-85987017D01*
X120212489Y-85987017D01*
X120201006Y-85983940D01*
X120072475Y-85949500D01*
X119927525Y-85949500D01*
X119798993Y-85983940D01*
X119787511Y-85987017D01*
X119661988Y-86059488D01*
X119661982Y-86059493D01*
X119559493Y-86161982D01*
X119559488Y-86161988D01*
X119487017Y-86287511D01*
X119487016Y-86287515D01*
X119449500Y-86427525D01*
X105500500Y-86427525D01*
X105500500Y-84197525D01*
X138949500Y-84197525D01*
X138949500Y-84342475D01*
X138987016Y-84482485D01*
X138987017Y-84482488D01*
X139059488Y-84608011D01*
X139059490Y-84608013D01*
X139059491Y-84608015D01*
X139161985Y-84710509D01*
X139161986Y-84710510D01*
X139161988Y-84710511D01*
X139287511Y-84782982D01*
X139287512Y-84782982D01*
X139287515Y-84782984D01*
X139427525Y-84820500D01*
X139427528Y-84820500D01*
X139572472Y-84820500D01*
X139572475Y-84820500D01*
X139712485Y-84782984D01*
X139838015Y-84710509D01*
X139940509Y-84608015D01*
X140012984Y-84482485D01*
X140050500Y-84342475D01*
X140050500Y-84197525D01*
X140012984Y-84057515D01*
X139945430Y-83940509D01*
X139940511Y-83931988D01*
X139940506Y-83931982D01*
X139838017Y-83829493D01*
X139838011Y-83829488D01*
X139712488Y-83757017D01*
X139712489Y-83757017D01*
X139701006Y-83753940D01*
X139572475Y-83719500D01*
X139427525Y-83719500D01*
X139298993Y-83753940D01*
X139287511Y-83757017D01*
X139161988Y-83829488D01*
X139161982Y-83829493D01*
X139059493Y-83931982D01*
X139059488Y-83931988D01*
X138987017Y-84057511D01*
X138987016Y-84057515D01*
X138949500Y-84197525D01*
X105500500Y-84197525D01*
X105500500Y-83427525D01*
X119449500Y-83427525D01*
X119449500Y-83572475D01*
X119481128Y-83690511D01*
X119487017Y-83712488D01*
X119559488Y-83838011D01*
X119559490Y-83838013D01*
X119559491Y-83838015D01*
X119661985Y-83940509D01*
X119661986Y-83940510D01*
X119661988Y-83940511D01*
X119787511Y-84012982D01*
X119787512Y-84012982D01*
X119787515Y-84012984D01*
X119927525Y-84050500D01*
X119927528Y-84050500D01*
X120072472Y-84050500D01*
X120072475Y-84050500D01*
X120212485Y-84012984D01*
X120338015Y-83940509D01*
X120440509Y-83838015D01*
X120512984Y-83712485D01*
X120550500Y-83572475D01*
X120550500Y-83427525D01*
X120512984Y-83287515D01*
X120449481Y-83177525D01*
X179449500Y-83177525D01*
X179449500Y-83322475D01*
X179477649Y-83427527D01*
X179487017Y-83462488D01*
X179559488Y-83588011D01*
X179559490Y-83588013D01*
X179559491Y-83588015D01*
X179661985Y-83690509D01*
X179661986Y-83690510D01*
X179661988Y-83690511D01*
X179787511Y-83762982D01*
X179787512Y-83762982D01*
X179787515Y-83762984D01*
X179927525Y-83800500D01*
X179927528Y-83800500D01*
X180072472Y-83800500D01*
X180072475Y-83800500D01*
X180212485Y-83762984D01*
X180338015Y-83690509D01*
X180440509Y-83588015D01*
X180512984Y-83462485D01*
X180550500Y-83322475D01*
X180550500Y-83177525D01*
X180512984Y-83037515D01*
X180483828Y-82987016D01*
X180440511Y-82911988D01*
X180440506Y-82911982D01*
X180338017Y-82809493D01*
X180338011Y-82809488D01*
X180212488Y-82737017D01*
X180212489Y-82737017D01*
X180201006Y-82733940D01*
X180072475Y-82699500D01*
X179927525Y-82699500D01*
X179798993Y-82733940D01*
X179787511Y-82737017D01*
X179661988Y-82809488D01*
X179661982Y-82809493D01*
X179559493Y-82911982D01*
X179559488Y-82911988D01*
X179487017Y-83037511D01*
X179487016Y-83037515D01*
X179449500Y-83177525D01*
X120449481Y-83177525D01*
X120440509Y-83161985D01*
X120338015Y-83059491D01*
X120338013Y-83059490D01*
X120338011Y-83059488D01*
X120212488Y-82987017D01*
X120212489Y-82987017D01*
X120201006Y-82983940D01*
X120072475Y-82949500D01*
X119927525Y-82949500D01*
X119798993Y-82983940D01*
X119787511Y-82987017D01*
X119661988Y-83059488D01*
X119661982Y-83059493D01*
X119559493Y-83161982D01*
X119559488Y-83161988D01*
X119487017Y-83287511D01*
X119487016Y-83287515D01*
X119449500Y-83427525D01*
X105500500Y-83427525D01*
X105500500Y-82427525D01*
X121949500Y-82427525D01*
X121949500Y-82572475D01*
X121983537Y-82699500D01*
X121987017Y-82712488D01*
X122059488Y-82838011D01*
X122059490Y-82838013D01*
X122059491Y-82838015D01*
X122161985Y-82940509D01*
X122161986Y-82940510D01*
X122161988Y-82940511D01*
X122287511Y-83012982D01*
X122287512Y-83012982D01*
X122287515Y-83012984D01*
X122427525Y-83050500D01*
X122427528Y-83050500D01*
X122572473Y-83050500D01*
X122572475Y-83050500D01*
X122712485Y-83012984D01*
X122838015Y-82940509D01*
X122940509Y-82838015D01*
X123012984Y-82712485D01*
X123050500Y-82572475D01*
X123050500Y-82427525D01*
X181949500Y-82427525D01*
X181949500Y-82572475D01*
X181983537Y-82699500D01*
X181987017Y-82712488D01*
X182059488Y-82838011D01*
X182059490Y-82838013D01*
X182059491Y-82838015D01*
X182161985Y-82940509D01*
X182161986Y-82940510D01*
X182161988Y-82940511D01*
X182287511Y-83012982D01*
X182287512Y-83012982D01*
X182287515Y-83012984D01*
X182427525Y-83050500D01*
X182427528Y-83050500D01*
X182572472Y-83050500D01*
X182572475Y-83050500D01*
X182712485Y-83012984D01*
X182838015Y-82940509D01*
X182940509Y-82838015D01*
X183012984Y-82712485D01*
X183050500Y-82572475D01*
X183050500Y-82427525D01*
X183012984Y-82287515D01*
X182940509Y-82161985D01*
X182838015Y-82059491D01*
X182838013Y-82059490D01*
X182838011Y-82059488D01*
X182712488Y-81987017D01*
X182712489Y-81987017D01*
X182701006Y-81983940D01*
X182572475Y-81949500D01*
X182427525Y-81949500D01*
X182298993Y-81983940D01*
X182287511Y-81987017D01*
X182161988Y-82059488D01*
X182161982Y-82059493D01*
X182059493Y-82161982D01*
X182059488Y-82161988D01*
X181987017Y-82287511D01*
X181987016Y-82287515D01*
X181949500Y-82427525D01*
X123050500Y-82427525D01*
X123012984Y-82287515D01*
X122940509Y-82161985D01*
X122838015Y-82059491D01*
X122838013Y-82059490D01*
X122838011Y-82059488D01*
X122712488Y-81987017D01*
X122712489Y-81987017D01*
X122701006Y-81983940D01*
X122572475Y-81949500D01*
X122427525Y-81949500D01*
X122298993Y-81983940D01*
X122287511Y-81987017D01*
X122161988Y-82059488D01*
X122161982Y-82059493D01*
X122059493Y-82161982D01*
X122059488Y-82161988D01*
X121987017Y-82287511D01*
X121987016Y-82287515D01*
X121949500Y-82427525D01*
X105500500Y-82427525D01*
X105500500Y-80002706D01*
X105500618Y-79997297D01*
X105503377Y-79934108D01*
X105517387Y-79613224D01*
X105518325Y-79602496D01*
X105568151Y-79224032D01*
X105570024Y-79213402D01*
X105652648Y-78840714D01*
X105655446Y-78830276D01*
X105770230Y-78466227D01*
X105773917Y-78456095D01*
X105920003Y-78103412D01*
X105924561Y-78093638D01*
X106100822Y-77755045D01*
X106106217Y-77745700D01*
X106311325Y-77423744D01*
X106317515Y-77414905D01*
X106549896Y-77112060D01*
X106556834Y-77103791D01*
X106814726Y-76822352D01*
X106822352Y-76814726D01*
X107103791Y-76556834D01*
X107112060Y-76549896D01*
X107414905Y-76317515D01*
X107423744Y-76311325D01*
X107745700Y-76106217D01*
X107755045Y-76100822D01*
X108093638Y-75924561D01*
X108103412Y-75920003D01*
X108456095Y-75773917D01*
X108466227Y-75770230D01*
X108830285Y-75655443D01*
X108840714Y-75652648D01*
X109213402Y-75570024D01*
X109224032Y-75568151D01*
X109602496Y-75518325D01*
X109613224Y-75517387D01*
X109997297Y-75500617D01*
X110002706Y-75500500D01*
X110065892Y-75500500D01*
X120776614Y-75500500D01*
X120843653Y-75520185D01*
G37*
%TD.AperFunction*%
%TD*%
M02*
