M48
; DRILL file KiCad 10.0.4 date 2026-06-22T23:07:50
; FORMAT={-:-/ absolute / metric / decimal}
; #@! TF.CreationDate,2026-06-22T23:07:50-07:00
; #@! TF.GenerationSoftware,Kicad,Pcbnew,10.0.4
; #@! TF.FileFunction,Plated,1,4,PTH
FMAT,2
METRIC
; #@! TA.AperFunction,Plated,PTH,ComponentDrill
T1C0.200
; #@! TA.AperFunction,Plated,PTH,ViaDrill
T2C0.300
; #@! TA.AperFunction,Plated,PTH,ComponentDrill
T3C0.600
; #@! TA.AperFunction,Plated,PTH,ComponentDrill
T4C1.000
; #@! TA.AperFunction,Plated,PTH,ComponentDrill
T5C3.200
%
G90
G05
T1
X147.1Y-90.02
X147.1Y-91.42
X147.8Y-89.32
X147.8Y-90.72
X147.8Y-92.12
X148.5Y-90.02
X148.5Y-91.42
X149.2Y-89.32
X149.2Y-90.72
X149.2Y-92.12
X149.9Y-90.02
X149.9Y-91.42
T2
X111.9Y-100.8
X111.906Y-99.306
X112.25Y-102.5
X113.4Y-98.2
X114.052Y-97.648
X114.7Y-98.2
X115.75Y-102.5
X116.5Y-86.0
X116.5Y-116.0
X117.25Y-119.0
X117.26Y-88.99
X119.225Y-99.225
X119.25Y-100.75
X120.0Y-83.5
X120.0Y-86.5
X120.0Y-113.5
X120.0Y-116.75
X121.25Y-76.105
X121.25Y-77.545
X121.5Y-102.0
X122.5Y-82.5
X122.75Y-112.5
X124.5Y-91.5
X124.5Y-121.75
X124.75Y-99.5
X125.0Y-81.25
X126.0Y-111.25
X126.5Y-100.75
X128.0Y-123.25
X129.088Y-102.075
X131.0Y-120.75
X131.075Y-100.525
X132.25Y-98.0
X136.975Y-116.225
X137.0Y-105.25
X137.75Y-95.75
X137.75Y-100.25
X137.75Y-111.0
X138.525Y-116.225
X139.2Y-85.7
X139.25Y-97.0
X139.26Y-98.24
X139.26Y-99.51
X139.5Y-84.27
X139.7Y-91.9
X139.75Y-89.35
X139.75Y-90.65
X139.76Y-93.16
X139.8Y-94.43
X141.0Y-121.75
X141.0Y-123.25
X142.0Y-104.0
X144.5Y-115.25
X145.5Y-111.0
X145.6Y-104.0
X146.9Y-104.0
X147.6Y-116.25
X148.095Y-103.995
X148.25Y-112.75
X148.5Y-118.97
X149.0Y-107.25
X149.4Y-104.0
X150.25Y-107.5
X150.25Y-112.5
X150.7Y-104.0
X151.5Y-107.25
X151.5Y-119.0
X152.25Y-112.75
X152.737Y-115.987
X153.25Y-102.0
X154.5Y-102.0
X154.5Y-107.0
X156.0Y-107.0
X156.0Y-115.25
X159.0Y-104.25
X160.25Y-99.5
X160.75Y-92.0
X161.0Y-94.5
X163.0Y-94.5
X167.201Y-104.25
X169.6Y-100.6
X170.25Y-94.5
X170.374Y-101.974
X172.0Y-98.0
X173.75Y-99.25
X174.875Y-78.875
X175.5Y-100.0
X175.5Y-101.0
X176.275Y-85.975
X176.5Y-116.0
X177.0Y-89.0
X177.0Y-119.0
X178.75Y-76.1
X180.0Y-83.25
X180.0Y-86.75
X180.0Y-113.25
X180.0Y-116.75
X180.5Y-79.25
X182.5Y-82.5
X182.5Y-112.5
X183.7Y-99.3
X183.752Y-100.748
X184.0Y-102.5
X184.5Y-121.75
X184.52Y-91.73
X185.2Y-98.2
X185.75Y-111.25
X185.896Y-97.804
X186.6Y-98.2
X187.5Y-102.5
X191.0Y-99.25
X191.0Y-100.75
T4
X160.88Y-113.75
X163.42Y-113.75
X165.96Y-113.75
X165.98Y-89.73
X165.98Y-92.27
X168.5Y-113.75
X168.52Y-89.73
X168.52Y-92.27
T5
X110.0Y-80.0
X110.0Y-120.0
X190.0Y-80.0
X190.0Y-120.0
T3
G00X145.68Y-117.52
M15
G01X145.68Y-118.62
M16
G05
G00X145.68Y-121.85
M15
G01X145.68Y-122.65
M16
G05
G00X154.32Y-117.52
M15
G01X154.32Y-118.62
M16
G05
G00X154.32Y-121.85
M15
G01X154.32Y-122.65
M16
G05
M30
