%TF.GenerationSoftware,KiCad,Pcbnew,10.0.4*%
%TF.CreationDate,2026-06-22T23:07:52-07:00*%
%TF.ProjectId,Capstone,43617073-746f-46e6-952e-6b696361645f,rev?*%
%TF.SameCoordinates,Original*%
%TF.FileFunction,Legend,Top*%
%TF.FilePolarity,Positive*%
%FSLAX46Y46*%
G04 Gerber Fmt 4.6, Leading zero omitted, Abs format (unit mm)*
G04 Created by KiCad (PCBNEW 10.0.4) date 2026-06-22 23:07:52*
%MOMM*%
%LPD*%
G01*
G04 APERTURE LIST*
%ADD10C,0.100000*%
%ADD11C,0.300000*%
%ADD12C,0.150000*%
%ADD13C,0.120000*%
%ADD14C,0.152400*%
%ADD15C,0.000000*%
G04 APERTURE END LIST*
D10*
X109000000Y-94250000D02*
X108750000Y-94000000D01*
X109000000Y-94250000D02*
X109250000Y-94000000D01*
X109000000Y-94250000D02*
G75*
G02*
X110250000Y-95500000I1250000J0D01*
G01*
X110250000Y-91750000D02*
X109750000Y-92250000D01*
X110250000Y-91750000D02*
X110750000Y-92250000D01*
X110250000Y-94250000D02*
X110250000Y-91750000D01*
D11*
X110400000Y-94250000D02*
G75*
G02*
X110100000Y-94250000I-150000J0D01*
G01*
X110100000Y-94250000D02*
G75*
G02*
X110400000Y-94250000I150000J0D01*
G01*
D10*
X110750000Y-94250000D02*
G75*
G02*
X109750000Y-94250000I-500000J0D01*
G01*
X109750000Y-94250000D02*
G75*
G02*
X110750000Y-94250000I500000J0D01*
G01*
X110250000Y-94250000D02*
X112750000Y-94250000D01*
X112750000Y-94250000D02*
X112250000Y-93750000D01*
X112750000Y-94250000D02*
X112250000Y-94750000D01*
X108958646Y-94872419D02*
X109625312Y-94872419D01*
X109625312Y-94872419D02*
X108958646Y-95872419D01*
X108958646Y-95872419D02*
X109625312Y-95872419D01*
X110744360Y-91146228D02*
X110744360Y-91622419D01*
X110411027Y-90622419D02*
X110744360Y-91146228D01*
X110744360Y-91146228D02*
X111077693Y-90622419D01*
X112958646Y-93122419D02*
X113625312Y-94122419D01*
X113625312Y-93122419D02*
X112958646Y-94122419D01*
X119975312Y-79772419D02*
X119641979Y-79296228D01*
X119403884Y-79772419D02*
X119403884Y-78772419D01*
X119403884Y-78772419D02*
X119784836Y-78772419D01*
X119784836Y-78772419D02*
X119880074Y-78820038D01*
X119880074Y-78820038D02*
X119927693Y-78867657D01*
X119927693Y-78867657D02*
X119975312Y-78962895D01*
X119975312Y-78962895D02*
X119975312Y-79105752D01*
X119975312Y-79105752D02*
X119927693Y-79200990D01*
X119927693Y-79200990D02*
X119880074Y-79248609D01*
X119880074Y-79248609D02*
X119784836Y-79296228D01*
X119784836Y-79296228D02*
X119403884Y-79296228D01*
X120403884Y-79248609D02*
X120737217Y-79248609D01*
X120880074Y-79772419D02*
X120403884Y-79772419D01*
X120403884Y-79772419D02*
X120403884Y-78772419D01*
X120403884Y-78772419D02*
X120880074Y-78772419D01*
X121261027Y-79724800D02*
X121403884Y-79772419D01*
X121403884Y-79772419D02*
X121641979Y-79772419D01*
X121641979Y-79772419D02*
X121737217Y-79724800D01*
X121737217Y-79724800D02*
X121784836Y-79677180D01*
X121784836Y-79677180D02*
X121832455Y-79581942D01*
X121832455Y-79581942D02*
X121832455Y-79486704D01*
X121832455Y-79486704D02*
X121784836Y-79391466D01*
X121784836Y-79391466D02*
X121737217Y-79343847D01*
X121737217Y-79343847D02*
X121641979Y-79296228D01*
X121641979Y-79296228D02*
X121451503Y-79248609D01*
X121451503Y-79248609D02*
X121356265Y-79200990D01*
X121356265Y-79200990D02*
X121308646Y-79153371D01*
X121308646Y-79153371D02*
X121261027Y-79058133D01*
X121261027Y-79058133D02*
X121261027Y-78962895D01*
X121261027Y-78962895D02*
X121308646Y-78867657D01*
X121308646Y-78867657D02*
X121356265Y-78820038D01*
X121356265Y-78820038D02*
X121451503Y-78772419D01*
X121451503Y-78772419D02*
X121689598Y-78772419D01*
X121689598Y-78772419D02*
X121832455Y-78820038D01*
X122261027Y-79248609D02*
X122594360Y-79248609D01*
X122737217Y-79772419D02*
X122261027Y-79772419D01*
X122261027Y-79772419D02*
X122261027Y-78772419D01*
X122261027Y-78772419D02*
X122737217Y-78772419D01*
X123022932Y-78772419D02*
X123594360Y-78772419D01*
X123308646Y-79772419D02*
X123308646Y-78772419D01*
X164458646Y-87122419D02*
X165077693Y-87122419D01*
X165077693Y-87122419D02*
X164744360Y-87503371D01*
X164744360Y-87503371D02*
X164887217Y-87503371D01*
X164887217Y-87503371D02*
X164982455Y-87550990D01*
X164982455Y-87550990D02*
X165030074Y-87598609D01*
X165030074Y-87598609D02*
X165077693Y-87693847D01*
X165077693Y-87693847D02*
X165077693Y-87931942D01*
X165077693Y-87931942D02*
X165030074Y-88027180D01*
X165030074Y-88027180D02*
X164982455Y-88074800D01*
X164982455Y-88074800D02*
X164887217Y-88122419D01*
X164887217Y-88122419D02*
X164601503Y-88122419D01*
X164601503Y-88122419D02*
X164506265Y-88074800D01*
X164506265Y-88074800D02*
X164458646Y-88027180D01*
X165411027Y-87455752D02*
X165649122Y-88122419D01*
X165649122Y-88122419D02*
X165887217Y-87455752D01*
X166172932Y-87122419D02*
X166791979Y-87122419D01*
X166791979Y-87122419D02*
X166458646Y-87503371D01*
X166458646Y-87503371D02*
X166601503Y-87503371D01*
X166601503Y-87503371D02*
X166696741Y-87550990D01*
X166696741Y-87550990D02*
X166744360Y-87598609D01*
X166744360Y-87598609D02*
X166791979Y-87693847D01*
X166791979Y-87693847D02*
X166791979Y-87931942D01*
X166791979Y-87931942D02*
X166744360Y-88027180D01*
X166744360Y-88027180D02*
X166696741Y-88074800D01*
X166696741Y-88074800D02*
X166601503Y-88122419D01*
X166601503Y-88122419D02*
X166315789Y-88122419D01*
X166315789Y-88122419D02*
X166220551Y-88074800D01*
X166220551Y-88074800D02*
X166172932Y-88027180D01*
X165030074Y-95122419D02*
X164553884Y-95122419D01*
X164553884Y-95122419D02*
X164553884Y-94122419D01*
X165363408Y-94598609D02*
X165696741Y-94598609D01*
X165839598Y-95122419D02*
X165363408Y-95122419D01*
X165363408Y-95122419D02*
X165363408Y-94122419D01*
X165363408Y-94122419D02*
X165839598Y-94122419D01*
X166268170Y-95122419D02*
X166268170Y-94122419D01*
X166268170Y-94122419D02*
X166506265Y-94122419D01*
X166506265Y-94122419D02*
X166649122Y-94170038D01*
X166649122Y-94170038D02*
X166744360Y-94265276D01*
X166744360Y-94265276D02*
X166791979Y-94360514D01*
X166791979Y-94360514D02*
X166839598Y-94550990D01*
X166839598Y-94550990D02*
X166839598Y-94693847D01*
X166839598Y-94693847D02*
X166791979Y-94884323D01*
X166791979Y-94884323D02*
X166744360Y-94979561D01*
X166744360Y-94979561D02*
X166649122Y-95074800D01*
X166649122Y-95074800D02*
X166506265Y-95122419D01*
X166506265Y-95122419D02*
X166268170Y-95122419D01*
X168077693Y-87170038D02*
X167982455Y-87122419D01*
X167982455Y-87122419D02*
X167839598Y-87122419D01*
X167839598Y-87122419D02*
X167696741Y-87170038D01*
X167696741Y-87170038D02*
X167601503Y-87265276D01*
X167601503Y-87265276D02*
X167553884Y-87360514D01*
X167553884Y-87360514D02*
X167506265Y-87550990D01*
X167506265Y-87550990D02*
X167506265Y-87693847D01*
X167506265Y-87693847D02*
X167553884Y-87884323D01*
X167553884Y-87884323D02*
X167601503Y-87979561D01*
X167601503Y-87979561D02*
X167696741Y-88074800D01*
X167696741Y-88074800D02*
X167839598Y-88122419D01*
X167839598Y-88122419D02*
X167934836Y-88122419D01*
X167934836Y-88122419D02*
X168077693Y-88074800D01*
X168077693Y-88074800D02*
X168125312Y-88027180D01*
X168125312Y-88027180D02*
X168125312Y-87693847D01*
X168125312Y-87693847D02*
X167934836Y-87693847D01*
X168553884Y-88122419D02*
X168553884Y-87122419D01*
X168553884Y-87122419D02*
X169125312Y-88122419D01*
X169125312Y-88122419D02*
X169125312Y-87122419D01*
X169601503Y-88122419D02*
X169601503Y-87122419D01*
X169601503Y-87122419D02*
X169839598Y-87122419D01*
X169839598Y-87122419D02*
X169982455Y-87170038D01*
X169982455Y-87170038D02*
X170077693Y-87265276D01*
X170077693Y-87265276D02*
X170125312Y-87360514D01*
X170125312Y-87360514D02*
X170172931Y-87550990D01*
X170172931Y-87550990D02*
X170172931Y-87693847D01*
X170172931Y-87693847D02*
X170125312Y-87884323D01*
X170125312Y-87884323D02*
X170077693Y-87979561D01*
X170077693Y-87979561D02*
X169982455Y-88074800D01*
X169982455Y-88074800D02*
X169839598Y-88122419D01*
X169839598Y-88122419D02*
X169601503Y-88122419D01*
X167887217Y-94598609D02*
X168030074Y-94646228D01*
X168030074Y-94646228D02*
X168077693Y-94693847D01*
X168077693Y-94693847D02*
X168125312Y-94789085D01*
X168125312Y-94789085D02*
X168125312Y-94931942D01*
X168125312Y-94931942D02*
X168077693Y-95027180D01*
X168077693Y-95027180D02*
X168030074Y-95074800D01*
X168030074Y-95074800D02*
X167934836Y-95122419D01*
X167934836Y-95122419D02*
X167553884Y-95122419D01*
X167553884Y-95122419D02*
X167553884Y-94122419D01*
X167553884Y-94122419D02*
X167887217Y-94122419D01*
X167887217Y-94122419D02*
X167982455Y-94170038D01*
X167982455Y-94170038D02*
X168030074Y-94217657D01*
X168030074Y-94217657D02*
X168077693Y-94312895D01*
X168077693Y-94312895D02*
X168077693Y-94408133D01*
X168077693Y-94408133D02*
X168030074Y-94503371D01*
X168030074Y-94503371D02*
X167982455Y-94550990D01*
X167982455Y-94550990D02*
X167887217Y-94598609D01*
X167887217Y-94598609D02*
X167553884Y-94598609D01*
X168411027Y-94122419D02*
X168982455Y-94122419D01*
X168696741Y-95122419D02*
X168696741Y-94122419D01*
X169315789Y-95122419D02*
X169315789Y-94122419D01*
X169315789Y-94122419D02*
X169887217Y-95122419D01*
X169887217Y-95122419D02*
X169887217Y-94122419D01*
X177137217Y-79248609D02*
X177280074Y-79296228D01*
X177280074Y-79296228D02*
X177327693Y-79343847D01*
X177327693Y-79343847D02*
X177375312Y-79439085D01*
X177375312Y-79439085D02*
X177375312Y-79581942D01*
X177375312Y-79581942D02*
X177327693Y-79677180D01*
X177327693Y-79677180D02*
X177280074Y-79724800D01*
X177280074Y-79724800D02*
X177184836Y-79772419D01*
X177184836Y-79772419D02*
X176803884Y-79772419D01*
X176803884Y-79772419D02*
X176803884Y-78772419D01*
X176803884Y-78772419D02*
X177137217Y-78772419D01*
X177137217Y-78772419D02*
X177232455Y-78820038D01*
X177232455Y-78820038D02*
X177280074Y-78867657D01*
X177280074Y-78867657D02*
X177327693Y-78962895D01*
X177327693Y-78962895D02*
X177327693Y-79058133D01*
X177327693Y-79058133D02*
X177280074Y-79153371D01*
X177280074Y-79153371D02*
X177232455Y-79200990D01*
X177232455Y-79200990D02*
X177137217Y-79248609D01*
X177137217Y-79248609D02*
X176803884Y-79248609D01*
X177994360Y-78772419D02*
X178184836Y-78772419D01*
X178184836Y-78772419D02*
X178280074Y-78820038D01*
X178280074Y-78820038D02*
X178375312Y-78915276D01*
X178375312Y-78915276D02*
X178422931Y-79105752D01*
X178422931Y-79105752D02*
X178422931Y-79439085D01*
X178422931Y-79439085D02*
X178375312Y-79629561D01*
X178375312Y-79629561D02*
X178280074Y-79724800D01*
X178280074Y-79724800D02*
X178184836Y-79772419D01*
X178184836Y-79772419D02*
X177994360Y-79772419D01*
X177994360Y-79772419D02*
X177899122Y-79724800D01*
X177899122Y-79724800D02*
X177803884Y-79629561D01*
X177803884Y-79629561D02*
X177756265Y-79439085D01*
X177756265Y-79439085D02*
X177756265Y-79105752D01*
X177756265Y-79105752D02*
X177803884Y-78915276D01*
X177803884Y-78915276D02*
X177899122Y-78820038D01*
X177899122Y-78820038D02*
X177994360Y-78772419D01*
X179041979Y-78772419D02*
X179232455Y-78772419D01*
X179232455Y-78772419D02*
X179327693Y-78820038D01*
X179327693Y-78820038D02*
X179422931Y-78915276D01*
X179422931Y-78915276D02*
X179470550Y-79105752D01*
X179470550Y-79105752D02*
X179470550Y-79439085D01*
X179470550Y-79439085D02*
X179422931Y-79629561D01*
X179422931Y-79629561D02*
X179327693Y-79724800D01*
X179327693Y-79724800D02*
X179232455Y-79772419D01*
X179232455Y-79772419D02*
X179041979Y-79772419D01*
X179041979Y-79772419D02*
X178946741Y-79724800D01*
X178946741Y-79724800D02*
X178851503Y-79629561D01*
X178851503Y-79629561D02*
X178803884Y-79439085D01*
X178803884Y-79439085D02*
X178803884Y-79105752D01*
X178803884Y-79105752D02*
X178851503Y-78915276D01*
X178851503Y-78915276D02*
X178946741Y-78820038D01*
X178946741Y-78820038D02*
X179041979Y-78772419D01*
X179756265Y-78772419D02*
X180327693Y-78772419D01*
X180041979Y-79772419D02*
X180041979Y-78772419D01*
D12*
X153954819Y-112166666D02*
X153478628Y-112499999D01*
X153954819Y-112738094D02*
X152954819Y-112738094D01*
X152954819Y-112738094D02*
X152954819Y-112357142D01*
X152954819Y-112357142D02*
X153002438Y-112261904D01*
X153002438Y-112261904D02*
X153050057Y-112214285D01*
X153050057Y-112214285D02*
X153145295Y-112166666D01*
X153145295Y-112166666D02*
X153288152Y-112166666D01*
X153288152Y-112166666D02*
X153383390Y-112214285D01*
X153383390Y-112214285D02*
X153431009Y-112261904D01*
X153431009Y-112261904D02*
X153478628Y-112357142D01*
X153478628Y-112357142D02*
X153478628Y-112738094D01*
X152954819Y-111833332D02*
X152954819Y-111214285D01*
X152954819Y-111214285D02*
X153335771Y-111547618D01*
X153335771Y-111547618D02*
X153335771Y-111404761D01*
X153335771Y-111404761D02*
X153383390Y-111309523D01*
X153383390Y-111309523D02*
X153431009Y-111261904D01*
X153431009Y-111261904D02*
X153526247Y-111214285D01*
X153526247Y-111214285D02*
X153764342Y-111214285D01*
X153764342Y-111214285D02*
X153859580Y-111261904D01*
X153859580Y-111261904D02*
X153907200Y-111309523D01*
X153907200Y-111309523D02*
X153954819Y-111404761D01*
X153954819Y-111404761D02*
X153954819Y-111690475D01*
X153954819Y-111690475D02*
X153907200Y-111785713D01*
X153907200Y-111785713D02*
X153859580Y-111833332D01*
X115216667Y-77452200D02*
X115359524Y-77499819D01*
X115359524Y-77499819D02*
X115597619Y-77499819D01*
X115597619Y-77499819D02*
X115692857Y-77452200D01*
X115692857Y-77452200D02*
X115740476Y-77404580D01*
X115740476Y-77404580D02*
X115788095Y-77309342D01*
X115788095Y-77309342D02*
X115788095Y-77214104D01*
X115788095Y-77214104D02*
X115740476Y-77118866D01*
X115740476Y-77118866D02*
X115692857Y-77071247D01*
X115692857Y-77071247D02*
X115597619Y-77023628D01*
X115597619Y-77023628D02*
X115407143Y-76976009D01*
X115407143Y-76976009D02*
X115311905Y-76928390D01*
X115311905Y-76928390D02*
X115264286Y-76880771D01*
X115264286Y-76880771D02*
X115216667Y-76785533D01*
X115216667Y-76785533D02*
X115216667Y-76690295D01*
X115216667Y-76690295D02*
X115264286Y-76595057D01*
X115264286Y-76595057D02*
X115311905Y-76547438D01*
X115311905Y-76547438D02*
X115407143Y-76499819D01*
X115407143Y-76499819D02*
X115645238Y-76499819D01*
X115645238Y-76499819D02*
X115788095Y-76547438D01*
X116121429Y-76499819D02*
X116359524Y-77499819D01*
X116359524Y-77499819D02*
X116550000Y-76785533D01*
X116550000Y-76785533D02*
X116740476Y-77499819D01*
X116740476Y-77499819D02*
X116978572Y-76499819D01*
X117311905Y-76595057D02*
X117359524Y-76547438D01*
X117359524Y-76547438D02*
X117454762Y-76499819D01*
X117454762Y-76499819D02*
X117692857Y-76499819D01*
X117692857Y-76499819D02*
X117788095Y-76547438D01*
X117788095Y-76547438D02*
X117835714Y-76595057D01*
X117835714Y-76595057D02*
X117883333Y-76690295D01*
X117883333Y-76690295D02*
X117883333Y-76785533D01*
X117883333Y-76785533D02*
X117835714Y-76928390D01*
X117835714Y-76928390D02*
X117264286Y-77499819D01*
X117264286Y-77499819D02*
X117883333Y-77499819D01*
X183107142Y-96954819D02*
X182773809Y-96478628D01*
X182535714Y-96954819D02*
X182535714Y-95954819D01*
X182535714Y-95954819D02*
X182916666Y-95954819D01*
X182916666Y-95954819D02*
X183011904Y-96002438D01*
X183011904Y-96002438D02*
X183059523Y-96050057D01*
X183059523Y-96050057D02*
X183107142Y-96145295D01*
X183107142Y-96145295D02*
X183107142Y-96288152D01*
X183107142Y-96288152D02*
X183059523Y-96383390D01*
X183059523Y-96383390D02*
X183011904Y-96431009D01*
X183011904Y-96431009D02*
X182916666Y-96478628D01*
X182916666Y-96478628D02*
X182535714Y-96478628D01*
X183440476Y-95954819D02*
X184059523Y-95954819D01*
X184059523Y-95954819D02*
X183726190Y-96335771D01*
X183726190Y-96335771D02*
X183869047Y-96335771D01*
X183869047Y-96335771D02*
X183964285Y-96383390D01*
X183964285Y-96383390D02*
X184011904Y-96431009D01*
X184011904Y-96431009D02*
X184059523Y-96526247D01*
X184059523Y-96526247D02*
X184059523Y-96764342D01*
X184059523Y-96764342D02*
X184011904Y-96859580D01*
X184011904Y-96859580D02*
X183964285Y-96907200D01*
X183964285Y-96907200D02*
X183869047Y-96954819D01*
X183869047Y-96954819D02*
X183583333Y-96954819D01*
X183583333Y-96954819D02*
X183488095Y-96907200D01*
X183488095Y-96907200D02*
X183440476Y-96859580D01*
X184535714Y-96954819D02*
X184726190Y-96954819D01*
X184726190Y-96954819D02*
X184821428Y-96907200D01*
X184821428Y-96907200D02*
X184869047Y-96859580D01*
X184869047Y-96859580D02*
X184964285Y-96716723D01*
X184964285Y-96716723D02*
X185011904Y-96526247D01*
X185011904Y-96526247D02*
X185011904Y-96145295D01*
X185011904Y-96145295D02*
X184964285Y-96050057D01*
X184964285Y-96050057D02*
X184916666Y-96002438D01*
X184916666Y-96002438D02*
X184821428Y-95954819D01*
X184821428Y-95954819D02*
X184630952Y-95954819D01*
X184630952Y-95954819D02*
X184535714Y-96002438D01*
X184535714Y-96002438D02*
X184488095Y-96050057D01*
X184488095Y-96050057D02*
X184440476Y-96145295D01*
X184440476Y-96145295D02*
X184440476Y-96383390D01*
X184440476Y-96383390D02*
X184488095Y-96478628D01*
X184488095Y-96478628D02*
X184535714Y-96526247D01*
X184535714Y-96526247D02*
X184630952Y-96573866D01*
X184630952Y-96573866D02*
X184821428Y-96573866D01*
X184821428Y-96573866D02*
X184916666Y-96526247D01*
X184916666Y-96526247D02*
X184964285Y-96478628D01*
X184964285Y-96478628D02*
X185011904Y-96383390D01*
X127907142Y-114359580D02*
X127859523Y-114407200D01*
X127859523Y-114407200D02*
X127716666Y-114454819D01*
X127716666Y-114454819D02*
X127621428Y-114454819D01*
X127621428Y-114454819D02*
X127478571Y-114407200D01*
X127478571Y-114407200D02*
X127383333Y-114311961D01*
X127383333Y-114311961D02*
X127335714Y-114216723D01*
X127335714Y-114216723D02*
X127288095Y-114026247D01*
X127288095Y-114026247D02*
X127288095Y-113883390D01*
X127288095Y-113883390D02*
X127335714Y-113692914D01*
X127335714Y-113692914D02*
X127383333Y-113597676D01*
X127383333Y-113597676D02*
X127478571Y-113502438D01*
X127478571Y-113502438D02*
X127621428Y-113454819D01*
X127621428Y-113454819D02*
X127716666Y-113454819D01*
X127716666Y-113454819D02*
X127859523Y-113502438D01*
X127859523Y-113502438D02*
X127907142Y-113550057D01*
X128859523Y-114454819D02*
X128288095Y-114454819D01*
X128573809Y-114454819D02*
X128573809Y-113454819D01*
X128573809Y-113454819D02*
X128478571Y-113597676D01*
X128478571Y-113597676D02*
X128383333Y-113692914D01*
X128383333Y-113692914D02*
X128288095Y-113740533D01*
X129335714Y-114454819D02*
X129526190Y-114454819D01*
X129526190Y-114454819D02*
X129621428Y-114407200D01*
X129621428Y-114407200D02*
X129669047Y-114359580D01*
X129669047Y-114359580D02*
X129764285Y-114216723D01*
X129764285Y-114216723D02*
X129811904Y-114026247D01*
X129811904Y-114026247D02*
X129811904Y-113645295D01*
X129811904Y-113645295D02*
X129764285Y-113550057D01*
X129764285Y-113550057D02*
X129716666Y-113502438D01*
X129716666Y-113502438D02*
X129621428Y-113454819D01*
X129621428Y-113454819D02*
X129430952Y-113454819D01*
X129430952Y-113454819D02*
X129335714Y-113502438D01*
X129335714Y-113502438D02*
X129288095Y-113550057D01*
X129288095Y-113550057D02*
X129240476Y-113645295D01*
X129240476Y-113645295D02*
X129240476Y-113883390D01*
X129240476Y-113883390D02*
X129288095Y-113978628D01*
X129288095Y-113978628D02*
X129335714Y-114026247D01*
X129335714Y-114026247D02*
X129430952Y-114073866D01*
X129430952Y-114073866D02*
X129621428Y-114073866D01*
X129621428Y-114073866D02*
X129716666Y-114026247D01*
X129716666Y-114026247D02*
X129764285Y-113978628D01*
X129764285Y-113978628D02*
X129811904Y-113883390D01*
X134729819Y-111461904D02*
X135539342Y-111461904D01*
X135539342Y-111461904D02*
X135634580Y-111414285D01*
X135634580Y-111414285D02*
X135682200Y-111366666D01*
X135682200Y-111366666D02*
X135729819Y-111271428D01*
X135729819Y-111271428D02*
X135729819Y-111080952D01*
X135729819Y-111080952D02*
X135682200Y-110985714D01*
X135682200Y-110985714D02*
X135634580Y-110938095D01*
X135634580Y-110938095D02*
X135539342Y-110890476D01*
X135539342Y-110890476D02*
X134729819Y-110890476D01*
X134729819Y-110509523D02*
X134729819Y-109890476D01*
X134729819Y-109890476D02*
X135110771Y-110223809D01*
X135110771Y-110223809D02*
X135110771Y-110080952D01*
X135110771Y-110080952D02*
X135158390Y-109985714D01*
X135158390Y-109985714D02*
X135206009Y-109938095D01*
X135206009Y-109938095D02*
X135301247Y-109890476D01*
X135301247Y-109890476D02*
X135539342Y-109890476D01*
X135539342Y-109890476D02*
X135634580Y-109938095D01*
X135634580Y-109938095D02*
X135682200Y-109985714D01*
X135682200Y-109985714D02*
X135729819Y-110080952D01*
X135729819Y-110080952D02*
X135729819Y-110366666D01*
X135729819Y-110366666D02*
X135682200Y-110461904D01*
X135682200Y-110461904D02*
X135634580Y-110509523D01*
X134204819Y-86916666D02*
X133728628Y-87249999D01*
X134204819Y-87488094D02*
X133204819Y-87488094D01*
X133204819Y-87488094D02*
X133204819Y-87107142D01*
X133204819Y-87107142D02*
X133252438Y-87011904D01*
X133252438Y-87011904D02*
X133300057Y-86964285D01*
X133300057Y-86964285D02*
X133395295Y-86916666D01*
X133395295Y-86916666D02*
X133538152Y-86916666D01*
X133538152Y-86916666D02*
X133633390Y-86964285D01*
X133633390Y-86964285D02*
X133681009Y-87011904D01*
X133681009Y-87011904D02*
X133728628Y-87107142D01*
X133728628Y-87107142D02*
X133728628Y-87488094D01*
X134204819Y-86440475D02*
X134204819Y-86249999D01*
X134204819Y-86249999D02*
X134157200Y-86154761D01*
X134157200Y-86154761D02*
X134109580Y-86107142D01*
X134109580Y-86107142D02*
X133966723Y-86011904D01*
X133966723Y-86011904D02*
X133776247Y-85964285D01*
X133776247Y-85964285D02*
X133395295Y-85964285D01*
X133395295Y-85964285D02*
X133300057Y-86011904D01*
X133300057Y-86011904D02*
X133252438Y-86059523D01*
X133252438Y-86059523D02*
X133204819Y-86154761D01*
X133204819Y-86154761D02*
X133204819Y-86345237D01*
X133204819Y-86345237D02*
X133252438Y-86440475D01*
X133252438Y-86440475D02*
X133300057Y-86488094D01*
X133300057Y-86488094D02*
X133395295Y-86535713D01*
X133395295Y-86535713D02*
X133633390Y-86535713D01*
X133633390Y-86535713D02*
X133728628Y-86488094D01*
X133728628Y-86488094D02*
X133776247Y-86440475D01*
X133776247Y-86440475D02*
X133823866Y-86345237D01*
X133823866Y-86345237D02*
X133823866Y-86154761D01*
X133823866Y-86154761D02*
X133776247Y-86059523D01*
X133776247Y-86059523D02*
X133728628Y-86011904D01*
X133728628Y-86011904D02*
X133633390Y-85964285D01*
X169359580Y-99642857D02*
X169407200Y-99690476D01*
X169407200Y-99690476D02*
X169454819Y-99833333D01*
X169454819Y-99833333D02*
X169454819Y-99928571D01*
X169454819Y-99928571D02*
X169407200Y-100071428D01*
X169407200Y-100071428D02*
X169311961Y-100166666D01*
X169311961Y-100166666D02*
X169216723Y-100214285D01*
X169216723Y-100214285D02*
X169026247Y-100261904D01*
X169026247Y-100261904D02*
X168883390Y-100261904D01*
X168883390Y-100261904D02*
X168692914Y-100214285D01*
X168692914Y-100214285D02*
X168597676Y-100166666D01*
X168597676Y-100166666D02*
X168502438Y-100071428D01*
X168502438Y-100071428D02*
X168454819Y-99928571D01*
X168454819Y-99928571D02*
X168454819Y-99833333D01*
X168454819Y-99833333D02*
X168502438Y-99690476D01*
X168502438Y-99690476D02*
X168550057Y-99642857D01*
X169454819Y-98690476D02*
X169454819Y-99261904D01*
X169454819Y-98976190D02*
X168454819Y-98976190D01*
X168454819Y-98976190D02*
X168597676Y-99071428D01*
X168597676Y-99071428D02*
X168692914Y-99166666D01*
X168692914Y-99166666D02*
X168740533Y-99261904D01*
X168550057Y-98309523D02*
X168502438Y-98261904D01*
X168502438Y-98261904D02*
X168454819Y-98166666D01*
X168454819Y-98166666D02*
X168454819Y-97928571D01*
X168454819Y-97928571D02*
X168502438Y-97833333D01*
X168502438Y-97833333D02*
X168550057Y-97785714D01*
X168550057Y-97785714D02*
X168645295Y-97738095D01*
X168645295Y-97738095D02*
X168740533Y-97738095D01*
X168740533Y-97738095D02*
X168883390Y-97785714D01*
X168883390Y-97785714D02*
X169454819Y-98357142D01*
X169454819Y-98357142D02*
X169454819Y-97738095D01*
X157954819Y-104642857D02*
X157478628Y-104976190D01*
X157954819Y-105214285D02*
X156954819Y-105214285D01*
X156954819Y-105214285D02*
X156954819Y-104833333D01*
X156954819Y-104833333D02*
X157002438Y-104738095D01*
X157002438Y-104738095D02*
X157050057Y-104690476D01*
X157050057Y-104690476D02*
X157145295Y-104642857D01*
X157145295Y-104642857D02*
X157288152Y-104642857D01*
X157288152Y-104642857D02*
X157383390Y-104690476D01*
X157383390Y-104690476D02*
X157431009Y-104738095D01*
X157431009Y-104738095D02*
X157478628Y-104833333D01*
X157478628Y-104833333D02*
X157478628Y-105214285D01*
X156954819Y-104309523D02*
X156954819Y-103690476D01*
X156954819Y-103690476D02*
X157335771Y-104023809D01*
X157335771Y-104023809D02*
X157335771Y-103880952D01*
X157335771Y-103880952D02*
X157383390Y-103785714D01*
X157383390Y-103785714D02*
X157431009Y-103738095D01*
X157431009Y-103738095D02*
X157526247Y-103690476D01*
X157526247Y-103690476D02*
X157764342Y-103690476D01*
X157764342Y-103690476D02*
X157859580Y-103738095D01*
X157859580Y-103738095D02*
X157907200Y-103785714D01*
X157907200Y-103785714D02*
X157954819Y-103880952D01*
X157954819Y-103880952D02*
X157954819Y-104166666D01*
X157954819Y-104166666D02*
X157907200Y-104261904D01*
X157907200Y-104261904D02*
X157859580Y-104309523D01*
X156954819Y-103357142D02*
X156954819Y-102738095D01*
X156954819Y-102738095D02*
X157335771Y-103071428D01*
X157335771Y-103071428D02*
X157335771Y-102928571D01*
X157335771Y-102928571D02*
X157383390Y-102833333D01*
X157383390Y-102833333D02*
X157431009Y-102785714D01*
X157431009Y-102785714D02*
X157526247Y-102738095D01*
X157526247Y-102738095D02*
X157764342Y-102738095D01*
X157764342Y-102738095D02*
X157859580Y-102785714D01*
X157859580Y-102785714D02*
X157907200Y-102833333D01*
X157907200Y-102833333D02*
X157954819Y-102928571D01*
X157954819Y-102928571D02*
X157954819Y-103214285D01*
X157954819Y-103214285D02*
X157907200Y-103309523D01*
X157907200Y-103309523D02*
X157859580Y-103357142D01*
X119357142Y-111024819D02*
X119023809Y-110548628D01*
X118785714Y-111024819D02*
X118785714Y-110024819D01*
X118785714Y-110024819D02*
X119166666Y-110024819D01*
X119166666Y-110024819D02*
X119261904Y-110072438D01*
X119261904Y-110072438D02*
X119309523Y-110120057D01*
X119309523Y-110120057D02*
X119357142Y-110215295D01*
X119357142Y-110215295D02*
X119357142Y-110358152D01*
X119357142Y-110358152D02*
X119309523Y-110453390D01*
X119309523Y-110453390D02*
X119261904Y-110501009D01*
X119261904Y-110501009D02*
X119166666Y-110548628D01*
X119166666Y-110548628D02*
X118785714Y-110548628D01*
X120309523Y-111024819D02*
X119738095Y-111024819D01*
X120023809Y-111024819D02*
X120023809Y-110024819D01*
X120023809Y-110024819D02*
X119928571Y-110167676D01*
X119928571Y-110167676D02*
X119833333Y-110262914D01*
X119833333Y-110262914D02*
X119738095Y-110310533D01*
X120642857Y-110024819D02*
X121309523Y-110024819D01*
X121309523Y-110024819D02*
X120880952Y-111024819D01*
X134204819Y-108166666D02*
X133728628Y-108499999D01*
X134204819Y-108738094D02*
X133204819Y-108738094D01*
X133204819Y-108738094D02*
X133204819Y-108357142D01*
X133204819Y-108357142D02*
X133252438Y-108261904D01*
X133252438Y-108261904D02*
X133300057Y-108214285D01*
X133300057Y-108214285D02*
X133395295Y-108166666D01*
X133395295Y-108166666D02*
X133538152Y-108166666D01*
X133538152Y-108166666D02*
X133633390Y-108214285D01*
X133633390Y-108214285D02*
X133681009Y-108261904D01*
X133681009Y-108261904D02*
X133728628Y-108357142D01*
X133728628Y-108357142D02*
X133728628Y-108738094D01*
X134204819Y-107214285D02*
X134204819Y-107785713D01*
X134204819Y-107499999D02*
X133204819Y-107499999D01*
X133204819Y-107499999D02*
X133347676Y-107595237D01*
X133347676Y-107595237D02*
X133442914Y-107690475D01*
X133442914Y-107690475D02*
X133490533Y-107785713D01*
X140083333Y-108109580D02*
X140035714Y-108157200D01*
X140035714Y-108157200D02*
X139892857Y-108204819D01*
X139892857Y-108204819D02*
X139797619Y-108204819D01*
X139797619Y-108204819D02*
X139654762Y-108157200D01*
X139654762Y-108157200D02*
X139559524Y-108061961D01*
X139559524Y-108061961D02*
X139511905Y-107966723D01*
X139511905Y-107966723D02*
X139464286Y-107776247D01*
X139464286Y-107776247D02*
X139464286Y-107633390D01*
X139464286Y-107633390D02*
X139511905Y-107442914D01*
X139511905Y-107442914D02*
X139559524Y-107347676D01*
X139559524Y-107347676D02*
X139654762Y-107252438D01*
X139654762Y-107252438D02*
X139797619Y-107204819D01*
X139797619Y-107204819D02*
X139892857Y-107204819D01*
X139892857Y-107204819D02*
X140035714Y-107252438D01*
X140035714Y-107252438D02*
X140083333Y-107300057D01*
X140988095Y-107204819D02*
X140511905Y-107204819D01*
X140511905Y-107204819D02*
X140464286Y-107681009D01*
X140464286Y-107681009D02*
X140511905Y-107633390D01*
X140511905Y-107633390D02*
X140607143Y-107585771D01*
X140607143Y-107585771D02*
X140845238Y-107585771D01*
X140845238Y-107585771D02*
X140940476Y-107633390D01*
X140940476Y-107633390D02*
X140988095Y-107681009D01*
X140988095Y-107681009D02*
X141035714Y-107776247D01*
X141035714Y-107776247D02*
X141035714Y-108014342D01*
X141035714Y-108014342D02*
X140988095Y-108109580D01*
X140988095Y-108109580D02*
X140940476Y-108157200D01*
X140940476Y-108157200D02*
X140845238Y-108204819D01*
X140845238Y-108204819D02*
X140607143Y-108204819D01*
X140607143Y-108204819D02*
X140511905Y-108157200D01*
X140511905Y-108157200D02*
X140464286Y-108109580D01*
X179357142Y-81524819D02*
X179023809Y-81048628D01*
X178785714Y-81524819D02*
X178785714Y-80524819D01*
X178785714Y-80524819D02*
X179166666Y-80524819D01*
X179166666Y-80524819D02*
X179261904Y-80572438D01*
X179261904Y-80572438D02*
X179309523Y-80620057D01*
X179309523Y-80620057D02*
X179357142Y-80715295D01*
X179357142Y-80715295D02*
X179357142Y-80858152D01*
X179357142Y-80858152D02*
X179309523Y-80953390D01*
X179309523Y-80953390D02*
X179261904Y-81001009D01*
X179261904Y-81001009D02*
X179166666Y-81048628D01*
X179166666Y-81048628D02*
X178785714Y-81048628D01*
X179738095Y-80620057D02*
X179785714Y-80572438D01*
X179785714Y-80572438D02*
X179880952Y-80524819D01*
X179880952Y-80524819D02*
X180119047Y-80524819D01*
X180119047Y-80524819D02*
X180214285Y-80572438D01*
X180214285Y-80572438D02*
X180261904Y-80620057D01*
X180261904Y-80620057D02*
X180309523Y-80715295D01*
X180309523Y-80715295D02*
X180309523Y-80810533D01*
X180309523Y-80810533D02*
X180261904Y-80953390D01*
X180261904Y-80953390D02*
X179690476Y-81524819D01*
X179690476Y-81524819D02*
X180309523Y-81524819D01*
X181214285Y-80524819D02*
X180738095Y-80524819D01*
X180738095Y-80524819D02*
X180690476Y-81001009D01*
X180690476Y-81001009D02*
X180738095Y-80953390D01*
X180738095Y-80953390D02*
X180833333Y-80905771D01*
X180833333Y-80905771D02*
X181071428Y-80905771D01*
X181071428Y-80905771D02*
X181166666Y-80953390D01*
X181166666Y-80953390D02*
X181214285Y-81001009D01*
X181214285Y-81001009D02*
X181261904Y-81096247D01*
X181261904Y-81096247D02*
X181261904Y-81334342D01*
X181261904Y-81334342D02*
X181214285Y-81429580D01*
X181214285Y-81429580D02*
X181166666Y-81477200D01*
X181166666Y-81477200D02*
X181071428Y-81524819D01*
X181071428Y-81524819D02*
X180833333Y-81524819D01*
X180833333Y-81524819D02*
X180738095Y-81477200D01*
X180738095Y-81477200D02*
X180690476Y-81429580D01*
X177738095Y-116954819D02*
X177738095Y-117764342D01*
X177738095Y-117764342D02*
X177785714Y-117859580D01*
X177785714Y-117859580D02*
X177833333Y-117907200D01*
X177833333Y-117907200D02*
X177928571Y-117954819D01*
X177928571Y-117954819D02*
X178119047Y-117954819D01*
X178119047Y-117954819D02*
X178214285Y-117907200D01*
X178214285Y-117907200D02*
X178261904Y-117859580D01*
X178261904Y-117859580D02*
X178309523Y-117764342D01*
X178309523Y-117764342D02*
X178309523Y-116954819D01*
X178833333Y-117954819D02*
X179023809Y-117954819D01*
X179023809Y-117954819D02*
X179119047Y-117907200D01*
X179119047Y-117907200D02*
X179166666Y-117859580D01*
X179166666Y-117859580D02*
X179261904Y-117716723D01*
X179261904Y-117716723D02*
X179309523Y-117526247D01*
X179309523Y-117526247D02*
X179309523Y-117145295D01*
X179309523Y-117145295D02*
X179261904Y-117050057D01*
X179261904Y-117050057D02*
X179214285Y-117002438D01*
X179214285Y-117002438D02*
X179119047Y-116954819D01*
X179119047Y-116954819D02*
X178928571Y-116954819D01*
X178928571Y-116954819D02*
X178833333Y-117002438D01*
X178833333Y-117002438D02*
X178785714Y-117050057D01*
X178785714Y-117050057D02*
X178738095Y-117145295D01*
X178738095Y-117145295D02*
X178738095Y-117383390D01*
X178738095Y-117383390D02*
X178785714Y-117478628D01*
X178785714Y-117478628D02*
X178833333Y-117526247D01*
X178833333Y-117526247D02*
X178928571Y-117573866D01*
X178928571Y-117573866D02*
X179119047Y-117573866D01*
X179119047Y-117573866D02*
X179214285Y-117526247D01*
X179214285Y-117526247D02*
X179261904Y-117478628D01*
X179261904Y-117478628D02*
X179309523Y-117383390D01*
X173738095Y-96954819D02*
X173738095Y-97764342D01*
X173738095Y-97764342D02*
X173785714Y-97859580D01*
X173785714Y-97859580D02*
X173833333Y-97907200D01*
X173833333Y-97907200D02*
X173928571Y-97954819D01*
X173928571Y-97954819D02*
X174119047Y-97954819D01*
X174119047Y-97954819D02*
X174214285Y-97907200D01*
X174214285Y-97907200D02*
X174261904Y-97859580D01*
X174261904Y-97859580D02*
X174309523Y-97764342D01*
X174309523Y-97764342D02*
X174309523Y-96954819D01*
X175309523Y-97954819D02*
X174738095Y-97954819D01*
X175023809Y-97954819D02*
X175023809Y-96954819D01*
X175023809Y-96954819D02*
X174928571Y-97097676D01*
X174928571Y-97097676D02*
X174833333Y-97192914D01*
X174833333Y-97192914D02*
X174738095Y-97240533D01*
X179357142Y-111024819D02*
X179023809Y-110548628D01*
X178785714Y-111024819D02*
X178785714Y-110024819D01*
X178785714Y-110024819D02*
X179166666Y-110024819D01*
X179166666Y-110024819D02*
X179261904Y-110072438D01*
X179261904Y-110072438D02*
X179309523Y-110120057D01*
X179309523Y-110120057D02*
X179357142Y-110215295D01*
X179357142Y-110215295D02*
X179357142Y-110358152D01*
X179357142Y-110358152D02*
X179309523Y-110453390D01*
X179309523Y-110453390D02*
X179261904Y-110501009D01*
X179261904Y-110501009D02*
X179166666Y-110548628D01*
X179166666Y-110548628D02*
X178785714Y-110548628D01*
X179738095Y-110120057D02*
X179785714Y-110072438D01*
X179785714Y-110072438D02*
X179880952Y-110024819D01*
X179880952Y-110024819D02*
X180119047Y-110024819D01*
X180119047Y-110024819D02*
X180214285Y-110072438D01*
X180214285Y-110072438D02*
X180261904Y-110120057D01*
X180261904Y-110120057D02*
X180309523Y-110215295D01*
X180309523Y-110215295D02*
X180309523Y-110310533D01*
X180309523Y-110310533D02*
X180261904Y-110453390D01*
X180261904Y-110453390D02*
X179690476Y-111024819D01*
X179690476Y-111024819D02*
X180309523Y-111024819D01*
X181261904Y-111024819D02*
X180690476Y-111024819D01*
X180976190Y-111024819D02*
X180976190Y-110024819D01*
X180976190Y-110024819D02*
X180880952Y-110167676D01*
X180880952Y-110167676D02*
X180785714Y-110262914D01*
X180785714Y-110262914D02*
X180690476Y-110310533D01*
X181377142Y-92419580D02*
X181329523Y-92467200D01*
X181329523Y-92467200D02*
X181186666Y-92514819D01*
X181186666Y-92514819D02*
X181091428Y-92514819D01*
X181091428Y-92514819D02*
X180948571Y-92467200D01*
X180948571Y-92467200D02*
X180853333Y-92371961D01*
X180853333Y-92371961D02*
X180805714Y-92276723D01*
X180805714Y-92276723D02*
X180758095Y-92086247D01*
X180758095Y-92086247D02*
X180758095Y-91943390D01*
X180758095Y-91943390D02*
X180805714Y-91752914D01*
X180805714Y-91752914D02*
X180853333Y-91657676D01*
X180853333Y-91657676D02*
X180948571Y-91562438D01*
X180948571Y-91562438D02*
X181091428Y-91514819D01*
X181091428Y-91514819D02*
X181186666Y-91514819D01*
X181186666Y-91514819D02*
X181329523Y-91562438D01*
X181329523Y-91562438D02*
X181377142Y-91610057D01*
X181758095Y-91610057D02*
X181805714Y-91562438D01*
X181805714Y-91562438D02*
X181900952Y-91514819D01*
X181900952Y-91514819D02*
X182139047Y-91514819D01*
X182139047Y-91514819D02*
X182234285Y-91562438D01*
X182234285Y-91562438D02*
X182281904Y-91610057D01*
X182281904Y-91610057D02*
X182329523Y-91705295D01*
X182329523Y-91705295D02*
X182329523Y-91800533D01*
X182329523Y-91800533D02*
X182281904Y-91943390D01*
X182281904Y-91943390D02*
X181710476Y-92514819D01*
X181710476Y-92514819D02*
X182329523Y-92514819D01*
X182900952Y-91943390D02*
X182805714Y-91895771D01*
X182805714Y-91895771D02*
X182758095Y-91848152D01*
X182758095Y-91848152D02*
X182710476Y-91752914D01*
X182710476Y-91752914D02*
X182710476Y-91705295D01*
X182710476Y-91705295D02*
X182758095Y-91610057D01*
X182758095Y-91610057D02*
X182805714Y-91562438D01*
X182805714Y-91562438D02*
X182900952Y-91514819D01*
X182900952Y-91514819D02*
X183091428Y-91514819D01*
X183091428Y-91514819D02*
X183186666Y-91562438D01*
X183186666Y-91562438D02*
X183234285Y-91610057D01*
X183234285Y-91610057D02*
X183281904Y-91705295D01*
X183281904Y-91705295D02*
X183281904Y-91752914D01*
X183281904Y-91752914D02*
X183234285Y-91848152D01*
X183234285Y-91848152D02*
X183186666Y-91895771D01*
X183186666Y-91895771D02*
X183091428Y-91943390D01*
X183091428Y-91943390D02*
X182900952Y-91943390D01*
X182900952Y-91943390D02*
X182805714Y-91991009D01*
X182805714Y-91991009D02*
X182758095Y-92038628D01*
X182758095Y-92038628D02*
X182710476Y-92133866D01*
X182710476Y-92133866D02*
X182710476Y-92324342D01*
X182710476Y-92324342D02*
X182758095Y-92419580D01*
X182758095Y-92419580D02*
X182805714Y-92467200D01*
X182805714Y-92467200D02*
X182900952Y-92514819D01*
X182900952Y-92514819D02*
X183091428Y-92514819D01*
X183091428Y-92514819D02*
X183186666Y-92467200D01*
X183186666Y-92467200D02*
X183234285Y-92419580D01*
X183234285Y-92419580D02*
X183281904Y-92324342D01*
X183281904Y-92324342D02*
X183281904Y-92133866D01*
X183281904Y-92133866D02*
X183234285Y-92038628D01*
X183234285Y-92038628D02*
X183186666Y-91991009D01*
X183186666Y-91991009D02*
X183091428Y-91943390D01*
X152204819Y-110761904D02*
X153014342Y-110761904D01*
X153014342Y-110761904D02*
X153109580Y-110714285D01*
X153109580Y-110714285D02*
X153157200Y-110666666D01*
X153157200Y-110666666D02*
X153204819Y-110571428D01*
X153204819Y-110571428D02*
X153204819Y-110380952D01*
X153204819Y-110380952D02*
X153157200Y-110285714D01*
X153157200Y-110285714D02*
X153109580Y-110238095D01*
X153109580Y-110238095D02*
X153014342Y-110190476D01*
X153014342Y-110190476D02*
X152204819Y-110190476D01*
X152538152Y-109285714D02*
X153204819Y-109285714D01*
X152157200Y-109523809D02*
X152871485Y-109761904D01*
X152871485Y-109761904D02*
X152871485Y-109142857D01*
X181377142Y-88084819D02*
X181043809Y-87608628D01*
X180805714Y-88084819D02*
X180805714Y-87084819D01*
X180805714Y-87084819D02*
X181186666Y-87084819D01*
X181186666Y-87084819D02*
X181281904Y-87132438D01*
X181281904Y-87132438D02*
X181329523Y-87180057D01*
X181329523Y-87180057D02*
X181377142Y-87275295D01*
X181377142Y-87275295D02*
X181377142Y-87418152D01*
X181377142Y-87418152D02*
X181329523Y-87513390D01*
X181329523Y-87513390D02*
X181281904Y-87561009D01*
X181281904Y-87561009D02*
X181186666Y-87608628D01*
X181186666Y-87608628D02*
X180805714Y-87608628D01*
X181758095Y-87180057D02*
X181805714Y-87132438D01*
X181805714Y-87132438D02*
X181900952Y-87084819D01*
X181900952Y-87084819D02*
X182139047Y-87084819D01*
X182139047Y-87084819D02*
X182234285Y-87132438D01*
X182234285Y-87132438D02*
X182281904Y-87180057D01*
X182281904Y-87180057D02*
X182329523Y-87275295D01*
X182329523Y-87275295D02*
X182329523Y-87370533D01*
X182329523Y-87370533D02*
X182281904Y-87513390D01*
X182281904Y-87513390D02*
X181710476Y-88084819D01*
X181710476Y-88084819D02*
X182329523Y-88084819D01*
X182662857Y-87084819D02*
X183329523Y-87084819D01*
X183329523Y-87084819D02*
X182900952Y-88084819D01*
X121357142Y-88024819D02*
X121023809Y-87548628D01*
X120785714Y-88024819D02*
X120785714Y-87024819D01*
X120785714Y-87024819D02*
X121166666Y-87024819D01*
X121166666Y-87024819D02*
X121261904Y-87072438D01*
X121261904Y-87072438D02*
X121309523Y-87120057D01*
X121309523Y-87120057D02*
X121357142Y-87215295D01*
X121357142Y-87215295D02*
X121357142Y-87358152D01*
X121357142Y-87358152D02*
X121309523Y-87453390D01*
X121309523Y-87453390D02*
X121261904Y-87501009D01*
X121261904Y-87501009D02*
X121166666Y-87548628D01*
X121166666Y-87548628D02*
X120785714Y-87548628D01*
X122309523Y-88024819D02*
X121738095Y-88024819D01*
X122023809Y-88024819D02*
X122023809Y-87024819D01*
X122023809Y-87024819D02*
X121928571Y-87167676D01*
X121928571Y-87167676D02*
X121833333Y-87262914D01*
X121833333Y-87262914D02*
X121738095Y-87310533D01*
X123214285Y-87024819D02*
X122738095Y-87024819D01*
X122738095Y-87024819D02*
X122690476Y-87501009D01*
X122690476Y-87501009D02*
X122738095Y-87453390D01*
X122738095Y-87453390D02*
X122833333Y-87405771D01*
X122833333Y-87405771D02*
X123071428Y-87405771D01*
X123071428Y-87405771D02*
X123166666Y-87453390D01*
X123166666Y-87453390D02*
X123214285Y-87501009D01*
X123214285Y-87501009D02*
X123261904Y-87596247D01*
X123261904Y-87596247D02*
X123261904Y-87834342D01*
X123261904Y-87834342D02*
X123214285Y-87929580D01*
X123214285Y-87929580D02*
X123166666Y-87977200D01*
X123166666Y-87977200D02*
X123071428Y-88024819D01*
X123071428Y-88024819D02*
X122833333Y-88024819D01*
X122833333Y-88024819D02*
X122738095Y-87977200D01*
X122738095Y-87977200D02*
X122690476Y-87929580D01*
X178377142Y-91014819D02*
X178043809Y-90538628D01*
X177805714Y-91014819D02*
X177805714Y-90014819D01*
X177805714Y-90014819D02*
X178186666Y-90014819D01*
X178186666Y-90014819D02*
X178281904Y-90062438D01*
X178281904Y-90062438D02*
X178329523Y-90110057D01*
X178329523Y-90110057D02*
X178377142Y-90205295D01*
X178377142Y-90205295D02*
X178377142Y-90348152D01*
X178377142Y-90348152D02*
X178329523Y-90443390D01*
X178329523Y-90443390D02*
X178281904Y-90491009D01*
X178281904Y-90491009D02*
X178186666Y-90538628D01*
X178186666Y-90538628D02*
X177805714Y-90538628D01*
X178758095Y-90110057D02*
X178805714Y-90062438D01*
X178805714Y-90062438D02*
X178900952Y-90014819D01*
X178900952Y-90014819D02*
X179139047Y-90014819D01*
X179139047Y-90014819D02*
X179234285Y-90062438D01*
X179234285Y-90062438D02*
X179281904Y-90110057D01*
X179281904Y-90110057D02*
X179329523Y-90205295D01*
X179329523Y-90205295D02*
X179329523Y-90300533D01*
X179329523Y-90300533D02*
X179281904Y-90443390D01*
X179281904Y-90443390D02*
X178710476Y-91014819D01*
X178710476Y-91014819D02*
X179329523Y-91014819D01*
X180186666Y-90014819D02*
X179996190Y-90014819D01*
X179996190Y-90014819D02*
X179900952Y-90062438D01*
X179900952Y-90062438D02*
X179853333Y-90110057D01*
X179853333Y-90110057D02*
X179758095Y-90252914D01*
X179758095Y-90252914D02*
X179710476Y-90443390D01*
X179710476Y-90443390D02*
X179710476Y-90824342D01*
X179710476Y-90824342D02*
X179758095Y-90919580D01*
X179758095Y-90919580D02*
X179805714Y-90967200D01*
X179805714Y-90967200D02*
X179900952Y-91014819D01*
X179900952Y-91014819D02*
X180091428Y-91014819D01*
X180091428Y-91014819D02*
X180186666Y-90967200D01*
X180186666Y-90967200D02*
X180234285Y-90919580D01*
X180234285Y-90919580D02*
X180281904Y-90824342D01*
X180281904Y-90824342D02*
X180281904Y-90586247D01*
X180281904Y-90586247D02*
X180234285Y-90491009D01*
X180234285Y-90491009D02*
X180186666Y-90443390D01*
X180186666Y-90443390D02*
X180091428Y-90395771D01*
X180091428Y-90395771D02*
X179900952Y-90395771D01*
X179900952Y-90395771D02*
X179805714Y-90443390D01*
X179805714Y-90443390D02*
X179758095Y-90491009D01*
X179758095Y-90491009D02*
X179710476Y-90586247D01*
X140988095Y-102454819D02*
X140988095Y-103264342D01*
X140988095Y-103264342D02*
X141035714Y-103359580D01*
X141035714Y-103359580D02*
X141083333Y-103407200D01*
X141083333Y-103407200D02*
X141178571Y-103454819D01*
X141178571Y-103454819D02*
X141369047Y-103454819D01*
X141369047Y-103454819D02*
X141464285Y-103407200D01*
X141464285Y-103407200D02*
X141511904Y-103359580D01*
X141511904Y-103359580D02*
X141559523Y-103264342D01*
X141559523Y-103264342D02*
X141559523Y-102454819D01*
X141988095Y-102550057D02*
X142035714Y-102502438D01*
X142035714Y-102502438D02*
X142130952Y-102454819D01*
X142130952Y-102454819D02*
X142369047Y-102454819D01*
X142369047Y-102454819D02*
X142464285Y-102502438D01*
X142464285Y-102502438D02*
X142511904Y-102550057D01*
X142511904Y-102550057D02*
X142559523Y-102645295D01*
X142559523Y-102645295D02*
X142559523Y-102740533D01*
X142559523Y-102740533D02*
X142511904Y-102883390D01*
X142511904Y-102883390D02*
X141940476Y-103454819D01*
X141940476Y-103454819D02*
X142559523Y-103454819D01*
X128576510Y-123704819D02*
X128576510Y-122704819D01*
X128576510Y-122704819D02*
X128814605Y-122704819D01*
X128814605Y-122704819D02*
X128957462Y-122752438D01*
X128957462Y-122752438D02*
X129052700Y-122847676D01*
X129052700Y-122847676D02*
X129100319Y-122942914D01*
X129100319Y-122942914D02*
X129147938Y-123133390D01*
X129147938Y-123133390D02*
X129147938Y-123276247D01*
X129147938Y-123276247D02*
X129100319Y-123466723D01*
X129100319Y-123466723D02*
X129052700Y-123561961D01*
X129052700Y-123561961D02*
X128957462Y-123657200D01*
X128957462Y-123657200D02*
X128814605Y-123704819D01*
X128814605Y-123704819D02*
X128576510Y-123704819D01*
X129481272Y-122704819D02*
X130100319Y-122704819D01*
X130100319Y-122704819D02*
X129766986Y-123085771D01*
X129766986Y-123085771D02*
X129909843Y-123085771D01*
X129909843Y-123085771D02*
X130005081Y-123133390D01*
X130005081Y-123133390D02*
X130052700Y-123181009D01*
X130052700Y-123181009D02*
X130100319Y-123276247D01*
X130100319Y-123276247D02*
X130100319Y-123514342D01*
X130100319Y-123514342D02*
X130052700Y-123609580D01*
X130052700Y-123609580D02*
X130005081Y-123657200D01*
X130005081Y-123657200D02*
X129909843Y-123704819D01*
X129909843Y-123704819D02*
X129624129Y-123704819D01*
X129624129Y-123704819D02*
X129528891Y-123657200D01*
X129528891Y-123657200D02*
X129481272Y-123609580D01*
X171583333Y-96454819D02*
X171250000Y-95978628D01*
X171011905Y-96454819D02*
X171011905Y-95454819D01*
X171011905Y-95454819D02*
X171392857Y-95454819D01*
X171392857Y-95454819D02*
X171488095Y-95502438D01*
X171488095Y-95502438D02*
X171535714Y-95550057D01*
X171535714Y-95550057D02*
X171583333Y-95645295D01*
X171583333Y-95645295D02*
X171583333Y-95788152D01*
X171583333Y-95788152D02*
X171535714Y-95883390D01*
X171535714Y-95883390D02*
X171488095Y-95931009D01*
X171488095Y-95931009D02*
X171392857Y-95978628D01*
X171392857Y-95978628D02*
X171011905Y-95978628D01*
X172440476Y-95788152D02*
X172440476Y-96454819D01*
X172202381Y-95407200D02*
X171964286Y-96121485D01*
X171964286Y-96121485D02*
X172583333Y-96121485D01*
X140083333Y-115609580D02*
X140035714Y-115657200D01*
X140035714Y-115657200D02*
X139892857Y-115704819D01*
X139892857Y-115704819D02*
X139797619Y-115704819D01*
X139797619Y-115704819D02*
X139654762Y-115657200D01*
X139654762Y-115657200D02*
X139559524Y-115561961D01*
X139559524Y-115561961D02*
X139511905Y-115466723D01*
X139511905Y-115466723D02*
X139464286Y-115276247D01*
X139464286Y-115276247D02*
X139464286Y-115133390D01*
X139464286Y-115133390D02*
X139511905Y-114942914D01*
X139511905Y-114942914D02*
X139559524Y-114847676D01*
X139559524Y-114847676D02*
X139654762Y-114752438D01*
X139654762Y-114752438D02*
X139797619Y-114704819D01*
X139797619Y-114704819D02*
X139892857Y-114704819D01*
X139892857Y-114704819D02*
X140035714Y-114752438D01*
X140035714Y-114752438D02*
X140083333Y-114800057D01*
X140940476Y-114704819D02*
X140750000Y-114704819D01*
X140750000Y-114704819D02*
X140654762Y-114752438D01*
X140654762Y-114752438D02*
X140607143Y-114800057D01*
X140607143Y-114800057D02*
X140511905Y-114942914D01*
X140511905Y-114942914D02*
X140464286Y-115133390D01*
X140464286Y-115133390D02*
X140464286Y-115514342D01*
X140464286Y-115514342D02*
X140511905Y-115609580D01*
X140511905Y-115609580D02*
X140559524Y-115657200D01*
X140559524Y-115657200D02*
X140654762Y-115704819D01*
X140654762Y-115704819D02*
X140845238Y-115704819D01*
X140845238Y-115704819D02*
X140940476Y-115657200D01*
X140940476Y-115657200D02*
X140988095Y-115609580D01*
X140988095Y-115609580D02*
X141035714Y-115514342D01*
X141035714Y-115514342D02*
X141035714Y-115276247D01*
X141035714Y-115276247D02*
X140988095Y-115181009D01*
X140988095Y-115181009D02*
X140940476Y-115133390D01*
X140940476Y-115133390D02*
X140845238Y-115085771D01*
X140845238Y-115085771D02*
X140654762Y-115085771D01*
X140654762Y-115085771D02*
X140559524Y-115133390D01*
X140559524Y-115133390D02*
X140511905Y-115181009D01*
X140511905Y-115181009D02*
X140464286Y-115276247D01*
X124738095Y-97004819D02*
X124738095Y-97814342D01*
X124738095Y-97814342D02*
X124785714Y-97909580D01*
X124785714Y-97909580D02*
X124833333Y-97957200D01*
X124833333Y-97957200D02*
X124928571Y-98004819D01*
X124928571Y-98004819D02*
X125119047Y-98004819D01*
X125119047Y-98004819D02*
X125214285Y-97957200D01*
X125214285Y-97957200D02*
X125261904Y-97909580D01*
X125261904Y-97909580D02*
X125309523Y-97814342D01*
X125309523Y-97814342D02*
X125309523Y-97004819D01*
X125690476Y-97004819D02*
X126357142Y-97004819D01*
X126357142Y-97004819D02*
X125928571Y-98004819D01*
X119357142Y-81524819D02*
X119023809Y-81048628D01*
X118785714Y-81524819D02*
X118785714Y-80524819D01*
X118785714Y-80524819D02*
X119166666Y-80524819D01*
X119166666Y-80524819D02*
X119261904Y-80572438D01*
X119261904Y-80572438D02*
X119309523Y-80620057D01*
X119309523Y-80620057D02*
X119357142Y-80715295D01*
X119357142Y-80715295D02*
X119357142Y-80858152D01*
X119357142Y-80858152D02*
X119309523Y-80953390D01*
X119309523Y-80953390D02*
X119261904Y-81001009D01*
X119261904Y-81001009D02*
X119166666Y-81048628D01*
X119166666Y-81048628D02*
X118785714Y-81048628D01*
X120309523Y-81524819D02*
X119738095Y-81524819D01*
X120023809Y-81524819D02*
X120023809Y-80524819D01*
X120023809Y-80524819D02*
X119928571Y-80667676D01*
X119928571Y-80667676D02*
X119833333Y-80762914D01*
X119833333Y-80762914D02*
X119738095Y-80810533D01*
X120642857Y-80524819D02*
X121261904Y-80524819D01*
X121261904Y-80524819D02*
X120928571Y-80905771D01*
X120928571Y-80905771D02*
X121071428Y-80905771D01*
X121071428Y-80905771D02*
X121166666Y-80953390D01*
X121166666Y-80953390D02*
X121214285Y-81001009D01*
X121214285Y-81001009D02*
X121261904Y-81096247D01*
X121261904Y-81096247D02*
X121261904Y-81334342D01*
X121261904Y-81334342D02*
X121214285Y-81429580D01*
X121214285Y-81429580D02*
X121166666Y-81477200D01*
X121166666Y-81477200D02*
X121071428Y-81524819D01*
X121071428Y-81524819D02*
X120785714Y-81524819D01*
X120785714Y-81524819D02*
X120690476Y-81477200D01*
X120690476Y-81477200D02*
X120642857Y-81429580D01*
X140083333Y-114109580D02*
X140035714Y-114157200D01*
X140035714Y-114157200D02*
X139892857Y-114204819D01*
X139892857Y-114204819D02*
X139797619Y-114204819D01*
X139797619Y-114204819D02*
X139654762Y-114157200D01*
X139654762Y-114157200D02*
X139559524Y-114061961D01*
X139559524Y-114061961D02*
X139511905Y-113966723D01*
X139511905Y-113966723D02*
X139464286Y-113776247D01*
X139464286Y-113776247D02*
X139464286Y-113633390D01*
X139464286Y-113633390D02*
X139511905Y-113442914D01*
X139511905Y-113442914D02*
X139559524Y-113347676D01*
X139559524Y-113347676D02*
X139654762Y-113252438D01*
X139654762Y-113252438D02*
X139797619Y-113204819D01*
X139797619Y-113204819D02*
X139892857Y-113204819D01*
X139892857Y-113204819D02*
X140035714Y-113252438D01*
X140035714Y-113252438D02*
X140083333Y-113300057D01*
X140464286Y-113300057D02*
X140511905Y-113252438D01*
X140511905Y-113252438D02*
X140607143Y-113204819D01*
X140607143Y-113204819D02*
X140845238Y-113204819D01*
X140845238Y-113204819D02*
X140940476Y-113252438D01*
X140940476Y-113252438D02*
X140988095Y-113300057D01*
X140988095Y-113300057D02*
X141035714Y-113395295D01*
X141035714Y-113395295D02*
X141035714Y-113490533D01*
X141035714Y-113490533D02*
X140988095Y-113633390D01*
X140988095Y-113633390D02*
X140416667Y-114204819D01*
X140416667Y-114204819D02*
X141035714Y-114204819D01*
X113357142Y-104359580D02*
X113309523Y-104407200D01*
X113309523Y-104407200D02*
X113166666Y-104454819D01*
X113166666Y-104454819D02*
X113071428Y-104454819D01*
X113071428Y-104454819D02*
X112928571Y-104407200D01*
X112928571Y-104407200D02*
X112833333Y-104311961D01*
X112833333Y-104311961D02*
X112785714Y-104216723D01*
X112785714Y-104216723D02*
X112738095Y-104026247D01*
X112738095Y-104026247D02*
X112738095Y-103883390D01*
X112738095Y-103883390D02*
X112785714Y-103692914D01*
X112785714Y-103692914D02*
X112833333Y-103597676D01*
X112833333Y-103597676D02*
X112928571Y-103502438D01*
X112928571Y-103502438D02*
X113071428Y-103454819D01*
X113071428Y-103454819D02*
X113166666Y-103454819D01*
X113166666Y-103454819D02*
X113309523Y-103502438D01*
X113309523Y-103502438D02*
X113357142Y-103550057D01*
X113690476Y-103454819D02*
X114309523Y-103454819D01*
X114309523Y-103454819D02*
X113976190Y-103835771D01*
X113976190Y-103835771D02*
X114119047Y-103835771D01*
X114119047Y-103835771D02*
X114214285Y-103883390D01*
X114214285Y-103883390D02*
X114261904Y-103931009D01*
X114261904Y-103931009D02*
X114309523Y-104026247D01*
X114309523Y-104026247D02*
X114309523Y-104264342D01*
X114309523Y-104264342D02*
X114261904Y-104359580D01*
X114261904Y-104359580D02*
X114214285Y-104407200D01*
X114214285Y-104407200D02*
X114119047Y-104454819D01*
X114119047Y-104454819D02*
X113833333Y-104454819D01*
X113833333Y-104454819D02*
X113738095Y-104407200D01*
X113738095Y-104407200D02*
X113690476Y-104359580D01*
X114642857Y-103454819D02*
X115261904Y-103454819D01*
X115261904Y-103454819D02*
X114928571Y-103835771D01*
X114928571Y-103835771D02*
X115071428Y-103835771D01*
X115071428Y-103835771D02*
X115166666Y-103883390D01*
X115166666Y-103883390D02*
X115214285Y-103931009D01*
X115214285Y-103931009D02*
X115261904Y-104026247D01*
X115261904Y-104026247D02*
X115261904Y-104264342D01*
X115261904Y-104264342D02*
X115214285Y-104359580D01*
X115214285Y-104359580D02*
X115166666Y-104407200D01*
X115166666Y-104407200D02*
X115071428Y-104454819D01*
X115071428Y-104454819D02*
X114785714Y-104454819D01*
X114785714Y-104454819D02*
X114690476Y-104407200D01*
X114690476Y-104407200D02*
X114642857Y-104359580D01*
X177781905Y-87014819D02*
X177781905Y-87824342D01*
X177781905Y-87824342D02*
X177829524Y-87919580D01*
X177829524Y-87919580D02*
X177877143Y-87967200D01*
X177877143Y-87967200D02*
X177972381Y-88014819D01*
X177972381Y-88014819D02*
X178162857Y-88014819D01*
X178162857Y-88014819D02*
X178258095Y-87967200D01*
X178258095Y-87967200D02*
X178305714Y-87919580D01*
X178305714Y-87919580D02*
X178353333Y-87824342D01*
X178353333Y-87824342D02*
X178353333Y-87014819D01*
X179353333Y-88014819D02*
X178781905Y-88014819D01*
X179067619Y-88014819D02*
X179067619Y-87014819D01*
X179067619Y-87014819D02*
X178972381Y-87157676D01*
X178972381Y-87157676D02*
X178877143Y-87252914D01*
X178877143Y-87252914D02*
X178781905Y-87300533D01*
X179972381Y-87014819D02*
X180067619Y-87014819D01*
X180067619Y-87014819D02*
X180162857Y-87062438D01*
X180162857Y-87062438D02*
X180210476Y-87110057D01*
X180210476Y-87110057D02*
X180258095Y-87205295D01*
X180258095Y-87205295D02*
X180305714Y-87395771D01*
X180305714Y-87395771D02*
X180305714Y-87633866D01*
X180305714Y-87633866D02*
X180258095Y-87824342D01*
X180258095Y-87824342D02*
X180210476Y-87919580D01*
X180210476Y-87919580D02*
X180162857Y-87967200D01*
X180162857Y-87967200D02*
X180067619Y-88014819D01*
X180067619Y-88014819D02*
X179972381Y-88014819D01*
X179972381Y-88014819D02*
X179877143Y-87967200D01*
X179877143Y-87967200D02*
X179829524Y-87919580D01*
X179829524Y-87919580D02*
X179781905Y-87824342D01*
X179781905Y-87824342D02*
X179734286Y-87633866D01*
X179734286Y-87633866D02*
X179734286Y-87395771D01*
X179734286Y-87395771D02*
X179781905Y-87205295D01*
X179781905Y-87205295D02*
X179829524Y-87110057D01*
X179829524Y-87110057D02*
X179877143Y-87062438D01*
X179877143Y-87062438D02*
X179972381Y-87014819D01*
X136001905Y-123724819D02*
X136001905Y-122724819D01*
X136001905Y-122724819D02*
X136240000Y-122724819D01*
X136240000Y-122724819D02*
X136382857Y-122772438D01*
X136382857Y-122772438D02*
X136478095Y-122867676D01*
X136478095Y-122867676D02*
X136525714Y-122962914D01*
X136525714Y-122962914D02*
X136573333Y-123153390D01*
X136573333Y-123153390D02*
X136573333Y-123296247D01*
X136573333Y-123296247D02*
X136525714Y-123486723D01*
X136525714Y-123486723D02*
X136478095Y-123581961D01*
X136478095Y-123581961D02*
X136382857Y-123677200D01*
X136382857Y-123677200D02*
X136240000Y-123724819D01*
X136240000Y-123724819D02*
X136001905Y-123724819D01*
X136954286Y-122820057D02*
X137001905Y-122772438D01*
X137001905Y-122772438D02*
X137097143Y-122724819D01*
X137097143Y-122724819D02*
X137335238Y-122724819D01*
X137335238Y-122724819D02*
X137430476Y-122772438D01*
X137430476Y-122772438D02*
X137478095Y-122820057D01*
X137478095Y-122820057D02*
X137525714Y-122915295D01*
X137525714Y-122915295D02*
X137525714Y-123010533D01*
X137525714Y-123010533D02*
X137478095Y-123153390D01*
X137478095Y-123153390D02*
X136906667Y-123724819D01*
X136906667Y-123724819D02*
X137525714Y-123724819D01*
X140083333Y-106609580D02*
X140035714Y-106657200D01*
X140035714Y-106657200D02*
X139892857Y-106704819D01*
X139892857Y-106704819D02*
X139797619Y-106704819D01*
X139797619Y-106704819D02*
X139654762Y-106657200D01*
X139654762Y-106657200D02*
X139559524Y-106561961D01*
X139559524Y-106561961D02*
X139511905Y-106466723D01*
X139511905Y-106466723D02*
X139464286Y-106276247D01*
X139464286Y-106276247D02*
X139464286Y-106133390D01*
X139464286Y-106133390D02*
X139511905Y-105942914D01*
X139511905Y-105942914D02*
X139559524Y-105847676D01*
X139559524Y-105847676D02*
X139654762Y-105752438D01*
X139654762Y-105752438D02*
X139797619Y-105704819D01*
X139797619Y-105704819D02*
X139892857Y-105704819D01*
X139892857Y-105704819D02*
X140035714Y-105752438D01*
X140035714Y-105752438D02*
X140083333Y-105800057D01*
X141035714Y-106704819D02*
X140464286Y-106704819D01*
X140750000Y-106704819D02*
X140750000Y-105704819D01*
X140750000Y-105704819D02*
X140654762Y-105847676D01*
X140654762Y-105847676D02*
X140559524Y-105942914D01*
X140559524Y-105942914D02*
X140464286Y-105990533D01*
X126289580Y-90142857D02*
X126337200Y-90190476D01*
X126337200Y-90190476D02*
X126384819Y-90333333D01*
X126384819Y-90333333D02*
X126384819Y-90428571D01*
X126384819Y-90428571D02*
X126337200Y-90571428D01*
X126337200Y-90571428D02*
X126241961Y-90666666D01*
X126241961Y-90666666D02*
X126146723Y-90714285D01*
X126146723Y-90714285D02*
X125956247Y-90761904D01*
X125956247Y-90761904D02*
X125813390Y-90761904D01*
X125813390Y-90761904D02*
X125622914Y-90714285D01*
X125622914Y-90714285D02*
X125527676Y-90666666D01*
X125527676Y-90666666D02*
X125432438Y-90571428D01*
X125432438Y-90571428D02*
X125384819Y-90428571D01*
X125384819Y-90428571D02*
X125384819Y-90333333D01*
X125384819Y-90333333D02*
X125432438Y-90190476D01*
X125432438Y-90190476D02*
X125480057Y-90142857D01*
X126384819Y-89190476D02*
X126384819Y-89761904D01*
X126384819Y-89476190D02*
X125384819Y-89476190D01*
X125384819Y-89476190D02*
X125527676Y-89571428D01*
X125527676Y-89571428D02*
X125622914Y-89666666D01*
X125622914Y-89666666D02*
X125670533Y-89761904D01*
X125384819Y-88857142D02*
X125384819Y-88190476D01*
X125384819Y-88190476D02*
X126384819Y-88619047D01*
X187357142Y-112859580D02*
X187309523Y-112907200D01*
X187309523Y-112907200D02*
X187166666Y-112954819D01*
X187166666Y-112954819D02*
X187071428Y-112954819D01*
X187071428Y-112954819D02*
X186928571Y-112907200D01*
X186928571Y-112907200D02*
X186833333Y-112811961D01*
X186833333Y-112811961D02*
X186785714Y-112716723D01*
X186785714Y-112716723D02*
X186738095Y-112526247D01*
X186738095Y-112526247D02*
X186738095Y-112383390D01*
X186738095Y-112383390D02*
X186785714Y-112192914D01*
X186785714Y-112192914D02*
X186833333Y-112097676D01*
X186833333Y-112097676D02*
X186928571Y-112002438D01*
X186928571Y-112002438D02*
X187071428Y-111954819D01*
X187071428Y-111954819D02*
X187166666Y-111954819D01*
X187166666Y-111954819D02*
X187309523Y-112002438D01*
X187309523Y-112002438D02*
X187357142Y-112050057D01*
X187738095Y-112050057D02*
X187785714Y-112002438D01*
X187785714Y-112002438D02*
X187880952Y-111954819D01*
X187880952Y-111954819D02*
X188119047Y-111954819D01*
X188119047Y-111954819D02*
X188214285Y-112002438D01*
X188214285Y-112002438D02*
X188261904Y-112050057D01*
X188261904Y-112050057D02*
X188309523Y-112145295D01*
X188309523Y-112145295D02*
X188309523Y-112240533D01*
X188309523Y-112240533D02*
X188261904Y-112383390D01*
X188261904Y-112383390D02*
X187690476Y-112954819D01*
X187690476Y-112954819D02*
X188309523Y-112954819D01*
X188690476Y-112050057D02*
X188738095Y-112002438D01*
X188738095Y-112002438D02*
X188833333Y-111954819D01*
X188833333Y-111954819D02*
X189071428Y-111954819D01*
X189071428Y-111954819D02*
X189166666Y-112002438D01*
X189166666Y-112002438D02*
X189214285Y-112050057D01*
X189214285Y-112050057D02*
X189261904Y-112145295D01*
X189261904Y-112145295D02*
X189261904Y-112240533D01*
X189261904Y-112240533D02*
X189214285Y-112383390D01*
X189214285Y-112383390D02*
X188642857Y-112954819D01*
X188642857Y-112954819D02*
X189261904Y-112954819D01*
X162851666Y-87889819D02*
X162851666Y-88604104D01*
X162851666Y-88604104D02*
X162804047Y-88746961D01*
X162804047Y-88746961D02*
X162708809Y-88842200D01*
X162708809Y-88842200D02*
X162565952Y-88889819D01*
X162565952Y-88889819D02*
X162470714Y-88889819D01*
X163232619Y-87889819D02*
X163899285Y-87889819D01*
X163899285Y-87889819D02*
X163470714Y-88889819D01*
X187377142Y-84419580D02*
X187329523Y-84467200D01*
X187329523Y-84467200D02*
X187186666Y-84514819D01*
X187186666Y-84514819D02*
X187091428Y-84514819D01*
X187091428Y-84514819D02*
X186948571Y-84467200D01*
X186948571Y-84467200D02*
X186853333Y-84371961D01*
X186853333Y-84371961D02*
X186805714Y-84276723D01*
X186805714Y-84276723D02*
X186758095Y-84086247D01*
X186758095Y-84086247D02*
X186758095Y-83943390D01*
X186758095Y-83943390D02*
X186805714Y-83752914D01*
X186805714Y-83752914D02*
X186853333Y-83657676D01*
X186853333Y-83657676D02*
X186948571Y-83562438D01*
X186948571Y-83562438D02*
X187091428Y-83514819D01*
X187091428Y-83514819D02*
X187186666Y-83514819D01*
X187186666Y-83514819D02*
X187329523Y-83562438D01*
X187329523Y-83562438D02*
X187377142Y-83610057D01*
X187758095Y-83610057D02*
X187805714Y-83562438D01*
X187805714Y-83562438D02*
X187900952Y-83514819D01*
X187900952Y-83514819D02*
X188139047Y-83514819D01*
X188139047Y-83514819D02*
X188234285Y-83562438D01*
X188234285Y-83562438D02*
X188281904Y-83610057D01*
X188281904Y-83610057D02*
X188329523Y-83705295D01*
X188329523Y-83705295D02*
X188329523Y-83800533D01*
X188329523Y-83800533D02*
X188281904Y-83943390D01*
X188281904Y-83943390D02*
X187710476Y-84514819D01*
X187710476Y-84514819D02*
X188329523Y-84514819D01*
X188662857Y-83514819D02*
X189329523Y-83514819D01*
X189329523Y-83514819D02*
X188900952Y-84514819D01*
X127787142Y-112889580D02*
X127739523Y-112937200D01*
X127739523Y-112937200D02*
X127596666Y-112984819D01*
X127596666Y-112984819D02*
X127501428Y-112984819D01*
X127501428Y-112984819D02*
X127358571Y-112937200D01*
X127358571Y-112937200D02*
X127263333Y-112841961D01*
X127263333Y-112841961D02*
X127215714Y-112746723D01*
X127215714Y-112746723D02*
X127168095Y-112556247D01*
X127168095Y-112556247D02*
X127168095Y-112413390D01*
X127168095Y-112413390D02*
X127215714Y-112222914D01*
X127215714Y-112222914D02*
X127263333Y-112127676D01*
X127263333Y-112127676D02*
X127358571Y-112032438D01*
X127358571Y-112032438D02*
X127501428Y-111984819D01*
X127501428Y-111984819D02*
X127596666Y-111984819D01*
X127596666Y-111984819D02*
X127739523Y-112032438D01*
X127739523Y-112032438D02*
X127787142Y-112080057D01*
X128739523Y-112984819D02*
X128168095Y-112984819D01*
X128453809Y-112984819D02*
X128453809Y-111984819D01*
X128453809Y-111984819D02*
X128358571Y-112127676D01*
X128358571Y-112127676D02*
X128263333Y-112222914D01*
X128263333Y-112222914D02*
X128168095Y-112270533D01*
X129310952Y-112413390D02*
X129215714Y-112365771D01*
X129215714Y-112365771D02*
X129168095Y-112318152D01*
X129168095Y-112318152D02*
X129120476Y-112222914D01*
X129120476Y-112222914D02*
X129120476Y-112175295D01*
X129120476Y-112175295D02*
X129168095Y-112080057D01*
X129168095Y-112080057D02*
X129215714Y-112032438D01*
X129215714Y-112032438D02*
X129310952Y-111984819D01*
X129310952Y-111984819D02*
X129501428Y-111984819D01*
X129501428Y-111984819D02*
X129596666Y-112032438D01*
X129596666Y-112032438D02*
X129644285Y-112080057D01*
X129644285Y-112080057D02*
X129691904Y-112175295D01*
X129691904Y-112175295D02*
X129691904Y-112222914D01*
X129691904Y-112222914D02*
X129644285Y-112318152D01*
X129644285Y-112318152D02*
X129596666Y-112365771D01*
X129596666Y-112365771D02*
X129501428Y-112413390D01*
X129501428Y-112413390D02*
X129310952Y-112413390D01*
X129310952Y-112413390D02*
X129215714Y-112461009D01*
X129215714Y-112461009D02*
X129168095Y-112508628D01*
X129168095Y-112508628D02*
X129120476Y-112603866D01*
X129120476Y-112603866D02*
X129120476Y-112794342D01*
X129120476Y-112794342D02*
X129168095Y-112889580D01*
X129168095Y-112889580D02*
X129215714Y-112937200D01*
X129215714Y-112937200D02*
X129310952Y-112984819D01*
X129310952Y-112984819D02*
X129501428Y-112984819D01*
X129501428Y-112984819D02*
X129596666Y-112937200D01*
X129596666Y-112937200D02*
X129644285Y-112889580D01*
X129644285Y-112889580D02*
X129691904Y-112794342D01*
X129691904Y-112794342D02*
X129691904Y-112603866D01*
X129691904Y-112603866D02*
X129644285Y-112508628D01*
X129644285Y-112508628D02*
X129596666Y-112461009D01*
X129596666Y-112461009D02*
X129501428Y-112413390D01*
X190369580Y-97642857D02*
X190417200Y-97690476D01*
X190417200Y-97690476D02*
X190464819Y-97833333D01*
X190464819Y-97833333D02*
X190464819Y-97928571D01*
X190464819Y-97928571D02*
X190417200Y-98071428D01*
X190417200Y-98071428D02*
X190321961Y-98166666D01*
X190321961Y-98166666D02*
X190226723Y-98214285D01*
X190226723Y-98214285D02*
X190036247Y-98261904D01*
X190036247Y-98261904D02*
X189893390Y-98261904D01*
X189893390Y-98261904D02*
X189702914Y-98214285D01*
X189702914Y-98214285D02*
X189607676Y-98166666D01*
X189607676Y-98166666D02*
X189512438Y-98071428D01*
X189512438Y-98071428D02*
X189464819Y-97928571D01*
X189464819Y-97928571D02*
X189464819Y-97833333D01*
X189464819Y-97833333D02*
X189512438Y-97690476D01*
X189512438Y-97690476D02*
X189560057Y-97642857D01*
X189464819Y-97309523D02*
X189464819Y-96690476D01*
X189464819Y-96690476D02*
X189845771Y-97023809D01*
X189845771Y-97023809D02*
X189845771Y-96880952D01*
X189845771Y-96880952D02*
X189893390Y-96785714D01*
X189893390Y-96785714D02*
X189941009Y-96738095D01*
X189941009Y-96738095D02*
X190036247Y-96690476D01*
X190036247Y-96690476D02*
X190274342Y-96690476D01*
X190274342Y-96690476D02*
X190369580Y-96738095D01*
X190369580Y-96738095D02*
X190417200Y-96785714D01*
X190417200Y-96785714D02*
X190464819Y-96880952D01*
X190464819Y-96880952D02*
X190464819Y-97166666D01*
X190464819Y-97166666D02*
X190417200Y-97261904D01*
X190417200Y-97261904D02*
X190369580Y-97309523D01*
X190464819Y-95738095D02*
X190464819Y-96309523D01*
X190464819Y-96023809D02*
X189464819Y-96023809D01*
X189464819Y-96023809D02*
X189607676Y-96119047D01*
X189607676Y-96119047D02*
X189702914Y-96214285D01*
X189702914Y-96214285D02*
X189750533Y-96309523D01*
X175607142Y-104704819D02*
X175273809Y-104228628D01*
X175035714Y-104704819D02*
X175035714Y-103704819D01*
X175035714Y-103704819D02*
X175416666Y-103704819D01*
X175416666Y-103704819D02*
X175511904Y-103752438D01*
X175511904Y-103752438D02*
X175559523Y-103800057D01*
X175559523Y-103800057D02*
X175607142Y-103895295D01*
X175607142Y-103895295D02*
X175607142Y-104038152D01*
X175607142Y-104038152D02*
X175559523Y-104133390D01*
X175559523Y-104133390D02*
X175511904Y-104181009D01*
X175511904Y-104181009D02*
X175416666Y-104228628D01*
X175416666Y-104228628D02*
X175035714Y-104228628D01*
X176559523Y-104704819D02*
X175988095Y-104704819D01*
X176273809Y-104704819D02*
X176273809Y-103704819D01*
X176273809Y-103704819D02*
X176178571Y-103847676D01*
X176178571Y-103847676D02*
X176083333Y-103942914D01*
X176083333Y-103942914D02*
X175988095Y-103990533D01*
X177511904Y-104704819D02*
X176940476Y-104704819D01*
X177226190Y-104704819D02*
X177226190Y-103704819D01*
X177226190Y-103704819D02*
X177130952Y-103847676D01*
X177130952Y-103847676D02*
X177035714Y-103942914D01*
X177035714Y-103942914D02*
X176940476Y-103990533D01*
X118599580Y-97642857D02*
X118647200Y-97690476D01*
X118647200Y-97690476D02*
X118694819Y-97833333D01*
X118694819Y-97833333D02*
X118694819Y-97928571D01*
X118694819Y-97928571D02*
X118647200Y-98071428D01*
X118647200Y-98071428D02*
X118551961Y-98166666D01*
X118551961Y-98166666D02*
X118456723Y-98214285D01*
X118456723Y-98214285D02*
X118266247Y-98261904D01*
X118266247Y-98261904D02*
X118123390Y-98261904D01*
X118123390Y-98261904D02*
X117932914Y-98214285D01*
X117932914Y-98214285D02*
X117837676Y-98166666D01*
X117837676Y-98166666D02*
X117742438Y-98071428D01*
X117742438Y-98071428D02*
X117694819Y-97928571D01*
X117694819Y-97928571D02*
X117694819Y-97833333D01*
X117694819Y-97833333D02*
X117742438Y-97690476D01*
X117742438Y-97690476D02*
X117790057Y-97642857D01*
X117694819Y-97309523D02*
X117694819Y-96690476D01*
X117694819Y-96690476D02*
X118075771Y-97023809D01*
X118075771Y-97023809D02*
X118075771Y-96880952D01*
X118075771Y-96880952D02*
X118123390Y-96785714D01*
X118123390Y-96785714D02*
X118171009Y-96738095D01*
X118171009Y-96738095D02*
X118266247Y-96690476D01*
X118266247Y-96690476D02*
X118504342Y-96690476D01*
X118504342Y-96690476D02*
X118599580Y-96738095D01*
X118599580Y-96738095D02*
X118647200Y-96785714D01*
X118647200Y-96785714D02*
X118694819Y-96880952D01*
X118694819Y-96880952D02*
X118694819Y-97166666D01*
X118694819Y-97166666D02*
X118647200Y-97261904D01*
X118647200Y-97261904D02*
X118599580Y-97309523D01*
X117694819Y-95785714D02*
X117694819Y-96261904D01*
X117694819Y-96261904D02*
X118171009Y-96309523D01*
X118171009Y-96309523D02*
X118123390Y-96261904D01*
X118123390Y-96261904D02*
X118075771Y-96166666D01*
X118075771Y-96166666D02*
X118075771Y-95928571D01*
X118075771Y-95928571D02*
X118123390Y-95833333D01*
X118123390Y-95833333D02*
X118171009Y-95785714D01*
X118171009Y-95785714D02*
X118266247Y-95738095D01*
X118266247Y-95738095D02*
X118504342Y-95738095D01*
X118504342Y-95738095D02*
X118599580Y-95785714D01*
X118599580Y-95785714D02*
X118647200Y-95833333D01*
X118647200Y-95833333D02*
X118694819Y-95928571D01*
X118694819Y-95928571D02*
X118694819Y-96166666D01*
X118694819Y-96166666D02*
X118647200Y-96261904D01*
X118647200Y-96261904D02*
X118599580Y-96309523D01*
X126384819Y-87142857D02*
X125908628Y-87476190D01*
X126384819Y-87714285D02*
X125384819Y-87714285D01*
X125384819Y-87714285D02*
X125384819Y-87333333D01*
X125384819Y-87333333D02*
X125432438Y-87238095D01*
X125432438Y-87238095D02*
X125480057Y-87190476D01*
X125480057Y-87190476D02*
X125575295Y-87142857D01*
X125575295Y-87142857D02*
X125718152Y-87142857D01*
X125718152Y-87142857D02*
X125813390Y-87190476D01*
X125813390Y-87190476D02*
X125861009Y-87238095D01*
X125861009Y-87238095D02*
X125908628Y-87333333D01*
X125908628Y-87333333D02*
X125908628Y-87714285D01*
X126384819Y-86190476D02*
X126384819Y-86761904D01*
X126384819Y-86476190D02*
X125384819Y-86476190D01*
X125384819Y-86476190D02*
X125527676Y-86571428D01*
X125527676Y-86571428D02*
X125622914Y-86666666D01*
X125622914Y-86666666D02*
X125670533Y-86761904D01*
X125384819Y-85333333D02*
X125384819Y-85523809D01*
X125384819Y-85523809D02*
X125432438Y-85619047D01*
X125432438Y-85619047D02*
X125480057Y-85666666D01*
X125480057Y-85666666D02*
X125622914Y-85761904D01*
X125622914Y-85761904D02*
X125813390Y-85809523D01*
X125813390Y-85809523D02*
X126194342Y-85809523D01*
X126194342Y-85809523D02*
X126289580Y-85761904D01*
X126289580Y-85761904D02*
X126337200Y-85714285D01*
X126337200Y-85714285D02*
X126384819Y-85619047D01*
X126384819Y-85619047D02*
X126384819Y-85428571D01*
X126384819Y-85428571D02*
X126337200Y-85333333D01*
X126337200Y-85333333D02*
X126289580Y-85285714D01*
X126289580Y-85285714D02*
X126194342Y-85238095D01*
X126194342Y-85238095D02*
X125956247Y-85238095D01*
X125956247Y-85238095D02*
X125861009Y-85285714D01*
X125861009Y-85285714D02*
X125813390Y-85333333D01*
X125813390Y-85333333D02*
X125765771Y-85428571D01*
X125765771Y-85428571D02*
X125765771Y-85619047D01*
X125765771Y-85619047D02*
X125813390Y-85714285D01*
X125813390Y-85714285D02*
X125861009Y-85761904D01*
X125861009Y-85761904D02*
X125956247Y-85809523D01*
X126289580Y-120142857D02*
X126337200Y-120190476D01*
X126337200Y-120190476D02*
X126384819Y-120333333D01*
X126384819Y-120333333D02*
X126384819Y-120428571D01*
X126384819Y-120428571D02*
X126337200Y-120571428D01*
X126337200Y-120571428D02*
X126241961Y-120666666D01*
X126241961Y-120666666D02*
X126146723Y-120714285D01*
X126146723Y-120714285D02*
X125956247Y-120761904D01*
X125956247Y-120761904D02*
X125813390Y-120761904D01*
X125813390Y-120761904D02*
X125622914Y-120714285D01*
X125622914Y-120714285D02*
X125527676Y-120666666D01*
X125527676Y-120666666D02*
X125432438Y-120571428D01*
X125432438Y-120571428D02*
X125384819Y-120428571D01*
X125384819Y-120428571D02*
X125384819Y-120333333D01*
X125384819Y-120333333D02*
X125432438Y-120190476D01*
X125432438Y-120190476D02*
X125480057Y-120142857D01*
X125480057Y-119761904D02*
X125432438Y-119714285D01*
X125432438Y-119714285D02*
X125384819Y-119619047D01*
X125384819Y-119619047D02*
X125384819Y-119380952D01*
X125384819Y-119380952D02*
X125432438Y-119285714D01*
X125432438Y-119285714D02*
X125480057Y-119238095D01*
X125480057Y-119238095D02*
X125575295Y-119190476D01*
X125575295Y-119190476D02*
X125670533Y-119190476D01*
X125670533Y-119190476D02*
X125813390Y-119238095D01*
X125813390Y-119238095D02*
X126384819Y-119809523D01*
X126384819Y-119809523D02*
X126384819Y-119190476D01*
X126384819Y-118238095D02*
X126384819Y-118809523D01*
X126384819Y-118523809D02*
X125384819Y-118523809D01*
X125384819Y-118523809D02*
X125527676Y-118619047D01*
X125527676Y-118619047D02*
X125622914Y-118714285D01*
X125622914Y-118714285D02*
X125670533Y-118809523D01*
X170224819Y-118468333D02*
X170939104Y-118468333D01*
X170939104Y-118468333D02*
X171081961Y-118515952D01*
X171081961Y-118515952D02*
X171177200Y-118611190D01*
X171177200Y-118611190D02*
X171224819Y-118754047D01*
X171224819Y-118754047D02*
X171224819Y-118849285D01*
X170224819Y-117515952D02*
X170224819Y-117992142D01*
X170224819Y-117992142D02*
X170701009Y-118039761D01*
X170701009Y-118039761D02*
X170653390Y-117992142D01*
X170653390Y-117992142D02*
X170605771Y-117896904D01*
X170605771Y-117896904D02*
X170605771Y-117658809D01*
X170605771Y-117658809D02*
X170653390Y-117563571D01*
X170653390Y-117563571D02*
X170701009Y-117515952D01*
X170701009Y-117515952D02*
X170796247Y-117468333D01*
X170796247Y-117468333D02*
X171034342Y-117468333D01*
X171034342Y-117468333D02*
X171129580Y-117515952D01*
X171129580Y-117515952D02*
X171177200Y-117563571D01*
X171177200Y-117563571D02*
X171224819Y-117658809D01*
X171224819Y-117658809D02*
X171224819Y-117896904D01*
X171224819Y-117896904D02*
X171177200Y-117992142D01*
X171177200Y-117992142D02*
X171129580Y-118039761D01*
X121357142Y-122359580D02*
X121309523Y-122407200D01*
X121309523Y-122407200D02*
X121166666Y-122454819D01*
X121166666Y-122454819D02*
X121071428Y-122454819D01*
X121071428Y-122454819D02*
X120928571Y-122407200D01*
X120928571Y-122407200D02*
X120833333Y-122311961D01*
X120833333Y-122311961D02*
X120785714Y-122216723D01*
X120785714Y-122216723D02*
X120738095Y-122026247D01*
X120738095Y-122026247D02*
X120738095Y-121883390D01*
X120738095Y-121883390D02*
X120785714Y-121692914D01*
X120785714Y-121692914D02*
X120833333Y-121597676D01*
X120833333Y-121597676D02*
X120928571Y-121502438D01*
X120928571Y-121502438D02*
X121071428Y-121454819D01*
X121071428Y-121454819D02*
X121166666Y-121454819D01*
X121166666Y-121454819D02*
X121309523Y-121502438D01*
X121309523Y-121502438D02*
X121357142Y-121550057D01*
X121738095Y-121550057D02*
X121785714Y-121502438D01*
X121785714Y-121502438D02*
X121880952Y-121454819D01*
X121880952Y-121454819D02*
X122119047Y-121454819D01*
X122119047Y-121454819D02*
X122214285Y-121502438D01*
X122214285Y-121502438D02*
X122261904Y-121550057D01*
X122261904Y-121550057D02*
X122309523Y-121645295D01*
X122309523Y-121645295D02*
X122309523Y-121740533D01*
X122309523Y-121740533D02*
X122261904Y-121883390D01*
X122261904Y-121883390D02*
X121690476Y-122454819D01*
X121690476Y-122454819D02*
X122309523Y-122454819D01*
X122928571Y-121454819D02*
X123023809Y-121454819D01*
X123023809Y-121454819D02*
X123119047Y-121502438D01*
X123119047Y-121502438D02*
X123166666Y-121550057D01*
X123166666Y-121550057D02*
X123214285Y-121645295D01*
X123214285Y-121645295D02*
X123261904Y-121835771D01*
X123261904Y-121835771D02*
X123261904Y-122073866D01*
X123261904Y-122073866D02*
X123214285Y-122264342D01*
X123214285Y-122264342D02*
X123166666Y-122359580D01*
X123166666Y-122359580D02*
X123119047Y-122407200D01*
X123119047Y-122407200D02*
X123023809Y-122454819D01*
X123023809Y-122454819D02*
X122928571Y-122454819D01*
X122928571Y-122454819D02*
X122833333Y-122407200D01*
X122833333Y-122407200D02*
X122785714Y-122359580D01*
X122785714Y-122359580D02*
X122738095Y-122264342D01*
X122738095Y-122264342D02*
X122690476Y-122073866D01*
X122690476Y-122073866D02*
X122690476Y-121835771D01*
X122690476Y-121835771D02*
X122738095Y-121645295D01*
X122738095Y-121645295D02*
X122785714Y-121550057D01*
X122785714Y-121550057D02*
X122833333Y-121502438D01*
X122833333Y-121502438D02*
X122928571Y-121454819D01*
X134109580Y-83916666D02*
X134157200Y-83964285D01*
X134157200Y-83964285D02*
X134204819Y-84107142D01*
X134204819Y-84107142D02*
X134204819Y-84202380D01*
X134204819Y-84202380D02*
X134157200Y-84345237D01*
X134157200Y-84345237D02*
X134061961Y-84440475D01*
X134061961Y-84440475D02*
X133966723Y-84488094D01*
X133966723Y-84488094D02*
X133776247Y-84535713D01*
X133776247Y-84535713D02*
X133633390Y-84535713D01*
X133633390Y-84535713D02*
X133442914Y-84488094D01*
X133442914Y-84488094D02*
X133347676Y-84440475D01*
X133347676Y-84440475D02*
X133252438Y-84345237D01*
X133252438Y-84345237D02*
X133204819Y-84202380D01*
X133204819Y-84202380D02*
X133204819Y-84107142D01*
X133204819Y-84107142D02*
X133252438Y-83964285D01*
X133252438Y-83964285D02*
X133300057Y-83916666D01*
X134204819Y-83440475D02*
X134204819Y-83249999D01*
X134204819Y-83249999D02*
X134157200Y-83154761D01*
X134157200Y-83154761D02*
X134109580Y-83107142D01*
X134109580Y-83107142D02*
X133966723Y-83011904D01*
X133966723Y-83011904D02*
X133776247Y-82964285D01*
X133776247Y-82964285D02*
X133395295Y-82964285D01*
X133395295Y-82964285D02*
X133300057Y-83011904D01*
X133300057Y-83011904D02*
X133252438Y-83059523D01*
X133252438Y-83059523D02*
X133204819Y-83154761D01*
X133204819Y-83154761D02*
X133204819Y-83345237D01*
X133204819Y-83345237D02*
X133252438Y-83440475D01*
X133252438Y-83440475D02*
X133300057Y-83488094D01*
X133300057Y-83488094D02*
X133395295Y-83535713D01*
X133395295Y-83535713D02*
X133633390Y-83535713D01*
X133633390Y-83535713D02*
X133728628Y-83488094D01*
X133728628Y-83488094D02*
X133776247Y-83440475D01*
X133776247Y-83440475D02*
X133823866Y-83345237D01*
X133823866Y-83345237D02*
X133823866Y-83154761D01*
X133823866Y-83154761D02*
X133776247Y-83059523D01*
X133776247Y-83059523D02*
X133728628Y-83011904D01*
X133728628Y-83011904D02*
X133633390Y-82964285D01*
X108561905Y-99511026D02*
X108561905Y-100320549D01*
X108561905Y-100320549D02*
X108609524Y-100415787D01*
X108609524Y-100415787D02*
X108657143Y-100463407D01*
X108657143Y-100463407D02*
X108752381Y-100511026D01*
X108752381Y-100511026D02*
X108942857Y-100511026D01*
X108942857Y-100511026D02*
X109038095Y-100463407D01*
X109038095Y-100463407D02*
X109085714Y-100415787D01*
X109085714Y-100415787D02*
X109133333Y-100320549D01*
X109133333Y-100320549D02*
X109133333Y-99511026D01*
X110133333Y-100511026D02*
X109561905Y-100511026D01*
X109847619Y-100511026D02*
X109847619Y-99511026D01*
X109847619Y-99511026D02*
X109752381Y-99653883D01*
X109752381Y-99653883D02*
X109657143Y-99749121D01*
X109657143Y-99749121D02*
X109561905Y-99796740D01*
X110466667Y-99511026D02*
X111085714Y-99511026D01*
X111085714Y-99511026D02*
X110752381Y-99891978D01*
X110752381Y-99891978D02*
X110895238Y-99891978D01*
X110895238Y-99891978D02*
X110990476Y-99939597D01*
X110990476Y-99939597D02*
X111038095Y-99987216D01*
X111038095Y-99987216D02*
X111085714Y-100082454D01*
X111085714Y-100082454D02*
X111085714Y-100320549D01*
X111085714Y-100320549D02*
X111038095Y-100415787D01*
X111038095Y-100415787D02*
X110990476Y-100463407D01*
X110990476Y-100463407D02*
X110895238Y-100511026D01*
X110895238Y-100511026D02*
X110609524Y-100511026D01*
X110609524Y-100511026D02*
X110514286Y-100463407D01*
X110514286Y-100463407D02*
X110466667Y-100415787D01*
X112019503Y-98511026D02*
X112019503Y-98749121D01*
X111781408Y-98653883D02*
X112019503Y-98749121D01*
X112019503Y-98749121D02*
X112257598Y-98653883D01*
X111876646Y-98939597D02*
X112019503Y-98749121D01*
X112019503Y-98749121D02*
X112162360Y-98939597D01*
X112019503Y-98511026D02*
X112019503Y-98749121D01*
X111781408Y-98653883D02*
X112019503Y-98749121D01*
X112019503Y-98749121D02*
X112257598Y-98653883D01*
X111876646Y-98939597D02*
X112019503Y-98749121D01*
X112019503Y-98749121D02*
X112162360Y-98939597D01*
X135597142Y-122224819D02*
X135263809Y-121748628D01*
X135025714Y-122224819D02*
X135025714Y-121224819D01*
X135025714Y-121224819D02*
X135406666Y-121224819D01*
X135406666Y-121224819D02*
X135501904Y-121272438D01*
X135501904Y-121272438D02*
X135549523Y-121320057D01*
X135549523Y-121320057D02*
X135597142Y-121415295D01*
X135597142Y-121415295D02*
X135597142Y-121558152D01*
X135597142Y-121558152D02*
X135549523Y-121653390D01*
X135549523Y-121653390D02*
X135501904Y-121701009D01*
X135501904Y-121701009D02*
X135406666Y-121748628D01*
X135406666Y-121748628D02*
X135025714Y-121748628D01*
X136549523Y-122224819D02*
X135978095Y-122224819D01*
X136263809Y-122224819D02*
X136263809Y-121224819D01*
X136263809Y-121224819D02*
X136168571Y-121367676D01*
X136168571Y-121367676D02*
X136073333Y-121462914D01*
X136073333Y-121462914D02*
X135978095Y-121510533D01*
X137168571Y-121224819D02*
X137263809Y-121224819D01*
X137263809Y-121224819D02*
X137359047Y-121272438D01*
X137359047Y-121272438D02*
X137406666Y-121320057D01*
X137406666Y-121320057D02*
X137454285Y-121415295D01*
X137454285Y-121415295D02*
X137501904Y-121605771D01*
X137501904Y-121605771D02*
X137501904Y-121843866D01*
X137501904Y-121843866D02*
X137454285Y-122034342D01*
X137454285Y-122034342D02*
X137406666Y-122129580D01*
X137406666Y-122129580D02*
X137359047Y-122177200D01*
X137359047Y-122177200D02*
X137263809Y-122224819D01*
X137263809Y-122224819D02*
X137168571Y-122224819D01*
X137168571Y-122224819D02*
X137073333Y-122177200D01*
X137073333Y-122177200D02*
X137025714Y-122129580D01*
X137025714Y-122129580D02*
X136978095Y-122034342D01*
X136978095Y-122034342D02*
X136930476Y-121843866D01*
X136930476Y-121843866D02*
X136930476Y-121605771D01*
X136930476Y-121605771D02*
X136978095Y-121415295D01*
X136978095Y-121415295D02*
X137025714Y-121320057D01*
X137025714Y-121320057D02*
X137073333Y-121272438D01*
X137073333Y-121272438D02*
X137168571Y-121224819D01*
X128607142Y-95704819D02*
X128273809Y-95228628D01*
X128035714Y-95704819D02*
X128035714Y-94704819D01*
X128035714Y-94704819D02*
X128416666Y-94704819D01*
X128416666Y-94704819D02*
X128511904Y-94752438D01*
X128511904Y-94752438D02*
X128559523Y-94800057D01*
X128559523Y-94800057D02*
X128607142Y-94895295D01*
X128607142Y-94895295D02*
X128607142Y-95038152D01*
X128607142Y-95038152D02*
X128559523Y-95133390D01*
X128559523Y-95133390D02*
X128511904Y-95181009D01*
X128511904Y-95181009D02*
X128416666Y-95228628D01*
X128416666Y-95228628D02*
X128035714Y-95228628D01*
X128940476Y-94704819D02*
X129559523Y-94704819D01*
X129559523Y-94704819D02*
X129226190Y-95085771D01*
X129226190Y-95085771D02*
X129369047Y-95085771D01*
X129369047Y-95085771D02*
X129464285Y-95133390D01*
X129464285Y-95133390D02*
X129511904Y-95181009D01*
X129511904Y-95181009D02*
X129559523Y-95276247D01*
X129559523Y-95276247D02*
X129559523Y-95514342D01*
X129559523Y-95514342D02*
X129511904Y-95609580D01*
X129511904Y-95609580D02*
X129464285Y-95657200D01*
X129464285Y-95657200D02*
X129369047Y-95704819D01*
X129369047Y-95704819D02*
X129083333Y-95704819D01*
X129083333Y-95704819D02*
X128988095Y-95657200D01*
X128988095Y-95657200D02*
X128940476Y-95609580D01*
X130416666Y-94704819D02*
X130226190Y-94704819D01*
X130226190Y-94704819D02*
X130130952Y-94752438D01*
X130130952Y-94752438D02*
X130083333Y-94800057D01*
X130083333Y-94800057D02*
X129988095Y-94942914D01*
X129988095Y-94942914D02*
X129940476Y-95133390D01*
X129940476Y-95133390D02*
X129940476Y-95514342D01*
X129940476Y-95514342D02*
X129988095Y-95609580D01*
X129988095Y-95609580D02*
X130035714Y-95657200D01*
X130035714Y-95657200D02*
X130130952Y-95704819D01*
X130130952Y-95704819D02*
X130321428Y-95704819D01*
X130321428Y-95704819D02*
X130416666Y-95657200D01*
X130416666Y-95657200D02*
X130464285Y-95609580D01*
X130464285Y-95609580D02*
X130511904Y-95514342D01*
X130511904Y-95514342D02*
X130511904Y-95276247D01*
X130511904Y-95276247D02*
X130464285Y-95181009D01*
X130464285Y-95181009D02*
X130416666Y-95133390D01*
X130416666Y-95133390D02*
X130321428Y-95085771D01*
X130321428Y-95085771D02*
X130130952Y-95085771D01*
X130130952Y-95085771D02*
X130035714Y-95133390D01*
X130035714Y-95133390D02*
X129988095Y-95181009D01*
X129988095Y-95181009D02*
X129940476Y-95276247D01*
X129147938Y-122204819D02*
X128814605Y-121728628D01*
X128576510Y-122204819D02*
X128576510Y-121204819D01*
X128576510Y-121204819D02*
X128957462Y-121204819D01*
X128957462Y-121204819D02*
X129052700Y-121252438D01*
X129052700Y-121252438D02*
X129100319Y-121300057D01*
X129100319Y-121300057D02*
X129147938Y-121395295D01*
X129147938Y-121395295D02*
X129147938Y-121538152D01*
X129147938Y-121538152D02*
X129100319Y-121633390D01*
X129100319Y-121633390D02*
X129052700Y-121681009D01*
X129052700Y-121681009D02*
X128957462Y-121728628D01*
X128957462Y-121728628D02*
X128576510Y-121728628D01*
X130005081Y-121204819D02*
X129814605Y-121204819D01*
X129814605Y-121204819D02*
X129719367Y-121252438D01*
X129719367Y-121252438D02*
X129671748Y-121300057D01*
X129671748Y-121300057D02*
X129576510Y-121442914D01*
X129576510Y-121442914D02*
X129528891Y-121633390D01*
X129528891Y-121633390D02*
X129528891Y-122014342D01*
X129528891Y-122014342D02*
X129576510Y-122109580D01*
X129576510Y-122109580D02*
X129624129Y-122157200D01*
X129624129Y-122157200D02*
X129719367Y-122204819D01*
X129719367Y-122204819D02*
X129909843Y-122204819D01*
X129909843Y-122204819D02*
X130005081Y-122157200D01*
X130005081Y-122157200D02*
X130052700Y-122109580D01*
X130052700Y-122109580D02*
X130100319Y-122014342D01*
X130100319Y-122014342D02*
X130100319Y-121776247D01*
X130100319Y-121776247D02*
X130052700Y-121681009D01*
X130052700Y-121681009D02*
X130005081Y-121633390D01*
X130005081Y-121633390D02*
X129909843Y-121585771D01*
X129909843Y-121585771D02*
X129719367Y-121585771D01*
X129719367Y-121585771D02*
X129624129Y-121633390D01*
X129624129Y-121633390D02*
X129576510Y-121681009D01*
X129576510Y-121681009D02*
X129528891Y-121776247D01*
X118238095Y-86954819D02*
X118238095Y-87764342D01*
X118238095Y-87764342D02*
X118285714Y-87859580D01*
X118285714Y-87859580D02*
X118333333Y-87907200D01*
X118333333Y-87907200D02*
X118428571Y-87954819D01*
X118428571Y-87954819D02*
X118619047Y-87954819D01*
X118619047Y-87954819D02*
X118714285Y-87907200D01*
X118714285Y-87907200D02*
X118761904Y-87859580D01*
X118761904Y-87859580D02*
X118809523Y-87764342D01*
X118809523Y-87764342D02*
X118809523Y-86954819D01*
X119714285Y-86954819D02*
X119523809Y-86954819D01*
X119523809Y-86954819D02*
X119428571Y-87002438D01*
X119428571Y-87002438D02*
X119380952Y-87050057D01*
X119380952Y-87050057D02*
X119285714Y-87192914D01*
X119285714Y-87192914D02*
X119238095Y-87383390D01*
X119238095Y-87383390D02*
X119238095Y-87764342D01*
X119238095Y-87764342D02*
X119285714Y-87859580D01*
X119285714Y-87859580D02*
X119333333Y-87907200D01*
X119333333Y-87907200D02*
X119428571Y-87954819D01*
X119428571Y-87954819D02*
X119619047Y-87954819D01*
X119619047Y-87954819D02*
X119714285Y-87907200D01*
X119714285Y-87907200D02*
X119761904Y-87859580D01*
X119761904Y-87859580D02*
X119809523Y-87764342D01*
X119809523Y-87764342D02*
X119809523Y-87526247D01*
X119809523Y-87526247D02*
X119761904Y-87431009D01*
X119761904Y-87431009D02*
X119714285Y-87383390D01*
X119714285Y-87383390D02*
X119619047Y-87335771D01*
X119619047Y-87335771D02*
X119428571Y-87335771D01*
X119428571Y-87335771D02*
X119333333Y-87383390D01*
X119333333Y-87383390D02*
X119285714Y-87431009D01*
X119285714Y-87431009D02*
X119238095Y-87526247D01*
X142261905Y-109354819D02*
X142261905Y-108354819D01*
X142261905Y-108354819D02*
X142500000Y-108354819D01*
X142500000Y-108354819D02*
X142642857Y-108402438D01*
X142642857Y-108402438D02*
X142738095Y-108497676D01*
X142738095Y-108497676D02*
X142785714Y-108592914D01*
X142785714Y-108592914D02*
X142833333Y-108783390D01*
X142833333Y-108783390D02*
X142833333Y-108926247D01*
X142833333Y-108926247D02*
X142785714Y-109116723D01*
X142785714Y-109116723D02*
X142738095Y-109211961D01*
X142738095Y-109211961D02*
X142642857Y-109307200D01*
X142642857Y-109307200D02*
X142500000Y-109354819D01*
X142500000Y-109354819D02*
X142261905Y-109354819D01*
X143785714Y-109354819D02*
X143214286Y-109354819D01*
X143500000Y-109354819D02*
X143500000Y-108354819D01*
X143500000Y-108354819D02*
X143404762Y-108497676D01*
X143404762Y-108497676D02*
X143309524Y-108592914D01*
X143309524Y-108592914D02*
X143214286Y-108640533D01*
X184357142Y-81359580D02*
X184309523Y-81407200D01*
X184309523Y-81407200D02*
X184166666Y-81454819D01*
X184166666Y-81454819D02*
X184071428Y-81454819D01*
X184071428Y-81454819D02*
X183928571Y-81407200D01*
X183928571Y-81407200D02*
X183833333Y-81311961D01*
X183833333Y-81311961D02*
X183785714Y-81216723D01*
X183785714Y-81216723D02*
X183738095Y-81026247D01*
X183738095Y-81026247D02*
X183738095Y-80883390D01*
X183738095Y-80883390D02*
X183785714Y-80692914D01*
X183785714Y-80692914D02*
X183833333Y-80597676D01*
X183833333Y-80597676D02*
X183928571Y-80502438D01*
X183928571Y-80502438D02*
X184071428Y-80454819D01*
X184071428Y-80454819D02*
X184166666Y-80454819D01*
X184166666Y-80454819D02*
X184309523Y-80502438D01*
X184309523Y-80502438D02*
X184357142Y-80550057D01*
X184738095Y-80550057D02*
X184785714Y-80502438D01*
X184785714Y-80502438D02*
X184880952Y-80454819D01*
X184880952Y-80454819D02*
X185119047Y-80454819D01*
X185119047Y-80454819D02*
X185214285Y-80502438D01*
X185214285Y-80502438D02*
X185261904Y-80550057D01*
X185261904Y-80550057D02*
X185309523Y-80645295D01*
X185309523Y-80645295D02*
X185309523Y-80740533D01*
X185309523Y-80740533D02*
X185261904Y-80883390D01*
X185261904Y-80883390D02*
X184690476Y-81454819D01*
X184690476Y-81454819D02*
X185309523Y-81454819D01*
X186166666Y-80454819D02*
X185976190Y-80454819D01*
X185976190Y-80454819D02*
X185880952Y-80502438D01*
X185880952Y-80502438D02*
X185833333Y-80550057D01*
X185833333Y-80550057D02*
X185738095Y-80692914D01*
X185738095Y-80692914D02*
X185690476Y-80883390D01*
X185690476Y-80883390D02*
X185690476Y-81264342D01*
X185690476Y-81264342D02*
X185738095Y-81359580D01*
X185738095Y-81359580D02*
X185785714Y-81407200D01*
X185785714Y-81407200D02*
X185880952Y-81454819D01*
X185880952Y-81454819D02*
X186071428Y-81454819D01*
X186071428Y-81454819D02*
X186166666Y-81407200D01*
X186166666Y-81407200D02*
X186214285Y-81359580D01*
X186214285Y-81359580D02*
X186261904Y-81264342D01*
X186261904Y-81264342D02*
X186261904Y-81026247D01*
X186261904Y-81026247D02*
X186214285Y-80931009D01*
X186214285Y-80931009D02*
X186166666Y-80883390D01*
X186166666Y-80883390D02*
X186071428Y-80835771D01*
X186071428Y-80835771D02*
X185880952Y-80835771D01*
X185880952Y-80835771D02*
X185785714Y-80883390D01*
X185785714Y-80883390D02*
X185738095Y-80931009D01*
X185738095Y-80931009D02*
X185690476Y-81026247D01*
X188869580Y-97642857D02*
X188917200Y-97690476D01*
X188917200Y-97690476D02*
X188964819Y-97833333D01*
X188964819Y-97833333D02*
X188964819Y-97928571D01*
X188964819Y-97928571D02*
X188917200Y-98071428D01*
X188917200Y-98071428D02*
X188821961Y-98166666D01*
X188821961Y-98166666D02*
X188726723Y-98214285D01*
X188726723Y-98214285D02*
X188536247Y-98261904D01*
X188536247Y-98261904D02*
X188393390Y-98261904D01*
X188393390Y-98261904D02*
X188202914Y-98214285D01*
X188202914Y-98214285D02*
X188107676Y-98166666D01*
X188107676Y-98166666D02*
X188012438Y-98071428D01*
X188012438Y-98071428D02*
X187964819Y-97928571D01*
X187964819Y-97928571D02*
X187964819Y-97833333D01*
X187964819Y-97833333D02*
X188012438Y-97690476D01*
X188012438Y-97690476D02*
X188060057Y-97642857D01*
X187964819Y-97309523D02*
X187964819Y-96690476D01*
X187964819Y-96690476D02*
X188345771Y-97023809D01*
X188345771Y-97023809D02*
X188345771Y-96880952D01*
X188345771Y-96880952D02*
X188393390Y-96785714D01*
X188393390Y-96785714D02*
X188441009Y-96738095D01*
X188441009Y-96738095D02*
X188536247Y-96690476D01*
X188536247Y-96690476D02*
X188774342Y-96690476D01*
X188774342Y-96690476D02*
X188869580Y-96738095D01*
X188869580Y-96738095D02*
X188917200Y-96785714D01*
X188917200Y-96785714D02*
X188964819Y-96880952D01*
X188964819Y-96880952D02*
X188964819Y-97166666D01*
X188964819Y-97166666D02*
X188917200Y-97261904D01*
X188917200Y-97261904D02*
X188869580Y-97309523D01*
X187964819Y-96071428D02*
X187964819Y-95976190D01*
X187964819Y-95976190D02*
X188012438Y-95880952D01*
X188012438Y-95880952D02*
X188060057Y-95833333D01*
X188060057Y-95833333D02*
X188155295Y-95785714D01*
X188155295Y-95785714D02*
X188345771Y-95738095D01*
X188345771Y-95738095D02*
X188583866Y-95738095D01*
X188583866Y-95738095D02*
X188774342Y-95785714D01*
X188774342Y-95785714D02*
X188869580Y-95833333D01*
X188869580Y-95833333D02*
X188917200Y-95880952D01*
X188917200Y-95880952D02*
X188964819Y-95976190D01*
X188964819Y-95976190D02*
X188964819Y-96071428D01*
X188964819Y-96071428D02*
X188917200Y-96166666D01*
X188917200Y-96166666D02*
X188869580Y-96214285D01*
X188869580Y-96214285D02*
X188774342Y-96261904D01*
X188774342Y-96261904D02*
X188583866Y-96309523D01*
X188583866Y-96309523D02*
X188345771Y-96309523D01*
X188345771Y-96309523D02*
X188155295Y-96261904D01*
X188155295Y-96261904D02*
X188060057Y-96214285D01*
X188060057Y-96214285D02*
X188012438Y-96166666D01*
X188012438Y-96166666D02*
X187964819Y-96071428D01*
X186309580Y-90202857D02*
X186357200Y-90250476D01*
X186357200Y-90250476D02*
X186404819Y-90393333D01*
X186404819Y-90393333D02*
X186404819Y-90488571D01*
X186404819Y-90488571D02*
X186357200Y-90631428D01*
X186357200Y-90631428D02*
X186261961Y-90726666D01*
X186261961Y-90726666D02*
X186166723Y-90774285D01*
X186166723Y-90774285D02*
X185976247Y-90821904D01*
X185976247Y-90821904D02*
X185833390Y-90821904D01*
X185833390Y-90821904D02*
X185642914Y-90774285D01*
X185642914Y-90774285D02*
X185547676Y-90726666D01*
X185547676Y-90726666D02*
X185452438Y-90631428D01*
X185452438Y-90631428D02*
X185404819Y-90488571D01*
X185404819Y-90488571D02*
X185404819Y-90393333D01*
X185404819Y-90393333D02*
X185452438Y-90250476D01*
X185452438Y-90250476D02*
X185500057Y-90202857D01*
X185500057Y-89821904D02*
X185452438Y-89774285D01*
X185452438Y-89774285D02*
X185404819Y-89679047D01*
X185404819Y-89679047D02*
X185404819Y-89440952D01*
X185404819Y-89440952D02*
X185452438Y-89345714D01*
X185452438Y-89345714D02*
X185500057Y-89298095D01*
X185500057Y-89298095D02*
X185595295Y-89250476D01*
X185595295Y-89250476D02*
X185690533Y-89250476D01*
X185690533Y-89250476D02*
X185833390Y-89298095D01*
X185833390Y-89298095D02*
X186404819Y-89869523D01*
X186404819Y-89869523D02*
X186404819Y-89250476D01*
X186404819Y-88774285D02*
X186404819Y-88583809D01*
X186404819Y-88583809D02*
X186357200Y-88488571D01*
X186357200Y-88488571D02*
X186309580Y-88440952D01*
X186309580Y-88440952D02*
X186166723Y-88345714D01*
X186166723Y-88345714D02*
X185976247Y-88298095D01*
X185976247Y-88298095D02*
X185595295Y-88298095D01*
X185595295Y-88298095D02*
X185500057Y-88345714D01*
X185500057Y-88345714D02*
X185452438Y-88393333D01*
X185452438Y-88393333D02*
X185404819Y-88488571D01*
X185404819Y-88488571D02*
X185404819Y-88679047D01*
X185404819Y-88679047D02*
X185452438Y-88774285D01*
X185452438Y-88774285D02*
X185500057Y-88821904D01*
X185500057Y-88821904D02*
X185595295Y-88869523D01*
X185595295Y-88869523D02*
X185833390Y-88869523D01*
X185833390Y-88869523D02*
X185928628Y-88821904D01*
X185928628Y-88821904D02*
X185976247Y-88774285D01*
X185976247Y-88774285D02*
X186023866Y-88679047D01*
X186023866Y-88679047D02*
X186023866Y-88488571D01*
X186023866Y-88488571D02*
X185976247Y-88393333D01*
X185976247Y-88393333D02*
X185928628Y-88345714D01*
X185928628Y-88345714D02*
X185833390Y-88298095D01*
X147704819Y-112166666D02*
X147228628Y-112499999D01*
X147704819Y-112738094D02*
X146704819Y-112738094D01*
X146704819Y-112738094D02*
X146704819Y-112357142D01*
X146704819Y-112357142D02*
X146752438Y-112261904D01*
X146752438Y-112261904D02*
X146800057Y-112214285D01*
X146800057Y-112214285D02*
X146895295Y-112166666D01*
X146895295Y-112166666D02*
X147038152Y-112166666D01*
X147038152Y-112166666D02*
X147133390Y-112214285D01*
X147133390Y-112214285D02*
X147181009Y-112261904D01*
X147181009Y-112261904D02*
X147228628Y-112357142D01*
X147228628Y-112357142D02*
X147228628Y-112738094D01*
X146800057Y-111785713D02*
X146752438Y-111738094D01*
X146752438Y-111738094D02*
X146704819Y-111642856D01*
X146704819Y-111642856D02*
X146704819Y-111404761D01*
X146704819Y-111404761D02*
X146752438Y-111309523D01*
X146752438Y-111309523D02*
X146800057Y-111261904D01*
X146800057Y-111261904D02*
X146895295Y-111214285D01*
X146895295Y-111214285D02*
X146990533Y-111214285D01*
X146990533Y-111214285D02*
X147133390Y-111261904D01*
X147133390Y-111261904D02*
X147704819Y-111833332D01*
X147704819Y-111833332D02*
X147704819Y-111214285D01*
X187357142Y-114359580D02*
X187309523Y-114407200D01*
X187309523Y-114407200D02*
X187166666Y-114454819D01*
X187166666Y-114454819D02*
X187071428Y-114454819D01*
X187071428Y-114454819D02*
X186928571Y-114407200D01*
X186928571Y-114407200D02*
X186833333Y-114311961D01*
X186833333Y-114311961D02*
X186785714Y-114216723D01*
X186785714Y-114216723D02*
X186738095Y-114026247D01*
X186738095Y-114026247D02*
X186738095Y-113883390D01*
X186738095Y-113883390D02*
X186785714Y-113692914D01*
X186785714Y-113692914D02*
X186833333Y-113597676D01*
X186833333Y-113597676D02*
X186928571Y-113502438D01*
X186928571Y-113502438D02*
X187071428Y-113454819D01*
X187071428Y-113454819D02*
X187166666Y-113454819D01*
X187166666Y-113454819D02*
X187309523Y-113502438D01*
X187309523Y-113502438D02*
X187357142Y-113550057D01*
X187738095Y-113550057D02*
X187785714Y-113502438D01*
X187785714Y-113502438D02*
X187880952Y-113454819D01*
X187880952Y-113454819D02*
X188119047Y-113454819D01*
X188119047Y-113454819D02*
X188214285Y-113502438D01*
X188214285Y-113502438D02*
X188261904Y-113550057D01*
X188261904Y-113550057D02*
X188309523Y-113645295D01*
X188309523Y-113645295D02*
X188309523Y-113740533D01*
X188309523Y-113740533D02*
X188261904Y-113883390D01*
X188261904Y-113883390D02*
X187690476Y-114454819D01*
X187690476Y-114454819D02*
X188309523Y-114454819D01*
X188642857Y-113454819D02*
X189261904Y-113454819D01*
X189261904Y-113454819D02*
X188928571Y-113835771D01*
X188928571Y-113835771D02*
X189071428Y-113835771D01*
X189071428Y-113835771D02*
X189166666Y-113883390D01*
X189166666Y-113883390D02*
X189214285Y-113931009D01*
X189214285Y-113931009D02*
X189261904Y-114026247D01*
X189261904Y-114026247D02*
X189261904Y-114264342D01*
X189261904Y-114264342D02*
X189214285Y-114359580D01*
X189214285Y-114359580D02*
X189166666Y-114407200D01*
X189166666Y-114407200D02*
X189071428Y-114454819D01*
X189071428Y-114454819D02*
X188785714Y-114454819D01*
X188785714Y-114454819D02*
X188690476Y-114407200D01*
X188690476Y-114407200D02*
X188642857Y-114359580D01*
X135609580Y-84392857D02*
X135657200Y-84440476D01*
X135657200Y-84440476D02*
X135704819Y-84583333D01*
X135704819Y-84583333D02*
X135704819Y-84678571D01*
X135704819Y-84678571D02*
X135657200Y-84821428D01*
X135657200Y-84821428D02*
X135561961Y-84916666D01*
X135561961Y-84916666D02*
X135466723Y-84964285D01*
X135466723Y-84964285D02*
X135276247Y-85011904D01*
X135276247Y-85011904D02*
X135133390Y-85011904D01*
X135133390Y-85011904D02*
X134942914Y-84964285D01*
X134942914Y-84964285D02*
X134847676Y-84916666D01*
X134847676Y-84916666D02*
X134752438Y-84821428D01*
X134752438Y-84821428D02*
X134704819Y-84678571D01*
X134704819Y-84678571D02*
X134704819Y-84583333D01*
X134704819Y-84583333D02*
X134752438Y-84440476D01*
X134752438Y-84440476D02*
X134800057Y-84392857D01*
X135704819Y-83440476D02*
X135704819Y-84011904D01*
X135704819Y-83726190D02*
X134704819Y-83726190D01*
X134704819Y-83726190D02*
X134847676Y-83821428D01*
X134847676Y-83821428D02*
X134942914Y-83916666D01*
X134942914Y-83916666D02*
X134990533Y-84011904D01*
X134704819Y-82821428D02*
X134704819Y-82726190D01*
X134704819Y-82726190D02*
X134752438Y-82630952D01*
X134752438Y-82630952D02*
X134800057Y-82583333D01*
X134800057Y-82583333D02*
X134895295Y-82535714D01*
X134895295Y-82535714D02*
X135085771Y-82488095D01*
X135085771Y-82488095D02*
X135323866Y-82488095D01*
X135323866Y-82488095D02*
X135514342Y-82535714D01*
X135514342Y-82535714D02*
X135609580Y-82583333D01*
X135609580Y-82583333D02*
X135657200Y-82630952D01*
X135657200Y-82630952D02*
X135704819Y-82726190D01*
X135704819Y-82726190D02*
X135704819Y-82821428D01*
X135704819Y-82821428D02*
X135657200Y-82916666D01*
X135657200Y-82916666D02*
X135609580Y-82964285D01*
X135609580Y-82964285D02*
X135514342Y-83011904D01*
X135514342Y-83011904D02*
X135323866Y-83059523D01*
X135323866Y-83059523D02*
X135085771Y-83059523D01*
X135085771Y-83059523D02*
X134895295Y-83011904D01*
X134895295Y-83011904D02*
X134800057Y-82964285D01*
X134800057Y-82964285D02*
X134752438Y-82916666D01*
X134752438Y-82916666D02*
X134704819Y-82821428D01*
X127357142Y-82859580D02*
X127309523Y-82907200D01*
X127309523Y-82907200D02*
X127166666Y-82954819D01*
X127166666Y-82954819D02*
X127071428Y-82954819D01*
X127071428Y-82954819D02*
X126928571Y-82907200D01*
X126928571Y-82907200D02*
X126833333Y-82811961D01*
X126833333Y-82811961D02*
X126785714Y-82716723D01*
X126785714Y-82716723D02*
X126738095Y-82526247D01*
X126738095Y-82526247D02*
X126738095Y-82383390D01*
X126738095Y-82383390D02*
X126785714Y-82192914D01*
X126785714Y-82192914D02*
X126833333Y-82097676D01*
X126833333Y-82097676D02*
X126928571Y-82002438D01*
X126928571Y-82002438D02*
X127071428Y-81954819D01*
X127071428Y-81954819D02*
X127166666Y-81954819D01*
X127166666Y-81954819D02*
X127309523Y-82002438D01*
X127309523Y-82002438D02*
X127357142Y-82050057D01*
X128309523Y-82954819D02*
X127738095Y-82954819D01*
X128023809Y-82954819D02*
X128023809Y-81954819D01*
X128023809Y-81954819D02*
X127928571Y-82097676D01*
X127928571Y-82097676D02*
X127833333Y-82192914D01*
X127833333Y-82192914D02*
X127738095Y-82240533D01*
X129166666Y-82288152D02*
X129166666Y-82954819D01*
X128928571Y-81907200D02*
X128690476Y-82621485D01*
X128690476Y-82621485D02*
X129309523Y-82621485D01*
X126759580Y-76966666D02*
X126807200Y-77014285D01*
X126807200Y-77014285D02*
X126854819Y-77157142D01*
X126854819Y-77157142D02*
X126854819Y-77252380D01*
X126854819Y-77252380D02*
X126807200Y-77395237D01*
X126807200Y-77395237D02*
X126711961Y-77490475D01*
X126711961Y-77490475D02*
X126616723Y-77538094D01*
X126616723Y-77538094D02*
X126426247Y-77585713D01*
X126426247Y-77585713D02*
X126283390Y-77585713D01*
X126283390Y-77585713D02*
X126092914Y-77538094D01*
X126092914Y-77538094D02*
X125997676Y-77490475D01*
X125997676Y-77490475D02*
X125902438Y-77395237D01*
X125902438Y-77395237D02*
X125854819Y-77252380D01*
X125854819Y-77252380D02*
X125854819Y-77157142D01*
X125854819Y-77157142D02*
X125902438Y-77014285D01*
X125902438Y-77014285D02*
X125950057Y-76966666D01*
X126283390Y-76395237D02*
X126235771Y-76490475D01*
X126235771Y-76490475D02*
X126188152Y-76538094D01*
X126188152Y-76538094D02*
X126092914Y-76585713D01*
X126092914Y-76585713D02*
X126045295Y-76585713D01*
X126045295Y-76585713D02*
X125950057Y-76538094D01*
X125950057Y-76538094D02*
X125902438Y-76490475D01*
X125902438Y-76490475D02*
X125854819Y-76395237D01*
X125854819Y-76395237D02*
X125854819Y-76204761D01*
X125854819Y-76204761D02*
X125902438Y-76109523D01*
X125902438Y-76109523D02*
X125950057Y-76061904D01*
X125950057Y-76061904D02*
X126045295Y-76014285D01*
X126045295Y-76014285D02*
X126092914Y-76014285D01*
X126092914Y-76014285D02*
X126188152Y-76061904D01*
X126188152Y-76061904D02*
X126235771Y-76109523D01*
X126235771Y-76109523D02*
X126283390Y-76204761D01*
X126283390Y-76204761D02*
X126283390Y-76395237D01*
X126283390Y-76395237D02*
X126331009Y-76490475D01*
X126331009Y-76490475D02*
X126378628Y-76538094D01*
X126378628Y-76538094D02*
X126473866Y-76585713D01*
X126473866Y-76585713D02*
X126664342Y-76585713D01*
X126664342Y-76585713D02*
X126759580Y-76538094D01*
X126759580Y-76538094D02*
X126807200Y-76490475D01*
X126807200Y-76490475D02*
X126854819Y-76395237D01*
X126854819Y-76395237D02*
X126854819Y-76204761D01*
X126854819Y-76204761D02*
X126807200Y-76109523D01*
X126807200Y-76109523D02*
X126759580Y-76061904D01*
X126759580Y-76061904D02*
X126664342Y-76014285D01*
X126664342Y-76014285D02*
X126473866Y-76014285D01*
X126473866Y-76014285D02*
X126378628Y-76061904D01*
X126378628Y-76061904D02*
X126331009Y-76109523D01*
X126331009Y-76109523D02*
X126283390Y-76204761D01*
X186384819Y-117142857D02*
X185908628Y-117476190D01*
X186384819Y-117714285D02*
X185384819Y-117714285D01*
X185384819Y-117714285D02*
X185384819Y-117333333D01*
X185384819Y-117333333D02*
X185432438Y-117238095D01*
X185432438Y-117238095D02*
X185480057Y-117190476D01*
X185480057Y-117190476D02*
X185575295Y-117142857D01*
X185575295Y-117142857D02*
X185718152Y-117142857D01*
X185718152Y-117142857D02*
X185813390Y-117190476D01*
X185813390Y-117190476D02*
X185861009Y-117238095D01*
X185861009Y-117238095D02*
X185908628Y-117333333D01*
X185908628Y-117333333D02*
X185908628Y-117714285D01*
X185480057Y-116761904D02*
X185432438Y-116714285D01*
X185432438Y-116714285D02*
X185384819Y-116619047D01*
X185384819Y-116619047D02*
X185384819Y-116380952D01*
X185384819Y-116380952D02*
X185432438Y-116285714D01*
X185432438Y-116285714D02*
X185480057Y-116238095D01*
X185480057Y-116238095D02*
X185575295Y-116190476D01*
X185575295Y-116190476D02*
X185670533Y-116190476D01*
X185670533Y-116190476D02*
X185813390Y-116238095D01*
X185813390Y-116238095D02*
X186384819Y-116809523D01*
X186384819Y-116809523D02*
X186384819Y-116190476D01*
X185718152Y-115333333D02*
X186384819Y-115333333D01*
X185337200Y-115571428D02*
X186051485Y-115809523D01*
X186051485Y-115809523D02*
X186051485Y-115190476D01*
X181866667Y-77207200D02*
X182009524Y-77254819D01*
X182009524Y-77254819D02*
X182247619Y-77254819D01*
X182247619Y-77254819D02*
X182342857Y-77207200D01*
X182342857Y-77207200D02*
X182390476Y-77159580D01*
X182390476Y-77159580D02*
X182438095Y-77064342D01*
X182438095Y-77064342D02*
X182438095Y-76969104D01*
X182438095Y-76969104D02*
X182390476Y-76873866D01*
X182390476Y-76873866D02*
X182342857Y-76826247D01*
X182342857Y-76826247D02*
X182247619Y-76778628D01*
X182247619Y-76778628D02*
X182057143Y-76731009D01*
X182057143Y-76731009D02*
X181961905Y-76683390D01*
X181961905Y-76683390D02*
X181914286Y-76635771D01*
X181914286Y-76635771D02*
X181866667Y-76540533D01*
X181866667Y-76540533D02*
X181866667Y-76445295D01*
X181866667Y-76445295D02*
X181914286Y-76350057D01*
X181914286Y-76350057D02*
X181961905Y-76302438D01*
X181961905Y-76302438D02*
X182057143Y-76254819D01*
X182057143Y-76254819D02*
X182295238Y-76254819D01*
X182295238Y-76254819D02*
X182438095Y-76302438D01*
X182771429Y-76254819D02*
X183009524Y-77254819D01*
X183009524Y-77254819D02*
X183200000Y-76540533D01*
X183200000Y-76540533D02*
X183390476Y-77254819D01*
X183390476Y-77254819D02*
X183628572Y-76254819D01*
X184533333Y-77254819D02*
X183961905Y-77254819D01*
X184247619Y-77254819D02*
X184247619Y-76254819D01*
X184247619Y-76254819D02*
X184152381Y-76397676D01*
X184152381Y-76397676D02*
X184057143Y-76492914D01*
X184057143Y-76492914D02*
X183961905Y-76540533D01*
X127357142Y-84359580D02*
X127309523Y-84407200D01*
X127309523Y-84407200D02*
X127166666Y-84454819D01*
X127166666Y-84454819D02*
X127071428Y-84454819D01*
X127071428Y-84454819D02*
X126928571Y-84407200D01*
X126928571Y-84407200D02*
X126833333Y-84311961D01*
X126833333Y-84311961D02*
X126785714Y-84216723D01*
X126785714Y-84216723D02*
X126738095Y-84026247D01*
X126738095Y-84026247D02*
X126738095Y-83883390D01*
X126738095Y-83883390D02*
X126785714Y-83692914D01*
X126785714Y-83692914D02*
X126833333Y-83597676D01*
X126833333Y-83597676D02*
X126928571Y-83502438D01*
X126928571Y-83502438D02*
X127071428Y-83454819D01*
X127071428Y-83454819D02*
X127166666Y-83454819D01*
X127166666Y-83454819D02*
X127309523Y-83502438D01*
X127309523Y-83502438D02*
X127357142Y-83550057D01*
X128309523Y-84454819D02*
X127738095Y-84454819D01*
X128023809Y-84454819D02*
X128023809Y-83454819D01*
X128023809Y-83454819D02*
X127928571Y-83597676D01*
X127928571Y-83597676D02*
X127833333Y-83692914D01*
X127833333Y-83692914D02*
X127738095Y-83740533D01*
X129214285Y-83454819D02*
X128738095Y-83454819D01*
X128738095Y-83454819D02*
X128690476Y-83931009D01*
X128690476Y-83931009D02*
X128738095Y-83883390D01*
X128738095Y-83883390D02*
X128833333Y-83835771D01*
X128833333Y-83835771D02*
X129071428Y-83835771D01*
X129071428Y-83835771D02*
X129166666Y-83883390D01*
X129166666Y-83883390D02*
X129214285Y-83931009D01*
X129214285Y-83931009D02*
X129261904Y-84026247D01*
X129261904Y-84026247D02*
X129261904Y-84264342D01*
X129261904Y-84264342D02*
X129214285Y-84359580D01*
X129214285Y-84359580D02*
X129166666Y-84407200D01*
X129166666Y-84407200D02*
X129071428Y-84454819D01*
X129071428Y-84454819D02*
X128833333Y-84454819D01*
X128833333Y-84454819D02*
X128738095Y-84407200D01*
X128738095Y-84407200D02*
X128690476Y-84359580D01*
X117738095Y-116954819D02*
X117738095Y-117764342D01*
X117738095Y-117764342D02*
X117785714Y-117859580D01*
X117785714Y-117859580D02*
X117833333Y-117907200D01*
X117833333Y-117907200D02*
X117928571Y-117954819D01*
X117928571Y-117954819D02*
X118119047Y-117954819D01*
X118119047Y-117954819D02*
X118214285Y-117907200D01*
X118214285Y-117907200D02*
X118261904Y-117859580D01*
X118261904Y-117859580D02*
X118309523Y-117764342D01*
X118309523Y-117764342D02*
X118309523Y-116954819D01*
X118928571Y-117383390D02*
X118833333Y-117335771D01*
X118833333Y-117335771D02*
X118785714Y-117288152D01*
X118785714Y-117288152D02*
X118738095Y-117192914D01*
X118738095Y-117192914D02*
X118738095Y-117145295D01*
X118738095Y-117145295D02*
X118785714Y-117050057D01*
X118785714Y-117050057D02*
X118833333Y-117002438D01*
X118833333Y-117002438D02*
X118928571Y-116954819D01*
X118928571Y-116954819D02*
X119119047Y-116954819D01*
X119119047Y-116954819D02*
X119214285Y-117002438D01*
X119214285Y-117002438D02*
X119261904Y-117050057D01*
X119261904Y-117050057D02*
X119309523Y-117145295D01*
X119309523Y-117145295D02*
X119309523Y-117192914D01*
X119309523Y-117192914D02*
X119261904Y-117288152D01*
X119261904Y-117288152D02*
X119214285Y-117335771D01*
X119214285Y-117335771D02*
X119119047Y-117383390D01*
X119119047Y-117383390D02*
X118928571Y-117383390D01*
X118928571Y-117383390D02*
X118833333Y-117431009D01*
X118833333Y-117431009D02*
X118785714Y-117478628D01*
X118785714Y-117478628D02*
X118738095Y-117573866D01*
X118738095Y-117573866D02*
X118738095Y-117764342D01*
X118738095Y-117764342D02*
X118785714Y-117859580D01*
X118785714Y-117859580D02*
X118833333Y-117907200D01*
X118833333Y-117907200D02*
X118928571Y-117954819D01*
X118928571Y-117954819D02*
X119119047Y-117954819D01*
X119119047Y-117954819D02*
X119214285Y-117907200D01*
X119214285Y-117907200D02*
X119261904Y-117859580D01*
X119261904Y-117859580D02*
X119309523Y-117764342D01*
X119309523Y-117764342D02*
X119309523Y-117573866D01*
X119309523Y-117573866D02*
X119261904Y-117478628D01*
X119261904Y-117478628D02*
X119214285Y-117431009D01*
X119214285Y-117431009D02*
X119119047Y-117383390D01*
X181357142Y-122359580D02*
X181309523Y-122407200D01*
X181309523Y-122407200D02*
X181166666Y-122454819D01*
X181166666Y-122454819D02*
X181071428Y-122454819D01*
X181071428Y-122454819D02*
X180928571Y-122407200D01*
X180928571Y-122407200D02*
X180833333Y-122311961D01*
X180833333Y-122311961D02*
X180785714Y-122216723D01*
X180785714Y-122216723D02*
X180738095Y-122026247D01*
X180738095Y-122026247D02*
X180738095Y-121883390D01*
X180738095Y-121883390D02*
X180785714Y-121692914D01*
X180785714Y-121692914D02*
X180833333Y-121597676D01*
X180833333Y-121597676D02*
X180928571Y-121502438D01*
X180928571Y-121502438D02*
X181071428Y-121454819D01*
X181071428Y-121454819D02*
X181166666Y-121454819D01*
X181166666Y-121454819D02*
X181309523Y-121502438D01*
X181309523Y-121502438D02*
X181357142Y-121550057D01*
X181738095Y-121550057D02*
X181785714Y-121502438D01*
X181785714Y-121502438D02*
X181880952Y-121454819D01*
X181880952Y-121454819D02*
X182119047Y-121454819D01*
X182119047Y-121454819D02*
X182214285Y-121502438D01*
X182214285Y-121502438D02*
X182261904Y-121550057D01*
X182261904Y-121550057D02*
X182309523Y-121645295D01*
X182309523Y-121645295D02*
X182309523Y-121740533D01*
X182309523Y-121740533D02*
X182261904Y-121883390D01*
X182261904Y-121883390D02*
X181690476Y-122454819D01*
X181690476Y-122454819D02*
X182309523Y-122454819D01*
X183166666Y-121788152D02*
X183166666Y-122454819D01*
X182928571Y-121407200D02*
X182690476Y-122121485D01*
X182690476Y-122121485D02*
X183309523Y-122121485D01*
X153607142Y-114109580D02*
X153559523Y-114157200D01*
X153559523Y-114157200D02*
X153416666Y-114204819D01*
X153416666Y-114204819D02*
X153321428Y-114204819D01*
X153321428Y-114204819D02*
X153178571Y-114157200D01*
X153178571Y-114157200D02*
X153083333Y-114061961D01*
X153083333Y-114061961D02*
X153035714Y-113966723D01*
X153035714Y-113966723D02*
X152988095Y-113776247D01*
X152988095Y-113776247D02*
X152988095Y-113633390D01*
X152988095Y-113633390D02*
X153035714Y-113442914D01*
X153035714Y-113442914D02*
X153083333Y-113347676D01*
X153083333Y-113347676D02*
X153178571Y-113252438D01*
X153178571Y-113252438D02*
X153321428Y-113204819D01*
X153321428Y-113204819D02*
X153416666Y-113204819D01*
X153416666Y-113204819D02*
X153559523Y-113252438D01*
X153559523Y-113252438D02*
X153607142Y-113300057D01*
X154464285Y-113538152D02*
X154464285Y-114204819D01*
X154226190Y-113157200D02*
X153988095Y-113871485D01*
X153988095Y-113871485D02*
X154607142Y-113871485D01*
X155416666Y-113538152D02*
X155416666Y-114204819D01*
X155178571Y-113157200D02*
X154940476Y-113871485D01*
X154940476Y-113871485D02*
X155559523Y-113871485D01*
X178357142Y-120954819D02*
X178023809Y-120478628D01*
X177785714Y-120954819D02*
X177785714Y-119954819D01*
X177785714Y-119954819D02*
X178166666Y-119954819D01*
X178166666Y-119954819D02*
X178261904Y-120002438D01*
X178261904Y-120002438D02*
X178309523Y-120050057D01*
X178309523Y-120050057D02*
X178357142Y-120145295D01*
X178357142Y-120145295D02*
X178357142Y-120288152D01*
X178357142Y-120288152D02*
X178309523Y-120383390D01*
X178309523Y-120383390D02*
X178261904Y-120431009D01*
X178261904Y-120431009D02*
X178166666Y-120478628D01*
X178166666Y-120478628D02*
X177785714Y-120478628D01*
X178738095Y-120050057D02*
X178785714Y-120002438D01*
X178785714Y-120002438D02*
X178880952Y-119954819D01*
X178880952Y-119954819D02*
X179119047Y-119954819D01*
X179119047Y-119954819D02*
X179214285Y-120002438D01*
X179214285Y-120002438D02*
X179261904Y-120050057D01*
X179261904Y-120050057D02*
X179309523Y-120145295D01*
X179309523Y-120145295D02*
X179309523Y-120240533D01*
X179309523Y-120240533D02*
X179261904Y-120383390D01*
X179261904Y-120383390D02*
X178690476Y-120954819D01*
X178690476Y-120954819D02*
X179309523Y-120954819D01*
X179690476Y-120050057D02*
X179738095Y-120002438D01*
X179738095Y-120002438D02*
X179833333Y-119954819D01*
X179833333Y-119954819D02*
X180071428Y-119954819D01*
X180071428Y-119954819D02*
X180166666Y-120002438D01*
X180166666Y-120002438D02*
X180214285Y-120050057D01*
X180214285Y-120050057D02*
X180261904Y-120145295D01*
X180261904Y-120145295D02*
X180261904Y-120240533D01*
X180261904Y-120240533D02*
X180214285Y-120383390D01*
X180214285Y-120383390D02*
X179642857Y-120954819D01*
X179642857Y-120954819D02*
X180261904Y-120954819D01*
X121357142Y-97954819D02*
X121023809Y-97478628D01*
X120785714Y-97954819D02*
X120785714Y-96954819D01*
X120785714Y-96954819D02*
X121166666Y-96954819D01*
X121166666Y-96954819D02*
X121261904Y-97002438D01*
X121261904Y-97002438D02*
X121309523Y-97050057D01*
X121309523Y-97050057D02*
X121357142Y-97145295D01*
X121357142Y-97145295D02*
X121357142Y-97288152D01*
X121357142Y-97288152D02*
X121309523Y-97383390D01*
X121309523Y-97383390D02*
X121261904Y-97431009D01*
X121261904Y-97431009D02*
X121166666Y-97478628D01*
X121166666Y-97478628D02*
X120785714Y-97478628D01*
X122309523Y-97954819D02*
X121738095Y-97954819D01*
X122023809Y-97954819D02*
X122023809Y-96954819D01*
X122023809Y-96954819D02*
X121928571Y-97097676D01*
X121928571Y-97097676D02*
X121833333Y-97192914D01*
X121833333Y-97192914D02*
X121738095Y-97240533D01*
X122690476Y-97050057D02*
X122738095Y-97002438D01*
X122738095Y-97002438D02*
X122833333Y-96954819D01*
X122833333Y-96954819D02*
X123071428Y-96954819D01*
X123071428Y-96954819D02*
X123166666Y-97002438D01*
X123166666Y-97002438D02*
X123214285Y-97050057D01*
X123214285Y-97050057D02*
X123261904Y-97145295D01*
X123261904Y-97145295D02*
X123261904Y-97240533D01*
X123261904Y-97240533D02*
X123214285Y-97383390D01*
X123214285Y-97383390D02*
X122642857Y-97954819D01*
X122642857Y-97954819D02*
X123261904Y-97954819D01*
X135609580Y-87392857D02*
X135657200Y-87440476D01*
X135657200Y-87440476D02*
X135704819Y-87583333D01*
X135704819Y-87583333D02*
X135704819Y-87678571D01*
X135704819Y-87678571D02*
X135657200Y-87821428D01*
X135657200Y-87821428D02*
X135561961Y-87916666D01*
X135561961Y-87916666D02*
X135466723Y-87964285D01*
X135466723Y-87964285D02*
X135276247Y-88011904D01*
X135276247Y-88011904D02*
X135133390Y-88011904D01*
X135133390Y-88011904D02*
X134942914Y-87964285D01*
X134942914Y-87964285D02*
X134847676Y-87916666D01*
X134847676Y-87916666D02*
X134752438Y-87821428D01*
X134752438Y-87821428D02*
X134704819Y-87678571D01*
X134704819Y-87678571D02*
X134704819Y-87583333D01*
X134704819Y-87583333D02*
X134752438Y-87440476D01*
X134752438Y-87440476D02*
X134800057Y-87392857D01*
X135704819Y-86440476D02*
X135704819Y-87011904D01*
X135704819Y-86726190D02*
X134704819Y-86726190D01*
X134704819Y-86726190D02*
X134847676Y-86821428D01*
X134847676Y-86821428D02*
X134942914Y-86916666D01*
X134942914Y-86916666D02*
X134990533Y-87011904D01*
X135704819Y-85488095D02*
X135704819Y-86059523D01*
X135704819Y-85773809D02*
X134704819Y-85773809D01*
X134704819Y-85773809D02*
X134847676Y-85869047D01*
X134847676Y-85869047D02*
X134942914Y-85964285D01*
X134942914Y-85964285D02*
X134990533Y-86059523D01*
X186404819Y-87202857D02*
X185928628Y-87536190D01*
X186404819Y-87774285D02*
X185404819Y-87774285D01*
X185404819Y-87774285D02*
X185404819Y-87393333D01*
X185404819Y-87393333D02*
X185452438Y-87298095D01*
X185452438Y-87298095D02*
X185500057Y-87250476D01*
X185500057Y-87250476D02*
X185595295Y-87202857D01*
X185595295Y-87202857D02*
X185738152Y-87202857D01*
X185738152Y-87202857D02*
X185833390Y-87250476D01*
X185833390Y-87250476D02*
X185881009Y-87298095D01*
X185881009Y-87298095D02*
X185928628Y-87393333D01*
X185928628Y-87393333D02*
X185928628Y-87774285D01*
X185500057Y-86821904D02*
X185452438Y-86774285D01*
X185452438Y-86774285D02*
X185404819Y-86679047D01*
X185404819Y-86679047D02*
X185404819Y-86440952D01*
X185404819Y-86440952D02*
X185452438Y-86345714D01*
X185452438Y-86345714D02*
X185500057Y-86298095D01*
X185500057Y-86298095D02*
X185595295Y-86250476D01*
X185595295Y-86250476D02*
X185690533Y-86250476D01*
X185690533Y-86250476D02*
X185833390Y-86298095D01*
X185833390Y-86298095D02*
X186404819Y-86869523D01*
X186404819Y-86869523D02*
X186404819Y-86250476D01*
X185833390Y-85679047D02*
X185785771Y-85774285D01*
X185785771Y-85774285D02*
X185738152Y-85821904D01*
X185738152Y-85821904D02*
X185642914Y-85869523D01*
X185642914Y-85869523D02*
X185595295Y-85869523D01*
X185595295Y-85869523D02*
X185500057Y-85821904D01*
X185500057Y-85821904D02*
X185452438Y-85774285D01*
X185452438Y-85774285D02*
X185404819Y-85679047D01*
X185404819Y-85679047D02*
X185404819Y-85488571D01*
X185404819Y-85488571D02*
X185452438Y-85393333D01*
X185452438Y-85393333D02*
X185500057Y-85345714D01*
X185500057Y-85345714D02*
X185595295Y-85298095D01*
X185595295Y-85298095D02*
X185642914Y-85298095D01*
X185642914Y-85298095D02*
X185738152Y-85345714D01*
X185738152Y-85345714D02*
X185785771Y-85393333D01*
X185785771Y-85393333D02*
X185833390Y-85488571D01*
X185833390Y-85488571D02*
X185833390Y-85679047D01*
X185833390Y-85679047D02*
X185881009Y-85774285D01*
X185881009Y-85774285D02*
X185928628Y-85821904D01*
X185928628Y-85821904D02*
X186023866Y-85869523D01*
X186023866Y-85869523D02*
X186214342Y-85869523D01*
X186214342Y-85869523D02*
X186309580Y-85821904D01*
X186309580Y-85821904D02*
X186357200Y-85774285D01*
X186357200Y-85774285D02*
X186404819Y-85679047D01*
X186404819Y-85679047D02*
X186404819Y-85488571D01*
X186404819Y-85488571D02*
X186357200Y-85393333D01*
X186357200Y-85393333D02*
X186309580Y-85345714D01*
X186309580Y-85345714D02*
X186214342Y-85298095D01*
X186214342Y-85298095D02*
X186023866Y-85298095D01*
X186023866Y-85298095D02*
X185928628Y-85345714D01*
X185928628Y-85345714D02*
X185881009Y-85393333D01*
X185881009Y-85393333D02*
X185833390Y-85488571D01*
X128357142Y-105454819D02*
X128023809Y-104978628D01*
X127785714Y-105454819D02*
X127785714Y-104454819D01*
X127785714Y-104454819D02*
X128166666Y-104454819D01*
X128166666Y-104454819D02*
X128261904Y-104502438D01*
X128261904Y-104502438D02*
X128309523Y-104550057D01*
X128309523Y-104550057D02*
X128357142Y-104645295D01*
X128357142Y-104645295D02*
X128357142Y-104788152D01*
X128357142Y-104788152D02*
X128309523Y-104883390D01*
X128309523Y-104883390D02*
X128261904Y-104931009D01*
X128261904Y-104931009D02*
X128166666Y-104978628D01*
X128166666Y-104978628D02*
X127785714Y-104978628D01*
X128690476Y-104454819D02*
X129309523Y-104454819D01*
X129309523Y-104454819D02*
X128976190Y-104835771D01*
X128976190Y-104835771D02*
X129119047Y-104835771D01*
X129119047Y-104835771D02*
X129214285Y-104883390D01*
X129214285Y-104883390D02*
X129261904Y-104931009D01*
X129261904Y-104931009D02*
X129309523Y-105026247D01*
X129309523Y-105026247D02*
X129309523Y-105264342D01*
X129309523Y-105264342D02*
X129261904Y-105359580D01*
X129261904Y-105359580D02*
X129214285Y-105407200D01*
X129214285Y-105407200D02*
X129119047Y-105454819D01*
X129119047Y-105454819D02*
X128833333Y-105454819D01*
X128833333Y-105454819D02*
X128738095Y-105407200D01*
X128738095Y-105407200D02*
X128690476Y-105359580D01*
X129642857Y-104454819D02*
X130309523Y-104454819D01*
X130309523Y-104454819D02*
X129880952Y-105454819D01*
X180661905Y-99454819D02*
X180661905Y-100264342D01*
X180661905Y-100264342D02*
X180709524Y-100359580D01*
X180709524Y-100359580D02*
X180757143Y-100407200D01*
X180757143Y-100407200D02*
X180852381Y-100454819D01*
X180852381Y-100454819D02*
X181042857Y-100454819D01*
X181042857Y-100454819D02*
X181138095Y-100407200D01*
X181138095Y-100407200D02*
X181185714Y-100359580D01*
X181185714Y-100359580D02*
X181233333Y-100264342D01*
X181233333Y-100264342D02*
X181233333Y-99454819D01*
X182233333Y-100454819D02*
X181661905Y-100454819D01*
X181947619Y-100454819D02*
X181947619Y-99454819D01*
X181947619Y-99454819D02*
X181852381Y-99597676D01*
X181852381Y-99597676D02*
X181757143Y-99692914D01*
X181757143Y-99692914D02*
X181661905Y-99740533D01*
X182614286Y-99550057D02*
X182661905Y-99502438D01*
X182661905Y-99502438D02*
X182757143Y-99454819D01*
X182757143Y-99454819D02*
X182995238Y-99454819D01*
X182995238Y-99454819D02*
X183090476Y-99502438D01*
X183090476Y-99502438D02*
X183138095Y-99550057D01*
X183138095Y-99550057D02*
X183185714Y-99645295D01*
X183185714Y-99645295D02*
X183185714Y-99740533D01*
X183185714Y-99740533D02*
X183138095Y-99883390D01*
X183138095Y-99883390D02*
X182566667Y-100454819D01*
X182566667Y-100454819D02*
X183185714Y-100454819D01*
X183863579Y-98452859D02*
X183863579Y-98690954D01*
X183625484Y-98595716D02*
X183863579Y-98690954D01*
X183863579Y-98690954D02*
X184101674Y-98595716D01*
X183720722Y-98881430D02*
X183863579Y-98690954D01*
X183863579Y-98690954D02*
X184006436Y-98881430D01*
X183863579Y-98452859D02*
X183863579Y-98690954D01*
X183625484Y-98595716D02*
X183863579Y-98690954D01*
X183863579Y-98690954D02*
X184101674Y-98595716D01*
X183720722Y-98881430D02*
X183863579Y-98690954D01*
X183863579Y-98690954D02*
X184006436Y-98881430D01*
X121357142Y-92359580D02*
X121309523Y-92407200D01*
X121309523Y-92407200D02*
X121166666Y-92454819D01*
X121166666Y-92454819D02*
X121071428Y-92454819D01*
X121071428Y-92454819D02*
X120928571Y-92407200D01*
X120928571Y-92407200D02*
X120833333Y-92311961D01*
X120833333Y-92311961D02*
X120785714Y-92216723D01*
X120785714Y-92216723D02*
X120738095Y-92026247D01*
X120738095Y-92026247D02*
X120738095Y-91883390D01*
X120738095Y-91883390D02*
X120785714Y-91692914D01*
X120785714Y-91692914D02*
X120833333Y-91597676D01*
X120833333Y-91597676D02*
X120928571Y-91502438D01*
X120928571Y-91502438D02*
X121071428Y-91454819D01*
X121071428Y-91454819D02*
X121166666Y-91454819D01*
X121166666Y-91454819D02*
X121309523Y-91502438D01*
X121309523Y-91502438D02*
X121357142Y-91550057D01*
X122309523Y-92454819D02*
X121738095Y-92454819D01*
X122023809Y-92454819D02*
X122023809Y-91454819D01*
X122023809Y-91454819D02*
X121928571Y-91597676D01*
X121928571Y-91597676D02*
X121833333Y-91692914D01*
X121833333Y-91692914D02*
X121738095Y-91740533D01*
X123166666Y-91454819D02*
X122976190Y-91454819D01*
X122976190Y-91454819D02*
X122880952Y-91502438D01*
X122880952Y-91502438D02*
X122833333Y-91550057D01*
X122833333Y-91550057D02*
X122738095Y-91692914D01*
X122738095Y-91692914D02*
X122690476Y-91883390D01*
X122690476Y-91883390D02*
X122690476Y-92264342D01*
X122690476Y-92264342D02*
X122738095Y-92359580D01*
X122738095Y-92359580D02*
X122785714Y-92407200D01*
X122785714Y-92407200D02*
X122880952Y-92454819D01*
X122880952Y-92454819D02*
X123071428Y-92454819D01*
X123071428Y-92454819D02*
X123166666Y-92407200D01*
X123166666Y-92407200D02*
X123214285Y-92359580D01*
X123214285Y-92359580D02*
X123261904Y-92264342D01*
X123261904Y-92264342D02*
X123261904Y-92026247D01*
X123261904Y-92026247D02*
X123214285Y-91931009D01*
X123214285Y-91931009D02*
X123166666Y-91883390D01*
X123166666Y-91883390D02*
X123071428Y-91835771D01*
X123071428Y-91835771D02*
X122880952Y-91835771D01*
X122880952Y-91835771D02*
X122785714Y-91883390D01*
X122785714Y-91883390D02*
X122738095Y-91931009D01*
X122738095Y-91931009D02*
X122690476Y-92026247D01*
X186357142Y-108704819D02*
X186023809Y-108228628D01*
X185785714Y-108704819D02*
X185785714Y-107704819D01*
X185785714Y-107704819D02*
X186166666Y-107704819D01*
X186166666Y-107704819D02*
X186261904Y-107752438D01*
X186261904Y-107752438D02*
X186309523Y-107800057D01*
X186309523Y-107800057D02*
X186357142Y-107895295D01*
X186357142Y-107895295D02*
X186357142Y-108038152D01*
X186357142Y-108038152D02*
X186309523Y-108133390D01*
X186309523Y-108133390D02*
X186261904Y-108181009D01*
X186261904Y-108181009D02*
X186166666Y-108228628D01*
X186166666Y-108228628D02*
X185785714Y-108228628D01*
X186690476Y-107704819D02*
X187309523Y-107704819D01*
X187309523Y-107704819D02*
X186976190Y-108085771D01*
X186976190Y-108085771D02*
X187119047Y-108085771D01*
X187119047Y-108085771D02*
X187214285Y-108133390D01*
X187214285Y-108133390D02*
X187261904Y-108181009D01*
X187261904Y-108181009D02*
X187309523Y-108276247D01*
X187309523Y-108276247D02*
X187309523Y-108514342D01*
X187309523Y-108514342D02*
X187261904Y-108609580D01*
X187261904Y-108609580D02*
X187214285Y-108657200D01*
X187214285Y-108657200D02*
X187119047Y-108704819D01*
X187119047Y-108704819D02*
X186833333Y-108704819D01*
X186833333Y-108704819D02*
X186738095Y-108657200D01*
X186738095Y-108657200D02*
X186690476Y-108609580D01*
X187880952Y-108133390D02*
X187785714Y-108085771D01*
X187785714Y-108085771D02*
X187738095Y-108038152D01*
X187738095Y-108038152D02*
X187690476Y-107942914D01*
X187690476Y-107942914D02*
X187690476Y-107895295D01*
X187690476Y-107895295D02*
X187738095Y-107800057D01*
X187738095Y-107800057D02*
X187785714Y-107752438D01*
X187785714Y-107752438D02*
X187880952Y-107704819D01*
X187880952Y-107704819D02*
X188071428Y-107704819D01*
X188071428Y-107704819D02*
X188166666Y-107752438D01*
X188166666Y-107752438D02*
X188214285Y-107800057D01*
X188214285Y-107800057D02*
X188261904Y-107895295D01*
X188261904Y-107895295D02*
X188261904Y-107942914D01*
X188261904Y-107942914D02*
X188214285Y-108038152D01*
X188214285Y-108038152D02*
X188166666Y-108085771D01*
X188166666Y-108085771D02*
X188071428Y-108133390D01*
X188071428Y-108133390D02*
X187880952Y-108133390D01*
X187880952Y-108133390D02*
X187785714Y-108181009D01*
X187785714Y-108181009D02*
X187738095Y-108228628D01*
X187738095Y-108228628D02*
X187690476Y-108323866D01*
X187690476Y-108323866D02*
X187690476Y-108514342D01*
X187690476Y-108514342D02*
X187738095Y-108609580D01*
X187738095Y-108609580D02*
X187785714Y-108657200D01*
X187785714Y-108657200D02*
X187880952Y-108704819D01*
X187880952Y-108704819D02*
X188071428Y-108704819D01*
X188071428Y-108704819D02*
X188166666Y-108657200D01*
X188166666Y-108657200D02*
X188214285Y-108609580D01*
X188214285Y-108609580D02*
X188261904Y-108514342D01*
X188261904Y-108514342D02*
X188261904Y-108323866D01*
X188261904Y-108323866D02*
X188214285Y-108228628D01*
X188214285Y-108228628D02*
X188166666Y-108181009D01*
X188166666Y-108181009D02*
X188071428Y-108133390D01*
X117109580Y-97642857D02*
X117157200Y-97690476D01*
X117157200Y-97690476D02*
X117204819Y-97833333D01*
X117204819Y-97833333D02*
X117204819Y-97928571D01*
X117204819Y-97928571D02*
X117157200Y-98071428D01*
X117157200Y-98071428D02*
X117061961Y-98166666D01*
X117061961Y-98166666D02*
X116966723Y-98214285D01*
X116966723Y-98214285D02*
X116776247Y-98261904D01*
X116776247Y-98261904D02*
X116633390Y-98261904D01*
X116633390Y-98261904D02*
X116442914Y-98214285D01*
X116442914Y-98214285D02*
X116347676Y-98166666D01*
X116347676Y-98166666D02*
X116252438Y-98071428D01*
X116252438Y-98071428D02*
X116204819Y-97928571D01*
X116204819Y-97928571D02*
X116204819Y-97833333D01*
X116204819Y-97833333D02*
X116252438Y-97690476D01*
X116252438Y-97690476D02*
X116300057Y-97642857D01*
X116204819Y-97309523D02*
X116204819Y-96690476D01*
X116204819Y-96690476D02*
X116585771Y-97023809D01*
X116585771Y-97023809D02*
X116585771Y-96880952D01*
X116585771Y-96880952D02*
X116633390Y-96785714D01*
X116633390Y-96785714D02*
X116681009Y-96738095D01*
X116681009Y-96738095D02*
X116776247Y-96690476D01*
X116776247Y-96690476D02*
X117014342Y-96690476D01*
X117014342Y-96690476D02*
X117109580Y-96738095D01*
X117109580Y-96738095D02*
X117157200Y-96785714D01*
X117157200Y-96785714D02*
X117204819Y-96880952D01*
X117204819Y-96880952D02*
X117204819Y-97166666D01*
X117204819Y-97166666D02*
X117157200Y-97261904D01*
X117157200Y-97261904D02*
X117109580Y-97309523D01*
X116538152Y-95833333D02*
X117204819Y-95833333D01*
X116157200Y-96071428D02*
X116871485Y-96309523D01*
X116871485Y-96309523D02*
X116871485Y-95690476D01*
X121357142Y-117954819D02*
X121023809Y-117478628D01*
X120785714Y-117954819D02*
X120785714Y-116954819D01*
X120785714Y-116954819D02*
X121166666Y-116954819D01*
X121166666Y-116954819D02*
X121261904Y-117002438D01*
X121261904Y-117002438D02*
X121309523Y-117050057D01*
X121309523Y-117050057D02*
X121357142Y-117145295D01*
X121357142Y-117145295D02*
X121357142Y-117288152D01*
X121357142Y-117288152D02*
X121309523Y-117383390D01*
X121309523Y-117383390D02*
X121261904Y-117431009D01*
X121261904Y-117431009D02*
X121166666Y-117478628D01*
X121166666Y-117478628D02*
X120785714Y-117478628D01*
X122309523Y-117954819D02*
X121738095Y-117954819D01*
X122023809Y-117954819D02*
X122023809Y-116954819D01*
X122023809Y-116954819D02*
X121928571Y-117097676D01*
X121928571Y-117097676D02*
X121833333Y-117192914D01*
X121833333Y-117192914D02*
X121738095Y-117240533D01*
X122785714Y-117954819D02*
X122976190Y-117954819D01*
X122976190Y-117954819D02*
X123071428Y-117907200D01*
X123071428Y-117907200D02*
X123119047Y-117859580D01*
X123119047Y-117859580D02*
X123214285Y-117716723D01*
X123214285Y-117716723D02*
X123261904Y-117526247D01*
X123261904Y-117526247D02*
X123261904Y-117145295D01*
X123261904Y-117145295D02*
X123214285Y-117050057D01*
X123214285Y-117050057D02*
X123166666Y-117002438D01*
X123166666Y-117002438D02*
X123071428Y-116954819D01*
X123071428Y-116954819D02*
X122880952Y-116954819D01*
X122880952Y-116954819D02*
X122785714Y-117002438D01*
X122785714Y-117002438D02*
X122738095Y-117050057D01*
X122738095Y-117050057D02*
X122690476Y-117145295D01*
X122690476Y-117145295D02*
X122690476Y-117383390D01*
X122690476Y-117383390D02*
X122738095Y-117478628D01*
X122738095Y-117478628D02*
X122785714Y-117526247D01*
X122785714Y-117526247D02*
X122880952Y-117573866D01*
X122880952Y-117573866D02*
X123071428Y-117573866D01*
X123071428Y-117573866D02*
X123166666Y-117526247D01*
X123166666Y-117526247D02*
X123214285Y-117478628D01*
X123214285Y-117478628D02*
X123261904Y-117383390D01*
X149666666Y-115129930D02*
X149666666Y-115844215D01*
X149666666Y-115844215D02*
X149619047Y-115987072D01*
X149619047Y-115987072D02*
X149523809Y-116082311D01*
X149523809Y-116082311D02*
X149380952Y-116129930D01*
X149380952Y-116129930D02*
X149285714Y-116129930D01*
X150571428Y-115129930D02*
X150380952Y-115129930D01*
X150380952Y-115129930D02*
X150285714Y-115177549D01*
X150285714Y-115177549D02*
X150238095Y-115225168D01*
X150238095Y-115225168D02*
X150142857Y-115368025D01*
X150142857Y-115368025D02*
X150095238Y-115558501D01*
X150095238Y-115558501D02*
X150095238Y-115939453D01*
X150095238Y-115939453D02*
X150142857Y-116034691D01*
X150142857Y-116034691D02*
X150190476Y-116082311D01*
X150190476Y-116082311D02*
X150285714Y-116129930D01*
X150285714Y-116129930D02*
X150476190Y-116129930D01*
X150476190Y-116129930D02*
X150571428Y-116082311D01*
X150571428Y-116082311D02*
X150619047Y-116034691D01*
X150619047Y-116034691D02*
X150666666Y-115939453D01*
X150666666Y-115939453D02*
X150666666Y-115701358D01*
X150666666Y-115701358D02*
X150619047Y-115606120D01*
X150619047Y-115606120D02*
X150571428Y-115558501D01*
X150571428Y-115558501D02*
X150476190Y-115510882D01*
X150476190Y-115510882D02*
X150285714Y-115510882D01*
X150285714Y-115510882D02*
X150190476Y-115558501D01*
X150190476Y-115558501D02*
X150142857Y-115606120D01*
X150142857Y-115606120D02*
X150095238Y-115701358D01*
X128719642Y-103959580D02*
X128672023Y-104007200D01*
X128672023Y-104007200D02*
X128529166Y-104054819D01*
X128529166Y-104054819D02*
X128433928Y-104054819D01*
X128433928Y-104054819D02*
X128291071Y-104007200D01*
X128291071Y-104007200D02*
X128195833Y-103911961D01*
X128195833Y-103911961D02*
X128148214Y-103816723D01*
X128148214Y-103816723D02*
X128100595Y-103626247D01*
X128100595Y-103626247D02*
X128100595Y-103483390D01*
X128100595Y-103483390D02*
X128148214Y-103292914D01*
X128148214Y-103292914D02*
X128195833Y-103197676D01*
X128195833Y-103197676D02*
X128291071Y-103102438D01*
X128291071Y-103102438D02*
X128433928Y-103054819D01*
X128433928Y-103054819D02*
X128529166Y-103054819D01*
X128529166Y-103054819D02*
X128672023Y-103102438D01*
X128672023Y-103102438D02*
X128719642Y-103150057D01*
X129672023Y-104054819D02*
X129100595Y-104054819D01*
X129386309Y-104054819D02*
X129386309Y-103054819D01*
X129386309Y-103054819D02*
X129291071Y-103197676D01*
X129291071Y-103197676D02*
X129195833Y-103292914D01*
X129195833Y-103292914D02*
X129100595Y-103340533D01*
X130005357Y-103054819D02*
X130624404Y-103054819D01*
X130624404Y-103054819D02*
X130291071Y-103435771D01*
X130291071Y-103435771D02*
X130433928Y-103435771D01*
X130433928Y-103435771D02*
X130529166Y-103483390D01*
X130529166Y-103483390D02*
X130576785Y-103531009D01*
X130576785Y-103531009D02*
X130624404Y-103626247D01*
X130624404Y-103626247D02*
X130624404Y-103864342D01*
X130624404Y-103864342D02*
X130576785Y-103959580D01*
X130576785Y-103959580D02*
X130529166Y-104007200D01*
X130529166Y-104007200D02*
X130433928Y-104054819D01*
X130433928Y-104054819D02*
X130148214Y-104054819D01*
X130148214Y-104054819D02*
X130052976Y-104007200D01*
X130052976Y-104007200D02*
X130005357Y-103959580D01*
X174029580Y-76991666D02*
X174077200Y-77039285D01*
X174077200Y-77039285D02*
X174124819Y-77182142D01*
X174124819Y-77182142D02*
X174124819Y-77277380D01*
X174124819Y-77277380D02*
X174077200Y-77420237D01*
X174077200Y-77420237D02*
X173981961Y-77515475D01*
X173981961Y-77515475D02*
X173886723Y-77563094D01*
X173886723Y-77563094D02*
X173696247Y-77610713D01*
X173696247Y-77610713D02*
X173553390Y-77610713D01*
X173553390Y-77610713D02*
X173362914Y-77563094D01*
X173362914Y-77563094D02*
X173267676Y-77515475D01*
X173267676Y-77515475D02*
X173172438Y-77420237D01*
X173172438Y-77420237D02*
X173124819Y-77277380D01*
X173124819Y-77277380D02*
X173124819Y-77182142D01*
X173124819Y-77182142D02*
X173172438Y-77039285D01*
X173172438Y-77039285D02*
X173220057Y-76991666D01*
X173124819Y-76658332D02*
X173124819Y-75991666D01*
X173124819Y-75991666D02*
X174124819Y-76420237D01*
X145607142Y-114109580D02*
X145559523Y-114157200D01*
X145559523Y-114157200D02*
X145416666Y-114204819D01*
X145416666Y-114204819D02*
X145321428Y-114204819D01*
X145321428Y-114204819D02*
X145178571Y-114157200D01*
X145178571Y-114157200D02*
X145083333Y-114061961D01*
X145083333Y-114061961D02*
X145035714Y-113966723D01*
X145035714Y-113966723D02*
X144988095Y-113776247D01*
X144988095Y-113776247D02*
X144988095Y-113633390D01*
X144988095Y-113633390D02*
X145035714Y-113442914D01*
X145035714Y-113442914D02*
X145083333Y-113347676D01*
X145083333Y-113347676D02*
X145178571Y-113252438D01*
X145178571Y-113252438D02*
X145321428Y-113204819D01*
X145321428Y-113204819D02*
X145416666Y-113204819D01*
X145416666Y-113204819D02*
X145559523Y-113252438D01*
X145559523Y-113252438D02*
X145607142Y-113300057D01*
X146464285Y-113538152D02*
X146464285Y-114204819D01*
X146226190Y-113157200D02*
X145988095Y-113871485D01*
X145988095Y-113871485D02*
X146607142Y-113871485D01*
X146892857Y-113204819D02*
X147511904Y-113204819D01*
X147511904Y-113204819D02*
X147178571Y-113585771D01*
X147178571Y-113585771D02*
X147321428Y-113585771D01*
X147321428Y-113585771D02*
X147416666Y-113633390D01*
X147416666Y-113633390D02*
X147464285Y-113681009D01*
X147464285Y-113681009D02*
X147511904Y-113776247D01*
X147511904Y-113776247D02*
X147511904Y-114014342D01*
X147511904Y-114014342D02*
X147464285Y-114109580D01*
X147464285Y-114109580D02*
X147416666Y-114157200D01*
X147416666Y-114157200D02*
X147321428Y-114204819D01*
X147321428Y-114204819D02*
X147035714Y-114204819D01*
X147035714Y-114204819D02*
X146940476Y-114157200D01*
X146940476Y-114157200D02*
X146892857Y-114109580D01*
X153454819Y-104642857D02*
X152978628Y-104976190D01*
X153454819Y-105214285D02*
X152454819Y-105214285D01*
X152454819Y-105214285D02*
X152454819Y-104833333D01*
X152454819Y-104833333D02*
X152502438Y-104738095D01*
X152502438Y-104738095D02*
X152550057Y-104690476D01*
X152550057Y-104690476D02*
X152645295Y-104642857D01*
X152645295Y-104642857D02*
X152788152Y-104642857D01*
X152788152Y-104642857D02*
X152883390Y-104690476D01*
X152883390Y-104690476D02*
X152931009Y-104738095D01*
X152931009Y-104738095D02*
X152978628Y-104833333D01*
X152978628Y-104833333D02*
X152978628Y-105214285D01*
X152454819Y-104309523D02*
X152454819Y-103690476D01*
X152454819Y-103690476D02*
X152835771Y-104023809D01*
X152835771Y-104023809D02*
X152835771Y-103880952D01*
X152835771Y-103880952D02*
X152883390Y-103785714D01*
X152883390Y-103785714D02*
X152931009Y-103738095D01*
X152931009Y-103738095D02*
X153026247Y-103690476D01*
X153026247Y-103690476D02*
X153264342Y-103690476D01*
X153264342Y-103690476D02*
X153359580Y-103738095D01*
X153359580Y-103738095D02*
X153407200Y-103785714D01*
X153407200Y-103785714D02*
X153454819Y-103880952D01*
X153454819Y-103880952D02*
X153454819Y-104166666D01*
X153454819Y-104166666D02*
X153407200Y-104261904D01*
X153407200Y-104261904D02*
X153359580Y-104309523D01*
X152550057Y-103309523D02*
X152502438Y-103261904D01*
X152502438Y-103261904D02*
X152454819Y-103166666D01*
X152454819Y-103166666D02*
X152454819Y-102928571D01*
X152454819Y-102928571D02*
X152502438Y-102833333D01*
X152502438Y-102833333D02*
X152550057Y-102785714D01*
X152550057Y-102785714D02*
X152645295Y-102738095D01*
X152645295Y-102738095D02*
X152740533Y-102738095D01*
X152740533Y-102738095D02*
X152883390Y-102785714D01*
X152883390Y-102785714D02*
X153454819Y-103357142D01*
X153454819Y-103357142D02*
X153454819Y-102738095D01*
X118357142Y-90954819D02*
X118023809Y-90478628D01*
X117785714Y-90954819D02*
X117785714Y-89954819D01*
X117785714Y-89954819D02*
X118166666Y-89954819D01*
X118166666Y-89954819D02*
X118261904Y-90002438D01*
X118261904Y-90002438D02*
X118309523Y-90050057D01*
X118309523Y-90050057D02*
X118357142Y-90145295D01*
X118357142Y-90145295D02*
X118357142Y-90288152D01*
X118357142Y-90288152D02*
X118309523Y-90383390D01*
X118309523Y-90383390D02*
X118261904Y-90431009D01*
X118261904Y-90431009D02*
X118166666Y-90478628D01*
X118166666Y-90478628D02*
X117785714Y-90478628D01*
X119309523Y-90954819D02*
X118738095Y-90954819D01*
X119023809Y-90954819D02*
X119023809Y-89954819D01*
X119023809Y-89954819D02*
X118928571Y-90097676D01*
X118928571Y-90097676D02*
X118833333Y-90192914D01*
X118833333Y-90192914D02*
X118738095Y-90240533D01*
X120166666Y-90288152D02*
X120166666Y-90954819D01*
X119928571Y-89907200D02*
X119690476Y-90621485D01*
X119690476Y-90621485D02*
X120309523Y-90621485D01*
X126384819Y-117142857D02*
X125908628Y-117476190D01*
X126384819Y-117714285D02*
X125384819Y-117714285D01*
X125384819Y-117714285D02*
X125384819Y-117333333D01*
X125384819Y-117333333D02*
X125432438Y-117238095D01*
X125432438Y-117238095D02*
X125480057Y-117190476D01*
X125480057Y-117190476D02*
X125575295Y-117142857D01*
X125575295Y-117142857D02*
X125718152Y-117142857D01*
X125718152Y-117142857D02*
X125813390Y-117190476D01*
X125813390Y-117190476D02*
X125861009Y-117238095D01*
X125861009Y-117238095D02*
X125908628Y-117333333D01*
X125908628Y-117333333D02*
X125908628Y-117714285D01*
X125480057Y-116761904D02*
X125432438Y-116714285D01*
X125432438Y-116714285D02*
X125384819Y-116619047D01*
X125384819Y-116619047D02*
X125384819Y-116380952D01*
X125384819Y-116380952D02*
X125432438Y-116285714D01*
X125432438Y-116285714D02*
X125480057Y-116238095D01*
X125480057Y-116238095D02*
X125575295Y-116190476D01*
X125575295Y-116190476D02*
X125670533Y-116190476D01*
X125670533Y-116190476D02*
X125813390Y-116238095D01*
X125813390Y-116238095D02*
X126384819Y-116809523D01*
X126384819Y-116809523D02*
X126384819Y-116190476D01*
X125384819Y-115571428D02*
X125384819Y-115476190D01*
X125384819Y-115476190D02*
X125432438Y-115380952D01*
X125432438Y-115380952D02*
X125480057Y-115333333D01*
X125480057Y-115333333D02*
X125575295Y-115285714D01*
X125575295Y-115285714D02*
X125765771Y-115238095D01*
X125765771Y-115238095D02*
X126003866Y-115238095D01*
X126003866Y-115238095D02*
X126194342Y-115285714D01*
X126194342Y-115285714D02*
X126289580Y-115333333D01*
X126289580Y-115333333D02*
X126337200Y-115380952D01*
X126337200Y-115380952D02*
X126384819Y-115476190D01*
X126384819Y-115476190D02*
X126384819Y-115571428D01*
X126384819Y-115571428D02*
X126337200Y-115666666D01*
X126337200Y-115666666D02*
X126289580Y-115714285D01*
X126289580Y-115714285D02*
X126194342Y-115761904D01*
X126194342Y-115761904D02*
X126003866Y-115809523D01*
X126003866Y-115809523D02*
X125765771Y-115809523D01*
X125765771Y-115809523D02*
X125575295Y-115761904D01*
X125575295Y-115761904D02*
X125480057Y-115714285D01*
X125480057Y-115714285D02*
X125432438Y-115666666D01*
X125432438Y-115666666D02*
X125384819Y-115571428D01*
X118357142Y-120954819D02*
X118023809Y-120478628D01*
X117785714Y-120954819D02*
X117785714Y-119954819D01*
X117785714Y-119954819D02*
X118166666Y-119954819D01*
X118166666Y-119954819D02*
X118261904Y-120002438D01*
X118261904Y-120002438D02*
X118309523Y-120050057D01*
X118309523Y-120050057D02*
X118357142Y-120145295D01*
X118357142Y-120145295D02*
X118357142Y-120288152D01*
X118357142Y-120288152D02*
X118309523Y-120383390D01*
X118309523Y-120383390D02*
X118261904Y-120431009D01*
X118261904Y-120431009D02*
X118166666Y-120478628D01*
X118166666Y-120478628D02*
X117785714Y-120478628D01*
X119309523Y-120954819D02*
X118738095Y-120954819D01*
X119023809Y-120954819D02*
X119023809Y-119954819D01*
X119023809Y-119954819D02*
X118928571Y-120097676D01*
X118928571Y-120097676D02*
X118833333Y-120192914D01*
X118833333Y-120192914D02*
X118738095Y-120240533D01*
X119880952Y-120383390D02*
X119785714Y-120335771D01*
X119785714Y-120335771D02*
X119738095Y-120288152D01*
X119738095Y-120288152D02*
X119690476Y-120192914D01*
X119690476Y-120192914D02*
X119690476Y-120145295D01*
X119690476Y-120145295D02*
X119738095Y-120050057D01*
X119738095Y-120050057D02*
X119785714Y-120002438D01*
X119785714Y-120002438D02*
X119880952Y-119954819D01*
X119880952Y-119954819D02*
X120071428Y-119954819D01*
X120071428Y-119954819D02*
X120166666Y-120002438D01*
X120166666Y-120002438D02*
X120214285Y-120050057D01*
X120214285Y-120050057D02*
X120261904Y-120145295D01*
X120261904Y-120145295D02*
X120261904Y-120192914D01*
X120261904Y-120192914D02*
X120214285Y-120288152D01*
X120214285Y-120288152D02*
X120166666Y-120335771D01*
X120166666Y-120335771D02*
X120071428Y-120383390D01*
X120071428Y-120383390D02*
X119880952Y-120383390D01*
X119880952Y-120383390D02*
X119785714Y-120431009D01*
X119785714Y-120431009D02*
X119738095Y-120478628D01*
X119738095Y-120478628D02*
X119690476Y-120573866D01*
X119690476Y-120573866D02*
X119690476Y-120764342D01*
X119690476Y-120764342D02*
X119738095Y-120859580D01*
X119738095Y-120859580D02*
X119785714Y-120907200D01*
X119785714Y-120907200D02*
X119880952Y-120954819D01*
X119880952Y-120954819D02*
X120071428Y-120954819D01*
X120071428Y-120954819D02*
X120166666Y-120907200D01*
X120166666Y-120907200D02*
X120214285Y-120859580D01*
X120214285Y-120859580D02*
X120261904Y-120764342D01*
X120261904Y-120764342D02*
X120261904Y-120573866D01*
X120261904Y-120573866D02*
X120214285Y-120478628D01*
X120214285Y-120478628D02*
X120166666Y-120431009D01*
X120166666Y-120431009D02*
X120071428Y-120383390D01*
X181357142Y-118024819D02*
X181023809Y-117548628D01*
X180785714Y-118024819D02*
X180785714Y-117024819D01*
X180785714Y-117024819D02*
X181166666Y-117024819D01*
X181166666Y-117024819D02*
X181261904Y-117072438D01*
X181261904Y-117072438D02*
X181309523Y-117120057D01*
X181309523Y-117120057D02*
X181357142Y-117215295D01*
X181357142Y-117215295D02*
X181357142Y-117358152D01*
X181357142Y-117358152D02*
X181309523Y-117453390D01*
X181309523Y-117453390D02*
X181261904Y-117501009D01*
X181261904Y-117501009D02*
X181166666Y-117548628D01*
X181166666Y-117548628D02*
X180785714Y-117548628D01*
X181738095Y-117120057D02*
X181785714Y-117072438D01*
X181785714Y-117072438D02*
X181880952Y-117024819D01*
X181880952Y-117024819D02*
X182119047Y-117024819D01*
X182119047Y-117024819D02*
X182214285Y-117072438D01*
X182214285Y-117072438D02*
X182261904Y-117120057D01*
X182261904Y-117120057D02*
X182309523Y-117215295D01*
X182309523Y-117215295D02*
X182309523Y-117310533D01*
X182309523Y-117310533D02*
X182261904Y-117453390D01*
X182261904Y-117453390D02*
X181690476Y-118024819D01*
X181690476Y-118024819D02*
X182309523Y-118024819D01*
X182642857Y-117024819D02*
X183261904Y-117024819D01*
X183261904Y-117024819D02*
X182928571Y-117405771D01*
X182928571Y-117405771D02*
X183071428Y-117405771D01*
X183071428Y-117405771D02*
X183166666Y-117453390D01*
X183166666Y-117453390D02*
X183214285Y-117501009D01*
X183214285Y-117501009D02*
X183261904Y-117596247D01*
X183261904Y-117596247D02*
X183261904Y-117834342D01*
X183261904Y-117834342D02*
X183214285Y-117929580D01*
X183214285Y-117929580D02*
X183166666Y-117977200D01*
X183166666Y-117977200D02*
X183071428Y-118024819D01*
X183071428Y-118024819D02*
X182785714Y-118024819D01*
X182785714Y-118024819D02*
X182690476Y-117977200D01*
X182690476Y-117977200D02*
X182642857Y-117929580D01*
X185107142Y-104359580D02*
X185059523Y-104407200D01*
X185059523Y-104407200D02*
X184916666Y-104454819D01*
X184916666Y-104454819D02*
X184821428Y-104454819D01*
X184821428Y-104454819D02*
X184678571Y-104407200D01*
X184678571Y-104407200D02*
X184583333Y-104311961D01*
X184583333Y-104311961D02*
X184535714Y-104216723D01*
X184535714Y-104216723D02*
X184488095Y-104026247D01*
X184488095Y-104026247D02*
X184488095Y-103883390D01*
X184488095Y-103883390D02*
X184535714Y-103692914D01*
X184535714Y-103692914D02*
X184583333Y-103597676D01*
X184583333Y-103597676D02*
X184678571Y-103502438D01*
X184678571Y-103502438D02*
X184821428Y-103454819D01*
X184821428Y-103454819D02*
X184916666Y-103454819D01*
X184916666Y-103454819D02*
X185059523Y-103502438D01*
X185059523Y-103502438D02*
X185107142Y-103550057D01*
X185440476Y-103454819D02*
X186059523Y-103454819D01*
X186059523Y-103454819D02*
X185726190Y-103835771D01*
X185726190Y-103835771D02*
X185869047Y-103835771D01*
X185869047Y-103835771D02*
X185964285Y-103883390D01*
X185964285Y-103883390D02*
X186011904Y-103931009D01*
X186011904Y-103931009D02*
X186059523Y-104026247D01*
X186059523Y-104026247D02*
X186059523Y-104264342D01*
X186059523Y-104264342D02*
X186011904Y-104359580D01*
X186011904Y-104359580D02*
X185964285Y-104407200D01*
X185964285Y-104407200D02*
X185869047Y-104454819D01*
X185869047Y-104454819D02*
X185583333Y-104454819D01*
X185583333Y-104454819D02*
X185488095Y-104407200D01*
X185488095Y-104407200D02*
X185440476Y-104359580D01*
X186440476Y-103550057D02*
X186488095Y-103502438D01*
X186488095Y-103502438D02*
X186583333Y-103454819D01*
X186583333Y-103454819D02*
X186821428Y-103454819D01*
X186821428Y-103454819D02*
X186916666Y-103502438D01*
X186916666Y-103502438D02*
X186964285Y-103550057D01*
X186964285Y-103550057D02*
X187011904Y-103645295D01*
X187011904Y-103645295D02*
X187011904Y-103740533D01*
X187011904Y-103740533D02*
X186964285Y-103883390D01*
X186964285Y-103883390D02*
X186392857Y-104454819D01*
X186392857Y-104454819D02*
X187011904Y-104454819D01*
X162583333Y-96454819D02*
X162250000Y-95978628D01*
X162011905Y-96454819D02*
X162011905Y-95454819D01*
X162011905Y-95454819D02*
X162392857Y-95454819D01*
X162392857Y-95454819D02*
X162488095Y-95502438D01*
X162488095Y-95502438D02*
X162535714Y-95550057D01*
X162535714Y-95550057D02*
X162583333Y-95645295D01*
X162583333Y-95645295D02*
X162583333Y-95788152D01*
X162583333Y-95788152D02*
X162535714Y-95883390D01*
X162535714Y-95883390D02*
X162488095Y-95931009D01*
X162488095Y-95931009D02*
X162392857Y-95978628D01*
X162392857Y-95978628D02*
X162011905Y-95978628D01*
X163488095Y-95454819D02*
X163011905Y-95454819D01*
X163011905Y-95454819D02*
X162964286Y-95931009D01*
X162964286Y-95931009D02*
X163011905Y-95883390D01*
X163011905Y-95883390D02*
X163107143Y-95835771D01*
X163107143Y-95835771D02*
X163345238Y-95835771D01*
X163345238Y-95835771D02*
X163440476Y-95883390D01*
X163440476Y-95883390D02*
X163488095Y-95931009D01*
X163488095Y-95931009D02*
X163535714Y-96026247D01*
X163535714Y-96026247D02*
X163535714Y-96264342D01*
X163535714Y-96264342D02*
X163488095Y-96359580D01*
X163488095Y-96359580D02*
X163440476Y-96407200D01*
X163440476Y-96407200D02*
X163345238Y-96454819D01*
X163345238Y-96454819D02*
X163107143Y-96454819D01*
X163107143Y-96454819D02*
X163011905Y-96407200D01*
X163011905Y-96407200D02*
X162964286Y-96359580D01*
X186289580Y-120142857D02*
X186337200Y-120190476D01*
X186337200Y-120190476D02*
X186384819Y-120333333D01*
X186384819Y-120333333D02*
X186384819Y-120428571D01*
X186384819Y-120428571D02*
X186337200Y-120571428D01*
X186337200Y-120571428D02*
X186241961Y-120666666D01*
X186241961Y-120666666D02*
X186146723Y-120714285D01*
X186146723Y-120714285D02*
X185956247Y-120761904D01*
X185956247Y-120761904D02*
X185813390Y-120761904D01*
X185813390Y-120761904D02*
X185622914Y-120714285D01*
X185622914Y-120714285D02*
X185527676Y-120666666D01*
X185527676Y-120666666D02*
X185432438Y-120571428D01*
X185432438Y-120571428D02*
X185384819Y-120428571D01*
X185384819Y-120428571D02*
X185384819Y-120333333D01*
X185384819Y-120333333D02*
X185432438Y-120190476D01*
X185432438Y-120190476D02*
X185480057Y-120142857D01*
X185480057Y-119761904D02*
X185432438Y-119714285D01*
X185432438Y-119714285D02*
X185384819Y-119619047D01*
X185384819Y-119619047D02*
X185384819Y-119380952D01*
X185384819Y-119380952D02*
X185432438Y-119285714D01*
X185432438Y-119285714D02*
X185480057Y-119238095D01*
X185480057Y-119238095D02*
X185575295Y-119190476D01*
X185575295Y-119190476D02*
X185670533Y-119190476D01*
X185670533Y-119190476D02*
X185813390Y-119238095D01*
X185813390Y-119238095D02*
X186384819Y-119809523D01*
X186384819Y-119809523D02*
X186384819Y-119190476D01*
X185384819Y-118285714D02*
X185384819Y-118761904D01*
X185384819Y-118761904D02*
X185861009Y-118809523D01*
X185861009Y-118809523D02*
X185813390Y-118761904D01*
X185813390Y-118761904D02*
X185765771Y-118666666D01*
X185765771Y-118666666D02*
X185765771Y-118428571D01*
X185765771Y-118428571D02*
X185813390Y-118333333D01*
X185813390Y-118333333D02*
X185861009Y-118285714D01*
X185861009Y-118285714D02*
X185956247Y-118238095D01*
X185956247Y-118238095D02*
X186194342Y-118238095D01*
X186194342Y-118238095D02*
X186289580Y-118285714D01*
X186289580Y-118285714D02*
X186337200Y-118333333D01*
X186337200Y-118333333D02*
X186384819Y-118428571D01*
X186384819Y-118428571D02*
X186384819Y-118666666D01*
X186384819Y-118666666D02*
X186337200Y-118761904D01*
X186337200Y-118761904D02*
X186289580Y-118809523D01*
%TO.C,R3*%
D13*
X151227500Y-114987258D02*
X151227500Y-114512742D01*
X152272500Y-114987258D02*
X152272500Y-114512742D01*
%TO.C,SW2*%
X123000000Y-78375000D02*
X119500000Y-78375000D01*
X123000000Y-78375000D02*
X123000000Y-78335000D01*
X123800000Y-78335000D02*
X123000000Y-78335000D01*
%TO.C,R39*%
X180512742Y-95977500D02*
X180987258Y-95977500D01*
X180512742Y-97022500D02*
X180987258Y-97022500D01*
%TO.C,C19*%
X125134420Y-113490000D02*
X125415580Y-113490000D01*
X125134420Y-114510000D02*
X125415580Y-114510000D01*
%TO.C,U3*%
X136190000Y-109840000D02*
X136240000Y-109840000D01*
X136190000Y-111660000D02*
X136190000Y-109840000D01*
X136240000Y-111660000D02*
X136190000Y-111660000D01*
X138140000Y-111660000D02*
X137360000Y-111660000D01*
X139260000Y-109840000D02*
X139310000Y-109840000D01*
X139310000Y-109840000D02*
X139310000Y-111660000D01*
X139310000Y-111660000D02*
X139260000Y-111660000D01*
X139260000Y-109300000D02*
X139590000Y-109060000D01*
X139590000Y-109540000D01*
X139260000Y-109300000D01*
G36*
X139590000Y-109540000D02*
G01*
X139260000Y-109300000D01*
X139590000Y-109060000D01*
X139590000Y-109540000D01*
G37*
%TO.C,R9*%
X136227500Y-86512742D02*
X136227500Y-86987258D01*
X137272500Y-86512742D02*
X137272500Y-86987258D01*
%TO.C,C12*%
X169990000Y-99140580D02*
X169990000Y-98859420D01*
X171010000Y-99140580D02*
X171010000Y-98859420D01*
%TO.C,R33*%
X155477500Y-103762742D02*
X155477500Y-104237258D01*
X156522500Y-103762742D02*
X156522500Y-104237258D01*
%TO.C,R17*%
X119762742Y-111477500D02*
X120237258Y-111477500D01*
X119762742Y-112522500D02*
X120237258Y-112522500D01*
%TO.C,R1*%
X134727500Y-107762742D02*
X134727500Y-108237258D01*
X135772500Y-107762742D02*
X135772500Y-108237258D01*
%TO.C,C5*%
X137890580Y-107240000D02*
X137609420Y-107240000D01*
X137890580Y-108260000D02*
X137609420Y-108260000D01*
%TO.C,R25*%
X179762742Y-81977500D02*
X180237258Y-81977500D01*
X179762742Y-83022500D02*
X180237258Y-83022500D01*
%TO.C,U9*%
X178390000Y-113390000D02*
X181610000Y-113390000D01*
X178390000Y-113515000D02*
X178390000Y-113390000D01*
X178390000Y-116610000D02*
X178390000Y-116485000D01*
X181610000Y-113390000D02*
X181610000Y-113515000D01*
X181610000Y-116485000D02*
X181610000Y-116610000D01*
X181610000Y-116610000D02*
X178390000Y-116610000D01*
X177840000Y-113510000D02*
X177600000Y-113180000D01*
X178080000Y-113180000D01*
X177840000Y-113510000D01*
G36*
X177840000Y-113510000D02*
G01*
X177600000Y-113180000D01*
X178080000Y-113180000D01*
X177840000Y-113510000D01*
G37*
%TO.C,U1*%
X172890000Y-98390000D02*
X176110000Y-98390000D01*
X172890000Y-98590000D02*
X172890000Y-98390000D01*
X172890000Y-101610000D02*
X172890000Y-101410000D01*
X176110000Y-98390000D02*
X176110000Y-98590000D01*
X176110000Y-101410000D02*
X176110000Y-101610000D01*
X176110000Y-101610000D02*
X172890000Y-101610000D01*
X176660000Y-101410000D02*
X176900000Y-101740000D01*
X176420000Y-101740000D01*
X176660000Y-101410000D01*
G36*
X176900000Y-101740000D02*
G01*
X176420000Y-101740000D01*
X176660000Y-101410000D01*
X176900000Y-101740000D01*
G37*
%TO.C,R21*%
X179762742Y-111477500D02*
X180237258Y-111477500D01*
X179762742Y-112522500D02*
X180237258Y-112522500D01*
%TO.C,C28*%
X181879420Y-90050000D02*
X182160580Y-90050000D01*
X181879420Y-91070000D02*
X182160580Y-91070000D01*
%TO.C,U4*%
X148690000Y-109090000D02*
X148740000Y-109090000D01*
X148690000Y-110910000D02*
X148690000Y-109090000D01*
X148740000Y-110910000D02*
X148690000Y-110910000D01*
X151760000Y-109090000D02*
X151810000Y-109090000D01*
X151810000Y-109090000D02*
X151810000Y-110910000D01*
X151810000Y-110910000D02*
X151760000Y-110910000D01*
X151760000Y-108550000D02*
X152090000Y-108310000D01*
X152090000Y-108790000D01*
X151760000Y-108550000D01*
G36*
X152090000Y-108790000D02*
G01*
X151760000Y-108550000D01*
X152090000Y-108310000D01*
X152090000Y-108790000D01*
G37*
%TO.C,R27*%
X181782742Y-88537500D02*
X182257258Y-88537500D01*
X181782742Y-89582500D02*
X182257258Y-89582500D01*
%TO.C,R15*%
X121762742Y-88477500D02*
X122237258Y-88477500D01*
X121762742Y-89522500D02*
X122237258Y-89522500D01*
%TO.C,R26*%
X178782742Y-88537500D02*
X179257258Y-88537500D01*
X178782742Y-89582500D02*
X179257258Y-89582500D01*
%TO.C,U2*%
X140800000Y-75360000D02*
X140800000Y-81560000D01*
X140800000Y-75360000D02*
X159200000Y-75360000D01*
X140800000Y-100210000D02*
X140800000Y-101210000D01*
X140800000Y-101210000D02*
X142300000Y-101210000D01*
X159200000Y-75360000D02*
X159200000Y-81560000D01*
X159200000Y-101210000D02*
X157700000Y-101210000D01*
X159200000Y-101210000D02*
X159200000Y-100210000D01*
X140800000Y-82235000D02*
X140300000Y-82235000D01*
X140800000Y-81735000D01*
X140800000Y-82235000D01*
G36*
X140800000Y-82235000D02*
G01*
X140300000Y-82235000D01*
X140800000Y-81735000D01*
X140800000Y-82235000D01*
G37*
%TO.C,D3*%
X130329605Y-122515000D02*
X130329605Y-123985000D01*
X130329605Y-123985000D02*
X132614605Y-123985000D01*
X132614605Y-122515000D02*
X130329605Y-122515000D01*
%TO.C,R4*%
X169012742Y-95477500D02*
X169487258Y-95477500D01*
X169012742Y-96522500D02*
X169487258Y-96522500D01*
%TO.C,C6*%
X137890580Y-114740000D02*
X137609420Y-114740000D01*
X137890580Y-115760000D02*
X137609420Y-115760000D01*
%TO.C,U7*%
X123890000Y-98390000D02*
X127110000Y-98390000D01*
X123890000Y-98590000D02*
X123890000Y-98390000D01*
X123890000Y-101610000D02*
X123890000Y-101410000D01*
X127110000Y-98390000D02*
X127110000Y-98590000D01*
X127110000Y-101410000D02*
X127110000Y-101610000D01*
X127110000Y-101610000D02*
X123890000Y-101610000D01*
X123340000Y-98590000D02*
X123100000Y-98260000D01*
X123580000Y-98260000D01*
X123340000Y-98590000D01*
G36*
X123340000Y-98590000D02*
G01*
X123100000Y-98260000D01*
X123580000Y-98260000D01*
X123340000Y-98590000D01*
G37*
%TO.C,R13*%
X119762742Y-81977500D02*
X120237258Y-81977500D01*
X119762742Y-83022500D02*
X120237258Y-83022500D01*
%TO.C,C2*%
X137890580Y-113240000D02*
X137609420Y-113240000D01*
X137890580Y-114260000D02*
X137609420Y-114260000D01*
%TO.C,C33*%
X113859420Y-101990000D02*
X114140580Y-101990000D01*
X113859420Y-103010000D02*
X114140580Y-103010000D01*
%TO.C,U10*%
X178390000Y-83390000D02*
X181610000Y-83390000D01*
X178390000Y-83515000D02*
X178390000Y-83390000D01*
X178390000Y-86610000D02*
X178390000Y-86485000D01*
X181610000Y-83390000D02*
X181610000Y-83515000D01*
X181610000Y-86485000D02*
X181610000Y-86610000D01*
X181610000Y-86610000D02*
X178390000Y-86610000D01*
X177840000Y-83510000D02*
X177600000Y-83180000D01*
X178080000Y-83180000D01*
X177840000Y-83510000D01*
G36*
X177840000Y-83510000D02*
G01*
X177600000Y-83180000D01*
X178080000Y-83180000D01*
X177840000Y-83510000D01*
G37*
%TO.C,D2*%
X138440000Y-124005000D02*
X140725000Y-124005000D01*
X140725000Y-122535000D02*
X138440000Y-122535000D01*
X140725000Y-124005000D02*
X140725000Y-122535000D01*
%TO.C,C1*%
X137890580Y-105740000D02*
X137609420Y-105740000D01*
X137890580Y-106760000D02*
X137609420Y-106760000D01*
%TO.C,C17*%
X123990000Y-89359420D02*
X123990000Y-89640580D01*
X125010000Y-89359420D02*
X125010000Y-89640580D01*
%TO.C,C22*%
X184859420Y-111990000D02*
X185140580Y-111990000D01*
X184859420Y-113010000D02*
X185140580Y-113010000D01*
%TO.C,J7*%
X164650000Y-88400000D02*
X164650000Y-93600000D01*
X164650000Y-88400000D02*
X167250000Y-88400000D01*
X164650000Y-93600000D02*
X169850000Y-93600000D01*
X167250000Y-88400000D02*
X167250000Y-91000000D01*
X167250000Y-91000000D02*
X169850000Y-91000000D01*
X168520000Y-88400000D02*
X169850000Y-88400000D01*
X169850000Y-88400000D02*
X169850000Y-89730000D01*
X169850000Y-91000000D02*
X169850000Y-93600000D01*
%TO.C,C27*%
X184879420Y-83550000D02*
X185160580Y-83550000D01*
X184879420Y-84570000D02*
X185160580Y-84570000D01*
%TO.C,C18*%
X125134420Y-111990000D02*
X125415580Y-111990000D01*
X125134420Y-113010000D02*
X125415580Y-113010000D01*
%TO.C,C31*%
X189500000Y-100140580D02*
X189500000Y-99859420D01*
X190520000Y-100140580D02*
X190520000Y-99859420D01*
%TO.C,R11*%
X176012742Y-102227500D02*
X176487258Y-102227500D01*
X176012742Y-103272500D02*
X176487258Y-103272500D01*
%TO.C,C35*%
X117740000Y-100140580D02*
X117740000Y-99859420D01*
X118760000Y-100140580D02*
X118760000Y-99859420D01*
%TO.C,R16*%
X123977500Y-86262742D02*
X123977500Y-86737258D01*
X125022500Y-86262742D02*
X125022500Y-86737258D01*
%TO.C,C21*%
X123990000Y-119359420D02*
X123990000Y-119640580D01*
X125010000Y-119359420D02*
X125010000Y-119640580D01*
%TO.C,J5*%
X160450000Y-114827358D02*
X160450000Y-115140000D01*
X160450000Y-123900000D02*
X160450000Y-117900000D01*
X161310000Y-114827358D02*
X161310000Y-115140000D01*
X161310000Y-117900000D02*
X161310000Y-123900000D01*
X161310000Y-123900000D02*
X160450000Y-123900000D01*
X162150000Y-115140000D02*
X162150000Y-117900000D01*
X162990000Y-114827358D02*
X162990000Y-115140000D01*
X162990000Y-123900000D02*
X162990000Y-117900000D01*
X163850000Y-114827358D02*
X163850000Y-115140000D01*
X163850000Y-117900000D02*
X163850000Y-123900000D01*
X163850000Y-123900000D02*
X162990000Y-123900000D01*
X164690000Y-115140000D02*
X164690000Y-117900000D01*
X165530000Y-114827358D02*
X165530000Y-115140000D01*
X165530000Y-123900000D02*
X165530000Y-117900000D01*
X166390000Y-114827358D02*
X166390000Y-115140000D01*
X166390000Y-117900000D02*
X166390000Y-123900000D01*
X166390000Y-123900000D02*
X165530000Y-123900000D01*
X167230000Y-115140000D02*
X167230000Y-117900000D01*
X168070000Y-114910000D02*
X168070000Y-115140000D01*
X168500000Y-112480000D02*
X169770000Y-112480000D01*
X168930000Y-114910000D02*
X168930000Y-115140000D01*
X169770000Y-112480000D02*
X169770000Y-113750000D01*
X168070000Y-117900000D02*
X168930000Y-117900000D01*
X168930000Y-123900000D01*
X168070000Y-123900000D01*
X168070000Y-117900000D01*
G36*
X168070000Y-117900000D02*
G01*
X168930000Y-117900000D01*
X168930000Y-123900000D01*
X168070000Y-123900000D01*
X168070000Y-117900000D01*
G37*
X159500000Y-115140000D02*
X169880000Y-115140000D01*
X169880000Y-117900000D01*
X159500000Y-117900000D01*
X159500000Y-115140000D01*
%TO.C,C20*%
X121859420Y-119990000D02*
X122140580Y-119990000D01*
X121859420Y-121010000D02*
X122140580Y-121010000D01*
%TO.C,C9*%
X136240000Y-83890580D02*
X136240000Y-83609420D01*
X137260000Y-83890580D02*
X137260000Y-83609420D01*
%TO.C,U13*%
D14*
X112425903Y-98684607D02*
X112425903Y-98912025D01*
X112425903Y-101200389D02*
X112425903Y-101427807D01*
X112425903Y-101427807D02*
X113145918Y-101427807D01*
X113145918Y-98684607D02*
X112425903Y-98684607D01*
X114957088Y-101427807D02*
X115677103Y-101427807D01*
X115677103Y-98684607D02*
X114957088Y-98684607D01*
X115677103Y-98912025D02*
X115677103Y-98684607D01*
X115677103Y-101427807D02*
X115677103Y-101200389D01*
D15*
G36*
X115956503Y-99996708D02*
G01*
X115702503Y-99996708D01*
X115702503Y-99615707D01*
X115956503Y-99615707D01*
X115956503Y-99996708D01*
G37*
%TO.C,R10*%
D13*
X139487258Y-121227500D02*
X139012742Y-121227500D01*
X139487258Y-122272500D02*
X139012742Y-122272500D01*
%TO.C,R36*%
X126487258Y-94727500D02*
X126012742Y-94727500D01*
X126487258Y-95772500D02*
X126012742Y-95772500D01*
%TO.C,R6*%
X132051863Y-121227500D02*
X131577347Y-121227500D01*
X132051863Y-122272500D02*
X131577347Y-122272500D01*
%TO.C,U6*%
X118390000Y-83390000D02*
X121610000Y-83390000D01*
X118390000Y-83515000D02*
X118390000Y-83390000D01*
X118390000Y-86610000D02*
X118390000Y-86485000D01*
X121610000Y-83390000D02*
X121610000Y-83515000D01*
X121610000Y-86485000D02*
X121610000Y-86610000D01*
X121610000Y-86610000D02*
X118390000Y-86610000D01*
X117840000Y-83510000D02*
X117600000Y-83180000D01*
X118080000Y-83180000D01*
X117840000Y-83510000D01*
G36*
X117840000Y-83510000D02*
G01*
X117600000Y-83180000D01*
X118080000Y-83180000D01*
X117840000Y-83510000D01*
G37*
%TO.C,D1*%
X141390000Y-109900000D02*
X141390000Y-111600000D01*
X141390000Y-109900000D02*
X144050000Y-109900000D01*
X141390000Y-111600000D02*
X144050000Y-111600000D01*
%TO.C,C26*%
X184879420Y-82050000D02*
X185160580Y-82050000D01*
X184879420Y-83070000D02*
X185160580Y-83070000D01*
%TO.C,C30*%
X187990000Y-100140580D02*
X187990000Y-99859420D01*
X189010000Y-100140580D02*
X189010000Y-99859420D01*
%TO.C,C29*%
X184010000Y-89419420D02*
X184010000Y-89700580D01*
X185030000Y-89419420D02*
X185030000Y-89700580D01*
%TO.C,R2*%
X148227500Y-114987258D02*
X148227500Y-114512742D01*
X149272500Y-114987258D02*
X149272500Y-114512742D01*
%TO.C,C23*%
X184859420Y-113490000D02*
X185140580Y-113490000D01*
X184859420Y-114510000D02*
X185140580Y-114510000D01*
%TO.C,C10*%
X137740000Y-83890580D02*
X137740000Y-83609420D01*
X138760000Y-83890580D02*
X138760000Y-83609420D01*
%TO.C,C14*%
X124859420Y-81990000D02*
X125140580Y-81990000D01*
X124859420Y-83010000D02*
X125140580Y-83010000D01*
%TO.C,C8*%
X124390000Y-76940580D02*
X124390000Y-76659420D01*
X125410000Y-76940580D02*
X125410000Y-76659420D01*
%TO.C,R24*%
X183977500Y-116262742D02*
X183977500Y-116737258D01*
X185022500Y-116262742D02*
X185022500Y-116737258D01*
%TO.C,SW1*%
X180450000Y-78370000D02*
X176950000Y-78370000D01*
X180450000Y-78370000D02*
X180450000Y-78330000D01*
X181250000Y-78330000D02*
X180450000Y-78330000D01*
%TO.C,C15*%
X124859420Y-83490000D02*
X125140580Y-83490000D01*
X124859420Y-84510000D02*
X125140580Y-84510000D01*
%TO.C,U8*%
X118390000Y-113390000D02*
X121610000Y-113390000D01*
X118390000Y-113515000D02*
X118390000Y-113390000D01*
X118390000Y-116610000D02*
X118390000Y-116485000D01*
X121610000Y-113390000D02*
X121610000Y-113515000D01*
X121610000Y-116485000D02*
X121610000Y-116610000D01*
X121610000Y-116610000D02*
X118390000Y-116610000D01*
X117840000Y-113510000D02*
X117600000Y-113180000D01*
X118080000Y-113180000D01*
X117840000Y-113510000D01*
G36*
X117840000Y-113510000D02*
G01*
X117600000Y-113180000D01*
X118080000Y-113180000D01*
X117840000Y-113510000D01*
G37*
%TO.C,C24*%
X181859420Y-119990000D02*
X182140580Y-119990000D01*
X181859420Y-121010000D02*
X182140580Y-121010000D01*
%TO.C,C44*%
X154109420Y-114740000D02*
X154390580Y-114740000D01*
X154109420Y-115760000D02*
X154390580Y-115760000D01*
%TO.C,R22*%
X178762742Y-118477500D02*
X179237258Y-118477500D01*
X178762742Y-119522500D02*
X179237258Y-119522500D01*
%TO.C,R12*%
X120977500Y-100237258D02*
X120977500Y-99762742D01*
X122022500Y-100237258D02*
X122022500Y-99762742D01*
%TO.C,C11*%
X137740000Y-86890580D02*
X137740000Y-86609420D01*
X138760000Y-86890580D02*
X138760000Y-86609420D01*
%TO.C,R28*%
X183997500Y-86322742D02*
X183997500Y-86797258D01*
X185042500Y-86322742D02*
X185042500Y-86797258D01*
%TO.C,R37*%
X126237258Y-104477500D02*
X125762742Y-104477500D01*
X126237258Y-105522500D02*
X125762742Y-105522500D01*
%TO.C,U12*%
D14*
X184269979Y-98626440D02*
X184269979Y-98853858D01*
X184269979Y-101142222D02*
X184269979Y-101369640D01*
X184269979Y-101369640D02*
X184989994Y-101369640D01*
X184989994Y-98626440D02*
X184269979Y-98626440D01*
X186801164Y-101369640D02*
X187521179Y-101369640D01*
X187521179Y-98626440D02*
X186801164Y-98626440D01*
X187521179Y-98853858D02*
X187521179Y-98626440D01*
X187521179Y-101369640D02*
X187521179Y-101142222D01*
D15*
G36*
X187800579Y-99938541D02*
G01*
X187546579Y-99938541D01*
X187546579Y-99557540D01*
X187800579Y-99557540D01*
X187800579Y-99938541D01*
G37*
%TO.C,C16*%
D13*
X121859420Y-89980000D02*
X122140580Y-89980000D01*
X121859420Y-91000000D02*
X122140580Y-91000000D01*
%TO.C,R38*%
X183762742Y-107727500D02*
X184237258Y-107727500D01*
X183762742Y-108772500D02*
X184237258Y-108772500D01*
%TO.C,C34*%
X116240000Y-100140580D02*
X116240000Y-99859420D01*
X117260000Y-100140580D02*
X117260000Y-99859420D01*
%TO.C,R19*%
X121762742Y-118477500D02*
X122237258Y-118477500D01*
X121762742Y-119522500D02*
X122237258Y-119522500D01*
%TO.C,J6*%
X145330000Y-121075111D02*
X145330000Y-119375111D01*
X154670000Y-121075111D02*
X154670000Y-119375111D01*
%TO.C,C13*%
X129552500Y-101159420D02*
X129552500Y-101440580D01*
X130572500Y-101159420D02*
X130572500Y-101440580D01*
%TO.C,C7*%
X174590000Y-76965580D02*
X174590000Y-76684420D01*
X175610000Y-76965580D02*
X175610000Y-76684420D01*
%TO.C,C43*%
X146390580Y-114740000D02*
X146109420Y-114740000D01*
X146390580Y-115760000D02*
X146109420Y-115760000D01*
%TO.C,R32*%
X153977500Y-103762742D02*
X153977500Y-104237258D01*
X155022500Y-103762742D02*
X155022500Y-104237258D01*
%TO.C,R14*%
X118762742Y-88467500D02*
X119237258Y-88467500D01*
X118762742Y-89512500D02*
X119237258Y-89512500D01*
%TO.C,R20*%
X123977500Y-116262742D02*
X123977500Y-116737258D01*
X125022500Y-116262742D02*
X125022500Y-116737258D01*
%TO.C,R18*%
X118762742Y-118477500D02*
X119237258Y-118477500D01*
X118762742Y-119522500D02*
X119237258Y-119522500D01*
%TO.C,R23*%
X181762742Y-118477500D02*
X182237258Y-118477500D01*
X181762742Y-119522500D02*
X182237258Y-119522500D01*
%TO.C,C32*%
X185609420Y-101990000D02*
X185890580Y-101990000D01*
X185609420Y-103010000D02*
X185890580Y-103010000D01*
%TO.C,R5*%
X165487258Y-95477500D02*
X165012742Y-95477500D01*
X165487258Y-96522500D02*
X165012742Y-96522500D01*
%TO.C,C25*%
X183990000Y-119359420D02*
X183990000Y-119640580D01*
X185010000Y-119359420D02*
X185010000Y-119640580D01*
%TD*%
M02*
