%TF.GenerationSoftware,KiCad,Pcbnew,10.0.4*%
%TF.CreationDate,2026-06-22T23:07:52-07:00*%
%TF.ProjectId,Capstone,43617073-746f-46e6-952e-6b696361645f,rev?*%
%TF.SameCoordinates,Original*%
%TF.FileFunction,Copper,L4,Bot*%
%TF.FilePolarity,Positive*%
%FSLAX46Y46*%
G04 Gerber Fmt 4.6, Leading zero omitted, Abs format (unit mm)*
G04 Created by KiCad (PCBNEW 10.0.4) date 2026-06-22 23:07:52*
%MOMM*%
%LPD*%
G01*
G04 APERTURE LIST*
%TA.AperFunction,ComponentPad*%
%ADD10C,5.600000*%
%TD*%
%TA.AperFunction,HeatsinkPad*%
%ADD11C,0.600000*%
%TD*%
%TA.AperFunction,ComponentPad*%
%ADD12R,1.700000X1.700000*%
%TD*%
%TA.AperFunction,ComponentPad*%
%ADD13C,1.700000*%
%TD*%
%TA.AperFunction,ComponentPad*%
%ADD14O,1.000000X2.100000*%
%TD*%
%TA.AperFunction,ComponentPad*%
%ADD15O,1.000000X1.800000*%
%TD*%
%TA.AperFunction,SMDPad,CuDef*%
%ADD16R,0.300000X0.500000*%
%TD*%
%TA.AperFunction,SMDPad,CuDef*%
%ADD17R,0.600000X0.600000*%
%TD*%
%TA.AperFunction,ViaPad*%
%ADD18C,0.600000*%
%TD*%
%TA.AperFunction,Conductor*%
%ADD19C,0.200000*%
%TD*%
G04 APERTURE END LIST*
D10*
%TO.P,J4,1,Pin_1_1*%
%TO.N,GND*%
X190000000Y-120000000D03*
%TD*%
D11*
%TO.P,U2,41,GND_41*%
%TO.N,GND*%
X147100000Y-90020000D03*
X147100000Y-91420000D03*
X147800000Y-89320000D03*
X147800000Y-90720000D03*
X147800000Y-92120000D03*
X148500000Y-90020000D03*
X148500000Y-91420000D03*
X149200000Y-89320000D03*
X149200000Y-90720000D03*
X149200000Y-92120000D03*
X149900000Y-90020000D03*
X149900000Y-91420000D03*
%TD*%
D10*
%TO.P,J2,1,Pin_1_1*%
%TO.N,GND*%
X110000000Y-120000000D03*
%TD*%
D12*
%TO.P,J7,1,Pin_1_1*%
%TO.N,GND*%
X168520000Y-89730000D03*
D13*
%TO.P,J7,2,Pin_2_2*%
%TO.N,VCC_3V3*%
X165980000Y-89730000D03*
%TO.P,J7,3,Pin_3_3*%
%TO.N,/EXT_BTN*%
X168520000Y-92270000D03*
%TO.P,J7,4,Pin_4_4*%
%TO.N,Net-(J7-Pin_4)*%
X165980000Y-92270000D03*
%TD*%
D12*
%TO.P,J5,1,Pin_1_1*%
%TO.N,GND*%
X168500000Y-113750000D03*
D13*
%TO.P,J5,2,Pin_2_2*%
%TO.N,/TXD0*%
X165960000Y-113750000D03*
%TO.P,J5,3,Pin_3_3*%
%TO.N,/RXD0*%
X163420000Y-113750000D03*
%TO.P,J5,4,Pin_4_4*%
%TO.N,VCC_3V3*%
X160880000Y-113750000D03*
%TD*%
D10*
%TO.P,J3,1,Pin_1_1*%
%TO.N,GND*%
X190000000Y-80000000D03*
%TD*%
%TO.P,J1,1,Pin_1_1*%
%TO.N,GND*%
X110000000Y-80000000D03*
%TD*%
D14*
%TO.P,J6,SH,SHIELD_SH*%
%TO.N,GND*%
X145680000Y-118070111D03*
D15*
X145680000Y-122250111D03*
D14*
X154320000Y-118070111D03*
D15*
X154320000Y-122250111D03*
%TD*%
D16*
%TO.P,IC1,1,VDD_1*%
%TO.N,VCC_3V3*%
X120600000Y-84300000D03*
%TO.P,IC1,2,V2_2*%
%TO.N,/F0_N*%
X119400000Y-84300000D03*
%TO.P,IC1,3,GND_1_3*%
%TO.N,GND*%
X119400000Y-85700000D03*
%TO.P,IC1,4,V1_4*%
%TO.N,/F0_P*%
X120600000Y-85700000D03*
D17*
%TO.P,IC1,5,GND_2_5*%
%TO.N,GND*%
X120000000Y-85000000D03*
%TD*%
D16*
%TO.P,IC3,1,VDD_1*%
%TO.N,VCC_3V3*%
X180600000Y-114300000D03*
%TO.P,IC3,2,V2_2*%
%TO.N,/F2_N*%
X179400000Y-114300000D03*
%TO.P,IC3,3,GND_1_3*%
%TO.N,GND*%
X179400000Y-115700000D03*
%TO.P,IC3,4,V1_4*%
%TO.N,/F2_P*%
X180600000Y-115700000D03*
D17*
%TO.P,IC3,5,GND_2_5*%
%TO.N,GND*%
X180000000Y-115000000D03*
%TD*%
D16*
%TO.P,IC2,1,VDD_1*%
%TO.N,VCC_3V3*%
X120600000Y-114300000D03*
%TO.P,IC2,2,V2_2*%
%TO.N,/F1_N*%
X119400000Y-114300000D03*
%TO.P,IC2,3,GND_1_3*%
%TO.N,GND*%
X119400000Y-115700000D03*
%TO.P,IC2,4,V1_4*%
%TO.N,/F1_P*%
X120600000Y-115700000D03*
D17*
%TO.P,IC2,5,GND_2_5*%
%TO.N,GND*%
X120000000Y-115000000D03*
%TD*%
D16*
%TO.P,IC4,1,VDD_1*%
%TO.N,VCC_3V3*%
X180600000Y-84300000D03*
%TO.P,IC4,2,V2_2*%
%TO.N,/F3_N*%
X179400000Y-84300000D03*
%TO.P,IC4,3,GND_1_3*%
%TO.N,GND*%
X179400000Y-85700000D03*
%TO.P,IC4,4,V1_4*%
%TO.N,/F3_P*%
X180600000Y-85700000D03*
D17*
%TO.P,IC4,5,GND_2_5*%
%TO.N,GND*%
X180000000Y-85000000D03*
%TD*%
D18*
%TO.N,GND*%
X144500000Y-115250000D03*
X136975000Y-116225000D03*
X126000000Y-111250000D03*
X137750000Y-100250000D03*
X121250000Y-77545000D03*
X148250000Y-112750000D03*
X191000000Y-99250000D03*
X187500000Y-102500000D03*
X160750000Y-92000000D03*
X185750000Y-111250000D03*
X116500000Y-86000000D03*
X132250000Y-98000000D03*
X184500000Y-121750000D03*
X152250000Y-112750000D03*
X124500000Y-121750000D03*
X142000000Y-104000000D03*
X129087500Y-102075000D03*
X174875000Y-78875000D03*
X141000000Y-123250000D03*
X172000000Y-98000000D03*
X150250000Y-107500000D03*
X180500000Y-79250000D03*
X176275000Y-85975000D03*
X125000000Y-81250000D03*
X139200000Y-85700000D03*
X128000000Y-123250000D03*
X156000000Y-115250000D03*
X173750000Y-99250000D03*
X170250000Y-94500000D03*
X119225000Y-99225000D03*
X116500000Y-116000000D03*
X137750000Y-95750000D03*
X124750000Y-99500000D03*
X126500000Y-100750000D03*
X115750000Y-102500000D03*
X184520000Y-91730000D03*
X124500000Y-91500000D03*
X175500000Y-100000000D03*
X176500000Y-116000000D03*
X137000000Y-105250000D03*
X137750000Y-111000000D03*
%TO.N,/EN*%
X121250000Y-76105000D03*
%TO.N,VCC_3V3*%
X121500000Y-102000000D03*
X119250000Y-100750000D03*
X117250000Y-119000000D03*
X177000000Y-89000000D03*
X141000000Y-121750000D03*
X182500000Y-82500000D03*
X122500000Y-82500000D03*
X139500000Y-84270000D03*
X122750000Y-112500000D03*
X138525000Y-116225000D03*
X169600000Y-100600000D03*
X177000000Y-119000000D03*
X154500000Y-107000000D03*
X191000000Y-100750000D03*
X184000000Y-102500000D03*
X117260000Y-88990000D03*
X182500000Y-112500000D03*
X112250000Y-102500000D03*
X131075000Y-100525000D03*
X175500000Y-101000000D03*
X156000000Y-107000000D03*
%TO.N,/SDA*%
X167201471Y-104250000D03*
X159000000Y-104250000D03*
%TO.N,/F2_N*%
X180000000Y-113250000D03*
%TO.N,/F2_P*%
X180000000Y-116750000D03*
%TO.N,/SCL*%
X154500000Y-102000000D03*
X170374265Y-101974265D03*
%TO.N,/USB_D_P*%
X151500000Y-107250000D03*
X139260000Y-99510000D03*
%TO.N,/USB_D_N*%
X139260000Y-98240000D03*
X149000000Y-107250000D03*
%TO.N,VBUS*%
X151500000Y-119000000D03*
X150250000Y-112500000D03*
X145500000Y-111000000D03*
X147600000Y-116250000D03*
X152737500Y-115987500D03*
X148500000Y-118970162D03*
%TO.N,/CONTROLLER_SDO_IMU1*%
X113400000Y-98200000D03*
X139750000Y-89350000D03*
%TO.N,/CLK_IMU1*%
X139750000Y-90650000D03*
X114051503Y-97648497D03*
%TO.N,/CS_IMU1*%
X114700000Y-98200000D03*
X139700000Y-91900000D03*
%TO.N,/CONTROLLER_SDI_IMU1*%
X139760000Y-93160000D03*
X111906206Y-99306206D03*
%TO.N,/INT_IMU1*%
X111900000Y-100800000D03*
X139800000Y-94430000D03*
%TO.N,/STATUS_LED*%
X131000000Y-120750000D03*
X139250000Y-97000000D03*
%TO.N,/INT_IMU0*%
X145600000Y-104000000D03*
X183751959Y-100748041D03*
%TO.N,/CS_IMU0*%
X186600000Y-98200000D03*
X146900000Y-104000000D03*
%TO.N,/CONTROLLER_SDO_IMU0*%
X185200000Y-98200000D03*
X148095000Y-103995000D03*
%TO.N,/CLK_IMU0*%
X149400000Y-104000000D03*
X185895579Y-97804421D03*
%TO.N,/CONTROLLER_SDI_IMU0*%
X150700000Y-104000000D03*
X183700000Y-99300000D03*
%TO.N,/EXT_BTN*%
X153250000Y-102000000D03*
%TO.N,/IO0*%
X178750000Y-76100000D03*
X160250000Y-99500000D03*
%TO.N,/EXT_LED*%
X161000000Y-94500000D03*
X163000000Y-94500000D03*
%TO.N,/F3_N*%
X180000000Y-83250000D03*
%TO.N,/F3_P*%
X180000000Y-86750000D03*
%TO.N,/F0_N*%
X120000000Y-83500000D03*
%TO.N,/F0_P*%
X120000000Y-86500000D03*
%TO.N,/F1_N*%
X120000000Y-113500000D03*
%TO.N,/F1_P*%
X120000000Y-116750000D03*
%TD*%
%TO.N,GND*%
D19*
X180000000Y-85100000D02*
X179400000Y-85700000D01*
X180000000Y-85000000D02*
X180000000Y-85100000D01*
X116800000Y-85700000D02*
X116500000Y-86000000D01*
X176550000Y-85700000D02*
X176275000Y-85975000D01*
X116800000Y-115700000D02*
X116500000Y-116000000D01*
X120000000Y-85100000D02*
X119400000Y-85700000D01*
X180000000Y-115100000D02*
X179400000Y-115700000D01*
X179400000Y-85700000D02*
X176550000Y-85700000D01*
X120000000Y-85000000D02*
X120000000Y-85100000D01*
X180000000Y-115000000D02*
X180000000Y-115100000D01*
X119400000Y-85700000D02*
X116800000Y-85700000D01*
X119400000Y-115700000D02*
X116800000Y-115700000D01*
%TO.N,/EN*%
X125900000Y-80755000D02*
X125900000Y-81551422D01*
%TO.N,VCC_3V3*%
X120600000Y-84300000D02*
X120600000Y-83650000D01*
X120600000Y-83650000D02*
X121750000Y-82500000D01*
X180600000Y-113400000D02*
X180600000Y-114300000D01*
X120600000Y-114300000D02*
X120600000Y-113400000D01*
X121750000Y-82500000D02*
X122500000Y-82500000D01*
X182500000Y-112500000D02*
X181500000Y-112500000D01*
X180600000Y-83650000D02*
X180600000Y-84300000D01*
X121500000Y-112500000D02*
X122750000Y-112500000D01*
X120600000Y-113400000D02*
X121500000Y-112500000D01*
X181750000Y-82500000D02*
X180600000Y-83650000D01*
X181500000Y-112500000D02*
X180600000Y-113400000D01*
X182500000Y-82500000D02*
X181750000Y-82500000D01*
%TO.N,/SDA*%
X167201471Y-104250000D02*
X159000000Y-104250000D01*
%TO.N,/F2_N*%
X179400000Y-113850000D02*
X180000000Y-113250000D01*
X179400000Y-114300000D02*
X179400000Y-113850000D01*
%TO.N,/F2_P*%
X180600000Y-116150000D02*
X180000000Y-116750000D01*
X180600000Y-115700000D02*
X180600000Y-116150000D01*
%TO.N,/SCL*%
X170300000Y-102000000D02*
X154500000Y-102000000D01*
X170374265Y-101974265D02*
X170325735Y-101974265D01*
X170325735Y-101974265D02*
X170300000Y-102000000D01*
%TO.N,/USB_D_P*%
X151500000Y-107250000D02*
X150650000Y-108100000D01*
X147850000Y-108100000D02*
X139260000Y-99510000D01*
X150650000Y-108100000D02*
X147850000Y-108100000D01*
%TO.N,/USB_D_N*%
X139260000Y-98240000D02*
X139260000Y-98260000D01*
X143112661Y-102457564D02*
X143312870Y-102257352D01*
X144631828Y-104316142D02*
X147565686Y-107250000D01*
X140000000Y-99684314D02*
X142773249Y-102457563D01*
X139260000Y-98260000D02*
X140000000Y-99000000D01*
X143536923Y-103221238D02*
X143621777Y-103306091D01*
X144500840Y-103105851D02*
X144585692Y-103190703D01*
X144470305Y-104154619D02*
X144631828Y-104316142D01*
X143652282Y-102257353D02*
X143737134Y-102342205D01*
X147565686Y-107250000D02*
X149000000Y-107250000D01*
X144585692Y-103530115D02*
X144385450Y-103730354D01*
X144385451Y-104069766D02*
X144470305Y-104154619D01*
X143961189Y-103306092D02*
X144161428Y-103105850D01*
X143737134Y-102681617D02*
X143536922Y-102881826D01*
X140000000Y-99000000D02*
X140000000Y-99684314D01*
X144385450Y-103730354D02*
G75*
G03*
X144385410Y-104069806I169750J-169746D01*
G01*
X143621777Y-103306091D02*
G75*
G03*
X143961206Y-103306109I169723J169691D01*
G01*
X143737134Y-102342205D02*
G75*
G02*
X143737123Y-102681606I-169734J-169695D01*
G01*
X144585692Y-103190703D02*
G75*
G02*
X144585683Y-103530106I-169692J-169697D01*
G01*
X144161428Y-103105850D02*
G75*
G02*
X144500807Y-103105884I169672J-169750D01*
G01*
X143536922Y-102881826D02*
G75*
G03*
X143536954Y-103221206I169678J-169674D01*
G01*
X143312870Y-102257352D02*
G75*
G02*
X143652306Y-102257328I169730J-169748D01*
G01*
X142773249Y-102457563D02*
G75*
G03*
X143112706Y-102457609I169751J169663D01*
G01*
%TO.N,/CONTROLLER_SDO_IMU1*%
X113400000Y-97451471D02*
X113851471Y-97000000D01*
X122407260Y-92830000D02*
X136270000Y-92830000D01*
X118237260Y-97000000D02*
X122407260Y-92830000D01*
X113851471Y-97000000D02*
X118237260Y-97000000D01*
X113400000Y-98200000D02*
X113400000Y-97451471D01*
X136270000Y-92830000D02*
X139750000Y-89350000D01*
%TO.N,/CLK_IMU1*%
X137170000Y-93230000D02*
X139750000Y-90650000D01*
X118202942Y-97600000D02*
X122572945Y-93230000D01*
X122572945Y-93230000D02*
X137170000Y-93230000D01*
X114051503Y-97648497D02*
X114100000Y-97600000D01*
X114100000Y-97600000D02*
X118202942Y-97600000D01*
%TO.N,/CS_IMU1*%
X118118628Y-98250000D02*
X122738630Y-93630000D01*
X122738630Y-93630000D02*
X137970000Y-93630000D01*
X137970000Y-93630000D02*
X139700000Y-91900000D01*
X114700000Y-98200000D02*
X114750000Y-98250000D01*
X114750000Y-98250000D02*
X118118628Y-98250000D01*
%TO.N,/CONTROLLER_SDI_IMU1*%
X122904315Y-94030000D02*
X138890000Y-94030000D01*
X138890000Y-94030000D02*
X139760000Y-93160000D01*
X111906206Y-99306206D02*
X117628108Y-99306206D01*
X117628108Y-99306206D02*
X122904315Y-94030000D01*
%TO.N,/INT_IMU1*%
X139800000Y-94430000D02*
X123070000Y-94430000D01*
X123070000Y-94430000D02*
X116700000Y-100800000D01*
X116700000Y-100800000D02*
X111900000Y-100800000D01*
%TO.N,/STATUS_LED*%
X139250000Y-97000000D02*
X131000000Y-105250000D01*
X131000000Y-105250000D02*
X131000000Y-120750000D01*
%TO.N,/INT_IMU0*%
X147850000Y-106250000D02*
X145600000Y-104000000D01*
X178250000Y-106250000D02*
X147850000Y-106250000D01*
X183751959Y-100748041D02*
X178250000Y-106250000D01*
%TO.N,/CS_IMU0*%
X178000000Y-102750000D02*
X148150000Y-102750000D01*
X148150000Y-102750000D02*
X146900000Y-104000000D01*
X186139687Y-97200000D02*
X183550000Y-97200000D01*
X183550000Y-97200000D02*
X178000000Y-102750000D01*
X186600000Y-97660313D02*
X186139687Y-97200000D01*
X186600000Y-98200000D02*
X186600000Y-97660313D01*
%TO.N,/CONTROLLER_SDO_IMU0*%
X185200000Y-98200000D02*
X185200000Y-99050000D01*
X177250000Y-105750000D02*
X149850000Y-105750000D01*
X149850000Y-105750000D02*
X148095000Y-103995000D01*
X185200000Y-99050000D02*
X184250000Y-100000000D01*
X184250000Y-100000000D02*
X183000000Y-100000000D01*
X183000000Y-100000000D02*
X177250000Y-105750000D01*
%TO.N,/CLK_IMU0*%
X185691158Y-97600000D02*
X183900000Y-97600000D01*
X183900000Y-97600000D02*
X178250000Y-103250000D01*
X185895579Y-97804421D02*
X185691158Y-97600000D01*
X150150000Y-103250000D02*
X149400000Y-104000000D01*
X178250000Y-103250000D02*
X150150000Y-103250000D01*
%TO.N,/CONTROLLER_SDI_IMU0*%
X183700000Y-99300000D02*
X182950000Y-99300000D01*
X182950000Y-99300000D02*
X177000000Y-105250000D01*
X151950000Y-105250000D02*
X150700000Y-104000000D01*
X177000000Y-105250000D02*
X151950000Y-105250000D01*
%TO.N,/EXT_BTN*%
X168520000Y-92270000D02*
X159390000Y-101400000D01*
X159390000Y-101400000D02*
X153850000Y-101400000D01*
X153850000Y-101400000D02*
X153250000Y-102000000D01*
%TO.N,/IO0*%
X164250000Y-89500000D02*
X164250000Y-95500000D01*
X178750000Y-78250000D02*
X174500000Y-82500000D01*
X174500000Y-82500000D02*
X171250000Y-82500000D01*
X164250000Y-95500000D02*
X160250000Y-99500000D01*
X178750000Y-76100000D02*
X178750000Y-78250000D01*
X171250000Y-82500000D02*
X164250000Y-89500000D01*
%TO.N,/EXT_LED*%
X163000000Y-94500000D02*
X161000000Y-94500000D01*
%TO.N,/F3_N*%
X179400000Y-83850000D02*
X180000000Y-83250000D01*
X179400000Y-84300000D02*
X179400000Y-83850000D01*
%TO.N,/F3_P*%
X180600000Y-86150000D02*
X180000000Y-86750000D01*
X180600000Y-85700000D02*
X180600000Y-86150000D01*
%TO.N,/F0_N*%
X119400000Y-84300000D02*
X119400000Y-84100000D01*
X119400000Y-84100000D02*
X120000000Y-83500000D01*
%TO.N,/F0_P*%
X120600000Y-85900000D02*
X120000000Y-86500000D01*
X120600000Y-85700000D02*
X120600000Y-85900000D01*
%TO.N,/F1_N*%
X119400000Y-114300000D02*
X119400000Y-114100000D01*
X119400000Y-114100000D02*
X120000000Y-113500000D01*
%TO.N,/F1_P*%
X120600000Y-116150000D02*
X120000000Y-116750000D01*
X120600000Y-115700000D02*
X120600000Y-116150000D01*
%TD*%
%TA.AperFunction,Conductor*%
%TO.N,GND*%
G36*
X120843653Y-75520185D02*
G01*
X120889408Y-75572989D01*
X120899352Y-75642147D01*
X120870327Y-75705703D01*
X120864295Y-75712181D01*
X120809493Y-75766982D01*
X120809488Y-75766988D01*
X120737017Y-75892511D01*
X120737016Y-75892515D01*
X120699500Y-76032525D01*
X120699500Y-76177475D01*
X120737016Y-76317485D01*
X120737017Y-76317488D01*
X120809488Y-76443011D01*
X120809490Y-76443013D01*
X120809491Y-76443015D01*
X120911985Y-76545509D01*
X120911986Y-76545510D01*
X120911988Y-76545511D01*
X121037511Y-76617982D01*
X121037512Y-76617982D01*
X121037515Y-76617984D01*
X121177525Y-76655500D01*
X121177528Y-76655500D01*
X121322472Y-76655500D01*
X121322475Y-76655500D01*
X121462485Y-76617984D01*
X121588015Y-76545509D01*
X121690509Y-76443015D01*
X121762984Y-76317485D01*
X121800500Y-76177475D01*
X121800500Y-76032525D01*
X121762984Y-75892515D01*
X121760097Y-75887515D01*
X121690511Y-75766988D01*
X121690506Y-75766982D01*
X121635705Y-75712181D01*
X121602220Y-75650858D01*
X121607204Y-75581166D01*
X121649076Y-75525233D01*
X121714540Y-75500816D01*
X121723386Y-75500500D01*
X125876000Y-75500500D01*
X125943039Y-75520185D01*
X125988794Y-75572989D01*
X126000000Y-75624500D01*
X126000000Y-80280500D01*
X125980315Y-80347539D01*
X125927511Y-80393294D01*
X125876000Y-80404500D01*
X125853856Y-80404500D01*
X125764712Y-80428386D01*
X125764711Y-80428386D01*
X125764709Y-80428387D01*
X125764706Y-80428388D01*
X125684794Y-80474526D01*
X125684785Y-80474533D01*
X125619533Y-80539785D01*
X125619526Y-80539794D01*
X125573388Y-80619706D01*
X125573387Y-80619709D01*
X125549500Y-80708856D01*
X125549500Y-81597565D01*
X125573387Y-81686712D01*
X125573388Y-81686715D01*
X125619526Y-81766627D01*
X125619529Y-81766631D01*
X125619531Y-81766634D01*
X125684788Y-81831891D01*
X125684791Y-81831892D01*
X125684794Y-81831895D01*
X125764706Y-81878033D01*
X125764707Y-81878033D01*
X125764712Y-81878036D01*
X125853856Y-81901922D01*
X125853858Y-81901922D01*
X125946142Y-81901922D01*
X125946144Y-81901922D01*
X126035288Y-81878036D01*
X126115212Y-81831891D01*
X126180469Y-81766634D01*
X126226614Y-81686710D01*
X126249337Y-81601904D01*
X126285701Y-81542247D01*
X126348547Y-81511717D01*
X126369111Y-81510000D01*
X174000000Y-81510000D01*
X174000000Y-75624500D01*
X174019685Y-75557461D01*
X174072489Y-75511706D01*
X174124000Y-75500500D01*
X178271614Y-75500500D01*
X178338653Y-75520185D01*
X178384408Y-75572989D01*
X178394352Y-75642147D01*
X178365327Y-75705703D01*
X178359295Y-75712181D01*
X178309493Y-75761982D01*
X178309488Y-75761988D01*
X178237017Y-75887511D01*
X178237016Y-75887515D01*
X178199500Y-76027525D01*
X178199500Y-76172475D01*
X178237016Y-76312485D01*
X178237017Y-76312488D01*
X178309488Y-76438011D01*
X178309493Y-76438017D01*
X178363181Y-76491705D01*
X178396666Y-76553028D01*
X178399500Y-76579386D01*
X178399500Y-78053456D01*
X178379815Y-78120495D01*
X178363181Y-78141137D01*
X174391137Y-82113181D01*
X174329814Y-82146666D01*
X174303456Y-82149500D01*
X171203856Y-82149500D01*
X171114712Y-82173386D01*
X171114709Y-82173387D01*
X171034791Y-82219527D01*
X171034786Y-82219531D01*
X163969531Y-89284786D01*
X163969529Y-89284789D01*
X163949568Y-89319362D01*
X163924255Y-89363207D01*
X163923387Y-89364709D01*
X163923385Y-89364714D01*
X163899500Y-89453856D01*
X163899500Y-95303456D01*
X163879815Y-95370495D01*
X163863181Y-95391137D01*
X160341137Y-98913181D01*
X160279814Y-98946666D01*
X160253456Y-98949500D01*
X160177525Y-98949500D01*
X160048993Y-98983940D01*
X160037511Y-98987017D01*
X159911988Y-99059488D01*
X159911982Y-99059493D01*
X159809493Y-99161982D01*
X159809488Y-99161988D01*
X159737017Y-99287511D01*
X159737016Y-99287515D01*
X159699500Y-99427525D01*
X159699500Y-99572475D01*
X159727345Y-99676391D01*
X159737017Y-99712488D01*
X159809488Y-99838011D01*
X159809490Y-99838013D01*
X159809491Y-99838015D01*
X159911985Y-99940509D01*
X159911986Y-99940510D01*
X159911988Y-99940511D01*
X160037515Y-100012984D01*
X160038467Y-100013379D01*
X160039146Y-100013926D01*
X160044553Y-100017048D01*
X160044066Y-100017891D01*
X160092871Y-100057219D01*
X160114936Y-100123513D01*
X160097657Y-100191213D01*
X160078696Y-100215621D01*
X159281137Y-101013181D01*
X159219814Y-101046666D01*
X159193456Y-101049500D01*
X153803856Y-101049500D01*
X153718111Y-101072475D01*
X153718110Y-101072475D01*
X153714714Y-101073384D01*
X153714713Y-101073385D01*
X153634791Y-101119527D01*
X153341137Y-101413181D01*
X153279814Y-101446666D01*
X153253456Y-101449500D01*
X153177525Y-101449500D01*
X153048993Y-101483940D01*
X153037511Y-101487017D01*
X152911988Y-101559488D01*
X152911982Y-101559493D01*
X152809493Y-101661982D01*
X152809488Y-101661988D01*
X152737017Y-101787511D01*
X152737016Y-101787515D01*
X152699500Y-101927525D01*
X152699500Y-102072475D01*
X152723485Y-102161988D01*
X152737017Y-102212489D01*
X152737018Y-102212492D01*
X152737603Y-102213504D01*
X152737836Y-102214465D01*
X152740128Y-102219999D01*
X152739265Y-102220356D01*
X152754073Y-102281405D01*
X152731219Y-102347431D01*
X152676296Y-102390619D01*
X152630214Y-102399500D01*
X148103856Y-102399500D01*
X148014712Y-102423386D01*
X148014709Y-102423387D01*
X147934791Y-102469527D01*
X147934786Y-102469531D01*
X146991137Y-103413181D01*
X146929814Y-103446666D01*
X146903456Y-103449500D01*
X146827525Y-103449500D01*
X146706175Y-103482016D01*
X146687511Y-103487017D01*
X146561988Y-103559488D01*
X146561982Y-103559493D01*
X146459493Y-103661982D01*
X146459488Y-103661988D01*
X146387017Y-103787511D01*
X146387016Y-103787515D01*
X146379060Y-103817209D01*
X146369775Y-103851860D01*
X146333409Y-103911520D01*
X146270562Y-103942049D01*
X146201187Y-103933754D01*
X146147309Y-103889268D01*
X146130225Y-103851860D01*
X146123046Y-103825068D01*
X146112984Y-103787515D01*
X146112979Y-103787507D01*
X146040511Y-103661988D01*
X146040506Y-103661982D01*
X145938017Y-103559493D01*
X145938011Y-103559488D01*
X145812488Y-103487017D01*
X145812489Y-103487017D01*
X145793825Y-103482016D01*
X145672475Y-103449500D01*
X145527525Y-103449500D01*
X145406175Y-103482016D01*
X145387511Y-103487017D01*
X145261988Y-103559488D01*
X145199961Y-103621515D01*
X145138637Y-103654999D01*
X145068946Y-103650014D01*
X145013012Y-103608143D01*
X144988596Y-103542678D01*
X144994349Y-103499556D01*
X144993774Y-103499425D01*
X144995201Y-103493170D01*
X144995241Y-103492870D01*
X144995323Y-103492638D01*
X144995957Y-103487017D01*
X145010222Y-103360411D01*
X145010222Y-103360406D01*
X144995324Y-103228184D01*
X144995323Y-103228180D01*
X144951374Y-103102579D01*
X144880582Y-102989913D01*
X144880581Y-102989912D01*
X144880580Y-102989910D01*
X144866162Y-102975492D01*
X144866162Y-102975491D01*
X144795004Y-102904333D01*
X144795003Y-102904331D01*
X144794995Y-102904322D01*
X144748680Y-102858009D01*
X144726354Y-102835683D01*
X144726351Y-102835680D01*
X144716052Y-102825381D01*
X144716049Y-102825379D01*
X144701633Y-102810963D01*
X144588962Y-102740167D01*
X144463363Y-102696219D01*
X144463359Y-102696218D01*
X144331138Y-102681321D01*
X144331136Y-102681321D01*
X144331135Y-102681321D01*
X144313121Y-102683350D01*
X144294662Y-102685430D01*
X144225840Y-102673373D01*
X144174462Y-102626023D01*
X144156839Y-102558412D01*
X144157561Y-102548324D01*
X144161664Y-102511912D01*
X144161664Y-102511908D01*
X144146766Y-102379686D01*
X144146765Y-102379682D01*
X144128335Y-102327011D01*
X144102817Y-102254083D01*
X144076681Y-102212488D01*
X144032024Y-102141415D01*
X144032023Y-102141414D01*
X144032022Y-102141412D01*
X144017604Y-102126994D01*
X144017604Y-102126993D01*
X143946446Y-102055835D01*
X143946445Y-102055833D01*
X143946437Y-102055824D01*
X143900122Y-102009511D01*
X143877630Y-101987019D01*
X143877627Y-101987016D01*
X143867494Y-101976883D01*
X143867491Y-101976881D01*
X143853075Y-101962465D01*
X143825569Y-101945182D01*
X143740404Y-101891669D01*
X143614805Y-101847721D01*
X143614801Y-101847720D01*
X143482580Y-101832823D01*
X143482574Y-101832823D01*
X143350350Y-101847720D01*
X143224749Y-101891669D01*
X143112078Y-101962462D01*
X143100083Y-101974456D01*
X143069834Y-102004705D01*
X143065042Y-102009498D01*
X143065029Y-102009511D01*
X143030629Y-102043908D01*
X142969305Y-102077390D01*
X142899613Y-102072403D01*
X142855271Y-102043904D01*
X141642986Y-100831619D01*
X140386819Y-99575451D01*
X140353334Y-99514128D01*
X140350500Y-99487770D01*
X140350500Y-98953858D01*
X140350500Y-98953856D01*
X140326614Y-98864712D01*
X140309337Y-98834788D01*
X140309336Y-98834786D01*
X140309336Y-98834785D01*
X140280472Y-98784791D01*
X140280468Y-98784786D01*
X139846819Y-98351137D01*
X139813334Y-98289814D01*
X139810500Y-98263456D01*
X139810500Y-98167527D01*
X139810500Y-98167525D01*
X139772984Y-98027515D01*
X139739884Y-97970185D01*
X139700511Y-97901988D01*
X139700506Y-97901982D01*
X139598017Y-97799493D01*
X139598011Y-97799488D01*
X139468128Y-97724500D01*
X139419912Y-97673933D01*
X139406690Y-97605326D01*
X139432658Y-97540461D01*
X139468128Y-97509726D01*
X139588015Y-97440509D01*
X139690509Y-97338015D01*
X139762984Y-97212485D01*
X139800500Y-97072475D01*
X139800500Y-96927525D01*
X139762984Y-96787515D01*
X139723734Y-96719533D01*
X139690511Y-96661988D01*
X139690506Y-96661982D01*
X139588017Y-96559493D01*
X139588011Y-96559488D01*
X139462488Y-96487017D01*
X139462489Y-96487017D01*
X139451006Y-96483940D01*
X139322475Y-96449500D01*
X139177525Y-96449500D01*
X139048993Y-96483940D01*
X139037511Y-96487017D01*
X138911988Y-96559488D01*
X138911982Y-96559493D01*
X138809493Y-96661982D01*
X138809488Y-96661988D01*
X138737017Y-96787511D01*
X138737016Y-96787515D01*
X138699500Y-96927525D01*
X138699500Y-96927527D01*
X138699500Y-97003456D01*
X138679815Y-97070495D01*
X138663181Y-97091137D01*
X130719531Y-105034786D01*
X130719527Y-105034791D01*
X130673387Y-105114709D01*
X130673386Y-105114712D01*
X130649500Y-105203856D01*
X130649500Y-120270614D01*
X130629815Y-120337653D01*
X130613181Y-120358295D01*
X130559493Y-120411982D01*
X130559488Y-120411988D01*
X130487017Y-120537511D01*
X130487016Y-120537515D01*
X130449500Y-120677525D01*
X130449500Y-120822475D01*
X130487016Y-120962485D01*
X130487017Y-120962488D01*
X130559488Y-121088011D01*
X130559490Y-121088013D01*
X130559491Y-121088015D01*
X130661985Y-121190509D01*
X130661986Y-121190510D01*
X130661988Y-121190511D01*
X130787511Y-121262982D01*
X130787512Y-121262982D01*
X130787515Y-121262984D01*
X130927525Y-121300500D01*
X130927528Y-121300500D01*
X131072472Y-121300500D01*
X131072475Y-121300500D01*
X131212485Y-121262984D01*
X131338015Y-121190509D01*
X131440509Y-121088015D01*
X131512984Y-120962485D01*
X131550500Y-120822475D01*
X131550500Y-120677525D01*
X131512984Y-120537515D01*
X131440509Y-120411985D01*
X131386819Y-120358295D01*
X131353334Y-120296972D01*
X131350500Y-120270614D01*
X131350500Y-117421615D01*
X144680000Y-117421615D01*
X144680000Y-117820111D01*
X145380000Y-117820111D01*
X145380000Y-118320111D01*
X144680000Y-118320111D01*
X144680000Y-118718606D01*
X144718427Y-118911792D01*
X144718430Y-118911804D01*
X144793807Y-119093782D01*
X144793814Y-119093795D01*
X144903248Y-119257573D01*
X144903251Y-119257577D01*
X145042533Y-119396859D01*
X145042537Y-119396862D01*
X145206315Y-119506296D01*
X145206328Y-119506303D01*
X145388308Y-119581680D01*
X145430000Y-119589973D01*
X145430000Y-118787099D01*
X145439940Y-118804316D01*
X145495795Y-118860171D01*
X145564204Y-118899667D01*
X145640504Y-118920111D01*
X145719496Y-118920111D01*
X145795796Y-118899667D01*
X145864205Y-118860171D01*
X145920060Y-118804316D01*
X145930000Y-118787099D01*
X145930000Y-119589973D01*
X145971690Y-119581680D01*
X145971692Y-119581680D01*
X146153671Y-119506303D01*
X146153684Y-119506296D01*
X146317462Y-119396862D01*
X146317466Y-119396859D01*
X146456748Y-119257577D01*
X146456751Y-119257573D01*
X146566185Y-119093795D01*
X146566186Y-119093793D01*
X146570129Y-119084274D01*
X146613968Y-119029868D01*
X146680261Y-119007800D01*
X146747961Y-119025076D01*
X146753400Y-119028758D01*
X146756634Y-119030625D01*
X146756635Y-119030626D01*
X146887865Y-119106392D01*
X147034234Y-119145611D01*
X147034236Y-119145611D01*
X147185764Y-119145611D01*
X147185766Y-119145611D01*
X147332135Y-119106392D01*
X147463365Y-119030626D01*
X147570515Y-118923476D01*
X147585404Y-118897687D01*
X147949500Y-118897687D01*
X147949500Y-119042637D01*
X147977092Y-119145610D01*
X147987017Y-119182650D01*
X148059488Y-119308173D01*
X148059490Y-119308175D01*
X148059491Y-119308177D01*
X148161985Y-119410671D01*
X148161986Y-119410672D01*
X148161988Y-119410673D01*
X148287511Y-119483144D01*
X148287512Y-119483144D01*
X148287515Y-119483146D01*
X148427525Y-119520662D01*
X148427528Y-119520662D01*
X148572472Y-119520662D01*
X148572475Y-119520662D01*
X148712485Y-119483146D01*
X148838015Y-119410671D01*
X148940509Y-119308177D01*
X149012984Y-119182647D01*
X149050500Y-119042637D01*
X149050500Y-118927525D01*
X150949500Y-118927525D01*
X150949500Y-119072475D01*
X150969097Y-119145610D01*
X150987017Y-119212488D01*
X151059488Y-119338011D01*
X151059490Y-119338013D01*
X151059491Y-119338015D01*
X151161985Y-119440509D01*
X151161986Y-119440510D01*
X151161988Y-119440511D01*
X151287511Y-119512982D01*
X151287512Y-119512982D01*
X151287515Y-119512984D01*
X151427525Y-119550500D01*
X151427528Y-119550500D01*
X151572472Y-119550500D01*
X151572475Y-119550500D01*
X151712485Y-119512984D01*
X151838015Y-119440509D01*
X151940509Y-119338015D01*
X152012984Y-119212485D01*
X152050500Y-119072475D01*
X152050500Y-118927525D01*
X152012984Y-118787515D01*
X151973199Y-118718606D01*
X151940511Y-118661988D01*
X151940506Y-118661982D01*
X151838017Y-118559493D01*
X151838011Y-118559488D01*
X151725180Y-118494345D01*
X152314500Y-118494345D01*
X152314500Y-118645876D01*
X152353719Y-118792247D01*
X152374106Y-118827557D01*
X152429485Y-118923476D01*
X152536635Y-119030626D01*
X152667865Y-119106392D01*
X152814234Y-119145611D01*
X152814236Y-119145611D01*
X152965764Y-119145611D01*
X152965766Y-119145611D01*
X153112135Y-119106392D01*
X153243365Y-119030626D01*
X153243366Y-119030624D01*
X153250403Y-119026562D01*
X153251676Y-119028767D01*
X153304956Y-119008154D01*
X153373405Y-119022174D01*
X153423407Y-119070975D01*
X153429867Y-119084268D01*
X153433809Y-119093785D01*
X153433814Y-119093795D01*
X153543248Y-119257573D01*
X153543251Y-119257577D01*
X153682533Y-119396859D01*
X153682537Y-119396862D01*
X153846315Y-119506296D01*
X153846328Y-119506303D01*
X154028308Y-119581680D01*
X154070000Y-119589973D01*
X154070000Y-118787099D01*
X154079940Y-118804316D01*
X154135795Y-118860171D01*
X154204204Y-118899667D01*
X154280504Y-118920111D01*
X154359496Y-118920111D01*
X154435796Y-118899667D01*
X154504205Y-118860171D01*
X154560060Y-118804316D01*
X154570000Y-118787099D01*
X154570000Y-119589973D01*
X154611690Y-119581680D01*
X154611692Y-119581680D01*
X154793671Y-119506303D01*
X154793684Y-119506296D01*
X154957462Y-119396862D01*
X154957466Y-119396859D01*
X155096748Y-119257577D01*
X155096751Y-119257573D01*
X155206185Y-119093795D01*
X155206192Y-119093782D01*
X155275057Y-118927525D01*
X176449500Y-118927525D01*
X176449500Y-119072475D01*
X176469097Y-119145610D01*
X176487017Y-119212488D01*
X176559488Y-119338011D01*
X176559490Y-119338013D01*
X176559491Y-119338015D01*
X176661985Y-119440509D01*
X176661986Y-119440510D01*
X176661988Y-119440511D01*
X176787511Y-119512982D01*
X176787512Y-119512982D01*
X176787515Y-119512984D01*
X176927525Y-119550500D01*
X176927528Y-119550500D01*
X177072472Y-119550500D01*
X177072475Y-119550500D01*
X177212485Y-119512984D01*
X177338015Y-119440509D01*
X177440509Y-119338015D01*
X177512984Y-119212485D01*
X177550500Y-119072475D01*
X177550500Y-118927525D01*
X177512984Y-118787515D01*
X177473199Y-118718606D01*
X177440511Y-118661988D01*
X177440506Y-118661982D01*
X177338017Y-118559493D01*
X177338011Y-118559488D01*
X177212488Y-118487017D01*
X177212489Y-118487017D01*
X177201006Y-118483940D01*
X177072475Y-118449500D01*
X176927525Y-118449500D01*
X176798993Y-118483940D01*
X176787511Y-118487017D01*
X176661988Y-118559488D01*
X176661982Y-118559493D01*
X176559493Y-118661982D01*
X176559488Y-118661988D01*
X176487017Y-118787511D01*
X176482583Y-118804055D01*
X176449500Y-118927525D01*
X155275057Y-118927525D01*
X155281569Y-118911804D01*
X155281572Y-118911792D01*
X155284872Y-118895207D01*
X155319999Y-118718606D01*
X155320000Y-118718603D01*
X155320000Y-118320111D01*
X154620000Y-118320111D01*
X154620000Y-117820111D01*
X155320000Y-117820111D01*
X155320000Y-117421619D01*
X155319999Y-117421615D01*
X155281572Y-117228429D01*
X155281569Y-117228417D01*
X155206192Y-117046439D01*
X155206185Y-117046426D01*
X155096751Y-116882648D01*
X155096748Y-116882644D01*
X154957466Y-116743362D01*
X154957462Y-116743359D01*
X154793684Y-116633925D01*
X154793671Y-116633918D01*
X154611691Y-116558540D01*
X154611683Y-116558538D01*
X154570000Y-116550246D01*
X154570000Y-117353122D01*
X154560060Y-117335906D01*
X154504205Y-117280051D01*
X154435796Y-117240555D01*
X154359496Y-117220111D01*
X154280504Y-117220111D01*
X154204204Y-117240555D01*
X154135795Y-117280051D01*
X154079940Y-117335906D01*
X154070000Y-117353122D01*
X154070000Y-116550247D01*
X154069999Y-116550246D01*
X154028316Y-116558538D01*
X154028308Y-116558540D01*
X153846328Y-116633918D01*
X153846315Y-116633925D01*
X153682537Y-116743359D01*
X153682533Y-116743362D01*
X153543251Y-116882644D01*
X153543248Y-116882648D01*
X153433814Y-117046426D01*
X153433807Y-117046439D01*
X153358430Y-117228417D01*
X153358427Y-117228429D01*
X153320000Y-117421615D01*
X153320000Y-117820111D01*
X154020000Y-117820111D01*
X154020000Y-118320111D01*
X153481784Y-118320111D01*
X153414745Y-118300426D01*
X153374397Y-118258111D01*
X153350515Y-118216746D01*
X153243365Y-118109596D01*
X153177750Y-118071713D01*
X153112136Y-118033830D01*
X153038950Y-118014220D01*
X152965766Y-117994611D01*
X152814234Y-117994611D01*
X152667863Y-118033830D01*
X152536635Y-118109596D01*
X152536632Y-118109598D01*
X152429487Y-118216743D01*
X152429485Y-118216746D01*
X152353719Y-118347974D01*
X152314500Y-118494345D01*
X151725180Y-118494345D01*
X151712488Y-118487017D01*
X151712489Y-118487017D01*
X151701006Y-118483940D01*
X151572475Y-118449500D01*
X151427525Y-118449500D01*
X151298993Y-118483940D01*
X151287511Y-118487017D01*
X151161988Y-118559488D01*
X151161982Y-118559493D01*
X151059493Y-118661982D01*
X151059488Y-118661988D01*
X150987017Y-118787511D01*
X150982583Y-118804055D01*
X150949500Y-118927525D01*
X149050500Y-118927525D01*
X149050500Y-118897687D01*
X149012984Y-118757677D01*
X148990426Y-118718606D01*
X148940511Y-118632150D01*
X148940506Y-118632144D01*
X148838017Y-118529655D01*
X148838011Y-118529650D01*
X148712488Y-118457179D01*
X148712489Y-118457179D01*
X148701006Y-118454102D01*
X148572475Y-118419662D01*
X148427525Y-118419662D01*
X148298993Y-118454102D01*
X148287511Y-118457179D01*
X148161988Y-118529650D01*
X148161982Y-118529655D01*
X148059493Y-118632144D01*
X148059488Y-118632150D01*
X147987017Y-118757673D01*
X147987016Y-118757677D01*
X147949500Y-118897687D01*
X147585404Y-118897687D01*
X147646281Y-118792246D01*
X147685500Y-118645877D01*
X147685500Y-118494345D01*
X147646281Y-118347976D01*
X147570515Y-118216746D01*
X147463365Y-118109596D01*
X147397750Y-118071713D01*
X147332136Y-118033830D01*
X147258950Y-118014220D01*
X147185766Y-117994611D01*
X147034234Y-117994611D01*
X146887863Y-118033830D01*
X146756635Y-118109596D01*
X146756632Y-118109598D01*
X146649487Y-118216743D01*
X146649483Y-118216749D01*
X146625603Y-118258111D01*
X146575036Y-118306327D01*
X146518216Y-118320111D01*
X145980000Y-118320111D01*
X145980000Y-117820111D01*
X146680000Y-117820111D01*
X146680000Y-117421619D01*
X146679999Y-117421615D01*
X146641572Y-117228429D01*
X146641569Y-117228417D01*
X146566192Y-117046439D01*
X146566185Y-117046426D01*
X146456751Y-116882648D01*
X146456748Y-116882644D01*
X146317466Y-116743362D01*
X146317462Y-116743359D01*
X146153684Y-116633925D01*
X146153671Y-116633918D01*
X145971691Y-116558540D01*
X145971683Y-116558538D01*
X145930000Y-116550246D01*
X145930000Y-117353122D01*
X145920060Y-117335906D01*
X145864205Y-117280051D01*
X145795796Y-117240555D01*
X145719496Y-117220111D01*
X145640504Y-117220111D01*
X145564204Y-117240555D01*
X145495795Y-117280051D01*
X145439940Y-117335906D01*
X145430000Y-117353122D01*
X145430000Y-116550247D01*
X145429999Y-116550246D01*
X145388316Y-116558538D01*
X145388308Y-116558540D01*
X145206328Y-116633918D01*
X145206315Y-116633925D01*
X145042537Y-116743359D01*
X145042533Y-116743362D01*
X144903251Y-116882644D01*
X144903248Y-116882648D01*
X144793814Y-117046426D01*
X144793807Y-117046439D01*
X144718430Y-117228417D01*
X144718427Y-117228429D01*
X144680000Y-117421615D01*
X131350500Y-117421615D01*
X131350500Y-116152525D01*
X137974500Y-116152525D01*
X137974500Y-116297475D01*
X138012016Y-116437485D01*
X138012017Y-116437488D01*
X138084488Y-116563011D01*
X138084490Y-116563013D01*
X138084491Y-116563015D01*
X138186985Y-116665509D01*
X138186986Y-116665510D01*
X138186988Y-116665511D01*
X138312511Y-116737982D01*
X138312512Y-116737982D01*
X138312515Y-116737984D01*
X138452525Y-116775500D01*
X138452528Y-116775500D01*
X138597472Y-116775500D01*
X138597475Y-116775500D01*
X138737485Y-116737984D01*
X138863015Y-116665509D01*
X138965509Y-116563015D01*
X139037984Y-116437485D01*
X139075500Y-116297475D01*
X139075500Y-116177525D01*
X147049500Y-116177525D01*
X147049500Y-116322475D01*
X147083671Y-116450000D01*
X147087017Y-116462488D01*
X147159488Y-116588011D01*
X147159490Y-116588013D01*
X147159491Y-116588015D01*
X147261985Y-116690509D01*
X147261986Y-116690510D01*
X147261988Y-116690511D01*
X147387511Y-116762982D01*
X147387512Y-116762982D01*
X147387515Y-116762984D01*
X147527525Y-116800500D01*
X147527528Y-116800500D01*
X147672472Y-116800500D01*
X147672475Y-116800500D01*
X147812485Y-116762984D01*
X147938015Y-116690509D01*
X148040509Y-116588015D01*
X148112984Y-116462485D01*
X148150500Y-116322475D01*
X148150500Y-116177525D01*
X148112984Y-116037515D01*
X148042264Y-115915025D01*
X152187000Y-115915025D01*
X152187000Y-116059975D01*
X152223487Y-116196144D01*
X152224517Y-116199988D01*
X152296988Y-116325511D01*
X152296990Y-116325513D01*
X152296991Y-116325515D01*
X152399485Y-116428009D01*
X152399486Y-116428010D01*
X152399488Y-116428011D01*
X152525011Y-116500482D01*
X152525012Y-116500482D01*
X152525015Y-116500484D01*
X152665025Y-116538000D01*
X152665028Y-116538000D01*
X152809972Y-116538000D01*
X152809975Y-116538000D01*
X152949985Y-116500484D01*
X153075515Y-116428009D01*
X153178009Y-116325515D01*
X153250484Y-116199985D01*
X153288000Y-116059975D01*
X153288000Y-115997844D01*
X178750000Y-115997844D01*
X178756401Y-116057372D01*
X178756403Y-116057379D01*
X178806645Y-116192086D01*
X178806649Y-116192093D01*
X178892809Y-116307187D01*
X178892812Y-116307190D01*
X179007906Y-116393350D01*
X179007913Y-116393354D01*
X179142620Y-116443596D01*
X179142627Y-116443598D01*
X179202155Y-116449999D01*
X179202172Y-116450000D01*
X179249998Y-116450000D01*
X179250000Y-116449998D01*
X179250000Y-115850000D01*
X178750000Y-115850000D01*
X178750000Y-115997844D01*
X153288000Y-115997844D01*
X153288000Y-115915025D01*
X153250484Y-115775015D01*
X153214111Y-115712016D01*
X153178011Y-115649488D01*
X153178006Y-115649482D01*
X153075517Y-115546993D01*
X153075515Y-115546991D01*
X153004929Y-115506238D01*
X153004927Y-115506236D01*
X152949988Y-115474517D01*
X152949989Y-115474517D01*
X152938506Y-115471440D01*
X152809975Y-115437000D01*
X152665025Y-115437000D01*
X152536493Y-115471440D01*
X152525011Y-115474517D01*
X152399488Y-115546988D01*
X152399482Y-115546993D01*
X152296993Y-115649482D01*
X152296988Y-115649488D01*
X152224517Y-115775011D01*
X152224516Y-115775015D01*
X152187000Y-115915025D01*
X148042264Y-115915025D01*
X148040509Y-115911985D01*
X147938015Y-115809491D01*
X147938013Y-115809490D01*
X147938011Y-115809488D01*
X147812488Y-115737017D01*
X147812489Y-115737017D01*
X147801006Y-115733940D01*
X147672475Y-115699500D01*
X147527525Y-115699500D01*
X147398993Y-115733940D01*
X147387511Y-115737017D01*
X147261988Y-115809488D01*
X147261982Y-115809493D01*
X147159493Y-115911982D01*
X147159488Y-115911988D01*
X147087017Y-116037511D01*
X147087016Y-116037515D01*
X147049500Y-116177525D01*
X139075500Y-116177525D01*
X139075500Y-116152525D01*
X139037984Y-116012515D01*
X139016136Y-115974674D01*
X138965511Y-115886988D01*
X138965506Y-115886982D01*
X138863017Y-115784493D01*
X138863011Y-115784488D01*
X138737488Y-115712017D01*
X138737489Y-115712017D01*
X138726006Y-115708940D01*
X138597475Y-115674500D01*
X138452525Y-115674500D01*
X138323993Y-115708940D01*
X138312511Y-115712017D01*
X138186988Y-115784488D01*
X138186982Y-115784493D01*
X138084493Y-115886982D01*
X138084488Y-115886988D01*
X138012017Y-116012511D01*
X138012016Y-116012515D01*
X137974500Y-116152525D01*
X131350500Y-116152525D01*
X131350500Y-115402155D01*
X178750000Y-115402155D01*
X178750000Y-115550000D01*
X179276000Y-115550000D01*
X179284685Y-115552550D01*
X179293647Y-115551262D01*
X179317687Y-115562240D01*
X179343039Y-115569685D01*
X179348966Y-115576525D01*
X179357203Y-115580287D01*
X179371492Y-115602521D01*
X179388794Y-115622489D01*
X179391081Y-115633003D01*
X179394977Y-115639065D01*
X179400000Y-115674000D01*
X179400000Y-115700000D01*
X179426000Y-115700000D01*
X179493039Y-115719685D01*
X179538794Y-115772489D01*
X179550000Y-115824000D01*
X179550000Y-116395197D01*
X179533387Y-116457196D01*
X179488359Y-116535186D01*
X179488356Y-116535192D01*
X179487016Y-116537515D01*
X179484970Y-116545148D01*
X179484966Y-116545162D01*
X179452720Y-116665509D01*
X179449500Y-116677525D01*
X179449500Y-116822475D01*
X179487016Y-116962485D01*
X179487017Y-116962488D01*
X179559488Y-117088011D01*
X179559490Y-117088013D01*
X179559491Y-117088015D01*
X179661985Y-117190509D01*
X179661986Y-117190510D01*
X179661988Y-117190511D01*
X179787511Y-117262982D01*
X179787512Y-117262982D01*
X179787515Y-117262984D01*
X179927525Y-117300500D01*
X179927528Y-117300500D01*
X180072472Y-117300500D01*
X180072475Y-117300500D01*
X180212485Y-117262984D01*
X180338015Y-117190509D01*
X180440509Y-117088015D01*
X180512984Y-116962485D01*
X180550500Y-116822475D01*
X180550500Y-116746544D01*
X180570185Y-116679505D01*
X180586819Y-116658863D01*
X180710496Y-116535186D01*
X180880470Y-116365212D01*
X180926614Y-116285288D01*
X180939548Y-116237016D01*
X180950500Y-116196144D01*
X180950500Y-116131254D01*
X180951328Y-116124126D01*
X180962283Y-116098303D01*
X180970185Y-116071393D01*
X180971358Y-116069602D01*
X180985966Y-116047740D01*
X181000500Y-115974674D01*
X181000500Y-115425326D01*
X181000500Y-115425323D01*
X181000499Y-115425321D01*
X180985967Y-115352264D01*
X180985966Y-115352260D01*
X180930601Y-115269399D01*
X180847740Y-115214034D01*
X180847739Y-115214033D01*
X180847735Y-115214032D01*
X180774677Y-115199500D01*
X180774674Y-115199500D01*
X180425326Y-115199500D01*
X180425324Y-115199500D01*
X180352259Y-115214033D01*
X180329706Y-115229103D01*
X180311661Y-115234752D01*
X180295752Y-115244977D01*
X180264787Y-115249429D01*
X180263028Y-115249980D01*
X180260817Y-115250000D01*
X180124000Y-115250000D01*
X180056961Y-115230315D01*
X180011206Y-115177511D01*
X180000000Y-115126000D01*
X180000000Y-115000000D01*
X179874000Y-115000000D01*
X179865314Y-114997449D01*
X179856353Y-114998738D01*
X179832312Y-114987759D01*
X179806961Y-114980315D01*
X179801033Y-114973474D01*
X179792797Y-114969713D01*
X179778507Y-114947478D01*
X179761206Y-114927511D01*
X179758918Y-114916996D01*
X179755023Y-114910935D01*
X179750000Y-114876000D01*
X179750000Y-114739181D01*
X179769685Y-114672142D01*
X179770856Y-114670352D01*
X179785966Y-114647740D01*
X179800500Y-114574674D01*
X179800500Y-114025326D01*
X179800500Y-114025323D01*
X179800135Y-114023489D01*
X179800222Y-114022508D01*
X179799903Y-114019261D01*
X179800518Y-114019200D01*
X179800842Y-114015579D01*
X179798067Y-114008138D01*
X179803911Y-113981272D01*
X179806360Y-113953897D01*
X179811609Y-113945886D01*
X179812919Y-113939865D01*
X179834070Y-113911611D01*
X179908864Y-113836818D01*
X179970188Y-113803334D01*
X179996545Y-113800500D01*
X180072472Y-113800500D01*
X180072475Y-113800500D01*
X180072477Y-113800499D01*
X180077270Y-113799868D01*
X180146306Y-113810629D01*
X180198565Y-113857006D01*
X180217454Y-113924274D01*
X180215080Y-113946997D01*
X180199500Y-114025321D01*
X180199500Y-114574678D01*
X180214032Y-114647735D01*
X180214033Y-114647739D01*
X180214034Y-114647740D01*
X180269399Y-114730601D01*
X180339862Y-114777682D01*
X180339864Y-114777684D01*
X180352259Y-114785966D01*
X180425323Y-114800500D01*
X180425326Y-114800500D01*
X180774676Y-114800500D01*
X180774677Y-114800499D01*
X180847740Y-114785966D01*
X180930601Y-114730601D01*
X180985966Y-114647740D01*
X181000500Y-114574674D01*
X181000500Y-114025326D01*
X181000500Y-114025323D01*
X180987203Y-113958478D01*
X180985966Y-113952260D01*
X180971396Y-113930454D01*
X180950520Y-113863778D01*
X180950500Y-113861566D01*
X180950500Y-113596544D01*
X180970185Y-113529505D01*
X180986819Y-113508863D01*
X181608863Y-112886819D01*
X181670186Y-112853334D01*
X181696544Y-112850500D01*
X182020614Y-112850500D01*
X182087653Y-112870185D01*
X182108295Y-112886819D01*
X182161985Y-112940509D01*
X182161986Y-112940510D01*
X182161988Y-112940511D01*
X182287511Y-113012982D01*
X182287512Y-113012982D01*
X182287515Y-113012984D01*
X182427525Y-113050500D01*
X182427528Y-113050500D01*
X182572472Y-113050500D01*
X182572475Y-113050500D01*
X182712485Y-113012984D01*
X182838015Y-112940509D01*
X182940509Y-112838015D01*
X183012984Y-112712485D01*
X183050500Y-112572475D01*
X183050500Y-112427525D01*
X183012984Y-112287515D01*
X182973733Y-112219531D01*
X182940511Y-112161988D01*
X182940506Y-112161982D01*
X182838017Y-112059493D01*
X182838011Y-112059488D01*
X182712488Y-111987017D01*
X182712489Y-111987017D01*
X182701006Y-111983940D01*
X182572475Y-111949500D01*
X182427525Y-111949500D01*
X182298993Y-111983940D01*
X182287511Y-111987017D01*
X182161988Y-112059488D01*
X182161982Y-112059493D01*
X182108295Y-112113181D01*
X182046972Y-112146666D01*
X182020614Y-112149500D01*
X181453856Y-112149500D01*
X181364712Y-112173386D01*
X181364709Y-112173387D01*
X181284791Y-112219527D01*
X181284786Y-112219531D01*
X180604101Y-112900215D01*
X180542778Y-112933700D01*
X180473086Y-112928716D01*
X180428739Y-112900215D01*
X180338017Y-112809493D01*
X180338011Y-112809488D01*
X180212488Y-112737017D01*
X180212489Y-112737017D01*
X180186775Y-112730127D01*
X180072475Y-112699500D01*
X179927525Y-112699500D01*
X179813225Y-112730127D01*
X179787511Y-112737017D01*
X179661988Y-112809488D01*
X179661982Y-112809493D01*
X179559493Y-112911982D01*
X179559488Y-112911988D01*
X179487017Y-113037511D01*
X179487016Y-113037515D01*
X179449500Y-113177525D01*
X179449500Y-113177527D01*
X179449500Y-113253456D01*
X179429815Y-113320495D01*
X179413181Y-113341137D01*
X179119531Y-113634786D01*
X179119529Y-113634789D01*
X179095690Y-113676081D01*
X179095689Y-113676082D01*
X179073387Y-113714709D01*
X179073386Y-113714712D01*
X179049500Y-113803856D01*
X179049500Y-113861566D01*
X179029815Y-113928605D01*
X179028603Y-113930456D01*
X179014033Y-113952261D01*
X178999500Y-114025323D01*
X178999500Y-114574678D01*
X179014032Y-114647735D01*
X179014033Y-114647739D01*
X179014034Y-114647740D01*
X179069399Y-114730601D01*
X179111045Y-114758427D01*
X179155849Y-114812038D01*
X179164557Y-114881363D01*
X179134403Y-114944391D01*
X179085489Y-114977710D01*
X179007916Y-115006644D01*
X179007906Y-115006649D01*
X178892812Y-115092809D01*
X178892809Y-115092812D01*
X178806649Y-115207906D01*
X178806645Y-115207913D01*
X178756403Y-115342620D01*
X178756401Y-115342627D01*
X178750000Y-115402155D01*
X131350500Y-115402155D01*
X131350500Y-113663389D01*
X159779500Y-113663389D01*
X159779500Y-113836611D01*
X159783803Y-113863778D01*
X159797817Y-113952264D01*
X159806598Y-114007701D01*
X159860127Y-114172445D01*
X159938768Y-114326788D01*
X160040586Y-114466928D01*
X160163072Y-114589414D01*
X160303212Y-114691232D01*
X160457555Y-114769873D01*
X160622299Y-114823402D01*
X160793389Y-114850500D01*
X160793390Y-114850500D01*
X160966610Y-114850500D01*
X160966611Y-114850500D01*
X161137701Y-114823402D01*
X161302445Y-114769873D01*
X161456788Y-114691232D01*
X161596928Y-114589414D01*
X161719414Y-114466928D01*
X161821232Y-114326788D01*
X161899873Y-114172445D01*
X161953402Y-114007701D01*
X161980500Y-113836611D01*
X161980500Y-113663389D01*
X162319500Y-113663389D01*
X162319500Y-113836611D01*
X162323803Y-113863778D01*
X162337817Y-113952264D01*
X162346598Y-114007701D01*
X162400127Y-114172445D01*
X162478768Y-114326788D01*
X162580586Y-114466928D01*
X162703072Y-114589414D01*
X162843212Y-114691232D01*
X162997555Y-114769873D01*
X163162299Y-114823402D01*
X163333389Y-114850500D01*
X163333390Y-114850500D01*
X163506610Y-114850500D01*
X163506611Y-114850500D01*
X163677701Y-114823402D01*
X163842445Y-114769873D01*
X163996788Y-114691232D01*
X164136928Y-114589414D01*
X164259414Y-114466928D01*
X164361232Y-114326788D01*
X164439873Y-114172445D01*
X164493402Y-114007701D01*
X164520500Y-113836611D01*
X164520500Y-113663389D01*
X164859500Y-113663389D01*
X164859500Y-113836611D01*
X164863803Y-113863778D01*
X164877817Y-113952264D01*
X164886598Y-114007701D01*
X164940127Y-114172445D01*
X165018768Y-114326788D01*
X165120586Y-114466928D01*
X165243072Y-114589414D01*
X165383212Y-114691232D01*
X165537555Y-114769873D01*
X165702299Y-114823402D01*
X165873389Y-114850500D01*
X165873390Y-114850500D01*
X166046610Y-114850500D01*
X166046611Y-114850500D01*
X166217701Y-114823402D01*
X166382445Y-114769873D01*
X166536788Y-114691232D01*
X166676928Y-114589414D01*
X166799414Y-114466928D01*
X166901232Y-114326788D01*
X166915515Y-114298756D01*
X166963489Y-114247960D01*
X167031309Y-114231164D01*
X167097445Y-114253701D01*
X167140897Y-114308415D01*
X167150000Y-114355050D01*
X167150000Y-114647844D01*
X167156401Y-114707372D01*
X167156403Y-114707379D01*
X167206645Y-114842086D01*
X167206649Y-114842093D01*
X167292809Y-114957187D01*
X167292812Y-114957190D01*
X167407906Y-115043350D01*
X167407913Y-115043354D01*
X167542620Y-115093596D01*
X167542627Y-115093598D01*
X167602155Y-115099999D01*
X167602172Y-115100000D01*
X168250000Y-115100000D01*
X168250000Y-114183012D01*
X168307007Y-114215925D01*
X168434174Y-114250000D01*
X168565826Y-114250000D01*
X168692993Y-114215925D01*
X168750000Y-114183012D01*
X168750000Y-115100000D01*
X169397828Y-115100000D01*
X169397844Y-115099999D01*
X169457372Y-115093598D01*
X169457379Y-115093596D01*
X169592086Y-115043354D01*
X169592093Y-115043350D01*
X169707187Y-114957190D01*
X169707190Y-114957187D01*
X169793350Y-114842093D01*
X169793354Y-114842086D01*
X169843596Y-114707379D01*
X169843598Y-114707372D01*
X169849999Y-114647844D01*
X169850000Y-114647827D01*
X169850000Y-114000000D01*
X168933012Y-114000000D01*
X168965925Y-113942993D01*
X169000000Y-113815826D01*
X169000000Y-113684174D01*
X168965925Y-113557007D01*
X168933012Y-113500000D01*
X169850000Y-113500000D01*
X169850000Y-112852172D01*
X169849999Y-112852155D01*
X169843598Y-112792627D01*
X169843596Y-112792620D01*
X169793354Y-112657913D01*
X169793350Y-112657906D01*
X169707190Y-112542812D01*
X169707187Y-112542809D01*
X169592093Y-112456649D01*
X169592086Y-112456645D01*
X169457379Y-112406403D01*
X169457372Y-112406401D01*
X169397844Y-112400000D01*
X168750000Y-112400000D01*
X168750000Y-113316988D01*
X168692993Y-113284075D01*
X168565826Y-113250000D01*
X168434174Y-113250000D01*
X168307007Y-113284075D01*
X168250000Y-113316988D01*
X168250000Y-112400000D01*
X167602155Y-112400000D01*
X167542627Y-112406401D01*
X167542620Y-112406403D01*
X167407913Y-112456645D01*
X167407906Y-112456649D01*
X167292812Y-112542809D01*
X167292809Y-112542812D01*
X167206649Y-112657906D01*
X167206645Y-112657913D01*
X167156403Y-112792620D01*
X167156401Y-112792627D01*
X167150000Y-112852155D01*
X167150000Y-113144949D01*
X167130315Y-113211988D01*
X167077511Y-113257743D01*
X167008353Y-113267687D01*
X166944797Y-113238662D01*
X166915515Y-113201244D01*
X166912951Y-113196213D01*
X166901232Y-113173212D01*
X166799414Y-113033072D01*
X166676928Y-112910586D01*
X166536788Y-112808768D01*
X166382445Y-112730127D01*
X166217701Y-112676598D01*
X166217699Y-112676597D01*
X166217698Y-112676597D01*
X166086271Y-112655781D01*
X166046611Y-112649500D01*
X165873389Y-112649500D01*
X165833728Y-112655781D01*
X165702302Y-112676597D01*
X165537552Y-112730128D01*
X165383211Y-112808768D01*
X165321872Y-112853334D01*
X165243072Y-112910586D01*
X165243070Y-112910588D01*
X165243069Y-112910588D01*
X165120588Y-113033069D01*
X165120588Y-113033070D01*
X165120586Y-113033072D01*
X165101390Y-113059493D01*
X165018768Y-113173211D01*
X164940128Y-113327552D01*
X164886597Y-113492302D01*
X164880705Y-113529505D01*
X164859500Y-113663389D01*
X164520500Y-113663389D01*
X164493402Y-113492299D01*
X164439873Y-113327555D01*
X164361232Y-113173212D01*
X164259414Y-113033072D01*
X164136928Y-112910586D01*
X163996788Y-112808768D01*
X163842445Y-112730127D01*
X163677701Y-112676598D01*
X163677699Y-112676597D01*
X163677698Y-112676597D01*
X163546271Y-112655781D01*
X163506611Y-112649500D01*
X163333389Y-112649500D01*
X163293728Y-112655781D01*
X163162302Y-112676597D01*
X162997552Y-112730128D01*
X162843211Y-112808768D01*
X162781872Y-112853334D01*
X162703072Y-112910586D01*
X162703070Y-112910588D01*
X162703069Y-112910588D01*
X162580588Y-113033069D01*
X162580588Y-113033070D01*
X162580586Y-113033072D01*
X162561390Y-113059493D01*
X162478768Y-113173211D01*
X162400128Y-113327552D01*
X162346597Y-113492302D01*
X162340705Y-113529505D01*
X162319500Y-113663389D01*
X161980500Y-113663389D01*
X161953402Y-113492299D01*
X161899873Y-113327555D01*
X161821232Y-113173212D01*
X161719414Y-113033072D01*
X161596928Y-112910586D01*
X161456788Y-112808768D01*
X161302445Y-112730127D01*
X161137701Y-112676598D01*
X161137699Y-112676597D01*
X161137698Y-112676597D01*
X161006271Y-112655781D01*
X160966611Y-112649500D01*
X160793389Y-112649500D01*
X160753728Y-112655781D01*
X160622302Y-112676597D01*
X160457552Y-112730128D01*
X160303211Y-112808768D01*
X160241872Y-112853334D01*
X160163072Y-112910586D01*
X160163070Y-112910588D01*
X160163069Y-112910588D01*
X160040588Y-113033069D01*
X160040588Y-113033070D01*
X160040586Y-113033072D01*
X160021390Y-113059493D01*
X159938768Y-113173211D01*
X159860128Y-113327552D01*
X159806597Y-113492302D01*
X159800705Y-113529505D01*
X159779500Y-113663389D01*
X131350500Y-113663389D01*
X131350500Y-112427525D01*
X149699500Y-112427525D01*
X149699500Y-112572475D01*
X149727400Y-112676597D01*
X149737017Y-112712488D01*
X149809488Y-112838011D01*
X149809490Y-112838013D01*
X149809491Y-112838015D01*
X149911985Y-112940509D01*
X149911986Y-112940510D01*
X149911988Y-112940511D01*
X150037511Y-113012982D01*
X150037512Y-113012982D01*
X150037515Y-113012984D01*
X150177525Y-113050500D01*
X150177528Y-113050500D01*
X150322472Y-113050500D01*
X150322475Y-113050500D01*
X150462485Y-113012984D01*
X150588015Y-112940509D01*
X150690509Y-112838015D01*
X150762984Y-112712485D01*
X150800500Y-112572475D01*
X150800500Y-112427525D01*
X150762984Y-112287515D01*
X150723733Y-112219531D01*
X150690511Y-112161988D01*
X150690506Y-112161982D01*
X150588017Y-112059493D01*
X150588011Y-112059488D01*
X150462488Y-111987017D01*
X150462489Y-111987017D01*
X150451006Y-111983940D01*
X150322475Y-111949500D01*
X150177525Y-111949500D01*
X150048993Y-111983940D01*
X150037511Y-111987017D01*
X149911988Y-112059488D01*
X149911982Y-112059493D01*
X149809493Y-112161982D01*
X149809488Y-112161988D01*
X149737017Y-112287511D01*
X149737016Y-112287515D01*
X149699500Y-112427525D01*
X131350500Y-112427525D01*
X131350500Y-110927525D01*
X144949500Y-110927525D01*
X144949500Y-111072475D01*
X144987016Y-111212485D01*
X144987017Y-111212488D01*
X145059488Y-111338011D01*
X145059490Y-111338013D01*
X145059491Y-111338015D01*
X145161985Y-111440509D01*
X145161986Y-111440510D01*
X145161988Y-111440511D01*
X145287511Y-111512982D01*
X145287512Y-111512982D01*
X145287515Y-111512984D01*
X145427525Y-111550500D01*
X145427528Y-111550500D01*
X145572472Y-111550500D01*
X145572475Y-111550500D01*
X145712485Y-111512984D01*
X145838015Y-111440509D01*
X145940509Y-111338015D01*
X146012984Y-111212485D01*
X146050500Y-111072475D01*
X146050500Y-110927525D01*
X146012984Y-110787515D01*
X145940509Y-110661985D01*
X145838015Y-110559491D01*
X145838013Y-110559490D01*
X145838011Y-110559488D01*
X145712488Y-110487017D01*
X145712489Y-110487017D01*
X145701006Y-110483940D01*
X145572475Y-110449500D01*
X145427525Y-110449500D01*
X145298993Y-110483940D01*
X145287511Y-110487017D01*
X145161988Y-110559488D01*
X145161982Y-110559493D01*
X145059493Y-110661982D01*
X145059488Y-110661988D01*
X144987017Y-110787511D01*
X144987016Y-110787515D01*
X144949500Y-110927525D01*
X131350500Y-110927525D01*
X131350500Y-105446543D01*
X131370185Y-105379504D01*
X131386814Y-105358867D01*
X138499559Y-98246121D01*
X138560880Y-98212638D01*
X138630572Y-98217622D01*
X138686505Y-98259494D01*
X138705134Y-98305230D01*
X138707397Y-98304624D01*
X138709500Y-98312472D01*
X138709500Y-98312475D01*
X138747016Y-98452485D01*
X138747017Y-98452488D01*
X138819488Y-98578011D01*
X138819490Y-98578013D01*
X138819491Y-98578015D01*
X138921985Y-98680509D01*
X138921986Y-98680510D01*
X138921988Y-98680511D01*
X139047511Y-98752982D01*
X139047512Y-98752982D01*
X139047515Y-98752984D01*
X139051386Y-98754021D01*
X139055881Y-98755226D01*
X139115541Y-98791591D01*
X139146069Y-98854439D01*
X139137774Y-98923814D01*
X139093288Y-98977691D01*
X139055881Y-98994774D01*
X139047516Y-98997015D01*
X139047511Y-98997017D01*
X138921988Y-99069488D01*
X138921982Y-99069493D01*
X138819493Y-99171982D01*
X138819488Y-99171988D01*
X138747017Y-99297511D01*
X138747016Y-99297515D01*
X138709500Y-99437525D01*
X138709500Y-99582475D01*
X138747016Y-99722485D01*
X138747017Y-99722488D01*
X138819488Y-99848011D01*
X138819490Y-99848013D01*
X138819491Y-99848015D01*
X138921985Y-99950509D01*
X138921986Y-99950510D01*
X138921988Y-99950511D01*
X139047511Y-100022982D01*
X139047512Y-100022982D01*
X139047515Y-100022984D01*
X139187525Y-100060500D01*
X139263456Y-100060500D01*
X139330495Y-100080185D01*
X139351137Y-100096819D01*
X147634788Y-108380470D01*
X147714712Y-108426614D01*
X147803856Y-108450500D01*
X147803857Y-108450500D01*
X147803858Y-108450500D01*
X150696142Y-108450500D01*
X150696144Y-108450500D01*
X150785288Y-108426614D01*
X150865212Y-108380470D01*
X151408863Y-107836819D01*
X151470186Y-107803334D01*
X151496544Y-107800500D01*
X151572472Y-107800500D01*
X151572475Y-107800500D01*
X151712485Y-107762984D01*
X151838015Y-107690509D01*
X151940509Y-107588015D01*
X152012984Y-107462485D01*
X152050500Y-107322475D01*
X152050500Y-107177525D01*
X152012984Y-107037515D01*
X151940509Y-106911985D01*
X151840705Y-106812181D01*
X151807220Y-106750858D01*
X151812204Y-106681166D01*
X151854076Y-106625233D01*
X151919540Y-106600816D01*
X151928386Y-106600500D01*
X153880214Y-106600500D01*
X153947253Y-106620185D01*
X153993008Y-106672989D01*
X154002952Y-106742147D01*
X153989885Y-106779900D01*
X153990128Y-106780001D01*
X153988442Y-106784071D01*
X153987603Y-106786496D01*
X153987018Y-106787507D01*
X153987017Y-106787510D01*
X153987016Y-106787515D01*
X153949500Y-106927525D01*
X153949500Y-107072475D01*
X153977649Y-107177527D01*
X153987017Y-107212488D01*
X154059488Y-107338011D01*
X154059490Y-107338013D01*
X154059491Y-107338015D01*
X154161985Y-107440509D01*
X154161986Y-107440510D01*
X154161988Y-107440511D01*
X154287511Y-107512982D01*
X154287512Y-107512982D01*
X154287515Y-107512984D01*
X154427525Y-107550500D01*
X154427528Y-107550500D01*
X154572472Y-107550500D01*
X154572475Y-107550500D01*
X154712485Y-107512984D01*
X154838015Y-107440509D01*
X154940509Y-107338015D01*
X155012984Y-107212485D01*
X155050500Y-107072475D01*
X155050500Y-106927525D01*
X155012984Y-106787515D01*
X155012982Y-106787512D01*
X155012982Y-106787510D01*
X155012981Y-106787507D01*
X155012397Y-106786496D01*
X155012163Y-106785534D01*
X155009872Y-106780001D01*
X155010734Y-106779643D01*
X154995927Y-106718595D01*
X155018781Y-106652569D01*
X155073704Y-106609381D01*
X155119786Y-106600500D01*
X155380214Y-106600500D01*
X155447253Y-106620185D01*
X155493008Y-106672989D01*
X155502952Y-106742147D01*
X155489885Y-106779900D01*
X155490128Y-106780001D01*
X155488442Y-106784071D01*
X155487603Y-106786496D01*
X155487018Y-106787507D01*
X155487017Y-106787510D01*
X155487016Y-106787515D01*
X155449500Y-106927525D01*
X155449500Y-107072475D01*
X155477649Y-107177527D01*
X155487017Y-107212488D01*
X155559488Y-107338011D01*
X155559490Y-107338013D01*
X155559491Y-107338015D01*
X155661985Y-107440509D01*
X155661986Y-107440510D01*
X155661988Y-107440511D01*
X155787511Y-107512982D01*
X155787512Y-107512982D01*
X155787515Y-107512984D01*
X155927525Y-107550500D01*
X155927528Y-107550500D01*
X156072472Y-107550500D01*
X156072475Y-107550500D01*
X156212485Y-107512984D01*
X156338015Y-107440509D01*
X156440509Y-107338015D01*
X156512984Y-107212485D01*
X156550500Y-107072475D01*
X156550500Y-106927525D01*
X156512984Y-106787515D01*
X156512982Y-106787512D01*
X156512982Y-106787510D01*
X156512981Y-106787507D01*
X156512397Y-106786496D01*
X156512163Y-106785534D01*
X156509872Y-106780001D01*
X156510734Y-106779643D01*
X156495927Y-106718595D01*
X156518781Y-106652569D01*
X156573704Y-106609381D01*
X156619786Y-106600500D01*
X178296142Y-106600500D01*
X178296144Y-106600500D01*
X178385288Y-106576614D01*
X178465212Y-106530470D01*
X182568157Y-102427525D01*
X183449500Y-102427525D01*
X183449500Y-102572475D01*
X183482658Y-102696220D01*
X183487017Y-102712488D01*
X183559488Y-102838011D01*
X183559490Y-102838013D01*
X183559491Y-102838015D01*
X183661985Y-102940509D01*
X183661986Y-102940510D01*
X183661988Y-102940511D01*
X183787511Y-103012982D01*
X183787512Y-103012982D01*
X183787515Y-103012984D01*
X183927525Y-103050500D01*
X183927528Y-103050500D01*
X184072472Y-103050500D01*
X184072475Y-103050500D01*
X184212485Y-103012984D01*
X184338015Y-102940509D01*
X184440509Y-102838015D01*
X184512984Y-102712485D01*
X184550500Y-102572475D01*
X184550500Y-102427525D01*
X184512984Y-102287515D01*
X184509456Y-102281405D01*
X184440511Y-102161988D01*
X184440506Y-102161982D01*
X184338017Y-102059493D01*
X184338011Y-102059488D01*
X184212488Y-101987017D01*
X184212489Y-101987017D01*
X184174672Y-101976884D01*
X184072475Y-101949500D01*
X183927525Y-101949500D01*
X183825328Y-101976884D01*
X183787511Y-101987017D01*
X183661988Y-102059488D01*
X183661982Y-102059493D01*
X183559493Y-102161982D01*
X183559488Y-102161988D01*
X183487017Y-102287511D01*
X183487016Y-102287515D01*
X183449500Y-102427525D01*
X182568157Y-102427525D01*
X183660822Y-101334860D01*
X183722145Y-101301375D01*
X183748503Y-101298541D01*
X183824431Y-101298541D01*
X183824434Y-101298541D01*
X183964444Y-101261025D01*
X184089974Y-101188550D01*
X184192468Y-101086056D01*
X184264943Y-100960526D01*
X184302459Y-100820516D01*
X184302459Y-100677525D01*
X190449500Y-100677525D01*
X190449500Y-100822475D01*
X190480460Y-100938017D01*
X190487017Y-100962488D01*
X190559488Y-101088011D01*
X190559490Y-101088013D01*
X190559491Y-101088015D01*
X190661985Y-101190509D01*
X190661986Y-101190510D01*
X190661988Y-101190511D01*
X190787511Y-101262982D01*
X190787512Y-101262982D01*
X190787515Y-101262984D01*
X190927525Y-101300500D01*
X190927528Y-101300500D01*
X191072472Y-101300500D01*
X191072475Y-101300500D01*
X191212485Y-101262984D01*
X191338015Y-101190509D01*
X191440509Y-101088015D01*
X191512984Y-100962485D01*
X191550500Y-100822475D01*
X191550500Y-100677525D01*
X191512984Y-100537515D01*
X191507217Y-100527527D01*
X191440511Y-100411988D01*
X191440506Y-100411982D01*
X191338017Y-100309493D01*
X191338011Y-100309488D01*
X191212488Y-100237017D01*
X191212489Y-100237017D01*
X191201006Y-100233940D01*
X191072475Y-100199500D01*
X190927525Y-100199500D01*
X190798993Y-100233940D01*
X190787511Y-100237017D01*
X190661988Y-100309488D01*
X190661982Y-100309493D01*
X190559493Y-100411982D01*
X190559488Y-100411988D01*
X190487017Y-100537511D01*
X190487016Y-100537515D01*
X190449500Y-100677525D01*
X184302459Y-100677525D01*
X184302459Y-100675566D01*
X184264943Y-100535556D01*
X184250027Y-100509721D01*
X184245856Y-100495592D01*
X184245825Y-100474794D01*
X184240922Y-100454583D01*
X184245775Y-100440559D01*
X184245754Y-100425722D01*
X184256971Y-100408211D01*
X184263774Y-100388556D01*
X184275438Y-100379382D01*
X184283442Y-100366889D01*
X184302344Y-100358222D01*
X184318694Y-100345365D01*
X184332676Y-100340711D01*
X184385288Y-100326614D01*
X184409708Y-100312515D01*
X184465212Y-100280470D01*
X185480470Y-99265212D01*
X185526614Y-99185288D01*
X185527124Y-99183386D01*
X185550500Y-99096144D01*
X185550500Y-98679386D01*
X185570185Y-98612347D01*
X185573626Y-98607272D01*
X185579578Y-98598945D01*
X185640509Y-98538015D01*
X185712984Y-98412485D01*
X185713048Y-98412245D01*
X185716936Y-98406807D01*
X185739888Y-98388825D01*
X185760990Y-98368705D01*
X185767626Y-98367095D01*
X185771937Y-98363718D01*
X185787587Y-98362252D01*
X185817810Y-98354921D01*
X185976182Y-98354921D01*
X185976182Y-98356903D01*
X186034596Y-98366002D01*
X186086859Y-98412373D01*
X186089152Y-98416185D01*
X186159491Y-98538015D01*
X186261985Y-98640509D01*
X186261986Y-98640510D01*
X186261988Y-98640511D01*
X186387511Y-98712982D01*
X186387512Y-98712982D01*
X186387515Y-98712984D01*
X186527525Y-98750500D01*
X186527528Y-98750500D01*
X186672472Y-98750500D01*
X186672475Y-98750500D01*
X186812485Y-98712984D01*
X186938015Y-98640509D01*
X187040509Y-98538015D01*
X187112984Y-98412485D01*
X187150500Y-98272475D01*
X187150500Y-98127525D01*
X187112984Y-97987515D01*
X187102978Y-97970185D01*
X187040511Y-97861988D01*
X187040506Y-97861982D01*
X186986819Y-97808295D01*
X186953334Y-97746972D01*
X186950500Y-97720614D01*
X186950500Y-97614171D01*
X186950500Y-97614169D01*
X186926614Y-97525025D01*
X186910789Y-97497615D01*
X186880470Y-97445101D01*
X186354899Y-96919530D01*
X186354898Y-96919529D01*
X186354895Y-96919527D01*
X186274977Y-96873387D01*
X186274976Y-96873386D01*
X186274975Y-96873386D01*
X186185831Y-96849500D01*
X183503856Y-96849500D01*
X183414712Y-96873386D01*
X183414711Y-96873386D01*
X183414709Y-96873387D01*
X183414706Y-96873388D01*
X183334794Y-96919526D01*
X183334785Y-96919533D01*
X177891137Y-102363181D01*
X177829814Y-102396666D01*
X177803456Y-102399500D01*
X170979192Y-102399500D01*
X170912153Y-102379815D01*
X170866398Y-102327011D01*
X170856454Y-102257853D01*
X170871806Y-102213499D01*
X170887246Y-102186755D01*
X170887247Y-102186754D01*
X170887247Y-102186752D01*
X170887249Y-102186750D01*
X170924765Y-102046740D01*
X170924765Y-101901790D01*
X170887249Y-101761780D01*
X170880736Y-101750500D01*
X170814776Y-101636253D01*
X170814771Y-101636247D01*
X170712282Y-101533758D01*
X170712276Y-101533753D01*
X170586753Y-101461282D01*
X170586754Y-101461282D01*
X170575271Y-101458205D01*
X170446740Y-101423765D01*
X170301790Y-101423765D01*
X170173258Y-101458205D01*
X170161776Y-101461282D01*
X170036253Y-101533753D01*
X170036247Y-101533758D01*
X169956825Y-101613181D01*
X169895502Y-101646666D01*
X169869144Y-101649500D01*
X159935544Y-101649500D01*
X159868505Y-101629815D01*
X159822750Y-101577011D01*
X159812806Y-101507853D01*
X159841831Y-101444297D01*
X159847863Y-101437819D01*
X160758157Y-100527525D01*
X169049500Y-100527525D01*
X169049500Y-100672475D01*
X169084437Y-100802859D01*
X169087017Y-100812488D01*
X169159488Y-100938011D01*
X169159490Y-100938013D01*
X169159491Y-100938015D01*
X169261985Y-101040509D01*
X169261986Y-101040510D01*
X169261988Y-101040511D01*
X169387511Y-101112982D01*
X169387512Y-101112982D01*
X169387515Y-101112984D01*
X169527525Y-101150500D01*
X169527528Y-101150500D01*
X169672472Y-101150500D01*
X169672475Y-101150500D01*
X169812485Y-101112984D01*
X169938015Y-101040509D01*
X170040509Y-100938015D01*
X170046565Y-100927525D01*
X174949500Y-100927525D01*
X174949500Y-101072475D01*
X174981128Y-101190511D01*
X174987017Y-101212488D01*
X175059488Y-101338011D01*
X175059490Y-101338013D01*
X175059491Y-101338015D01*
X175161985Y-101440509D01*
X175161986Y-101440510D01*
X175161988Y-101440511D01*
X175287511Y-101512982D01*
X175287512Y-101512982D01*
X175287515Y-101512984D01*
X175427525Y-101550500D01*
X175427528Y-101550500D01*
X175572472Y-101550500D01*
X175572475Y-101550500D01*
X175712485Y-101512984D01*
X175838015Y-101440509D01*
X175940509Y-101338015D01*
X176012984Y-101212485D01*
X176050500Y-101072475D01*
X176050500Y-100927525D01*
X176012984Y-100787515D01*
X176001563Y-100767734D01*
X175940511Y-100661988D01*
X175940506Y-100661982D01*
X175838017Y-100559493D01*
X175838011Y-100559488D01*
X175712488Y-100487017D01*
X175712489Y-100487017D01*
X175666872Y-100474794D01*
X175572475Y-100449500D01*
X175427525Y-100449500D01*
X175333128Y-100474794D01*
X175287511Y-100487017D01*
X175161988Y-100559488D01*
X175161982Y-100559493D01*
X175059493Y-100661982D01*
X175059488Y-100661988D01*
X174987017Y-100787511D01*
X174987016Y-100787515D01*
X174949500Y-100927525D01*
X170046565Y-100927525D01*
X170112984Y-100812485D01*
X170150500Y-100672475D01*
X170150500Y-100527525D01*
X170112984Y-100387515D01*
X170108288Y-100379382D01*
X170040511Y-100261988D01*
X170040506Y-100261982D01*
X169938017Y-100159493D01*
X169938011Y-100159488D01*
X169812488Y-100087017D01*
X169812489Y-100087017D01*
X169801006Y-100083940D01*
X169672475Y-100049500D01*
X169527525Y-100049500D01*
X169398993Y-100083940D01*
X169387511Y-100087017D01*
X169261988Y-100159488D01*
X169261982Y-100159493D01*
X169159493Y-100261982D01*
X169159488Y-100261988D01*
X169087017Y-100387511D01*
X169087016Y-100387515D01*
X169049500Y-100527525D01*
X160758157Y-100527525D01*
X160853965Y-100431717D01*
X162621430Y-98664252D01*
X167967031Y-93318649D01*
X168028352Y-93285166D01*
X168093029Y-93288401D01*
X168097547Y-93289869D01*
X168097555Y-93289873D01*
X168262299Y-93343402D01*
X168433389Y-93370500D01*
X168433390Y-93370500D01*
X168606610Y-93370500D01*
X168606611Y-93370500D01*
X168777701Y-93343402D01*
X168942445Y-93289873D01*
X169096788Y-93211232D01*
X169236928Y-93109414D01*
X169359414Y-92986928D01*
X169461232Y-92846788D01*
X169539873Y-92692445D01*
X169593402Y-92527701D01*
X169620500Y-92356611D01*
X169620500Y-92183389D01*
X169593402Y-92012299D01*
X169539873Y-91847555D01*
X169461232Y-91693212D01*
X169359414Y-91553072D01*
X169236928Y-91430586D01*
X169096788Y-91328768D01*
X169068756Y-91314485D01*
X169017960Y-91266510D01*
X169001165Y-91198689D01*
X169023703Y-91132554D01*
X169078418Y-91089103D01*
X169125051Y-91080000D01*
X169417828Y-91080000D01*
X169417844Y-91079999D01*
X169477372Y-91073598D01*
X169477379Y-91073596D01*
X169612086Y-91023354D01*
X169612093Y-91023350D01*
X169727187Y-90937190D01*
X169727190Y-90937187D01*
X169813350Y-90822093D01*
X169813354Y-90822086D01*
X169863596Y-90687379D01*
X169863598Y-90687372D01*
X169869999Y-90627844D01*
X169870000Y-90627827D01*
X169870000Y-89980000D01*
X168953012Y-89980000D01*
X168985925Y-89922993D01*
X169020000Y-89795826D01*
X169020000Y-89664174D01*
X168985925Y-89537007D01*
X168953012Y-89480000D01*
X169870000Y-89480000D01*
X169870000Y-88927525D01*
X176449500Y-88927525D01*
X176449500Y-89072475D01*
X176487016Y-89212485D01*
X176487017Y-89212488D01*
X176559488Y-89338011D01*
X176559490Y-89338013D01*
X176559491Y-89338015D01*
X176661985Y-89440509D01*
X176661986Y-89440510D01*
X176661988Y-89440511D01*
X176787511Y-89512982D01*
X176787512Y-89512982D01*
X176787515Y-89512984D01*
X176927525Y-89550500D01*
X176927528Y-89550500D01*
X177072472Y-89550500D01*
X177072475Y-89550500D01*
X177212485Y-89512984D01*
X177338015Y-89440509D01*
X177440509Y-89338015D01*
X177512984Y-89212485D01*
X177550500Y-89072475D01*
X177550500Y-88927525D01*
X177512984Y-88787515D01*
X177507210Y-88777515D01*
X177440511Y-88661988D01*
X177440506Y-88661982D01*
X177338017Y-88559493D01*
X177338011Y-88559488D01*
X177212488Y-88487017D01*
X177212489Y-88487017D01*
X177201006Y-88483940D01*
X177072475Y-88449500D01*
X176927525Y-88449500D01*
X176798993Y-88483940D01*
X176787511Y-88487017D01*
X176661988Y-88559488D01*
X176661982Y-88559493D01*
X176559493Y-88661982D01*
X176559488Y-88661988D01*
X176487017Y-88787511D01*
X176487016Y-88787515D01*
X176449500Y-88927525D01*
X169870000Y-88927525D01*
X169870000Y-88832172D01*
X169869999Y-88832155D01*
X169863598Y-88772627D01*
X169863596Y-88772620D01*
X169813354Y-88637913D01*
X169813350Y-88637906D01*
X169727190Y-88522812D01*
X169727187Y-88522809D01*
X169612093Y-88436649D01*
X169612086Y-88436645D01*
X169477379Y-88386403D01*
X169477372Y-88386401D01*
X169417844Y-88380000D01*
X168770000Y-88380000D01*
X168770000Y-89296988D01*
X168712993Y-89264075D01*
X168585826Y-89230000D01*
X168454174Y-89230000D01*
X168327007Y-89264075D01*
X168270000Y-89296988D01*
X168270000Y-88380000D01*
X167622155Y-88380000D01*
X167562627Y-88386401D01*
X167562620Y-88386403D01*
X167427913Y-88436645D01*
X167427906Y-88436649D01*
X167312812Y-88522809D01*
X167312809Y-88522812D01*
X167226649Y-88637906D01*
X167226645Y-88637913D01*
X167176403Y-88772620D01*
X167176401Y-88772627D01*
X167170000Y-88832155D01*
X167170000Y-89124949D01*
X167150315Y-89191988D01*
X167097511Y-89237743D01*
X167028353Y-89247687D01*
X166964797Y-89218662D01*
X166935515Y-89181244D01*
X166921231Y-89153211D01*
X166909827Y-89137515D01*
X166819414Y-89013072D01*
X166696928Y-88890586D01*
X166556788Y-88788768D01*
X166402445Y-88710127D01*
X166237701Y-88656598D01*
X166237699Y-88656597D01*
X166237698Y-88656597D01*
X166106271Y-88635781D01*
X166066611Y-88629500D01*
X165915543Y-88629500D01*
X165848504Y-88609815D01*
X165802749Y-88557011D01*
X165792805Y-88487853D01*
X165821830Y-88424297D01*
X165827862Y-88417819D01*
X168247838Y-85997844D01*
X178750000Y-85997844D01*
X178756401Y-86057372D01*
X178756403Y-86057379D01*
X178806645Y-86192086D01*
X178806649Y-86192093D01*
X178892809Y-86307187D01*
X178892812Y-86307190D01*
X179007906Y-86393350D01*
X179007913Y-86393354D01*
X179142620Y-86443596D01*
X179142627Y-86443598D01*
X179202155Y-86449999D01*
X179202172Y-86450000D01*
X179249998Y-86450000D01*
X179250000Y-86449998D01*
X179250000Y-85850000D01*
X178750000Y-85850000D01*
X178750000Y-85997844D01*
X168247838Y-85997844D01*
X168843527Y-85402155D01*
X178750000Y-85402155D01*
X178750000Y-85550000D01*
X179276000Y-85550000D01*
X179284685Y-85552550D01*
X179293647Y-85551262D01*
X179317687Y-85562240D01*
X179343039Y-85569685D01*
X179348966Y-85576525D01*
X179357203Y-85580287D01*
X179371492Y-85602521D01*
X179388794Y-85622489D01*
X179391081Y-85633003D01*
X179394977Y-85639065D01*
X179400000Y-85674000D01*
X179400000Y-85700000D01*
X179426000Y-85700000D01*
X179493039Y-85719685D01*
X179538794Y-85772489D01*
X179550000Y-85824000D01*
X179550000Y-86395197D01*
X179533387Y-86457196D01*
X179488359Y-86535186D01*
X179488356Y-86535192D01*
X179487016Y-86537515D01*
X179484970Y-86545148D01*
X179484966Y-86545162D01*
X179449500Y-86677525D01*
X179449500Y-86822475D01*
X179481128Y-86940511D01*
X179487017Y-86962488D01*
X179559488Y-87088011D01*
X179559490Y-87088013D01*
X179559491Y-87088015D01*
X179661985Y-87190509D01*
X179661986Y-87190510D01*
X179661988Y-87190511D01*
X179787511Y-87262982D01*
X179787512Y-87262982D01*
X179787515Y-87262984D01*
X179927525Y-87300500D01*
X179927528Y-87300500D01*
X180072472Y-87300500D01*
X180072475Y-87300500D01*
X180212485Y-87262984D01*
X180338015Y-87190509D01*
X180440509Y-87088015D01*
X180512984Y-86962485D01*
X180550500Y-86822475D01*
X180550500Y-86746544D01*
X180570185Y-86679505D01*
X180586819Y-86658863D01*
X180710496Y-86535186D01*
X180880470Y-86365212D01*
X180926614Y-86285288D01*
X180939548Y-86237016D01*
X180950500Y-86196144D01*
X180950500Y-86131254D01*
X180951328Y-86124126D01*
X180962283Y-86098303D01*
X180970185Y-86071393D01*
X180971358Y-86069602D01*
X180985966Y-86047740D01*
X181000500Y-85974674D01*
X181000500Y-85425326D01*
X181000500Y-85425323D01*
X181000499Y-85425321D01*
X180985967Y-85352264D01*
X180985966Y-85352260D01*
X180930601Y-85269399D01*
X180847740Y-85214034D01*
X180847739Y-85214033D01*
X180847735Y-85214032D01*
X180774677Y-85199500D01*
X180774674Y-85199500D01*
X180425326Y-85199500D01*
X180425324Y-85199500D01*
X180352259Y-85214033D01*
X180329706Y-85229103D01*
X180311661Y-85234752D01*
X180295752Y-85244977D01*
X180264787Y-85249429D01*
X180263028Y-85249980D01*
X180260817Y-85250000D01*
X180124000Y-85250000D01*
X180056961Y-85230315D01*
X180011206Y-85177511D01*
X180000000Y-85126000D01*
X180000000Y-85000000D01*
X179874000Y-85000000D01*
X179865314Y-84997449D01*
X179856353Y-84998738D01*
X179832312Y-84987759D01*
X179806961Y-84980315D01*
X179801033Y-84973474D01*
X179792797Y-84969713D01*
X179778507Y-84947478D01*
X179761206Y-84927511D01*
X179758918Y-84916996D01*
X179755023Y-84910935D01*
X179750000Y-84876000D01*
X179750000Y-84739181D01*
X179769685Y-84672142D01*
X179770856Y-84670352D01*
X179785966Y-84647740D01*
X179800500Y-84574674D01*
X179800500Y-84025326D01*
X179800500Y-84025323D01*
X179800135Y-84023489D01*
X179800222Y-84022508D01*
X179799903Y-84019261D01*
X179800518Y-84019200D01*
X179800842Y-84015579D01*
X179798067Y-84008138D01*
X179803911Y-83981272D01*
X179806360Y-83953897D01*
X179811609Y-83945886D01*
X179812919Y-83939865D01*
X179834070Y-83911611D01*
X179908864Y-83836818D01*
X179970188Y-83803334D01*
X179996545Y-83800500D01*
X180072472Y-83800500D01*
X180072475Y-83800500D01*
X180072477Y-83800499D01*
X180077270Y-83799868D01*
X180146306Y-83810629D01*
X180198565Y-83857006D01*
X180217454Y-83924274D01*
X180215080Y-83946997D01*
X180199500Y-84025321D01*
X180199500Y-84574678D01*
X180214032Y-84647735D01*
X180214033Y-84647739D01*
X180214034Y-84647740D01*
X180269399Y-84730601D01*
X180339862Y-84777682D01*
X180339864Y-84777684D01*
X180352259Y-84785966D01*
X180425323Y-84800500D01*
X180425326Y-84800500D01*
X180774676Y-84800500D01*
X180774677Y-84800499D01*
X180847740Y-84785966D01*
X180930601Y-84730601D01*
X180985966Y-84647740D01*
X181000500Y-84574674D01*
X181000500Y-84025326D01*
X181000500Y-84025323D01*
X180987203Y-83958478D01*
X180985966Y-83952260D01*
X180971396Y-83930454D01*
X180965746Y-83912409D01*
X180955523Y-83896501D01*
X180951071Y-83865538D01*
X180950520Y-83863778D01*
X180950500Y-83861566D01*
X180950500Y-83846544D01*
X180970185Y-83779505D01*
X180986819Y-83758863D01*
X181858863Y-82886819D01*
X181920186Y-82853334D01*
X181946544Y-82850500D01*
X182020614Y-82850500D01*
X182087653Y-82870185D01*
X182108295Y-82886819D01*
X182161985Y-82940509D01*
X182161986Y-82940510D01*
X182161988Y-82940511D01*
X182287511Y-83012982D01*
X182287512Y-83012982D01*
X182287515Y-83012984D01*
X182427525Y-83050500D01*
X182427528Y-83050500D01*
X182572472Y-83050500D01*
X182572475Y-83050500D01*
X182712485Y-83012984D01*
X182838015Y-82940509D01*
X182940509Y-82838015D01*
X183012984Y-82712485D01*
X183050500Y-82572475D01*
X183050500Y-82427525D01*
X183012984Y-82287515D01*
X182973733Y-82219531D01*
X182940511Y-82161988D01*
X182940506Y-82161982D01*
X182838017Y-82059493D01*
X182838011Y-82059488D01*
X182712488Y-81987017D01*
X182712489Y-81987017D01*
X182701006Y-81983940D01*
X182572475Y-81949500D01*
X182427525Y-81949500D01*
X182298993Y-81983940D01*
X182287511Y-81987017D01*
X182161988Y-82059488D01*
X182161982Y-82059493D01*
X182108295Y-82113181D01*
X182046972Y-82146666D01*
X182020614Y-82149500D01*
X181703856Y-82149500D01*
X181614712Y-82173386D01*
X181614709Y-82173387D01*
X181534791Y-82219527D01*
X181534786Y-82219531D01*
X180701855Y-83052462D01*
X180640532Y-83085947D01*
X180570840Y-83080963D01*
X180514907Y-83039091D01*
X180506787Y-83026781D01*
X180462168Y-82949500D01*
X180440509Y-82911985D01*
X180338015Y-82809491D01*
X180338013Y-82809490D01*
X180338011Y-82809488D01*
X180212488Y-82737017D01*
X180212489Y-82737017D01*
X180201006Y-82733940D01*
X180072475Y-82699500D01*
X179927525Y-82699500D01*
X179798993Y-82733940D01*
X179787511Y-82737017D01*
X179661988Y-82809488D01*
X179661982Y-82809493D01*
X179559493Y-82911982D01*
X179559488Y-82911988D01*
X179487017Y-83037511D01*
X179487016Y-83037515D01*
X179449500Y-83177525D01*
X179449500Y-83177527D01*
X179449500Y-83253456D01*
X179429815Y-83320495D01*
X179413181Y-83341137D01*
X179119531Y-83634786D01*
X179119530Y-83634788D01*
X179087360Y-83690509D01*
X179073386Y-83714712D01*
X179061556Y-83758863D01*
X179049500Y-83803856D01*
X179049500Y-83861566D01*
X179029815Y-83928605D01*
X179028603Y-83930456D01*
X179014033Y-83952261D01*
X178999500Y-84025323D01*
X178999500Y-84574678D01*
X179014032Y-84647735D01*
X179014033Y-84647739D01*
X179014034Y-84647740D01*
X179069399Y-84730601D01*
X179111045Y-84758427D01*
X179155849Y-84812038D01*
X179164557Y-84881363D01*
X179134403Y-84944391D01*
X179085489Y-84977710D01*
X179007916Y-85006644D01*
X179007906Y-85006649D01*
X178892812Y-85092809D01*
X178892809Y-85092812D01*
X178806649Y-85207906D01*
X178806645Y-85207913D01*
X178756403Y-85342620D01*
X178756401Y-85342627D01*
X178750000Y-85402155D01*
X168843527Y-85402155D01*
X168934512Y-85311170D01*
X171358863Y-82886819D01*
X171420186Y-82853334D01*
X171446544Y-82850500D01*
X174546142Y-82850500D01*
X174546144Y-82850500D01*
X174635288Y-82826614D01*
X174645912Y-82820480D01*
X174715212Y-82780470D01*
X179030470Y-78465212D01*
X179076614Y-78385288D01*
X179100500Y-78296143D01*
X179100500Y-78203856D01*
X179100500Y-76579386D01*
X179120185Y-76512347D01*
X179136819Y-76491705D01*
X179190509Y-76438015D01*
X179262984Y-76312485D01*
X179300500Y-76172475D01*
X179300500Y-76027525D01*
X179262984Y-75887515D01*
X179211918Y-75799067D01*
X179190511Y-75761988D01*
X179190506Y-75761982D01*
X179140705Y-75712181D01*
X179107220Y-75650858D01*
X179112204Y-75581166D01*
X179154076Y-75525233D01*
X179219540Y-75500816D01*
X179228386Y-75500500D01*
X189934108Y-75500500D01*
X189997294Y-75500500D01*
X190002702Y-75500617D01*
X190386773Y-75517386D01*
X190397505Y-75518326D01*
X190775963Y-75568150D01*
X190786601Y-75570025D01*
X191159279Y-75652647D01*
X191169720Y-75655445D01*
X191533765Y-75770227D01*
X191543911Y-75773920D01*
X191896578Y-75920000D01*
X191906369Y-75924566D01*
X192244942Y-76100816D01*
X192254309Y-76106223D01*
X192358303Y-76172475D01*
X192576244Y-76311318D01*
X192585105Y-76317523D01*
X192887930Y-76549889D01*
X192896217Y-76556843D01*
X193177635Y-76814715D01*
X193185284Y-76822364D01*
X193443156Y-77103782D01*
X193450110Y-77112069D01*
X193682476Y-77414894D01*
X193688681Y-77423755D01*
X193893775Y-77745689D01*
X193899183Y-77755057D01*
X194075430Y-78093623D01*
X194080002Y-78103427D01*
X194226075Y-78456078D01*
X194229775Y-78466244D01*
X194344553Y-78830276D01*
X194347353Y-78840724D01*
X194429972Y-79213390D01*
X194431850Y-79224044D01*
X194481671Y-79602472D01*
X194482614Y-79613248D01*
X194499382Y-79997297D01*
X194499500Y-80002706D01*
X194499500Y-119997293D01*
X194499382Y-120002702D01*
X194482614Y-120386751D01*
X194481671Y-120397527D01*
X194431850Y-120775955D01*
X194429972Y-120786609D01*
X194347353Y-121159275D01*
X194344553Y-121169723D01*
X194229775Y-121533755D01*
X194226075Y-121543921D01*
X194080002Y-121896572D01*
X194075430Y-121906376D01*
X193899183Y-122244942D01*
X193893775Y-122254310D01*
X193688681Y-122576244D01*
X193682476Y-122585105D01*
X193450110Y-122887930D01*
X193443156Y-122896217D01*
X193185284Y-123177635D01*
X193177635Y-123185284D01*
X192896217Y-123443156D01*
X192887930Y-123450110D01*
X192585105Y-123682476D01*
X192576244Y-123688681D01*
X192254310Y-123893775D01*
X192244942Y-123899183D01*
X191906376Y-124075430D01*
X191896572Y-124080002D01*
X191543921Y-124226075D01*
X191533755Y-124229775D01*
X191169723Y-124344553D01*
X191159275Y-124347353D01*
X190786609Y-124429972D01*
X190775955Y-124431850D01*
X190397527Y-124481671D01*
X190386751Y-124482614D01*
X190002703Y-124499382D01*
X189997294Y-124499500D01*
X110002706Y-124499500D01*
X109997297Y-124499382D01*
X109613248Y-124482614D01*
X109602474Y-124481671D01*
X109540007Y-124473447D01*
X109224044Y-124431850D01*
X109213390Y-124429972D01*
X108840724Y-124347353D01*
X108830276Y-124344553D01*
X108466244Y-124229775D01*
X108456078Y-124226075D01*
X108103427Y-124080002D01*
X108093623Y-124075430D01*
X107755057Y-123899183D01*
X107745689Y-123893775D01*
X107423755Y-123688681D01*
X107414894Y-123682476D01*
X107112069Y-123450110D01*
X107103782Y-123443156D01*
X106822364Y-123185284D01*
X106814715Y-123177635D01*
X106556843Y-122896217D01*
X106549889Y-122887930D01*
X106317523Y-122585105D01*
X106311318Y-122576244D01*
X106272540Y-122515374D01*
X106106224Y-122254310D01*
X106100816Y-122244942D01*
X105924569Y-121906376D01*
X105919997Y-121896572D01*
X105889304Y-121822472D01*
X105829265Y-121677525D01*
X140449500Y-121677525D01*
X140449500Y-121822475D01*
X140487016Y-121962485D01*
X140487017Y-121962488D01*
X140559488Y-122088011D01*
X140559490Y-122088013D01*
X140559491Y-122088015D01*
X140661985Y-122190509D01*
X140661986Y-122190510D01*
X140661988Y-122190511D01*
X140787511Y-122262982D01*
X140787512Y-122262982D01*
X140787515Y-122262984D01*
X140927525Y-122300500D01*
X140927528Y-122300500D01*
X141072472Y-122300500D01*
X141072475Y-122300500D01*
X141212485Y-122262984D01*
X141338015Y-122190509D01*
X141440509Y-122088015D01*
X141512984Y-121962485D01*
X141550500Y-121822475D01*
X141550500Y-121751615D01*
X144680000Y-121751615D01*
X144680000Y-122000111D01*
X145380000Y-122000111D01*
X145380000Y-122500111D01*
X144680000Y-122500111D01*
X144680000Y-122748606D01*
X144718427Y-122941792D01*
X144718430Y-122941804D01*
X144793807Y-123123782D01*
X144793814Y-123123795D01*
X144903248Y-123287573D01*
X144903251Y-123287577D01*
X145042533Y-123426859D01*
X145042537Y-123426862D01*
X145206315Y-123536296D01*
X145206328Y-123536303D01*
X145388308Y-123611680D01*
X145430000Y-123619973D01*
X145430000Y-122817099D01*
X145439940Y-122834316D01*
X145495795Y-122890171D01*
X145564204Y-122929667D01*
X145640504Y-122950111D01*
X145719496Y-122950111D01*
X145795796Y-122929667D01*
X145864205Y-122890171D01*
X145920060Y-122834316D01*
X145930000Y-122817099D01*
X145930000Y-123619973D01*
X145971690Y-123611680D01*
X145971692Y-123611680D01*
X146153671Y-123536303D01*
X146153684Y-123536296D01*
X146317462Y-123426862D01*
X146317466Y-123426859D01*
X146456748Y-123287577D01*
X146456751Y-123287573D01*
X146566185Y-123123795D01*
X146566192Y-123123782D01*
X146641569Y-122941804D01*
X146641572Y-122941792D01*
X146679999Y-122748606D01*
X146680000Y-122748603D01*
X146680000Y-122500111D01*
X145980000Y-122500111D01*
X145980000Y-122000111D01*
X146680000Y-122000111D01*
X146680000Y-121751619D01*
X146679999Y-121751615D01*
X153320000Y-121751615D01*
X153320000Y-122000111D01*
X154020000Y-122000111D01*
X154020000Y-122500111D01*
X153320000Y-122500111D01*
X153320000Y-122748606D01*
X153358427Y-122941792D01*
X153358430Y-122941804D01*
X153433807Y-123123782D01*
X153433814Y-123123795D01*
X153543248Y-123287573D01*
X153543251Y-123287577D01*
X153682533Y-123426859D01*
X153682537Y-123426862D01*
X153846315Y-123536296D01*
X153846328Y-123536303D01*
X154028308Y-123611680D01*
X154070000Y-123619973D01*
X154070000Y-122817099D01*
X154079940Y-122834316D01*
X154135795Y-122890171D01*
X154204204Y-122929667D01*
X154280504Y-122950111D01*
X154359496Y-122950111D01*
X154435796Y-122929667D01*
X154504205Y-122890171D01*
X154560060Y-122834316D01*
X154570000Y-122817099D01*
X154570000Y-123619973D01*
X154611690Y-123611680D01*
X154611692Y-123611680D01*
X154793671Y-123536303D01*
X154793684Y-123536296D01*
X154957462Y-123426862D01*
X154957466Y-123426859D01*
X155096748Y-123287577D01*
X155096751Y-123287573D01*
X155206185Y-123123795D01*
X155206192Y-123123782D01*
X155281569Y-122941804D01*
X155281572Y-122941792D01*
X155319999Y-122748606D01*
X155320000Y-122748603D01*
X155320000Y-122500111D01*
X154620000Y-122500111D01*
X154620000Y-122000111D01*
X155320000Y-122000111D01*
X155320000Y-121751619D01*
X155319999Y-121751615D01*
X155281572Y-121558429D01*
X155281569Y-121558417D01*
X155206192Y-121376439D01*
X155206185Y-121376426D01*
X155096751Y-121212648D01*
X155096748Y-121212644D01*
X154957466Y-121073362D01*
X154957462Y-121073359D01*
X154793684Y-120963925D01*
X154793671Y-120963918D01*
X154611691Y-120888540D01*
X154611683Y-120888538D01*
X154570000Y-120880246D01*
X154570000Y-121683122D01*
X154560060Y-121665906D01*
X154504205Y-121610051D01*
X154435796Y-121570555D01*
X154359496Y-121550111D01*
X154280504Y-121550111D01*
X154204204Y-121570555D01*
X154135795Y-121610051D01*
X154079940Y-121665906D01*
X154070000Y-121683122D01*
X154070000Y-120880247D01*
X154069999Y-120880246D01*
X154028316Y-120888538D01*
X154028308Y-120888540D01*
X153846328Y-120963918D01*
X153846315Y-120963925D01*
X153682537Y-121073359D01*
X153682533Y-121073362D01*
X153543251Y-121212644D01*
X153543248Y-121212648D01*
X153433814Y-121376426D01*
X153433807Y-121376439D01*
X153358430Y-121558417D01*
X153358427Y-121558429D01*
X153320000Y-121751615D01*
X146679999Y-121751615D01*
X146641572Y-121558429D01*
X146641569Y-121558417D01*
X146566192Y-121376439D01*
X146566185Y-121376426D01*
X146456751Y-121212648D01*
X146456748Y-121212644D01*
X146317466Y-121073362D01*
X146317462Y-121073359D01*
X146153684Y-120963925D01*
X146153671Y-120963918D01*
X145971691Y-120888540D01*
X145971683Y-120888538D01*
X145930000Y-120880246D01*
X145930000Y-121683122D01*
X145920060Y-121665906D01*
X145864205Y-121610051D01*
X145795796Y-121570555D01*
X145719496Y-121550111D01*
X145640504Y-121550111D01*
X145564204Y-121570555D01*
X145495795Y-121610051D01*
X145439940Y-121665906D01*
X145430000Y-121683122D01*
X145430000Y-120880247D01*
X145429999Y-120880246D01*
X145388316Y-120888538D01*
X145388308Y-120888540D01*
X145206328Y-120963918D01*
X145206315Y-120963925D01*
X145042537Y-121073359D01*
X145042533Y-121073362D01*
X144903251Y-121212644D01*
X144903248Y-121212648D01*
X144793814Y-121376426D01*
X144793807Y-121376439D01*
X144718430Y-121558417D01*
X144718427Y-121558429D01*
X144680000Y-121751615D01*
X141550500Y-121751615D01*
X141550500Y-121677525D01*
X141512984Y-121537515D01*
X141440509Y-121411985D01*
X141338015Y-121309491D01*
X141338013Y-121309490D01*
X141338011Y-121309488D01*
X141212488Y-121237017D01*
X141212489Y-121237017D01*
X141201006Y-121233940D01*
X141072475Y-121199500D01*
X140927525Y-121199500D01*
X140798993Y-121233940D01*
X140787511Y-121237017D01*
X140661988Y-121309488D01*
X140661982Y-121309493D01*
X140559493Y-121411982D01*
X140559488Y-121411988D01*
X140487017Y-121537511D01*
X140485299Y-121543921D01*
X140449500Y-121677525D01*
X105829265Y-121677525D01*
X105773920Y-121543911D01*
X105770224Y-121533755D01*
X105731831Y-121411988D01*
X105655445Y-121169720D01*
X105652646Y-121159275D01*
X105646101Y-121129752D01*
X105570025Y-120786601D01*
X105568149Y-120775955D01*
X105555191Y-120677527D01*
X105518326Y-120397505D01*
X105517386Y-120386773D01*
X105500618Y-120002702D01*
X105500500Y-119997293D01*
X105500500Y-118927525D01*
X116699500Y-118927525D01*
X116699500Y-119072475D01*
X116719097Y-119145610D01*
X116737017Y-119212488D01*
X116809488Y-119338011D01*
X116809490Y-119338013D01*
X116809491Y-119338015D01*
X116911985Y-119440509D01*
X116911986Y-119440510D01*
X116911988Y-119440511D01*
X117037511Y-119512982D01*
X117037512Y-119512982D01*
X117037515Y-119512984D01*
X117177525Y-119550500D01*
X117177528Y-119550500D01*
X117322472Y-119550500D01*
X117322475Y-119550500D01*
X117462485Y-119512984D01*
X117588015Y-119440509D01*
X117690509Y-119338015D01*
X117762984Y-119212485D01*
X117800500Y-119072475D01*
X117800500Y-118927525D01*
X117762984Y-118787515D01*
X117723199Y-118718606D01*
X117690511Y-118661988D01*
X117690506Y-118661982D01*
X117588017Y-118559493D01*
X117588011Y-118559488D01*
X117462488Y-118487017D01*
X117462489Y-118487017D01*
X117451006Y-118483940D01*
X117322475Y-118449500D01*
X117177525Y-118449500D01*
X117048993Y-118483940D01*
X117037511Y-118487017D01*
X116911988Y-118559488D01*
X116911982Y-118559493D01*
X116809493Y-118661982D01*
X116809488Y-118661988D01*
X116737017Y-118787511D01*
X116732583Y-118804055D01*
X116699500Y-118927525D01*
X105500500Y-118927525D01*
X105500500Y-115997844D01*
X118750000Y-115997844D01*
X118756401Y-116057372D01*
X118756403Y-116057379D01*
X118806645Y-116192086D01*
X118806649Y-116192093D01*
X118892809Y-116307187D01*
X118892812Y-116307190D01*
X119007906Y-116393350D01*
X119007913Y-116393354D01*
X119142620Y-116443596D01*
X119142627Y-116443598D01*
X119202155Y-116449999D01*
X119202172Y-116450000D01*
X119249998Y-116450000D01*
X119250000Y-116449998D01*
X119250000Y-115850000D01*
X118750000Y-115850000D01*
X118750000Y-115997844D01*
X105500500Y-115997844D01*
X105500500Y-115402155D01*
X118750000Y-115402155D01*
X118750000Y-115550000D01*
X119276000Y-115550000D01*
X119284685Y-115552550D01*
X119293647Y-115551262D01*
X119317687Y-115562240D01*
X119343039Y-115569685D01*
X119348966Y-115576525D01*
X119357203Y-115580287D01*
X119371492Y-115602521D01*
X119388794Y-115622489D01*
X119391081Y-115633003D01*
X119394977Y-115639065D01*
X119400000Y-115674000D01*
X119400000Y-115700000D01*
X119426000Y-115700000D01*
X119493039Y-115719685D01*
X119538794Y-115772489D01*
X119550000Y-115824000D01*
X119550000Y-116395197D01*
X119533387Y-116457196D01*
X119488359Y-116535186D01*
X119488356Y-116535192D01*
X119487016Y-116537515D01*
X119484970Y-116545148D01*
X119484966Y-116545162D01*
X119452720Y-116665509D01*
X119449500Y-116677525D01*
X119449500Y-116822475D01*
X119487016Y-116962485D01*
X119487017Y-116962488D01*
X119559488Y-117088011D01*
X119559490Y-117088013D01*
X119559491Y-117088015D01*
X119661985Y-117190509D01*
X119661986Y-117190510D01*
X119661988Y-117190511D01*
X119787511Y-117262982D01*
X119787512Y-117262982D01*
X119787515Y-117262984D01*
X119927525Y-117300500D01*
X119927528Y-117300500D01*
X120072472Y-117300500D01*
X120072475Y-117300500D01*
X120212485Y-117262984D01*
X120338015Y-117190509D01*
X120440509Y-117088015D01*
X120512984Y-116962485D01*
X120550500Y-116822475D01*
X120550500Y-116746544D01*
X120570185Y-116679505D01*
X120586819Y-116658863D01*
X120710496Y-116535186D01*
X120880470Y-116365212D01*
X120926614Y-116285288D01*
X120939548Y-116237016D01*
X120950500Y-116196144D01*
X120950500Y-116131254D01*
X120951328Y-116124126D01*
X120962283Y-116098303D01*
X120970185Y-116071393D01*
X120971358Y-116069602D01*
X120985966Y-116047740D01*
X121000500Y-115974674D01*
X121000500Y-115425326D01*
X121000500Y-115425323D01*
X121000499Y-115425321D01*
X120985967Y-115352264D01*
X120985966Y-115352260D01*
X120930601Y-115269399D01*
X120847740Y-115214034D01*
X120847739Y-115214033D01*
X120847735Y-115214032D01*
X120774677Y-115199500D01*
X120774674Y-115199500D01*
X120425326Y-115199500D01*
X120425324Y-115199500D01*
X120352259Y-115214033D01*
X120329706Y-115229103D01*
X120311661Y-115234752D01*
X120295752Y-115244977D01*
X120264787Y-115249429D01*
X120263028Y-115249980D01*
X120260817Y-115250000D01*
X120124000Y-115250000D01*
X120056961Y-115230315D01*
X120011206Y-115177511D01*
X120000000Y-115126000D01*
X120000000Y-114874000D01*
X120019685Y-114806961D01*
X120072489Y-114761206D01*
X120124000Y-114750000D01*
X120260817Y-114750000D01*
X120327856Y-114769685D01*
X120329706Y-114770897D01*
X120352259Y-114785966D01*
X120425323Y-114800500D01*
X120425326Y-114800500D01*
X120774676Y-114800500D01*
X120774677Y-114800499D01*
X120847740Y-114785966D01*
X120930601Y-114730601D01*
X120985966Y-114647740D01*
X121000500Y-114574674D01*
X121000500Y-114025326D01*
X121000500Y-114025323D01*
X120987203Y-113958478D01*
X120985966Y-113952260D01*
X120971396Y-113930454D01*
X120950520Y-113863778D01*
X120950500Y-113861566D01*
X120950500Y-113596544D01*
X120970185Y-113529505D01*
X120986819Y-113508863D01*
X121608863Y-112886819D01*
X121670186Y-112853334D01*
X121696544Y-112850500D01*
X122270614Y-112850500D01*
X122337653Y-112870185D01*
X122358295Y-112886819D01*
X122411985Y-112940509D01*
X122411986Y-112940510D01*
X122411988Y-112940511D01*
X122537511Y-113012982D01*
X122537512Y-113012982D01*
X122537515Y-113012984D01*
X122677525Y-113050500D01*
X122677528Y-113050500D01*
X122822472Y-113050500D01*
X122822475Y-113050500D01*
X122962485Y-113012984D01*
X123088015Y-112940509D01*
X123190509Y-112838015D01*
X123262984Y-112712485D01*
X123300500Y-112572475D01*
X123300500Y-112427525D01*
X123262984Y-112287515D01*
X123223733Y-112219531D01*
X123190511Y-112161988D01*
X123190506Y-112161982D01*
X123088017Y-112059493D01*
X123088011Y-112059488D01*
X122962488Y-111987017D01*
X122962489Y-111987017D01*
X122951006Y-111983940D01*
X122822475Y-111949500D01*
X122677525Y-111949500D01*
X122548993Y-111983940D01*
X122537511Y-111987017D01*
X122411988Y-112059488D01*
X122411982Y-112059493D01*
X122358295Y-112113181D01*
X122296972Y-112146666D01*
X122270614Y-112149500D01*
X121453856Y-112149500D01*
X121364712Y-112173386D01*
X121364709Y-112173387D01*
X121284791Y-112219527D01*
X121284786Y-112219531D01*
X120473011Y-113031306D01*
X120411688Y-113064791D01*
X120341996Y-113059807D01*
X120323330Y-113051012D01*
X120212488Y-112987017D01*
X120212489Y-112987017D01*
X120201006Y-112983940D01*
X120072475Y-112949500D01*
X119927525Y-112949500D01*
X119798993Y-112983940D01*
X119787511Y-112987017D01*
X119661988Y-113059488D01*
X119661982Y-113059493D01*
X119559493Y-113161982D01*
X119559488Y-113161988D01*
X119487017Y-113287511D01*
X119487016Y-113287515D01*
X119449500Y-113427525D01*
X119449500Y-113427527D01*
X119449500Y-113503455D01*
X119429815Y-113570494D01*
X119413181Y-113591136D01*
X119226322Y-113777994D01*
X119164999Y-113811479D01*
X119162839Y-113811929D01*
X119152261Y-113814033D01*
X119069399Y-113869399D01*
X119014033Y-113952260D01*
X119014032Y-113952264D01*
X118999500Y-114025321D01*
X118999500Y-114574678D01*
X119014032Y-114647735D01*
X119014033Y-114647739D01*
X119014034Y-114647740D01*
X119069399Y-114730601D01*
X119111045Y-114758427D01*
X119155849Y-114812038D01*
X119164557Y-114881363D01*
X119134403Y-114944391D01*
X119085489Y-114977710D01*
X119007916Y-115006644D01*
X119007906Y-115006649D01*
X118892812Y-115092809D01*
X118892809Y-115092812D01*
X118806649Y-115207906D01*
X118806645Y-115207913D01*
X118756403Y-115342620D01*
X118756401Y-115342627D01*
X118750000Y-115402155D01*
X105500500Y-115402155D01*
X105500500Y-102427525D01*
X111699500Y-102427525D01*
X111699500Y-102572475D01*
X111732658Y-102696220D01*
X111737017Y-102712488D01*
X111809488Y-102838011D01*
X111809490Y-102838013D01*
X111809491Y-102838015D01*
X111911985Y-102940509D01*
X111911986Y-102940510D01*
X111911988Y-102940511D01*
X112037511Y-103012982D01*
X112037512Y-103012982D01*
X112037515Y-103012984D01*
X112177525Y-103050500D01*
X112177528Y-103050500D01*
X112322472Y-103050500D01*
X112322475Y-103050500D01*
X112462485Y-103012984D01*
X112588015Y-102940509D01*
X112690509Y-102838015D01*
X112762984Y-102712485D01*
X112800500Y-102572475D01*
X112800500Y-102427525D01*
X112762984Y-102287515D01*
X112759456Y-102281405D01*
X112690511Y-102161988D01*
X112690506Y-102161982D01*
X112588017Y-102059493D01*
X112588015Y-102059491D01*
X112462485Y-101987016D01*
X112322475Y-101949500D01*
X112177525Y-101949500D01*
X112075328Y-101976884D01*
X112037511Y-101987017D01*
X111911988Y-102059488D01*
X111911982Y-102059493D01*
X111809493Y-102161982D01*
X111809488Y-102161988D01*
X111737017Y-102287511D01*
X111737016Y-102287515D01*
X111699500Y-102427525D01*
X105500500Y-102427525D01*
X105500500Y-101927525D01*
X120949500Y-101927525D01*
X120949500Y-102072475D01*
X120980122Y-102186755D01*
X120987017Y-102212488D01*
X121059488Y-102338011D01*
X121059490Y-102338013D01*
X121059491Y-102338015D01*
X121161985Y-102440509D01*
X121161986Y-102440510D01*
X121161988Y-102440511D01*
X121287511Y-102512982D01*
X121287512Y-102512982D01*
X121287515Y-102512984D01*
X121427525Y-102550500D01*
X121427528Y-102550500D01*
X121572472Y-102550500D01*
X121572475Y-102550500D01*
X121712485Y-102512984D01*
X121838015Y-102440509D01*
X121940509Y-102338015D01*
X122012984Y-102212485D01*
X122050500Y-102072475D01*
X122050500Y-101927525D01*
X122012984Y-101787515D01*
X121991613Y-101750500D01*
X121940511Y-101661988D01*
X121940506Y-101661982D01*
X121838017Y-101559493D01*
X121838011Y-101559488D01*
X121712488Y-101487017D01*
X121712489Y-101487017D01*
X121701006Y-101483940D01*
X121572475Y-101449500D01*
X121427525Y-101449500D01*
X121298993Y-101483940D01*
X121287511Y-101487017D01*
X121161988Y-101559488D01*
X121161982Y-101559493D01*
X121059493Y-101661982D01*
X121059488Y-101661988D01*
X120987017Y-101787511D01*
X120987016Y-101787515D01*
X120949500Y-101927525D01*
X105500500Y-101927525D01*
X105500500Y-100727525D01*
X111349500Y-100727525D01*
X111349500Y-100872475D01*
X111387016Y-101012485D01*
X111387017Y-101012488D01*
X111459488Y-101138011D01*
X111459490Y-101138013D01*
X111459491Y-101138015D01*
X111561985Y-101240509D01*
X111561986Y-101240510D01*
X111561988Y-101240511D01*
X111687511Y-101312982D01*
X111687512Y-101312982D01*
X111687515Y-101312984D01*
X111827525Y-101350500D01*
X111827528Y-101350500D01*
X111972472Y-101350500D01*
X111972475Y-101350500D01*
X112112485Y-101312984D01*
X112238015Y-101240509D01*
X112291705Y-101186819D01*
X112353028Y-101153334D01*
X112379386Y-101150500D01*
X116746142Y-101150500D01*
X116746144Y-101150500D01*
X116835288Y-101126614D01*
X116847558Y-101119530D01*
X116915212Y-101080470D01*
X117318157Y-100677525D01*
X118699500Y-100677525D01*
X118699500Y-100822475D01*
X118730460Y-100938017D01*
X118737017Y-100962488D01*
X118809488Y-101088011D01*
X118809490Y-101088013D01*
X118809491Y-101088015D01*
X118911985Y-101190509D01*
X118911986Y-101190510D01*
X118911988Y-101190511D01*
X119037511Y-101262982D01*
X119037512Y-101262982D01*
X119037515Y-101262984D01*
X119177525Y-101300500D01*
X119177528Y-101300500D01*
X119322472Y-101300500D01*
X119322475Y-101300500D01*
X119462485Y-101262984D01*
X119588015Y-101190509D01*
X119690509Y-101088015D01*
X119762984Y-100962485D01*
X119800500Y-100822475D01*
X119800500Y-100677525D01*
X119762984Y-100537515D01*
X119757217Y-100527527D01*
X119745020Y-100506400D01*
X119745019Y-100506399D01*
X119713915Y-100452525D01*
X130524500Y-100452525D01*
X130524500Y-100597475D01*
X130559347Y-100727525D01*
X130562017Y-100737488D01*
X130634488Y-100863011D01*
X130634490Y-100863013D01*
X130634491Y-100863015D01*
X130736985Y-100965509D01*
X130736986Y-100965510D01*
X130736988Y-100965511D01*
X130862511Y-101037982D01*
X130862512Y-101037982D01*
X130862515Y-101037984D01*
X131002525Y-101075500D01*
X131002528Y-101075500D01*
X131147472Y-101075500D01*
X131147475Y-101075500D01*
X131287485Y-101037984D01*
X131413015Y-100965509D01*
X131515509Y-100863015D01*
X131587984Y-100737485D01*
X131625500Y-100597475D01*
X131625500Y-100452525D01*
X131587984Y-100312515D01*
X131586239Y-100309493D01*
X131515511Y-100186988D01*
X131515506Y-100186982D01*
X131413017Y-100084493D01*
X131413011Y-100084488D01*
X131287488Y-100012017D01*
X131287489Y-100012017D01*
X131276006Y-100008940D01*
X131147475Y-99974500D01*
X131002525Y-99974500D01*
X130873993Y-100008940D01*
X130862511Y-100012017D01*
X130736988Y-100084488D01*
X130736982Y-100084493D01*
X130634493Y-100186982D01*
X130634488Y-100186988D01*
X130562017Y-100312511D01*
X130562016Y-100312515D01*
X130524500Y-100452525D01*
X119713915Y-100452525D01*
X119690509Y-100411985D01*
X119588015Y-100309491D01*
X119588013Y-100309490D01*
X119588011Y-100309488D01*
X119462488Y-100237017D01*
X119462489Y-100237017D01*
X119451006Y-100233940D01*
X119322475Y-100199500D01*
X119177525Y-100199500D01*
X119048993Y-100233940D01*
X119037511Y-100237017D01*
X118911988Y-100309488D01*
X118911982Y-100309493D01*
X118809493Y-100411982D01*
X118809488Y-100411988D01*
X118737017Y-100537511D01*
X118737016Y-100537515D01*
X118699500Y-100677525D01*
X117318157Y-100677525D01*
X120093694Y-97901988D01*
X123178862Y-94816819D01*
X123240185Y-94783334D01*
X123266543Y-94780500D01*
X139320614Y-94780500D01*
X139387653Y-94800185D01*
X139408295Y-94816819D01*
X139461985Y-94870509D01*
X139461986Y-94870510D01*
X139461988Y-94870511D01*
X139587511Y-94942982D01*
X139587512Y-94942982D01*
X139587515Y-94942984D01*
X139727525Y-94980500D01*
X139727528Y-94980500D01*
X139872472Y-94980500D01*
X139872475Y-94980500D01*
X140012485Y-94942984D01*
X140138015Y-94870509D01*
X140240509Y-94768015D01*
X140312984Y-94642485D01*
X140350500Y-94502475D01*
X140350500Y-94427525D01*
X160449500Y-94427525D01*
X160449500Y-94572475D01*
X160487016Y-94712485D01*
X160487017Y-94712488D01*
X160559488Y-94838011D01*
X160559490Y-94838013D01*
X160559491Y-94838015D01*
X160661985Y-94940509D01*
X160661986Y-94940510D01*
X160661988Y-94940511D01*
X160787511Y-95012982D01*
X160787512Y-95012982D01*
X160787515Y-95012984D01*
X160927525Y-95050500D01*
X160927528Y-95050500D01*
X161072472Y-95050500D01*
X161072475Y-95050500D01*
X161212485Y-95012984D01*
X161338015Y-94940509D01*
X161391705Y-94886819D01*
X161453028Y-94853334D01*
X161479386Y-94850500D01*
X162520614Y-94850500D01*
X162587653Y-94870185D01*
X162608295Y-94886819D01*
X162661985Y-94940509D01*
X162661986Y-94940510D01*
X162661988Y-94940511D01*
X162787511Y-95012982D01*
X162787512Y-95012982D01*
X162787515Y-95012984D01*
X162927525Y-95050500D01*
X162927528Y-95050500D01*
X163072472Y-95050500D01*
X163072475Y-95050500D01*
X163212485Y-95012984D01*
X163338015Y-94940509D01*
X163440509Y-94838015D01*
X163512984Y-94712485D01*
X163550500Y-94572475D01*
X163550500Y-94427525D01*
X163512984Y-94287515D01*
X163472569Y-94217515D01*
X163440511Y-94161988D01*
X163440506Y-94161982D01*
X163338017Y-94059493D01*
X163338011Y-94059488D01*
X163212488Y-93987017D01*
X163212489Y-93987017D01*
X163201006Y-93983940D01*
X163072475Y-93949500D01*
X162927525Y-93949500D01*
X162798993Y-93983940D01*
X162787511Y-93987017D01*
X162661988Y-94059488D01*
X162661982Y-94059493D01*
X162608295Y-94113181D01*
X162546972Y-94146666D01*
X162520614Y-94149500D01*
X161479386Y-94149500D01*
X161412347Y-94129815D01*
X161391705Y-94113181D01*
X161338017Y-94059493D01*
X161338011Y-94059488D01*
X161212488Y-93987017D01*
X161212489Y-93987017D01*
X161201006Y-93983940D01*
X161072475Y-93949500D01*
X160927525Y-93949500D01*
X160798993Y-93983940D01*
X160787511Y-93987017D01*
X160661988Y-94059488D01*
X160661982Y-94059493D01*
X160559493Y-94161982D01*
X160559488Y-94161988D01*
X160487017Y-94287511D01*
X160487016Y-94287515D01*
X160449500Y-94427525D01*
X140350500Y-94427525D01*
X140350500Y-94357525D01*
X140312984Y-94217515D01*
X140280925Y-94161988D01*
X140240511Y-94091988D01*
X140240506Y-94091982D01*
X140138017Y-93989493D01*
X140138011Y-93989488D01*
X140012488Y-93917017D01*
X140012485Y-93917016D01*
X139983306Y-93909197D01*
X139923647Y-93872831D01*
X139893119Y-93809984D01*
X139901415Y-93740609D01*
X139945901Y-93686731D01*
X139967959Y-93674858D01*
X139972478Y-93672985D01*
X139972485Y-93672984D01*
X140098015Y-93600509D01*
X140200509Y-93498015D01*
X140272984Y-93372485D01*
X140310500Y-93232475D01*
X140310500Y-93087525D01*
X140272984Y-92947515D01*
X140233715Y-92879500D01*
X140200511Y-92821988D01*
X140200506Y-92821982D01*
X140098017Y-92719493D01*
X140098011Y-92719488D01*
X139972488Y-92647017D01*
X139972489Y-92647017D01*
X139968191Y-92645865D01*
X139943801Y-92639330D01*
X139884142Y-92602965D01*
X139853614Y-92540118D01*
X139861909Y-92470743D01*
X139906395Y-92416865D01*
X139913897Y-92412169D01*
X139931824Y-92401818D01*
X140038015Y-92340509D01*
X140140509Y-92238015D01*
X140212984Y-92112485D01*
X140250500Y-91972475D01*
X140250500Y-91827525D01*
X140212984Y-91687515D01*
X140140509Y-91561985D01*
X140038015Y-91459491D01*
X139976836Y-91424169D01*
X139922556Y-91392830D01*
X139874341Y-91342262D01*
X139861119Y-91273655D01*
X139887087Y-91208790D01*
X139944002Y-91168263D01*
X139952440Y-91165675D01*
X139962485Y-91162984D01*
X140088015Y-91090509D01*
X140190509Y-90988015D01*
X140262984Y-90862485D01*
X140300500Y-90722475D01*
X140300500Y-90577525D01*
X140262984Y-90437515D01*
X140190509Y-90311985D01*
X140088015Y-90209491D01*
X140088013Y-90209490D01*
X140088011Y-90209488D01*
X139962488Y-90137017D01*
X139962489Y-90137017D01*
X139956157Y-90135320D01*
X139898137Y-90119773D01*
X139838479Y-90083410D01*
X139807950Y-90020563D01*
X139816245Y-89951187D01*
X139860730Y-89897309D01*
X139898135Y-89880226D01*
X139962485Y-89862984D01*
X140088015Y-89790509D01*
X140190509Y-89688015D01*
X140262984Y-89562485D01*
X140300500Y-89422475D01*
X140300500Y-89277525D01*
X140262984Y-89137515D01*
X140225431Y-89072472D01*
X140190511Y-89011988D01*
X140190506Y-89011982D01*
X140088017Y-88909493D01*
X140088011Y-88909488D01*
X139962488Y-88837017D01*
X139962489Y-88837017D01*
X139944344Y-88832155D01*
X139822475Y-88799500D01*
X139677525Y-88799500D01*
X139555656Y-88832155D01*
X139537511Y-88837017D01*
X139411988Y-88909488D01*
X139411982Y-88909493D01*
X139309493Y-89011982D01*
X139309488Y-89011988D01*
X139237017Y-89137511D01*
X139237016Y-89137515D01*
X139199500Y-89277525D01*
X139199500Y-89277527D01*
X139199500Y-89353456D01*
X139179815Y-89420495D01*
X139163181Y-89441137D01*
X136161137Y-92443181D01*
X136099814Y-92476666D01*
X136073456Y-92479500D01*
X122361116Y-92479500D01*
X122271972Y-92503386D01*
X122271969Y-92503387D01*
X122192051Y-92549527D01*
X122192046Y-92549531D01*
X118128397Y-96613181D01*
X118067074Y-96646666D01*
X118040716Y-96649500D01*
X113805327Y-96649500D01*
X113716183Y-96673386D01*
X113716182Y-96673386D01*
X113716180Y-96673387D01*
X113716177Y-96673388D01*
X113636265Y-96719526D01*
X113636256Y-96719533D01*
X113119531Y-97236257D01*
X113119527Y-97236262D01*
X113073387Y-97316180D01*
X113073386Y-97316183D01*
X113049500Y-97405327D01*
X113049500Y-97720614D01*
X113029815Y-97787653D01*
X113013181Y-97808295D01*
X112959493Y-97861982D01*
X112959488Y-97861988D01*
X112887017Y-97987511D01*
X112887016Y-97987515D01*
X112849500Y-98127525D01*
X112849500Y-98272475D01*
X112885495Y-98406807D01*
X112887017Y-98412488D01*
X112959488Y-98538011D01*
X112959490Y-98538013D01*
X112959491Y-98538015D01*
X113061985Y-98640509D01*
X113061986Y-98640510D01*
X113061988Y-98640511D01*
X113187511Y-98712982D01*
X113187512Y-98712982D01*
X113187515Y-98712984D01*
X113187517Y-98712984D01*
X113195019Y-98716092D01*
X113194090Y-98718332D01*
X113243249Y-98748298D01*
X113273777Y-98811146D01*
X113265480Y-98880521D01*
X113220993Y-98934398D01*
X113154441Y-98955671D01*
X113151493Y-98955706D01*
X112385592Y-98955706D01*
X112318553Y-98936021D01*
X112297911Y-98919387D01*
X112244223Y-98865699D01*
X112244217Y-98865694D01*
X112118694Y-98793223D01*
X112118695Y-98793223D01*
X112087215Y-98784788D01*
X111978681Y-98755706D01*
X111833731Y-98755706D01*
X111725197Y-98784788D01*
X111693717Y-98793223D01*
X111568194Y-98865694D01*
X111568188Y-98865699D01*
X111465699Y-98968188D01*
X111465694Y-98968194D01*
X111393223Y-99093717D01*
X111393222Y-99093721D01*
X111355706Y-99233731D01*
X111355706Y-99378681D01*
X111393222Y-99518691D01*
X111393223Y-99518694D01*
X111465694Y-99644217D01*
X111465696Y-99644219D01*
X111465697Y-99644221D01*
X111568191Y-99746715D01*
X111568192Y-99746716D01*
X111568194Y-99746717D01*
X111693717Y-99819188D01*
X111693718Y-99819188D01*
X111693721Y-99819190D01*
X111833731Y-99856706D01*
X111833734Y-99856706D01*
X111978678Y-99856706D01*
X111978681Y-99856706D01*
X112118691Y-99819190D01*
X112244221Y-99746715D01*
X112297911Y-99693025D01*
X112359234Y-99659540D01*
X112385592Y-99656706D01*
X117048250Y-99656706D01*
X117115289Y-99676391D01*
X117161044Y-99729195D01*
X117170988Y-99798353D01*
X117141963Y-99861909D01*
X117135931Y-99868387D01*
X116591137Y-100413181D01*
X116529814Y-100446666D01*
X116503456Y-100449500D01*
X112379386Y-100449500D01*
X112312347Y-100429815D01*
X112291705Y-100413181D01*
X112238017Y-100359493D01*
X112238011Y-100359488D01*
X112112488Y-100287017D01*
X112112489Y-100287017D01*
X112088048Y-100280468D01*
X111972475Y-100249500D01*
X111827525Y-100249500D01*
X111711952Y-100280468D01*
X111687511Y-100287017D01*
X111561988Y-100359488D01*
X111561982Y-100359493D01*
X111459493Y-100461982D01*
X111459488Y-100461988D01*
X111387017Y-100587511D01*
X111387016Y-100587515D01*
X111349500Y-100727525D01*
X105500500Y-100727525D01*
X105500500Y-88917525D01*
X116709500Y-88917525D01*
X116709500Y-89062475D01*
X116747016Y-89202485D01*
X116747017Y-89202488D01*
X116819488Y-89328011D01*
X116819490Y-89328013D01*
X116819491Y-89328015D01*
X116921985Y-89430509D01*
X116921986Y-89430510D01*
X116921988Y-89430511D01*
X117047511Y-89502982D01*
X117047512Y-89502982D01*
X117047515Y-89502984D01*
X117187525Y-89540500D01*
X117187528Y-89540500D01*
X117332472Y-89540500D01*
X117332475Y-89540500D01*
X117472485Y-89502984D01*
X117598015Y-89430509D01*
X117700509Y-89328015D01*
X117772984Y-89202485D01*
X117810500Y-89062475D01*
X117810500Y-88917525D01*
X117772984Y-88777515D01*
X117734077Y-88710127D01*
X117700511Y-88651988D01*
X117700506Y-88651982D01*
X117598017Y-88549493D01*
X117598011Y-88549488D01*
X117472488Y-88477017D01*
X117472489Y-88477017D01*
X117461006Y-88473940D01*
X117332475Y-88439500D01*
X117187525Y-88439500D01*
X117058993Y-88473940D01*
X117047511Y-88477017D01*
X116921988Y-88549488D01*
X116921982Y-88549493D01*
X116819493Y-88651982D01*
X116819488Y-88651988D01*
X116747017Y-88777511D01*
X116747016Y-88777515D01*
X116709500Y-88917525D01*
X105500500Y-88917525D01*
X105500500Y-85402155D01*
X118750000Y-85402155D01*
X118750000Y-85550000D01*
X119276000Y-85550000D01*
X119284685Y-85552550D01*
X119293647Y-85551262D01*
X119317687Y-85562240D01*
X119343039Y-85569685D01*
X119348966Y-85576525D01*
X119357203Y-85580287D01*
X119371492Y-85602521D01*
X119388794Y-85622489D01*
X119391081Y-85633003D01*
X119394977Y-85639065D01*
X119400000Y-85674000D01*
X119400000Y-85700000D01*
X119426000Y-85700000D01*
X119493039Y-85719685D01*
X119538794Y-85772489D01*
X119550000Y-85824000D01*
X119550000Y-86145197D01*
X119545941Y-86160343D01*
X119546652Y-86173817D01*
X119533701Y-86206649D01*
X119533435Y-86207114D01*
X119487016Y-86287515D01*
X119486534Y-86289313D01*
X119481701Y-86297784D01*
X119461940Y-86316818D01*
X119444718Y-86338190D01*
X119437134Y-86340713D01*
X119431380Y-86346257D01*
X119404461Y-86351587D01*
X119378423Y-86360253D01*
X119370680Y-86358276D01*
X119362842Y-86359829D01*
X119337310Y-86349758D01*
X119310724Y-86342972D01*
X119305280Y-86337124D01*
X119297845Y-86334192D01*
X119281811Y-86311916D01*
X119263115Y-86291834D01*
X119261696Y-86283969D01*
X119257028Y-86277484D01*
X119250000Y-86236332D01*
X119250000Y-85850000D01*
X118750000Y-85850000D01*
X118750000Y-85997844D01*
X118756401Y-86057372D01*
X118756403Y-86057379D01*
X118806645Y-86192086D01*
X118806649Y-86192093D01*
X118892809Y-86307187D01*
X118892812Y-86307190D01*
X119007906Y-86393350D01*
X119007913Y-86393354D01*
X119142620Y-86443596D01*
X119142627Y-86443598D01*
X119202155Y-86449999D01*
X119202172Y-86450000D01*
X119260127Y-86450000D01*
X119299142Y-86428696D01*
X119368834Y-86433680D01*
X119424767Y-86475552D01*
X119449184Y-86541016D01*
X119449500Y-86549862D01*
X119449500Y-86572475D01*
X119478179Y-86679505D01*
X119487017Y-86712488D01*
X119559488Y-86838011D01*
X119559490Y-86838013D01*
X119559491Y-86838015D01*
X119661985Y-86940509D01*
X119661986Y-86940510D01*
X119661988Y-86940511D01*
X119787511Y-87012982D01*
X119787512Y-87012982D01*
X119787515Y-87012984D01*
X119927525Y-87050500D01*
X119927528Y-87050500D01*
X120072472Y-87050500D01*
X120072475Y-87050500D01*
X120212485Y-87012984D01*
X120338015Y-86940509D01*
X120440509Y-86838015D01*
X120512984Y-86712485D01*
X120550500Y-86572475D01*
X120550500Y-86496543D01*
X120570185Y-86429504D01*
X120586815Y-86408866D01*
X120773677Y-86222003D01*
X120834998Y-86188520D01*
X120837107Y-86188080D01*
X120847740Y-86185966D01*
X120930601Y-86130601D01*
X120985966Y-86047740D01*
X121000500Y-85974674D01*
X121000500Y-85425326D01*
X121000500Y-85425323D01*
X121000499Y-85425321D01*
X120985967Y-85352264D01*
X120985966Y-85352260D01*
X120930601Y-85269399D01*
X120847740Y-85214034D01*
X120847739Y-85214033D01*
X120847735Y-85214032D01*
X120774677Y-85199500D01*
X120774674Y-85199500D01*
X120425326Y-85199500D01*
X120425324Y-85199500D01*
X120352259Y-85214033D01*
X120329706Y-85229103D01*
X120311661Y-85234752D01*
X120295752Y-85244977D01*
X120264787Y-85249429D01*
X120263028Y-85249980D01*
X120260817Y-85250000D01*
X120124000Y-85250000D01*
X120056961Y-85230315D01*
X120011206Y-85177511D01*
X120000000Y-85126000D01*
X120000000Y-84874000D01*
X120019685Y-84806961D01*
X120072489Y-84761206D01*
X120124000Y-84750000D01*
X120260817Y-84750000D01*
X120327856Y-84769685D01*
X120329706Y-84770897D01*
X120352259Y-84785966D01*
X120425323Y-84800500D01*
X120425326Y-84800500D01*
X120774676Y-84800500D01*
X120774677Y-84800499D01*
X120847740Y-84785966D01*
X120930601Y-84730601D01*
X120985966Y-84647740D01*
X121000500Y-84574674D01*
X121000500Y-84197525D01*
X138949500Y-84197525D01*
X138949500Y-84342475D01*
X138987016Y-84482485D01*
X138987017Y-84482488D01*
X139059488Y-84608011D01*
X139059490Y-84608013D01*
X139059491Y-84608015D01*
X139161985Y-84710509D01*
X139161986Y-84710510D01*
X139161988Y-84710511D01*
X139287511Y-84782982D01*
X139287512Y-84782982D01*
X139287515Y-84782984D01*
X139427525Y-84820500D01*
X139427528Y-84820500D01*
X139572472Y-84820500D01*
X139572475Y-84820500D01*
X139712485Y-84782984D01*
X139838015Y-84710509D01*
X139940509Y-84608015D01*
X140012984Y-84482485D01*
X140050500Y-84342475D01*
X140050500Y-84197525D01*
X140012984Y-84057515D01*
X139988994Y-84015964D01*
X139940511Y-83931988D01*
X139940506Y-83931982D01*
X139838017Y-83829493D01*
X139838011Y-83829488D01*
X139712488Y-83757017D01*
X139712489Y-83757017D01*
X139701006Y-83753940D01*
X139572475Y-83719500D01*
X139427525Y-83719500D01*
X139298993Y-83753940D01*
X139287511Y-83757017D01*
X139161988Y-83829488D01*
X139161982Y-83829493D01*
X139059493Y-83931982D01*
X139059488Y-83931988D01*
X138987017Y-84057511D01*
X138987016Y-84057515D01*
X138949500Y-84197525D01*
X121000500Y-84197525D01*
X121000500Y-84025326D01*
X121000500Y-84025323D01*
X120987203Y-83958478D01*
X120985966Y-83952260D01*
X120971396Y-83930454D01*
X120965746Y-83912409D01*
X120955523Y-83896501D01*
X120951071Y-83865538D01*
X120950520Y-83863778D01*
X120950500Y-83861566D01*
X120950500Y-83846544D01*
X120970185Y-83779505D01*
X120986819Y-83758863D01*
X121858863Y-82886819D01*
X121920186Y-82853334D01*
X121946544Y-82850500D01*
X122020614Y-82850500D01*
X122087653Y-82870185D01*
X122108295Y-82886819D01*
X122161985Y-82940509D01*
X122161986Y-82940510D01*
X122161988Y-82940511D01*
X122287511Y-83012982D01*
X122287512Y-83012982D01*
X122287515Y-83012984D01*
X122427525Y-83050500D01*
X122427528Y-83050500D01*
X122572472Y-83050500D01*
X122572475Y-83050500D01*
X122712485Y-83012984D01*
X122838015Y-82940509D01*
X122940509Y-82838015D01*
X123012984Y-82712485D01*
X123050500Y-82572475D01*
X123050500Y-82427525D01*
X123012984Y-82287515D01*
X122973733Y-82219531D01*
X122940511Y-82161988D01*
X122940506Y-82161982D01*
X122838017Y-82059493D01*
X122838011Y-82059488D01*
X122712488Y-81987017D01*
X122712489Y-81987017D01*
X122701006Y-81983940D01*
X122572475Y-81949500D01*
X122427525Y-81949500D01*
X122298993Y-81983940D01*
X122287511Y-81987017D01*
X122161988Y-82059488D01*
X122161982Y-82059493D01*
X122108295Y-82113181D01*
X122046972Y-82146666D01*
X122020614Y-82149500D01*
X121703856Y-82149500D01*
X121614712Y-82173386D01*
X121614709Y-82173387D01*
X121534791Y-82219527D01*
X121534786Y-82219531D01*
X120604101Y-83150215D01*
X120542778Y-83183700D01*
X120473086Y-83178716D01*
X120428739Y-83150215D01*
X120338017Y-83059493D01*
X120338011Y-83059488D01*
X120212488Y-82987017D01*
X120212489Y-82987017D01*
X120201006Y-82983940D01*
X120072475Y-82949500D01*
X119927525Y-82949500D01*
X119798993Y-82983940D01*
X119787511Y-82987017D01*
X119661988Y-83059488D01*
X119661982Y-83059493D01*
X119559493Y-83161982D01*
X119559488Y-83161988D01*
X119487017Y-83287511D01*
X119487016Y-83287515D01*
X119449500Y-83427525D01*
X119449500Y-83427527D01*
X119449500Y-83503455D01*
X119429815Y-83570494D01*
X119413181Y-83591136D01*
X119226322Y-83777994D01*
X119164999Y-83811479D01*
X119162839Y-83811929D01*
X119152261Y-83814033D01*
X119069399Y-83869399D01*
X119014033Y-83952260D01*
X119014032Y-83952264D01*
X118999500Y-84025321D01*
X118999500Y-84574678D01*
X119014032Y-84647735D01*
X119014033Y-84647739D01*
X119014034Y-84647740D01*
X119069399Y-84730601D01*
X119111045Y-84758427D01*
X119155849Y-84812038D01*
X119164557Y-84881363D01*
X119134403Y-84944391D01*
X119085489Y-84977710D01*
X119007916Y-85006644D01*
X119007906Y-85006649D01*
X118892812Y-85092809D01*
X118892809Y-85092812D01*
X118806649Y-85207906D01*
X118806645Y-85207913D01*
X118756403Y-85342620D01*
X118756401Y-85342627D01*
X118750000Y-85402155D01*
X105500500Y-85402155D01*
X105500500Y-80002706D01*
X105500618Y-79997297D01*
X105503377Y-79934108D01*
X105517387Y-79613224D01*
X105518325Y-79602496D01*
X105568151Y-79224032D01*
X105570024Y-79213402D01*
X105652648Y-78840714D01*
X105655446Y-78830276D01*
X105770230Y-78466227D01*
X105773917Y-78456095D01*
X105920003Y-78103412D01*
X105924561Y-78093638D01*
X106100822Y-77755045D01*
X106106217Y-77745700D01*
X106311325Y-77423744D01*
X106317515Y-77414905D01*
X106549896Y-77112060D01*
X106556834Y-77103791D01*
X106814726Y-76822352D01*
X106822352Y-76814726D01*
X107103791Y-76556834D01*
X107112060Y-76549896D01*
X107414905Y-76317515D01*
X107423744Y-76311325D01*
X107745700Y-76106217D01*
X107755045Y-76100822D01*
X108093638Y-75924561D01*
X108103412Y-75920003D01*
X108456095Y-75773917D01*
X108466227Y-75770230D01*
X108830285Y-75655443D01*
X108840714Y-75652648D01*
X109213402Y-75570024D01*
X109224032Y-75568151D01*
X109602496Y-75518325D01*
X109613224Y-75517387D01*
X109997297Y-75500617D01*
X110002706Y-75500500D01*
X110065892Y-75500500D01*
X120776614Y-75500500D01*
X120843653Y-75520185D01*
G37*
%TD.AperFunction*%
%TA.AperFunction,Conductor*%
G36*
X151092859Y-106606738D02*
G01*
X151114948Y-106608318D01*
X151125731Y-106616390D01*
X151138653Y-106620185D01*
X151153152Y-106636918D01*
X151170881Y-106650190D01*
X151175588Y-106662810D01*
X151184408Y-106672989D01*
X151187559Y-106694906D01*
X151195298Y-106715654D01*
X151192435Y-106728814D01*
X151194352Y-106742147D01*
X151185152Y-106762290D01*
X151180446Y-106783927D01*
X151167177Y-106801652D01*
X151165327Y-106805703D01*
X151159295Y-106812181D01*
X151059493Y-106911982D01*
X151059488Y-106911988D01*
X150987017Y-107037511D01*
X150987016Y-107037515D01*
X150949500Y-107177525D01*
X150949500Y-107177527D01*
X150949500Y-107253456D01*
X150929815Y-107320495D01*
X150913181Y-107341137D01*
X150541137Y-107713181D01*
X150479814Y-107746666D01*
X150453456Y-107749500D01*
X149562050Y-107749500D01*
X149495011Y-107729815D01*
X149449256Y-107677011D01*
X149439312Y-107607853D01*
X149454663Y-107563500D01*
X149512982Y-107462488D01*
X149512981Y-107462488D01*
X149512984Y-107462485D01*
X149550500Y-107322475D01*
X149550500Y-107177525D01*
X149512984Y-107037515D01*
X149440509Y-106911985D01*
X149340705Y-106812181D01*
X149307220Y-106750858D01*
X149312204Y-106681166D01*
X149354076Y-106625233D01*
X149419540Y-106600816D01*
X149428386Y-106600500D01*
X151071614Y-106600500D01*
X151092859Y-106606738D01*
G37*
%TD.AperFunction*%
%TD*%
M02*
